<svg width="14" height="14" viewBox="0 0 14 14" fill="none" xmlns="http://www.w3.org/2000/svg">
<g clip-path="url(#clip0_5_24950)">
<path d="M11.0833 8.75H10.5C10.1774 8.75 9.91667 8.48925 9.91667 8.16667C9.91667 7.84408 10.1774 7.58333 10.5 7.58333H11.0833C11.4059 7.58333 11.6667 7.84408 11.6667 8.16667C11.6667 8.48925 11.4059 8.75 11.0833 8.75ZM11.6667 10.5C11.6667 10.1774 11.4059 9.91667 11.0833 9.91667H10.5C10.1774 9.91667 9.91667 10.1774 9.91667 10.5C9.91667 10.8226 10.1774 11.0833 10.5 11.0833H11.0833C11.4059 11.0833 11.6667 10.8226 11.6667 10.5ZM9.33333 3.5C9.33333 3.17742 9.07258 2.91667 8.75 2.91667H8.16667C7.84408 2.91667 7.58333 3.17742 7.58333 3.5C7.58333 3.82258 7.84408 4.08333 8.16667 4.08333H8.75C9.07258 4.08333 9.33333 3.82258 9.33333 3.5ZM11.6667 3.5C11.6667 3.17742 11.4059 2.91667 11.0833 2.91667H10.5C10.1774 2.91667 9.91667 3.17742 9.91667 3.5C9.91667 3.82258 10.1774 4.08333 10.5 4.08333H11.0833C11.4059 4.08333 11.6667 3.82258 11.6667 3.5ZM11.6667 5.83333C11.6667 5.51075 11.4059 5.25 11.0833 5.25H10.5C10.1774 5.25 9.91667 5.51075 9.91667 5.83333C9.91667 6.15592 10.1774 6.41667 10.5 6.41667H11.0833C11.4059 6.41667 11.6667 6.15592 11.6667 5.83333ZM14 11.0833V2.91667C14 1.30842 12.6916 0 11.0833 0H8.16667C6.55842 0 5.25 1.30842 5.25 2.91667C5.25 3.23925 5.51075 3.5 5.83333 3.5C6.15592 3.5 6.41667 3.23925 6.41667 2.91667C6.41667 1.95183 7.20183 1.16667 8.16667 1.16667H11.0833C12.0482 1.16667 12.8333 1.95183 12.8333 2.91667V11.0833C12.8333 12.0482 12.0482 12.8333 11.0833 12.8333H10.5C10.1774 12.8333 9.91667 13.0941 9.91667 13.4167C9.91667 13.7392 10.1774 14 10.5 14H11.0833C12.6916 14 14 12.6916 14 11.0833ZM9.33333 11.375V8.953C9.33333 8.05 8.92558 7.2135 8.21392 6.65583L6.46392 5.28558C5.40575 4.45842 3.92758 4.45783 2.86942 5.28558L1.11942 6.65525C0.40775 7.21233 0 8.04942 0 8.95242V11.3744C0 12.8217 1.17775 13.9994 2.625 13.9994H6.70833C8.15558 13.9994 9.33333 12.8222 9.33333 11.375ZM5.74525 6.20492L7.49525 7.57458C7.92167 7.90883 8.16667 8.41167 8.16667 8.953V11.375C8.16667 12.1794 7.51275 12.8333 6.70833 12.8333H2.625C1.82058 12.8333 1.16667 12.1794 1.16667 11.375V8.953C1.16667 8.41108 1.41167 7.90883 1.83808 7.57458L3.58808 6.2055C3.90542 5.957 4.28575 5.83275 4.66667 5.83275C5.04758 5.83275 5.42792 5.957 5.74525 6.20492ZM5.83333 10.5V9.33333C5.83333 9.01133 5.572 8.75 5.25 8.75H4.08333C3.76133 8.75 3.5 9.01133 3.5 9.33333V10.5C3.5 10.822 3.76133 11.0833 4.08333 11.0833H5.25C5.572 11.0833 5.83333 10.822 5.83333 10.5Z" fill="#A39898"/>
</g>
<defs>
<clipPath id="clip0_5_24950">
<rect width="14" height="14" fill="white"/>
</clipPath>
</defs>
</svg>
