<svg width="10" height="9" viewBox="0 0 10 9" fill="none" xmlns="http://www.w3.org/2000/svg">
<path d="M0 0.928711H9.53V1.09922H0V0.928711Z" fill="#FF5555"/>
<path d="M9.41617 8.43529H0.0482178V8.35804C0.0482178 7.9403 0.365318 7.60156 0.757398 7.60156H8.70787C9.09923 7.60156 9.41646 7.9402 9.41646 8.35804L9.41617 8.43529Z" fill="#FF5555"/>
<path d="M7.9281 2.23392V1.57715H9.13077V2.23392L8.52914 2.52627L7.9281 2.23392Z" fill="#FF5555"/>
<path d="M3.03845 6.38479V3.71202C3.03845 3.63581 2.98006 3.57384 2.90792 3.57384H1.70144C1.62978 3.57384 1.57067 3.63581 1.57067 3.71202V6.38505C1.57067 6.46106 1.62966 6.52219 1.70144 6.52219H2.90792C2.98019 6.52208 3.03845 6.46095 3.03845 6.38495V6.38479ZM3.81915 6.07942C3.81915 6.2177 3.92595 6.32926 4.05648 6.32926H7.94236C8.07289 6.32926 8.17982 6.21781 8.17982 6.07942V3.8234C8.17982 3.68533 8.07302 3.57388 7.94236 3.57388H4.05648C3.92596 3.57388 3.81915 3.68533 3.81915 3.8234V6.07942ZM0.767456 7.32901V2.76758H8.76261V7.32901H0.767456Z" fill="#FF5555"/>
<path d="M7.60392 1.57715V2.23392L7.00288 2.52627L6.40112 2.23392V1.57715H7.60392Z" fill="#FF5555"/>
<path d="M1.71606 0.739417C1.31801 0.739417 1.20108 0.196704 1.56383 0.0327974C1.61167 0.0111805 1.66356 0 1.71606 0H2.99957C3.13351 0 3.24208 0.108576 3.24208 0.242511C3.24208 0.376446 3.35066 0.485022 3.48459 0.485022H3.82306C3.957 0.485022 4.06557 0.376446 4.06557 0.242511C4.06557 0.108576 4.17415 0 4.30808 0H5.2311C5.36504 0 5.47361 0.108576 5.47361 0.242511C5.47361 0.376446 5.58219 0.485022 5.71613 0.485022H6.05447C6.1884 0.485022 6.29698 0.376446 6.29698 0.242511C6.29698 0.108576 6.40556 0 6.53949 0H7.74827C7.80077 0 7.85266 0.0111804 7.90051 0.0327974C8.26325 0.196704 8.14633 0.739417 7.74827 0.739417H1.71606Z" fill="#FF5555"/>
<path d="M4.85254 2.23392V1.57715H6.05606V2.23392L5.4543 2.52627L4.85254 2.23392Z" fill="#FF5555"/>
<path d="M3.32568 2.23392V1.57715H4.52848V2.23392L3.92659 2.52627L3.32568 2.23392Z" fill="#FF5555"/>
<path d="M6.68612 4.48016C6.68612 4.45167 6.64643 4.42963 6.598 4.42963C6.54884 4.42963 6.50914 4.45167 6.50914 4.48016C6.50914 4.50792 6.54884 4.53069 6.598 4.53069C6.64643 4.53069 6.68612 4.50781 6.68612 4.48016ZM5.36681 4.42963C5.36681 4.45739 5.40651 4.48016 5.45568 4.48016C5.5041 4.48016 5.5438 4.45739 5.5438 4.42963C5.5438 4.40177 5.5041 4.3791 5.45568 4.3791C5.40651 4.3791 5.36681 4.40187 5.36681 4.42963ZM5.94548 4.3816C5.99391 4.3816 6.03434 4.35956 6.03434 4.33107C6.03434 4.3032 5.99403 4.28054 5.94548 4.28054C5.89705 4.28054 5.85735 4.30321 5.85735 4.33107C5.85735 4.35935 5.89693 4.3816 5.94548 4.3816ZM6.12247 4.48016C6.0733 4.48016 6.03434 4.50282 6.03434 4.53069C6.03434 4.55855 6.0733 4.58121 6.12247 4.58121C6.17089 4.58121 6.21059 4.55855 6.21059 4.53069C6.21047 4.50272 6.17089 4.48016 6.12247 4.48016ZM4.91687 4.68165C4.91687 4.41392 5.39979 4.19727 5.99551 4.19727C6.59126 4.19727 7.07355 4.41394 7.07355 4.68165C7.07355 4.94874 4.91687 4.94874 4.91687 4.68165Z" fill="#FF5555"/>
<path d="M6.50914 5.38424C6.50914 5.41211 6.54884 5.43477 6.59801 5.43477C6.64643 5.43477 6.68613 5.41211 6.68613 5.38424C6.68613 5.35648 6.64643 5.33372 6.59801 5.33372C6.54884 5.33372 6.50914 5.35638 6.50914 5.38424ZM5.94549 5.54716C5.99391 5.54716 6.03435 5.5245 6.03435 5.49663C6.03435 5.46815 5.99404 5.44611 5.94549 5.44611C5.89706 5.44611 5.85736 5.46815 5.85736 5.49663C5.85736 5.52439 5.89694 5.54716 5.94549 5.54716ZM5.99551 5.63054C5.39976 5.63054 4.91687 5.41398 4.91687 5.14616C4.91687 5.14304 4.91761 5.1393 4.91822 5.13545C5.16527 5.28132 5.53339 5.37406 5.94548 5.37406C6.39706 5.37406 6.7965 5.26292 7.0406 5.0918C7.06224 5.10874 7.07379 5.12652 7.07379 5.14607C7.07354 5.41399 6.59126 5.63054 5.99551 5.63054ZM5.36685 5.43467C5.36685 5.46253 5.40654 5.48519 5.45571 5.48519C5.50413 5.48519 5.54383 5.46243 5.54383 5.43467C5.54383 5.40691 5.50413 5.38414 5.45571 5.38414C5.40654 5.38424 5.36685 5.40691 5.36685 5.43467Z" fill="#FF5555"/>
<path d="M4.85642 4.82085C4.98695 4.95154 5.43644 5.04813 5.97181 5.04813C6.54654 5.04813 7.0238 4.93637 7.1102 4.79102C7.13503 4.81576 7.14842 4.84217 7.14842 4.86868C7.14842 5.03721 6.63247 5.17362 5.99565 5.17362C5.35884 5.17362 4.84229 5.03711 4.84229 4.86868C4.84216 4.85246 4.84745 4.83666 4.85642 4.82085Z" fill="#FF5555"/>
<path d="M2.99125 1.57715V2.23392L2.38961 2.52627L1.78857 2.23392V1.57715H2.99125Z" fill="#FF5555"/>
<path d="M2.01532 5.20461C2.01532 5.3928 1.68164 5.3928 1.68164 5.20461C1.68164 5.01643 2.01532 5.01643 2.01532 5.20461Z" fill="#FF5555"/>
<path d="M0.261353 2.23392V1.57715H1.46462V2.23392L0.863113 2.52627L0.261353 2.23392Z" fill="#FF5555"/>
<path d="M0 1.24805H9.53V1.41918H0V1.24805Z" fill="#FF5555"/>
</svg>
