<svg width="12" height="13" viewBox="0 0 12 13" fill="none" xmlns="http://www.w3.org/2000/svg">
<path d="M3.35001 10.0469H2.07501C1.15501 10.0469 0.625 9.51686 0.625 8.59686V2.74689C0.625 1.82689 1.15501 1.29688 2.07501 1.29688H4.22501C5.14501 1.29688 5.67499 1.82689 5.67499 2.74689V3.67187C5.67499 3.87687 5.50499 4.04687 5.29999 4.04687C5.09499 4.04687 4.92499 3.87687 4.92499 3.67187V2.74689C4.92499 2.23689 4.73501 2.04687 4.22501 2.04687H2.07501C1.56501 2.04687 1.375 2.23689 1.375 2.74689V8.59686C1.375 9.10686 1.56501 9.29687 2.07501 9.29687H3.35001C3.55501 9.29687 3.72501 9.46687 3.72501 9.67187C3.72501 9.87687 3.55501 10.0469 3.35001 10.0469Z" fill="#A39898"/>
<path d="M7.47961 12.0469H4.5596C3.5546 12.0469 2.97461 11.4669 2.97461 10.4619V4.88187C2.97461 3.87687 3.5546 3.29688 4.5596 3.29688H7.47961C8.48461 3.29688 9.0596 3.87687 9.0596 4.88187V10.4619C9.0596 11.4669 8.48461 12.0469 7.47961 12.0469ZM4.5596 4.04687C3.9596 4.04687 3.72461 4.28187 3.72461 4.88187V10.4619C3.72461 11.0619 3.9596 11.2969 4.5596 11.2969H7.47961C8.07462 11.2969 8.3096 11.0619 8.3096 10.4619V4.88187C8.3096 4.28187 8.07462 4.04687 7.47961 4.04687H4.5596Z" fill="#A39898"/>
<path d="M9.92517 10.0469H8.68518C8.48018 10.0469 8.31018 9.87687 8.31018 9.67187C8.31018 9.46687 8.48018 9.29687 8.68518 9.29687H9.92517C10.4352 9.29687 10.6252 9.10686 10.6252 8.59686V2.74689C10.6252 2.23689 10.4352 2.04687 9.92517 2.04687H7.77518C7.26518 2.04687 7.0752 2.23689 7.0752 2.74689V3.67187C7.0752 3.87687 6.9052 4.04687 6.7002 4.04687C6.4952 4.04687 6.3252 3.87687 6.3252 3.67187V2.74689C6.3252 1.82689 6.85518 1.29688 7.77518 1.29688H9.92517C10.8452 1.29688 11.3752 1.82689 11.3752 2.74689V8.59686C11.3752 9.51686 10.8452 10.0469 9.92517 10.0469Z" fill="#A39898"/>
<path d="M7 6.54688H5C4.795 6.54688 4.625 6.37687 4.625 6.17188C4.625 5.96688 4.795 5.79688 5 5.79688H7C7.205 5.79688 7.375 5.96688 7.375 6.17188C7.375 6.37687 7.205 6.54688 7 6.54688Z" fill="#A39898"/>
<path d="M7 8.04688H5C4.795 8.04688 4.625 7.87687 4.625 7.67188C4.625 7.46688 4.795 7.29688 5 7.29688H7C7.205 7.29688 7.375 7.46688 7.375 7.67188C7.375 7.87687 7.205 8.04688 7 8.04688Z" fill="#A39898"/>
<path d="M6 12.0469C5.795 12.0469 5.625 11.8769 5.625 11.6719V10.1719C5.625 9.96688 5.795 9.79688 6 9.79688C6.205 9.79688 6.375 9.96688 6.375 10.1719V11.6719C6.375 11.8769 6.205 12.0469 6 12.0469Z" fill="#A39898"/>
</svg>
