<svg width="12" height="13" viewBox="0 0 12 13" fill="none" xmlns="http://www.w3.org/2000/svg">
<path d="M11 12.0469H1C0.795 12.0469 0.625 11.8769 0.625 11.6719C0.625 11.4669 0.795 11.2969 1 11.2969H11C11.205 11.2969 11.375 11.4669 11.375 11.6719C11.375 11.8769 11.205 12.0469 11 12.0469Z" fill="#A39898"/>
<path d="M10.5 12.0469H1.5C1.295 12.0469 1.125 11.8769 1.125 11.6719V3.67188C1.125 2.16188 1.99 1.29688 3.5 1.29688H8.5C10.01 1.29688 10.875 2.16188 10.875 3.67188V11.6719C10.875 11.8769 10.705 12.0469 10.5 12.0469ZM1.875 11.2969H10.125V3.67188C10.125 2.56188 9.61 2.04688 8.5 2.04688H3.5C2.39 2.04688 1.875 2.56188 1.875 3.67188V11.2969Z" fill="#A39898"/>
<path d="M5 9.29688H3.5C3.295 9.29688 3.125 9.12687 3.125 8.92188C3.125 8.71688 3.295 8.54688 3.5 8.54688H5C5.205 8.54688 5.375 8.71688 5.375 8.92188C5.375 9.12687 5.205 9.29688 5 9.29688Z" fill="#A39898"/>
<path d="M8.5 9.29688H7C6.795 9.29688 6.625 9.12687 6.625 8.92188C6.625 8.71688 6.795 8.54688 7 8.54688H8.5C8.705 8.54688 8.875 8.71688 8.875 8.92188C8.875 9.12687 8.705 9.29688 8.5 9.29688Z" fill="#A39898"/>
<path d="M5 7.04688H3.5C3.295 7.04688 3.125 6.87687 3.125 6.67188C3.125 6.46688 3.295 6.29688 3.5 6.29688H5C5.205 6.29688 5.375 6.46688 5.375 6.67188C5.375 6.87687 5.205 7.04688 5 7.04688Z" fill="#A39898"/>
<path d="M8.5 7.04688H7C6.795 7.04688 6.625 6.87687 6.625 6.67188C6.625 6.46688 6.795 6.29688 7 6.29688H8.5C8.705 6.29688 8.875 6.46688 8.875 6.67188C8.875 6.87687 8.705 7.04688 8.5 7.04688Z" fill="#A39898"/>
<path d="M5 4.79688H3.5C3.295 4.79688 3.125 4.62687 3.125 4.42188C3.125 4.21688 3.295 4.04688 3.5 4.04688H5C5.205 4.04688 5.375 4.21688 5.375 4.42188C5.375 4.62687 5.205 4.79688 5 4.79688Z" fill="#A39898"/>
<path d="M8.5 4.79688H7C6.795 4.79688 6.625 4.62687 6.625 4.42188C6.625 4.21688 6.795 4.04688 7 4.04688H8.5C8.705 4.04688 8.875 4.21688 8.875 4.42188C8.875 4.62687 8.705 4.79688 8.5 4.79688Z" fill="#A39898"/>
</svg>
