<svg width="13" height="13" viewBox="0 0 13 13" fill="none" xmlns="http://www.w3.org/2000/svg">
<path d="M12.3698 9.61115L10.4824 8.29231C10.2356 8.12016 9.94707 8.0294 9.64791 8.0294C9.17221 8.0294 8.72567 8.26272 8.45368 8.6531L8.01554 9.28108C7.28123 8.78854 6.46184 8.10081 5.68073 7.31976C4.89975 6.5387 4.21224 5.71923 3.7199 4.98483L4.34752 4.54664C4.66745 4.32385 4.88112 3.99008 4.94897 3.6071C5.01668 3.22439 4.93133 2.8377 4.70828 2.5176L3.38987 0.629968C3.11418 0.235598 2.66935 0 2.19977 0C2.03703 0 1.87742 0.0287384 1.72549 0.0847925C1.55294 0.148529 1.39219 0.226777 1.23458 0.325797L0.973967 0.509324C0.908815 0.559972 0.848215 0.615457 0.790175 0.673503C0.472237 0.991332 0.246622 1.39367 0.119305 1.86942C-0.423963 3.90615 0.921902 6.98599 3.46825 9.53261C5.60661 11.6712 8.17558 12.9997 10.1724 13C10.5144 13 10.8369 12.9602 11.1308 12.8816C11.6065 12.7544 12.0088 12.5288 12.3268 12.2107C12.3846 12.1529 12.4398 12.0923 12.499 12.0158L12.6826 11.7537C12.7724 11.6103 12.8505 11.4495 12.9151 11.2757C13.1371 10.6753 12.9129 9.99072 12.3698 9.61115Z" fill="#816868" fill-opacity="0.4"/>
</svg>
