<svg width="16" height="17" viewBox="0 0 16 17" fill="none" xmlns="http://www.w3.org/2000/svg">
<rect y="0.304688" width="16" height="16" rx="8" fill="#816868" fill-opacity="0.4"/>
<path d="M11.8139 4.4908C11.6947 4.37163 11.533 4.30469 11.3645 4.30469C11.1959 4.30469 11.0343 4.37163 10.9151 4.4908L8 7.40588L5.08492 4.4908C4.96571 4.37163 4.80406 4.30469 4.63551 4.30469C4.46696 4.30469 4.30531 4.37163 4.18611 4.4908C4.06694 4.61 4 4.77165 4 4.9402C4 5.10875 4.06694 5.2704 4.18611 5.3896L7.10119 8.30469L4.18611 11.2198C4.06694 11.339 4 11.5006 4 11.6692C4 11.8377 4.06694 11.9994 4.18611 12.1186C4.30531 12.2377 4.46696 12.3047 4.63551 12.3047C4.80406 12.3047 4.96571 12.2377 5.08492 12.1186L8 9.20349L10.9151 12.1186C11.0343 12.2377 11.1959 12.3047 11.3645 12.3047C11.533 12.3047 11.6947 12.2377 11.8139 12.1186C11.9331 11.9994 12 11.8377 12 11.6692C12 11.5006 11.9331 11.339 11.8139 11.2198L8.89881 8.30469L11.8139 5.3896C11.9331 5.2704 12 5.10875 12 4.9402C12 4.77165 11.9331 4.61 11.8139 4.4908Z" fill="white"/>
</svg>
