<svg width="14" height="14" viewBox="0 0 14 14" fill="none" xmlns="http://www.w3.org/2000/svg">
<g clip-path="url(#clip0_5_25031)">
<path d="M9.91667 5.83333C7.665 5.83333 5.83333 7.665 5.83333 9.91667C5.83333 12.1683 7.665 14 9.91667 14C12.1683 14 14 12.1683 14 9.91667C14 7.665 12.1683 5.83333 9.91667 5.83333ZM9.91667 12.8333C8.30667 12.8333 7 11.5267 7 9.91667C7 8.30667 8.30667 7 9.91667 7C11.5267 7 12.8333 8.30667 12.8333 9.91667C12.8333 11.5267 11.5267 12.8333 9.91667 12.8333ZM10.7917 8.45833C10.7917 8.9425 10.4008 9.33333 9.91667 9.33333C9.4325 9.33333 9.04167 8.9425 9.04167 8.45833C9.04167 7.97417 9.4325 7.58333 9.91667 7.58333C10.4008 7.58333 10.7917 7.97417 10.7917 8.45833ZM10.5 10.5V11.6667C10.5 11.9875 10.2375 12.25 9.91667 12.25C9.59583 12.25 9.33333 11.9875 9.33333 11.6667V10.5C9.33333 10.1792 9.59583 9.91667 9.91667 9.91667C10.2375 9.91667 10.5 10.1792 10.5 10.5ZM5.25 12.25C5.25 12.5708 4.9875 12.8333 4.66667 12.8333H2.91667C1.30667 12.8333 0 11.5267 0 9.91667V2.91667C0 1.30667 1.30667 0 2.91667 0H6.27667C6.88917 0 7.49 0.250833 7.9275 0.6825L9.8175 2.5725C10.2083 2.96333 10.4475 3.4825 10.4942 4.03083C10.5175 4.35167 10.2783 4.63167 9.9575 4.66083C9.94 4.66083 9.92833 4.66083 9.91083 4.66083C9.6075 4.66083 9.35667 4.4275 9.3275 4.12417C9.3275 4.10667 9.3275 4.095 9.3275 4.0775H7.58917C6.9475 4.0775 6.4225 3.5525 6.4225 2.91083V1.17833C6.37583 1.17833 6.32917 1.16667 6.2825 1.16667H2.91667C1.95417 1.16667 1.16667 1.95417 1.16667 2.91667V9.91667C1.16667 10.8792 1.95417 11.6667 2.91667 11.6667H4.66667C4.9875 11.6667 5.25 11.9292 5.25 12.25Z" fill="#A39898"/>
</g>
<defs>
<clipPath id="clip0_5_25031">
<rect width="14" height="14" fill="white"/>
</clipPath>
</defs>
</svg>
