<svg width="20" height="20" viewBox="0 0 20 20" fill="none" xmlns="http://www.w3.org/2000/svg">
<path fill-rule="evenodd" clip-rule="evenodd" d="M15.2139 12.0345C17.1399 11.7556 18.5704 10.1039 18.5715 8.15475C18.5728 5.9872 16.8179 4.23031 14.6537 4.23031C14.1468 4.23142 13.6457 4.33097 13.1782 4.52297C12.7406 3.70586 11.9893 3.05875 11.0357 2.77408C9.37372 2.27742 7.62372 3.03808 6.83083 4.52386C6.36328 4.32964 5.86194 4.23142 5.35483 4.23031C3.19194 4.23031 1.4375 5.9872 1.4375 8.15475C1.44061 10.103 2.8715 11.7545 4.7975 12.0334V16.5681C5.40172 17.0919 7.94083 17.3805 10.0059 17.3805C12.0693 17.3805 14.6086 17.0919 15.2142 16.5681L15.2139 12.0345Z" fill="#F2F2F2"/>
<path fill-rule="evenodd" clip-rule="evenodd" d="M12.9696 8.62801C13.4927 7.3249 13.6594 6.75201 13.575 5.52734C15.8665 4.91267 16.7414 6.62112 16.4614 7.80645C16.1872 8.96912 14.8734 9.88623 12.9696 8.62801ZM10.0981 2.62334C9.28318 2.60156 8.49496 2.86067 7.85629 3.33645C9.83985 2.80401 11.4034 4.7289 10.1998 6.78223C9.26118 8.3829 5.66984 8.65023 6.27273 5.98934C5.59451 6.3469 5.24607 7.32512 5.3134 8.27734C5.38162 9.25223 5.98918 9.52379 6.62562 9.3969C9.18229 8.88756 13.4141 8.04356 13.4141 11.7511V16.5693H15.2136V12.0342C17.1396 11.7553 18.5701 10.1036 18.5712 8.15445C18.5725 5.9869 16.8176 4.23001 14.6534 4.23001C14.2461 4.23112 13.8432 4.29823 13.4578 4.42312C13.3643 4.45334 13.2692 4.48556 13.1778 4.52267C12.7403 3.70556 11.989 3.05845 11.0354 2.77378C10.7241 2.68023 10.4094 2.63156 10.0981 2.62334Z" fill="#CCCCCC"/>
<path fill-rule="evenodd" clip-rule="evenodd" d="M10.0043 15.7563C7.94056 15.7563 5.40145 16.0446 4.7959 16.5677C5.40123 17.0915 7.94034 17.3801 10.0043 17.3801C12.069 17.3801 14.6083 17.0915 15.2126 16.5677C14.6083 16.0446 12.069 15.7563 10.0043 15.7563Z" fill="#A8A8A8"/>
<path fill-rule="evenodd" clip-rule="evenodd" d="M10.0045 16.009C11.0252 16.009 12.1685 16.0792 13.1212 16.215C13.5981 16.2835 14.0299 16.3597 14.3665 16.4635C14.6861 16.5619 14.5785 16.6143 14.3665 16.673C14.0276 16.7681 13.5983 16.8537 13.1212 16.9208C12.1685 17.0559 11.0252 17.129 10.0045 17.129C8.98452 17.129 7.8423 17.0561 6.88986 16.9208C6.41297 16.8537 5.98341 16.7692 5.64452 16.673C5.40052 16.5977 5.46052 16.5437 5.64452 16.4635C5.98341 16.3677 6.41319 16.2832 6.88986 16.215C7.84252 16.0792 8.98475 16.009 10.0045 16.009ZM9.99875 2.87367C10.3181 2.87367 10.6423 2.91878 10.963 3.01501C11.8194 3.27056 12.5001 3.83901 12.9132 4.56101L12.9907 4.71167C13.3412 5.40256 13.4594 6.21523 13.2627 7.02412C13.1796 7.35523 13.6783 7.47523 13.7534 7.1419C13.9619 6.28345 13.8623 5.41878 13.5265 4.66523C13.8901 4.54612 14.271 4.48234 14.6539 4.48123C16.6816 4.48123 18.3205 6.12367 18.3205 8.15456C18.3181 9.88145 17.1214 11.3537 15.465 11.7288V10.5819C15.4674 10.4406 15.3519 10.325 15.2105 10.3261C15.0703 10.3286 14.9581 10.443 14.9605 10.5819V16.1339C14.8239 16.0759 14.6725 16.025 14.5032 15.9777C14.131 15.8721 13.6841 15.7868 13.1923 15.7172C12.2083 15.577 11.0487 15.5055 10.0047 15.5055C8.96052 15.5055 7.80208 15.577 6.8183 15.7172C6.32652 15.7868 5.87852 15.8721 5.50697 15.9777C5.33675 16.025 5.1863 16.077 5.04852 16.1339V10.5808C5.05075 10.4379 4.93497 10.3226 4.79386 10.325C4.65386 10.327 4.54275 10.4419 4.54497 10.5808V11.7277C2.88875 11.3539 1.69208 9.88167 1.68963 8.15456C1.68963 6.12345 3.3283 4.48123 5.3563 4.48123C5.73808 4.48234 6.11808 4.54612 6.4803 4.66523C6.44075 4.75323 6.40497 4.84478 6.37141 4.93723C6.2523 5.2579 6.73808 5.43167 6.84697 5.10634C7.3343 3.73701 8.61675 2.87478 9.99875 2.87367ZM9.99986 2.37012C9.87719 2.37012 9.75675 2.37678 9.63541 2.38834C8.44563 2.50434 7.35497 3.17323 6.71875 4.2139C6.27986 4.06101 5.82075 3.97878 5.35652 3.97767C3.05586 3.97767 1.18652 5.85167 1.18652 8.15456C1.18875 10.1479 2.61452 11.8199 4.54519 12.2103V16.5679C4.54052 16.679 4.61919 16.7597 4.71408 16.8166C4.9283 16.9437 5.17963 17.0655 5.50697 17.1592C5.87852 17.2643 6.32652 17.3501 6.8183 17.4197C7.80208 17.5597 8.96052 17.6326 10.0047 17.6326C11.0485 17.6326 12.2083 17.5597 13.1923 17.4197C13.6841 17.3501 14.131 17.2643 14.5032 17.1592C14.845 17.0619 15.1074 16.9395 15.3227 16.7981C15.4303 16.7277 15.465 16.6617 15.465 16.5679V12.2115C17.3967 11.8212 18.8216 10.1479 18.8239 8.15456C18.8239 5.85167 16.9547 3.97767 14.6539 3.97767C14.1874 3.97878 13.727 4.06212 13.2881 4.21567C12.8079 3.43145 12.0507 2.81434 11.1074 2.53323C10.7394 2.42212 10.3665 2.37012 9.99986 2.37012Z" fill="#284268"/>
<path fill-rule="evenodd" clip-rule="evenodd" d="M10.0047 8.68262C8.97562 8.68262 7.92118 8.81217 6.98718 9.03573C6.85051 9.06795 6.76718 9.20328 6.7994 9.33862C6.83095 9.47417 6.96762 9.55862 7.10295 9.5264C7.99718 9.31217 9.01851 9.18617 10.0045 9.18617C10.9918 9.18617 12.0125 9.31217 12.9074 9.5264C13.0427 9.55884 13.1783 9.47439 13.2105 9.33862C13.243 9.20328 13.1585 9.06773 13.023 9.03573C12.0881 8.81217 11.0334 8.68262 10.0047 8.68262Z" fill="#284268"/>
</svg>
