<svg width="10" height="10" viewBox="0 0 10 10" fill="none" xmlns="http://www.w3.org/2000/svg">
<g clip-path="url(#clip0_85_1774)">
<path d="M8.94775 2.63123C8.74064 2.73142 8.65397 2.98065 8.75417 3.18766C9.02791 3.75315 9.16667 4.36269 9.16667 5C9.16667 7.29746 7.29746 9.16667 5 9.16667C2.70253 9.16667 0.833333 7.29746 0.833333 5C0.833333 2.70253 2.70253 0.833333 5 0.833333C5.95205 0.833333 6.84642 1.14421 7.58667 1.73228C7.76621 1.87561 8.02877 1.8456 8.1721 1.66545C8.31543 1.48539 8.28542 1.22314 8.10516 1.08002C7.2288 0.383504 6.126 0 5 0C2.24314 0 0 2.24314 0 5C0 7.75686 2.24314 10 5 10C7.75686 10 10 7.75686 10 5C10 4.23604 9.83317 3.50393 9.50419 2.82481C9.40419 2.61729 9.15415 2.53082 8.94775 2.63123Z" fill="white"/>
<path d="M5.00016 1.66699C4.77016 1.66699 4.5835 1.85366 4.5835 2.08366V5.00033C4.5835 5.23033 4.77016 5.41699 5.00016 5.41699H7.0835C7.3135 5.41699 7.50016 5.23033 7.50016 5.00033C7.50016 4.77032 7.3135 4.58366 7.0835 4.58366H5.41683V2.08366C5.41683 1.85366 5.23016 1.66699 5.00016 1.66699Z" fill="white"/>
</g>
<defs>
<clipPath id="clip0_85_1774">
<rect width="10" height="10" fill="white"/>
</clipPath>
</defs>
</svg>
