<svg width="16" height="16" viewBox="0 0 16 16" fill="none" xmlns="http://www.w3.org/2000/svg">
<rect width="16" height="16" rx="8" fill="#816868" fill-opacity="0.4"/>
<path d="M11.8139 4.18611C11.6947 4.06694 11.533 4 11.3645 4C11.1959 4 11.0343 4.06694 10.9151 4.18611L8 7.10119L5.08492 4.18611C4.96571 4.06694 4.80406 4 4.63551 4C4.46696 4 4.30531 4.06694 4.18611 4.18611C4.06694 4.30531 4 4.46696 4 4.63551C4 4.80406 4.06694 4.96571 4.18611 5.08492L7.10119 8L4.18611 10.9151C4.06694 11.0343 4 11.1959 4 11.3645C4 11.533 4.06694 11.6947 4.18611 11.8139C4.30531 11.9331 4.46696 12 4.63551 12C4.80406 12 4.96571 11.9331 5.08492 11.8139L8 8.89881L10.9151 11.8139C11.0343 11.9331 11.1959 12 11.3645 12C11.533 12 11.6947 11.9331 11.8139 11.8139C11.9331 11.6947 12 11.533 12 11.3645C12 11.1959 11.9331 11.0343 11.8139 10.9151L8.89881 8L11.8139 5.08492C11.9331 4.96571 12 4.80406 12 4.63551C12 4.46696 11.9331 4.30531 11.8139 4.18611Z" fill="white"/>
</svg>
