<svg width="24" height="24" viewBox="0 0 24 24" fill="none" xmlns="http://www.w3.org/2000/svg">
<path fill-rule="evenodd" clip-rule="evenodd" d="M6.75 6.75H6C5.0055 6.75 4.0515 7.14525 3.348 7.848C2.64525 8.5515 2.25 9.5055 2.25 10.5V18C2.25 18.9945 2.64525 19.9485 3.348 20.652C4.0515 21.3547 5.0055 21.75 6 21.75H13.5C14.4945 21.75 15.4485 21.3547 16.152 20.652C16.8547 19.9485 17.25 18.9945 17.25 18V17.25H18C18.9945 17.25 19.9485 16.8547 20.652 16.152C21.3547 15.4485 21.75 14.4945 21.75 13.5C21.75 11.2673 21.75 8.23275 21.75 6C21.75 5.0055 21.3547 4.0515 20.652 3.348C19.9485 2.64525 18.9945 2.25 18 2.25C15.7673 2.25 12.7327 2.25 10.5 2.25C9.5055 2.25 8.5515 2.64525 7.848 3.348C7.14525 4.0515 6.75 5.0055 6.75 6V6.75ZM15.75 10.5V18C15.75 18.597 15.513 19.1693 15.0907 19.5907C14.6693 20.013 14.097 20.25 13.5 20.25C11.2673 20.25 8.23275 20.25 6 20.25C5.403 20.25 4.83075 20.013 4.40925 19.5907C3.987 19.1693 3.75 18.597 3.75 18C3.75 15.7673 3.75 12.7327 3.75 10.5C3.75 9.903 3.987 9.33075 4.40925 8.90925C4.83075 8.487 5.403 8.25 6 8.25H13.5C14.097 8.25 14.6693 8.487 15.0907 8.90925C15.513 9.33075 15.75 9.903 15.75 10.5ZM17.25 15.75H18C18.597 15.75 19.1693 15.513 19.5907 15.0907C20.013 14.6693 20.25 14.097 20.25 13.5C20.25 11.2673 20.25 8.23275 20.25 6C20.25 5.403 20.013 4.83075 19.5907 4.40925C19.1693 3.987 18.597 3.75 18 3.75C15.7673 3.75 12.7327 3.75 10.5 3.75C9.903 3.75 9.33075 3.987 8.90925 4.40925C8.487 4.83075 8.25 5.403 8.25 6V6.75H13.5C14.4945 6.75 15.4485 7.14525 16.152 7.848C16.8547 8.5515 17.25 9.5055 17.25 10.5V15.75Z" fill="#FF5555"/>
</svg>
