<svg width="46" height="46" viewBox="0 0 46 46" fill="none" xmlns="http://www.w3.org/2000/svg">
<mask id="mask0_5_25898" style="mask-type:alpha" maskUnits="userSpaceOnUse" x="0" y="0" width="46" height="46">
<circle cx="23" cy="23" r="23" fill="#BF7777"/>
</mask>
<g mask="url(#mask0_5_25898)">
<circle cx="23" cy="23" r="23" fill="#FFE6E2"/>
<g clip-path="url(#clip0_5_25898)">
<path d="M15.3078 35.6381C20.8417 39.791 39.6905 45.1109 34.9492 29.7815C32.9554 23.3351 41.1967 19.3487 32.9135 14.472C24.6302 9.5952 6.6293 29.1252 15.3078 35.6381Z" fill="#F6DAFB"/>
<path d="M15.3218 19.9613L25.6059 10.3936L26.5761 17.6106L16.1223 25.9163L15.3218 19.9613Z" fill="white"/>
<path d="M14.7666 25.7005C14.7666 25.7005 14.5006 25.5256 14.4597 25.0958C14.4192 24.666 14.5784 24.1756 15.0291 24.1582L14.7666 25.7005Z" fill="#FFDDCC"/>
<path d="M16.7874 24.1801C16.7874 24.1801 15.0671 23.718 14.7033 24.4579C14.3399 25.1972 14.7547 26.5626 16.6721 26.7683L16.7869 24.1806L16.7874 24.1801Z" fill="#F0B69E"/>
<path d="M14.6991 23.119C14.6991 23.119 14.0607 23.0311 14.0562 22.3529C14.0522 21.8143 14.183 21.5206 14.8019 21.4014L14.6991 23.119Z" fill="#FFDDCC"/>
<path d="M15.6301 23.4132C15.6301 23.4132 14.4757 23.4132 14.2257 22.423C13.9757 21.4322 15.5787 21.1162 15.5787 21.1162L15.6306 23.4132H15.6301Z" fill="#F0B69E"/>
<path d="M27.3477 10.4338C27.3477 10.4338 27.2714 9.88181 27.8887 9.9787L28.2071 10.6276L27.3477 10.4338Z" fill="#CCAFA3"/>
<path d="M41.0002 43.0519C41.0002 43.0519 37.573 48.8126 32.1759 44.2275C32.089 44.1534 31.6953 40.7777 31.6953 40.7777C31.6953 40.7777 28.4652 39.2245 27.6587 37.5272C27.0872 36.3248 25.6184 34.6434 24.5494 33.7599H24.5489C24.1097 33.3967 23.7384 33.1681 23.5243 33.1637C22.7887 33.1463 20.9955 32.8094 19.0376 33.4543C18.9597 33.4797 18.8833 33.5015 18.8085 33.5189C18.5365 33.583 18.2839 33.5969 18.0514 33.5731C16.9943 33.4653 16.3585 32.5784 16.2941 32.0974C16.2781 31.9791 16.2966 31.8857 16.352 31.8336C16.6944 31.5116 18.6967 30.9139 18.6967 30.9139L23.2019 25.8721L23.9934 24.9862C23.9934 24.9862 25.844 22.7428 26.6291 22.5615C27.4146 22.3801 27.9422 20.5049 27.752 19.3785C27.5624 18.2516 26.6081 14.8848 26.4175 12.6062C26.3905 12.2842 26.4015 12.002 26.4414 11.757C26.4414 11.756 26.4414 11.7551 26.4419 11.7541C26.685 10.263 27.9831 10.1184 28.2082 10.6272C28.8725 12.1257 29.7169 16.211 30.4885 17.6444C31.2596 19.0779 32.2323 23.1592 32.9235 25.7161C33.6142 28.2735 38.8152 37.9863 38.8152 37.9863C39.4081 39.1048 41.0007 43.0514 41.0007 43.0514L41.0002 43.0519Z" fill="#F0B69E"/>
<g style="mix-blend-mode:multiply">
<path d="M29.6759 23.0723C29.6704 22.9645 29.6634 22.8572 29.6549 22.7498V22.7488C29.6115 22.1963 29.5316 21.6493 29.4528 21.1102L30.1535 20.8925C29.7652 20.9333 29.5526 20.9293 29.4243 20.9169C29.353 20.4295 29.2856 19.949 29.2496 19.4765C29.2022 18.8574 29.0595 18.195 28.8663 17.5262C29.1513 17.4239 29.2886 17.2286 29.2886 17.2286C29.1543 17.2897 28.9736 17.3389 28.8224 17.3737C28.6093 16.6632 28.3418 15.9482 28.0713 15.2729C28.4017 15.1865 28.6477 14.9743 28.6228 14.8084C28.6228 14.8084 28.3268 14.941 27.9825 15.0508C27.5882 14.074 27.4035 13.1111 27.2428 12.6246C26.8535 11.448 26.4423 11.7541 26.4423 11.7541C26.4423 11.7551 26.4423 11.7561 26.4418 11.7571C26.4024 12.0025 26.3909 12.2848 26.4178 12.6062C26.6085 14.8849 27.5622 18.2517 27.7524 19.3786C27.9425 20.505 27.415 22.3802 26.6295 22.5615C25.8444 22.7429 23.9938 24.9862 23.9938 24.9862L23.2023 25.8722C22.6862 28.0261 22.2655 29.6891 22.0953 30.1418C21.8108 30.8995 20.893 31.7069 20.0031 32.3479C19.9482 32.0517 19.7801 31.7009 19.7801 31.7009C19.7915 32.0716 19.7371 32.3692 19.6787 32.5754C18.8258 33.1593 18.0772 33.5592 18.0527 33.5727C18.0677 33.5712 18.3572 33.5473 18.8098 33.5185C18.8847 33.5011 18.9611 33.4792 19.0389 33.4539C20.9968 32.809 22.79 33.1458 23.5257 33.1632C23.7398 33.1677 24.1116 33.3963 24.5503 33.7595C24.5503 33.7595 24.5503 33.7595 24.5508 33.7595C25.1642 34.0288 31.6936 38.5657 32.3569 37.2718C33.2188 35.5904 28.2001 27.8373 28.7955 26.8724C28.8364 26.8058 28.8758 26.7392 28.9133 26.6726C29.3684 25.9551 30.3606 24.8446 30.3606 24.8446C29.877 24.4983 29.7248 23.5677 29.6774 23.0703L29.6759 23.0723Z" fill="#F0DFD8"/>
</g>
<path d="M27.2267 29.7774L17.7417 31.0414C16.9327 31.1492 16.1816 30.5783 16.0733 29.7724L13.2724 8.93766C13.1641 8.13174 13.7376 7.38445 14.5471 7.27663L24.0321 6.01259C24.8411 5.90477 25.5923 6.47567 25.7006 7.28159L28.5014 28.1168C28.6097 28.9228 28.0363 29.67 27.2267 29.7779V29.7774Z" fill="#406299"/>
<path d="M25.247 7.92665L27.9121 27.7527C28.0129 28.5035 27.4789 29.1996 26.7248 29.3L18.0996 30.4493C17.3455 30.5496 16.6463 30.018 16.5455 29.2672L13.8804 9.44111C13.7796 8.68984 14.3136 7.99373 15.0677 7.89336L23.6928 6.7441C24.447 6.64373 25.1462 7.17539 25.247 7.92665Z" fill="#C5BBD4"/>
<path d="M25.247 7.92665L27.9121 27.7527C28.0129 28.5035 27.4789 29.1996 26.7248 29.3L18.0996 30.4493C17.3455 30.5496 16.6463 30.018 16.5455 29.2672L13.8804 9.44111C13.7796 8.68984 14.3136 7.99373 15.0677 7.89336L23.6928 6.7441C24.447 6.64373 25.1462 7.17539 25.247 7.92665Z" fill="#FF9482"/>
<path d="M26.5548 26.5147L17.7342 27.6895C17.4064 27.7332 17.1762 28.0331 17.22 28.3595L17.3484 29.3149C17.3923 29.6413 17.6936 29.8705 18.0215 29.8269L26.842 28.652C27.1698 28.6084 27.4001 28.3084 27.3562 27.982L27.2278 27.0266C27.1839 26.7002 26.8826 26.471 26.5548 26.5147Z" fill="white"/>
<path d="M32.7587 31.3827C32.7587 31.3827 30.8732 27.9731 28.9632 26.9605C27.0527 25.9479 25.2585 26.0845 22.9518 25.2786C20.645 24.4727 19.7287 25.9767 20.629 27.5081C21.5289 29.0394 25.8719 30.0734 26.5571 30.8649C27.2419 31.6569 28.6917 35.8411 30.453 37.1806C32.2142 38.5202 34.7885 38.4462 34.7885 38.4462L32.7592 31.3827H32.7587Z" fill="#F0B69E"/>
<path d="M32.6932 31.4185C32.6743 31.3847 30.7967 28.017 28.9282 27.0262C28.7181 26.9149 28.499 26.8126 28.2764 26.7211L28.3333 26.5835C28.5603 26.6764 28.7844 26.7813 28.9985 26.8945C30.9065 27.9062 32.7471 31.2064 32.8245 31.3465L32.6932 31.4185Z" fill="#C9876D"/>
<path d="M34.7295 38.5214C34.3263 38.5214 32.0185 38.4658 30.4075 37.24C29.2347 36.3481 28.1996 34.2126 27.4434 32.6529C27.0597 31.8614 26.7283 31.1772 26.5002 30.9139C26.2901 30.6714 25.6887 30.3937 25.0703 30.1298L25.1292 29.9927C25.8634 30.3057 26.3969 30.5656 26.614 30.8165C26.855 31.0947 27.1744 31.7541 27.5787 32.5878C28.3278 34.1336 29.3544 36.2512 30.4988 37.1213C32.2182 38.429 34.761 38.3719 34.7869 38.3714L34.7914 38.5205C34.7914 38.5205 34.768 38.5209 34.7305 38.5209L34.7295 38.5214Z" fill="#C9876D"/>
<path d="M22.4266 27.5584C22.8193 27.3532 23.2386 26.6481 23.1318 26.0479C23.025 25.4477 21.6794 24.8077 20.8849 25.0164C20.0899 25.2246 19.2978 26.6019 20.9478 27.373C21.6904 27.7199 22.0997 27.7298 22.4266 27.5589V27.5584Z" fill="#FFDDCC"/>
<path d="M17.8879 31.1582C17.8879 31.1582 18.5247 31.3704 18.0157 31.5994C17.5066 31.8285 16.2938 32.2449 16.0218 32.1778C15.7443 32.1092 15.9779 31.3614 17.8879 31.1582Z" fill="#FFDDCC"/>
<path d="M28.7197 12.1029C28.7197 12.1029 28.4368 11.4739 28.2291 10.8871C28.058 10.4036 28.0145 10.2481 27.8763 10.0796C27.7959 9.98177 27.7261 9.96537 27.7261 9.96537C28.1169 9.89581 28.5311 10.5616 28.7197 12.1029Z" fill="#FFDDCC"/>
<path d="M27.0039 29.056C27.0034 29.0167 26.9994 28.0866 27.9742 27.4844L28.053 27.6111C27.1532 28.1671 27.1537 29.045 27.1537 29.054L27.0039 29.0565V29.056Z" fill="#C9876D"/>
<path d="M18.7363 28.9652C18.9226 28.7204 18.8743 28.3717 18.6285 28.1863C18.3826 28.0008 18.0323 28.0489 17.8461 28.2937C17.6598 28.5384 17.7081 28.8871 17.9539 29.0726C18.1998 29.258 18.5501 29.2099 18.7363 28.9652Z" fill="#8BBCFC"/>
<path d="M22.4844 8.13587C22.5213 8.41213 22.439 8.57809 22.2583 8.60243C22.0991 8.6238 21.9708 8.48915 21.9324 8.22084C21.896 7.94855 21.9938 7.7826 22.1595 7.76073C22.3317 7.73788 22.4499 7.877 22.4844 8.13587ZM22.0432 8.20742C22.0716 8.41859 22.153 8.52989 22.2533 8.51647C22.3661 8.50157 22.4025 8.36294 22.3746 8.15575C22.3476 7.956 22.2788 7.83129 22.1645 7.84669C22.0676 7.85961 22.0132 7.98631 22.0432 8.20742Z" fill="#1F1C2E"/>
<path d="M22.6414 8.53705L22.6324 8.46948L22.7078 8.37408C22.8894 8.149 22.9698 8.03124 22.9543 7.90851C22.9433 7.82603 22.8929 7.75498 22.7711 7.77138C22.6973 7.78131 22.6404 7.82703 22.6069 7.8633L22.5615 7.79075C22.6114 7.7356 22.6873 7.68989 22.7816 7.67747C22.9573 7.65412 23.0476 7.76442 23.0631 7.88019C23.0831 8.03025 22.9902 8.16589 22.8405 8.35371L22.7831 8.42228V8.42476L23.1499 8.37607L23.1624 8.46749L22.6414 8.53705Z" fill="#1F1C2E"/>
<path d="M23.2264 7.94567C23.2204 7.89947 23.2474 7.8627 23.2913 7.85673C23.3352 7.85077 23.3687 7.87959 23.3761 7.9258C23.3821 7.96952 23.3577 8.00729 23.3113 8.01325C23.2673 8.01921 23.2324 7.9894 23.2269 7.94567H23.2264ZM23.2858 8.3869C23.2798 8.34069 23.3068 8.30392 23.3507 8.29796C23.3946 8.29199 23.428 8.32081 23.4355 8.36702C23.4415 8.41074 23.4171 8.44851 23.3706 8.45447C23.3267 8.46043 23.2918 8.43062 23.2863 8.3869H23.2858Z" fill="#1F1C2E"/>
<path d="M23.887 8.37121L23.8571 8.1501L23.4778 8.20078L23.4678 8.12824L23.7622 7.56131L23.8815 7.54541L23.9494 8.05023L24.0637 8.03483L24.0752 8.12128L23.9609 8.13669L23.9908 8.35779L23.8865 8.3717L23.887 8.37121ZM23.8456 8.06365L23.8091 7.79235C23.8032 7.75012 23.7992 7.70739 23.7957 7.66416H23.7917C23.7732 7.71534 23.7577 7.7531 23.7398 7.79385L23.5776 8.09644V8.09892L23.8451 8.06315L23.8456 8.06365Z" fill="#1F1C2E"/>
<path d="M24.5795 7.54651L24.2681 7.58825L24.2646 7.80091C24.2831 7.79594 24.3005 7.79097 24.3305 7.787C24.3934 7.77855 24.4578 7.78401 24.5122 7.80737C24.581 7.83519 24.6429 7.89829 24.6569 8.00065C24.6783 8.15915 24.5676 8.2948 24.3904 8.31865C24.301 8.33057 24.2227 8.31567 24.1803 8.29579L24.1967 8.20834C24.2332 8.22374 24.303 8.24014 24.3774 8.2302C24.4817 8.21629 24.5616 8.13679 24.5471 8.02847C24.5316 7.92363 24.4513 7.85805 24.2881 7.87991C24.2416 7.88587 24.2057 7.89581 24.1763 7.90376V7.50676L24.5671 7.45459L24.5795 7.54701V7.54651Z" fill="#1F1C2E"/>
<path d="M16.909 8.47023L14.4272 8.80078L14.5812 9.94679L17.063 9.61624L16.909 8.47023Z" fill="white"/>
<path d="M17.1496 8.81726L16.9067 8.84961L16.9603 9.24852L17.2032 9.21617L17.1496 8.81726Z" fill="white"/>
<path d="M14.9979 8.84429L14.5547 8.90332L14.6812 9.84495L15.1245 9.78591L14.9979 8.84429Z" fill="#FF956E"/>
<path d="M15.6014 8.76372L15.1582 8.82275L15.2847 9.76438L15.728 9.70535L15.6014 8.76372Z" fill="#FF956E"/>
<rect x="17" y="18.9326" width="8" height="3" rx="1" transform="rotate(-6.69343 17 18.9326)" fill="white"/>
<path d="M20.5287 20.5323C20.463 20.54 20.4025 20.5373 20.3472 20.5243C20.2917 20.5104 20.2424 20.487 20.1992 20.454L20.223 20.3593C20.2676 20.3902 20.3131 20.4118 20.3595 20.424C20.4058 20.4362 20.4583 20.4389 20.5169 20.432C20.5882 20.4236 20.6391 20.4023 20.6696 20.3681C20.7008 20.3329 20.7134 20.2901 20.7075 20.2397C20.7028 20.1994 20.6864 20.1689 20.6582 20.148C20.6309 20.1271 20.5871 20.1132 20.5269 20.1063L20.4 20.092C20.3234 20.0824 20.2641 20.0592 20.222 20.0224C20.1806 19.9845 20.1559 19.9308 20.1477 19.8612C20.1409 19.8035 20.1477 19.7516 20.168 19.7056C20.1891 19.6595 20.2212 19.6219 20.2643 19.5927C20.3074 19.5635 20.3591 19.5453 20.4193 19.5383C20.4755 19.5317 20.529 19.5361 20.5798 19.5514C20.6305 19.5659 20.6747 19.5904 20.7124 19.625L20.6883 19.717C20.6483 19.6836 20.6075 19.661 20.566 19.6492C20.5243 19.6364 20.479 19.6329 20.4299 19.6387C20.3673 19.646 20.3194 19.6688 20.2862 19.7071C20.2528 19.7444 20.2394 19.7905 20.2458 19.8455C20.251 19.8895 20.2665 19.9229 20.2925 19.9459C20.3193 19.9687 20.3599 19.983 20.4143 19.9887L20.5414 20.0044C20.6237 20.0142 20.6861 20.0366 20.7287 20.0715C20.772 20.1054 20.7976 20.1558 20.8055 20.2227C20.8118 20.2767 20.8047 20.3258 20.7842 20.37C20.7645 20.4141 20.7326 20.4503 20.6886 20.4787C20.6454 20.507 20.5921 20.5248 20.5287 20.5323Z" fill="#FF5555"/>
<path d="M20.9742 20.4675L20.8605 19.499L20.9567 19.4877L21.0049 19.8985C21.0192 19.8559 21.0422 19.8226 21.0739 19.7984C21.1062 19.7733 21.1438 19.7582 21.1866 19.7532C21.3236 19.7371 21.4024 19.817 21.423 19.9928L21.4719 20.4091L21.3756 20.4203L21.3276 20.011C21.3203 19.9487 21.3043 19.9046 21.2796 19.8788C21.2555 19.8519 21.2206 19.8411 21.1746 19.8465C21.1216 19.8527 21.0815 19.8769 21.0543 19.9191C21.0278 19.9603 21.0183 20.0125 21.0257 20.0757L21.0704 20.4562L20.9742 20.4675Z" fill="#FF5555"/>
<path d="M21.8325 20.3793C21.7929 20.3839 21.7562 20.3794 21.7225 20.3657C21.6895 20.351 21.662 20.3292 21.6401 20.3002C21.6183 20.2712 21.6051 20.2374 21.6006 20.199C21.5949 20.1504 21.6011 20.1107 21.6191 20.0798C21.6379 20.0488 21.6716 20.0245 21.7201 20.0067C21.7693 19.9879 21.8374 19.9734 21.9245 19.9632L21.9625 19.9588L21.9575 19.9162C21.9509 19.8594 21.9358 19.8198 21.9123 19.7975C21.8895 19.7742 21.8559 19.7652 21.8116 19.7704C21.7767 19.7745 21.7438 19.7844 21.7127 19.8001C21.6815 19.8149 21.6504 19.8371 21.6194 19.8667L21.5766 19.7896C21.6038 19.7613 21.6379 19.7374 21.679 19.7177C21.7208 19.6979 21.7615 19.6857 21.8011 19.6811C21.8755 19.6723 21.933 19.6869 21.9736 19.7249C22.015 19.7627 22.0409 19.8261 22.0513 19.9149L22.1006 20.3353L22.0104 20.3459L21.9968 20.2305C21.9864 20.2716 21.9667 20.3055 21.9377 20.3321C21.9095 20.3586 21.8744 20.3743 21.8325 20.3793ZM21.8381 20.2937C21.8856 20.2881 21.9222 20.2648 21.9479 20.2237C21.9734 20.1817 21.9828 20.1314 21.9759 20.0728L21.9711 20.0316L21.9343 20.0359C21.8701 20.0434 21.8199 20.053 21.7835 20.0647C21.7478 20.0754 21.7235 20.0903 21.7105 20.1095C21.6982 20.1276 21.6937 20.1514 21.6972 20.1807C21.7016 20.2182 21.7163 20.2476 21.7412 20.2688C21.767 20.2899 21.7993 20.2982 21.8381 20.2937Z" fill="#FF5555"/>
<path d="M22.2791 20.3143L22.2008 19.6467L22.2946 19.6357L22.3087 19.7552C22.3301 19.671 22.3882 19.6191 22.4831 19.5996L22.517 19.5915L22.5355 19.6868L22.4758 19.7022C22.4218 19.7141 22.3826 19.7391 22.3582 19.7772C22.3337 19.8145 22.3249 19.8628 22.3319 19.9224L22.3765 20.3029L22.2791 20.3143Z" fill="#FF5555"/>
<path d="M22.9595 20.247C22.8684 20.2577 22.7928 20.2355 22.7325 20.1803C22.6721 20.1243 22.6357 20.0432 22.6233 19.9369C22.6152 19.8682 22.62 19.8064 22.6376 19.7514C22.6551 19.6955 22.6828 19.6509 22.7207 19.6177C22.7592 19.5835 22.8058 19.5632 22.8604 19.5568C22.9388 19.5476 23.0036 19.5697 23.0548 19.6231C23.106 19.6756 23.1375 19.7526 23.1494 19.8543L23.1544 19.8969L22.7197 19.9479C22.7318 20.0235 22.7576 20.0794 22.7972 20.1157C22.8366 20.1509 22.8872 20.165 22.949 20.1577C22.9839 20.1536 23.0164 20.1438 23.0467 20.1281C23.0769 20.1116 23.1045 20.0875 23.1297 20.0557L23.1722 20.1301C23.1494 20.1616 23.1187 20.1879 23.0803 20.2092C23.0417 20.2295 23.0015 20.2421 22.9595 20.247ZM22.8725 19.6389C22.8178 19.6453 22.777 19.6701 22.7499 19.7132C22.7229 19.7563 22.7103 19.8102 22.7123 19.8749L23.0627 19.8338C23.0524 19.7663 23.0308 19.7155 22.9979 19.6813C22.9657 19.647 22.9239 19.6329 22.8725 19.6389Z" fill="#FF5555"/>
</g>
</g>
<defs>
<clipPath id="clip0_5_25898">
<rect width="28" height="40" fill="white" transform="translate(13 6)"/>
</clipPath>
</defs>
</svg>
