<svg width="14" height="14" viewBox="0 0 14 14" fill="none" xmlns="http://www.w3.org/2000/svg">
<g clip-path="url(#clip0_5_24969)">
<path d="M9.33333 0H9.2575C8.99644 0.00248022 8.74359 0.0915911 8.53865 0.253341C8.33372 0.415091 8.18831 0.640321 8.12525 0.893667C8.05771 1.14032 7.91101 1.35795 7.7077 1.51308C7.50438 1.66821 7.25573 1.75224 7 1.75224C6.74427 1.75224 6.49562 1.66821 6.2923 1.51308C6.08899 1.35795 5.94229 1.14032 5.87475 0.893667C5.81169 0.640321 5.66628 0.415091 5.46134 0.253341C5.25641 0.0915911 5.00356 0.00248022 4.7425 0L4.66667 0C3.8934 0.00092625 3.15208 0.308514 2.60529 0.855295C2.05851 1.40208 1.75093 2.1434 1.75 2.91667V12.25C1.75 12.7141 1.93437 13.1592 2.26256 13.4874C2.59075 13.8156 3.03587 14 3.5 14H4.7425C5.00356 13.9975 5.25641 13.9084 5.46134 13.7467C5.66628 13.5849 5.81169 13.3597 5.87475 13.1063C5.94229 12.8597 6.08899 12.642 6.2923 12.4869C6.49562 12.3318 6.74427 12.2478 7 12.2478C7.25573 12.2478 7.50438 12.3318 7.7077 12.4869C7.91101 12.642 8.05771 12.8597 8.12525 13.1063C8.18831 13.3597 8.33372 13.5849 8.53865 13.7467C8.74359 13.9084 8.99644 13.9975 9.2575 14H10.5C10.9641 14 11.4092 13.8156 11.7374 13.4874C12.0656 13.1592 12.25 12.7141 12.25 12.25V2.91667C12.2491 2.1434 11.9415 1.40208 11.3947 0.855295C10.8479 0.308514 10.1066 0.00092625 9.33333 0ZM10.5 12.8333L9.24992 12.7966C9.11291 12.3016 8.8164 11.8656 8.40637 11.5563C7.99634 11.247 7.49571 11.0816 6.98211 11.0858C6.46851 11.0899 5.97064 11.2635 5.56571 11.5794C5.16078 11.8954 4.87142 12.3362 4.7425 12.8333H3.5C3.34529 12.8333 3.19692 12.7719 3.08752 12.6625C2.97812 12.5531 2.91667 12.4047 2.91667 12.25V9.91667H4.08333C4.23804 9.91667 4.38642 9.85521 4.49581 9.74581C4.60521 9.63642 4.66667 9.48804 4.66667 9.33333C4.66667 9.17862 4.60521 9.03025 4.49581 8.92085C4.38642 8.81146 4.23804 8.75 4.08333 8.75H2.91667V2.91667C2.91667 2.45254 3.10104 2.00742 3.42923 1.67923C3.75742 1.35104 4.20254 1.16667 4.66667 1.16667L4.75008 1.20342C4.88671 1.69542 5.18058 2.12919 5.58683 2.43854C5.99307 2.74788 6.48938 2.9158 7 2.91667C7.51751 2.91226 8.01941 2.73893 8.42934 2.42303C8.83927 2.10713 9.13478 1.66597 9.27092 1.16667H9.33333C9.79746 1.16667 10.2426 1.35104 10.5708 1.67923C10.899 2.00742 11.0833 2.45254 11.0833 2.91667V8.75H9.91667C9.76196 8.75 9.61358 8.81146 9.50419 8.92085C9.39479 9.03025 9.33333 9.17862 9.33333 9.33333C9.33333 9.48804 9.39479 9.63642 9.50419 9.74581C9.61358 9.85521 9.76196 9.91667 9.91667 9.91667H11.0833V12.25C11.0833 12.4047 11.0219 12.5531 10.9125 12.6625C10.8031 12.7719 10.6547 12.8333 10.5 12.8333Z" fill="#A39898"/>
<path d="M7.58301 8.75H6.41634C6.26163 8.75 6.11326 8.81146 6.00386 8.92085C5.89447 9.03025 5.83301 9.17862 5.83301 9.33333C5.83301 9.48804 5.89447 9.63642 6.00386 9.74581C6.11326 9.85521 6.26163 9.91667 6.41634 9.91667H7.58301C7.73772 9.91667 7.88609 9.85521 7.99549 9.74581C8.10488 9.63642 8.16634 9.48804 8.16634 9.33333C8.16634 9.17862 8.10488 9.03025 7.99549 8.92085C7.88609 8.81146 7.73772 8.75 7.58301 8.75Z" fill="#A39898"/>
</g>
<defs>
<clipPath id="clip0_5_24969">
<rect width="14" height="14" fill="white"/>
</clipPath>
</defs>
</svg>
