<svg width="145" height="145" viewBox="0 0 145 145" fill="none" xmlns="http://www.w3.org/2000/svg">
<g clip-path="url(#clip0_9571_2302)">
<path d="M145 0H0V145H145V0Z" fill="white"/>
<path d="M128.052 54.3572C128.208 56.3078 127.943 58.0395 127.68 59.818C127.596 60.3851 127.49 60.9462 127.36 61.4993C127.302 61.7484 127.244 61.9929 127.186 62.2381C126.437 65.4011 124.981 68.281 122.875 70.6144C122.807 70.6888 122.739 70.7629 122.671 70.8366C120.649 72.979 118.446 74.8997 115.784 76.3368C113.154 77.9171 110.323 79.2304 107.379 80.5311C107.003 80.6976 106.632 80.8769 106.269 81.0669C105.104 81.6754 104.017 82.254 103.022 82.9805C98.9324 85.6766 96.663 89.7011 95.2367 94.2206C94.5235 96.4804 94.0165 98.8597 93.5857 101.252C93.546 120.056 75.9898 133.81 56.8243 130.005C56.0678 129.825 55.4462 129.519 54.7149 129.258C52.377 128.323 50.2492 127.017 48.3565 125.257C45.1574 122.236 43.3141 118.61 41.9632 114.742C41.5129 113.453 41.1173 112.137 40.7444 110.807C39.6589 106.84 38.7682 102.602 35.7188 99.4822C31.1446 94.8031 25.2348 92.6005 19.7721 88.791C11.1233 82.771 11.7193 71.3808 17.8931 65.5966C18.8614 64.6226 19.8345 63.7884 20.8317 62.871C25.997 58.5057 33.0436 58.1026 39.7494 56.6362C43.7202 55.6792 47.2656 53.6236 48.8337 49.7724C52.2143 41.8965 54.4502 33.8626 59.8578 27.536C60.6059 26.5806 61.3911 25.6578 62.2141 24.7777C64.6828 22.1374 67.4909 19.8814 70.6559 18.2829C71.9219 17.6434 73.245 17.1092 74.6263 16.6978C89.5147 11.6245 108.896 16.9008 118.881 32.2228C120.696 35.0087 122.402 37.8405 123.779 40.8104C124.888 43.254 125.913 45.6622 126.723 48.3024C126.945 49.1316 127.192 49.8794 127.4 50.7065C127.745 52.0519 127.966 53.2784 128.052 54.3572Z" fill="#FF5555" fill-opacity="0.35"/>
<path d="M48.2282 39.7241C46.7493 41.8718 44.8257 43.3497 42.8968 44.0099C40.968 44.67 39.0186 44.5179 37.4807 43.4082C35.9428 42.2985 35.1067 40.4411 35.0143 38.3276C34.9219 36.2141 35.587 33.8397 37.0572 31.694C38.5274 29.5483 40.5314 28.0348 42.5643 27.3312C44.5971 26.6277 46.6373 26.7419 48.176 27.853C49.7146 28.964 50.4706 30.8567 50.4656 33.0109C50.4604 35.1651 49.707 37.5763 48.2282 39.7241Z" fill="#FF5555" fill-opacity="0.35"/>
<path d="M114.994 91.9391C116.799 95.5137 114.384 99.9586 110.579 101.837C108.563 102.846 106.417 103.075 104.548 102.667C102.679 102.26 101.076 101.222 100.174 99.6462C99.2729 98.0705 99.2409 96.2538 99.9176 94.5928C101.459 90.8795 106.096 88.761 110.323 89.1843C112.361 89.4094 114.101 90.3237 114.994 91.9391Z" fill="#FF5555" fill-opacity="0.35"/>
<mask id="mask0_9571_2302" style="mask-type:luminance" maskUnits="userSpaceOnUse" x="13" y="14" width="116" height="117">
<path d="M128.052 54.3572C128.208 56.3078 127.943 58.0395 127.68 59.818C127.596 60.3851 127.49 60.9462 127.36 61.4993C127.302 61.7484 127.244 61.9929 127.186 62.2381C126.437 65.4011 124.981 68.281 122.875 70.6144C122.807 70.6888 122.739 70.7629 122.671 70.8366C120.649 72.979 118.446 74.8997 115.784 76.3368C113.154 77.9171 110.323 79.2304 107.379 80.5311C107.003 80.6976 106.632 80.8769 106.269 81.0669C105.104 81.6754 104.017 82.254 103.022 82.9805C98.9324 85.6766 96.663 89.7011 95.2367 94.2206C94.5235 96.4804 94.0165 98.8597 93.5857 101.252C93.546 120.056 75.9898 133.81 56.8243 130.005C56.0678 129.825 55.4462 129.519 54.7149 129.258C52.377 128.323 50.2492 127.017 48.3565 125.257C45.1574 122.236 43.3141 118.61 41.9632 114.742C41.5129 113.453 41.1173 112.137 40.7444 110.807C39.6589 106.84 38.7682 102.602 35.7188 99.4822C31.1446 94.8031 25.2348 92.6005 19.7721 88.791C11.1233 82.771 11.7193 71.3808 17.8931 65.5966C18.8614 64.6226 19.8345 63.7884 20.8317 62.871C25.997 58.5057 33.0436 58.1026 39.7494 56.6362C43.7202 55.6792 47.2656 53.6236 48.8337 49.7724C52.2143 41.8965 54.4502 33.8626 59.8578 27.536C60.6059 26.5806 61.3911 25.6578 62.2141 24.7777C64.6828 22.1374 67.4909 19.8814 70.6559 18.2829C71.9219 17.6434 73.245 17.1092 74.6263 16.6978C89.5147 11.6245 108.896 16.9008 118.881 32.2228C120.696 35.0087 122.402 37.8405 123.779 40.8104C124.888 43.254 125.913 45.6622 126.723 48.3024C126.945 49.1316 127.192 49.8794 127.4 50.7065C127.745 52.0519 127.966 53.2784 128.052 54.3572ZM50.466 33.0104C50.471 30.8562 49.715 28.9634 48.1764 27.8524C46.6377 26.7413 44.5975 26.6271 42.5647 27.3307C40.5319 28.0342 38.5278 29.5477 37.0576 31.6934C35.5874 33.8391 34.9223 36.2135 35.0147 38.327C35.1071 40.4405 35.9432 42.2978 37.4811 43.4076C39.019 44.5173 40.9684 44.6695 42.8972 44.0093C44.8261 43.3491 46.7497 41.8712 48.2286 39.7235C49.7075 37.5758 50.4609 35.1645 50.466 33.0104ZM110.324 89.1834C106.097 88.7601 101.46 90.8786 99.9184 94.5919C99.2417 96.2529 99.2737 98.0697 100.175 99.6453C101.077 101.221 102.68 102.259 104.549 102.667C106.417 103.075 108.564 102.845 110.58 101.836C114.385 99.9577 116.8 95.5128 114.995 91.9383C114.101 90.3227 112.361 89.4085 110.324 89.1834Z" fill="white"/>
</mask>
<g mask="url(#mask0_9571_2302)">
<path opacity="0.19" d="M101.062 108.93H52.7536C48.8134 108.93 45.6191 105.736 45.6191 101.796V42.738C45.6191 38.7978 48.8133 35.6035 52.7536 35.6035H101.062C105.002 35.6035 108.196 38.7977 108.196 42.738V101.796C108.196 105.736 105.002 108.93 101.062 108.93Z" fill="#3636CF"/>
</g>
<path d="M96.2082 104.176H47.9001C43.9599 104.176 40.7656 100.982 40.7656 97.0418V37.9841C40.7656 34.0439 43.9598 30.8496 47.9001 30.8496H96.2082C100.148 30.8496 103.343 34.0438 103.343 37.9841V97.0418C103.343 100.982 100.149 104.176 96.2082 104.176Z" fill="white"/>
<path d="M56.6582 84.4746H89.1565" stroke="#D4D4D4" stroke-width="1.71578" stroke-miterlimit="10" stroke-linecap="square"/>
<path d="M61.8613 89.8535H83.9537" stroke="#D4D4D4" stroke-width="1.71578" stroke-miterlimit="10" stroke-linecap="square"/>
<path d="M72.8285 72.0437C80.2985 72.0437 86.3542 65.988 86.3542 58.5179C86.3542 51.0479 80.2985 44.9922 72.8285 44.9922C65.3584 44.9922 59.3027 51.0479 59.3027 58.5179C59.3027 65.988 65.3584 72.0437 72.8285 72.0437Z" stroke="#FF8200" stroke-width="2.31156" stroke-miterlimit="10" stroke-linecap="round"/>
<path d="M66.8926 58.518L71.4717 63.0971L88.6685 44.9922" stroke="#05BD6B" stroke-width="2.31156" stroke-miterlimit="10" stroke-linecap="square"/>
</g>
<defs>
<clipPath id="clip0_9571_2302">
<rect width="145" height="145" fill="white"/>
</clipPath>
</defs>
</svg>
