<svg width="24" height="24" viewBox="0 0 24 24" fill="none" xmlns="http://www.w3.org/2000/svg">
<path d="M5 21V10.725C4.45 10.725 3.97917 10.5292 3.5875 10.1375C3.19583 9.74583 3 9.275 3 8.725V3.575C3 3.425 3.05833 3.29167 3.175 3.175C3.29167 3.05833 3.425 3 3.575 3C3.725 3 3.8625 3.05833 3.9875 3.175C4.1125 3.29167 4.175 3.425 4.175 3.575V7.125H5.175V3.575C5.175 3.425 5.23333 3.29167 5.35 3.175C5.46667 3.05833 5.6 3 5.75 3C5.9 3 6.03333 3.05833 6.15 3.175C6.26667 3.29167 6.325 3.425 6.325 3.575V7.125H7.325V3.575C7.325 3.425 7.3875 3.29167 7.5125 3.175C7.6375 3.05833 7.775 3 7.925 3C8.075 3 8.20833 3.05833 8.325 3.175C8.44167 3.29167 8.5 3.425 8.5 3.575V8.725C8.5 9.275 8.30417 9.74583 7.9125 10.1375C7.52083 10.5292 7.05 10.725 6.5 10.725V21H5ZM12 21V10.675C11.3167 10.2917 10.8 9.775 10.45 9.125C10.1 8.475 9.925 7.725 9.925 6.875C9.925 5.875 10.1792 4.97917 10.6875 4.1875C11.1958 3.39583 11.8917 3 12.775 3C13.6583 3 14.3542 3.39583 14.8625 4.1875C15.3708 4.97917 15.625 5.875 15.625 6.875C15.625 7.725 15.4417 8.475 15.075 9.125C14.7083 9.775 14.1833 10.2917 13.5 10.675V21H12ZM17.35 21V3C18.3167 3.08333 19.1667 3.4625 19.9 4.1375C20.6333 4.8125 21 5.65 21 6.65V12.75H18.85V21H17.35Z" fill="#EC4933"/>
</svg>
