<svg width="21" height="21" viewBox="0 0 21 21" fill="none" xmlns="http://www.w3.org/2000/svg">
<path d="M9.85414 2.74379V2.09748C9.85414 1.92607 9.92223 1.76168 10.0434 1.64047C10.1646 1.51926 10.329 1.45117 10.5004 1.45117C10.6719 1.45117 10.8362 1.51926 10.9575 1.64047C11.0787 1.76168 11.1468 1.92607 11.1468 2.09748V2.74379C11.1468 2.9152 11.0787 3.07959 10.9575 3.20079C10.8362 3.322 10.6719 3.39009 10.5004 3.39009C10.329 3.39009 10.1646 3.322 10.0434 3.20079C9.92223 3.07959 9.85414 2.9152 9.85414 2.74379ZM10.5004 17.6088C10.329 17.6088 10.1646 17.6769 10.0434 17.7981C9.92223 17.9193 9.85414 18.0837 9.85414 18.2551V18.9015C9.85414 19.0729 9.92223 19.2373 10.0434 19.3585C10.1646 19.4797 10.329 19.5478 10.5004 19.5478C10.6719 19.5478 10.8362 19.4797 10.9575 19.3585C11.0787 19.2373 11.1468 19.0729 11.1468 18.9015V18.2551C11.1468 18.0837 11.0787 17.9193 10.9575 17.7981C10.8362 17.6769 10.6719 17.6088 10.5004 17.6088ZM18.9024 9.85316H18.2561C18.0847 9.85316 17.9203 9.92125 17.7991 10.0425C17.6779 10.1637 17.6098 10.3281 17.6098 10.4995C17.6098 10.6709 17.6779 10.8353 17.7991 10.9565C17.9203 11.0777 18.0847 11.1458 18.2561 11.1458H18.9024C19.0738 11.1458 19.2382 11.0777 19.3594 10.9565C19.4806 10.8353 19.5487 10.6709 19.5487 10.4995C19.5487 10.3281 19.4806 10.1637 19.3594 10.0425C19.2382 9.92125 19.0738 9.85316 18.9024 9.85316ZM2.74476 9.85316H2.09846C1.92704 9.85316 1.76265 9.92125 1.64145 10.0425C1.52024 10.1637 1.45215 10.3281 1.45215 10.4995C1.45215 10.6709 1.52024 10.8353 1.64145 10.9565C1.76265 11.0777 1.92704 11.1458 2.09846 11.1458H2.74476C2.91617 11.1458 3.08056 11.0777 3.20177 10.9565C3.32298 10.8353 3.39107 10.6709 3.39107 10.4995C3.39107 10.3281 3.32298 10.1637 3.20177 10.0425C3.08056 9.92125 2.91617 9.85316 2.74476 9.85316ZM15.9844 4.10103L15.5274 4.55797C15.4657 4.61759 15.4165 4.68891 15.3826 4.76776C15.3487 4.84661 15.3309 4.93142 15.3301 5.01723C15.3294 5.10305 15.3457 5.18816 15.3782 5.26758C15.4107 5.34701 15.4587 5.41917 15.5194 5.47986C15.5801 5.54054 15.6523 5.58853 15.7317 5.62103C15.8111 5.65353 15.8962 5.66988 15.982 5.66913C16.0678 5.66839 16.1527 5.65056 16.2315 5.61669C16.3104 5.58281 16.3817 5.53358 16.4413 5.47185L16.8989 5.01555C16.9589 4.95551 17.0066 4.88422 17.0391 4.80576C17.0716 4.7273 17.0883 4.64321 17.0883 4.55829C17.0883 4.47337 17.0716 4.38928 17.0391 4.31082C17.0066 4.23237 16.9589 4.16108 16.8989 4.10103C16.8388 4.04098 16.7675 3.99335 16.6891 3.96085C16.6106 3.92835 16.5265 3.91163 16.4416 3.91163C16.3567 3.91163 16.2726 3.92835 16.1942 3.96085C16.1157 3.99335 16.0444 4.04098 15.9844 4.10103ZM4.55959 15.5264L4.10201 15.9834C4.04196 16.0434 3.99432 16.1147 3.96183 16.1932C3.92933 16.2716 3.9126 16.3557 3.9126 16.4406C3.9126 16.5256 3.92933 16.6097 3.96183 16.6881C3.99432 16.7666 4.04196 16.8379 4.10201 16.8979C4.22328 17.0192 4.38776 17.0873 4.55927 17.0873C4.64419 17.0873 4.72828 17.0706 4.80674 17.0381C4.88519 17.0056 4.95648 16.958 5.01653 16.8979L5.47347 16.441C5.53352 16.381 5.58116 16.3097 5.61367 16.2313C5.64619 16.1529 5.66294 16.0688 5.66297 15.9839C5.663 15.899 5.64631 15.815 5.61385 15.7365C5.58139 15.6581 5.5338 15.5868 5.47379 15.5268C5.41379 15.4667 5.34254 15.4191 5.26412 15.3866C5.1857 15.354 5.10165 15.3373 5.01676 15.3373C4.84531 15.3372 4.68087 15.4053 4.55959 15.5264ZM16.4419 15.5264C16.32 15.4087 16.1568 15.3436 15.9873 15.345C15.8179 15.3465 15.6558 15.4145 15.5359 15.5343C15.4161 15.6541 15.3481 15.8162 15.3467 15.9857C15.3452 16.1552 15.4103 16.3184 15.5281 16.4403L15.9844 16.8979C16.1056 17.0192 16.2701 17.0873 16.4416 17.0873C16.6131 17.0873 16.7776 17.0192 16.8989 16.8979C17.0202 16.7766 17.0883 16.6122 17.0883 16.4406C17.0883 16.2691 17.0202 16.1047 16.8989 15.9834L16.4419 15.5264ZM4.55959 5.47249C4.68149 5.59022 4.84475 5.65537 5.0142 5.65389C5.18366 5.65242 5.34577 5.58445 5.4656 5.46462C5.58543 5.34479 5.6534 5.18269 5.65487 5.01323C5.65634 4.84377 5.5912 4.68051 5.47347 4.55862L5.01653 4.10103C4.89526 3.97976 4.73078 3.91163 4.55927 3.91163C4.38776 3.91163 4.22328 3.97976 4.10201 4.10103C3.98073 4.2223 3.9126 4.38679 3.9126 4.55829C3.9126 4.7298 3.98073 4.89428 4.10201 5.01555L4.55959 5.47249ZM16.1285 11.4579C16.0451 11.3756 15.9409 11.3176 15.8271 11.2899C15.7132 11.2622 15.594 11.266 15.4822 11.3009C15.0485 11.4348 14.5969 11.502 14.143 11.5C12.9131 11.4988 11.7339 11.0097 10.8642 10.1401C9.99444 9.27045 9.50521 8.09132 9.50384 6.86141C9.50057 6.40792 9.56639 5.95658 9.69902 5.52291C9.73411 5.41094 9.73805 5.29153 9.71042 5.17749C9.68279 5.06346 9.62464 4.95909 9.54221 4.87559C9.45977 4.79209 9.35616 4.73261 9.24249 4.70353C9.12881 4.67444 9.00937 4.67685 8.89696 4.7105C7.91585 5.00719 7.02838 5.55309 6.32112 6.29497C5.61386 7.03684 5.11095 7.94936 4.86145 8.94352C4.61195 9.93767 4.62437 10.9795 4.8975 11.9675C5.17063 12.9554 5.69514 13.8556 6.41989 14.5805C7.14463 15.3053 8.04486 15.8299 9.03276 16.1031C10.0207 16.3763 11.0625 16.3888 12.0567 16.1394C13.0509 15.89 13.9634 15.3871 14.7054 14.6799C15.4473 13.9727 15.9933 13.0853 16.2901 12.1042C16.3237 11.9915 16.326 11.8718 16.2966 11.7579C16.2672 11.644 16.2073 11.5403 16.1233 11.4579H16.1285Z" fill="url(#paint0_linear_5_25084)"/>
<defs>
<linearGradient id="paint0_linear_5_25084" x1="4.10265" y1="4.10168" x2="16.8982" y2="16.8973" gradientUnits="userSpaceOnUse">
<stop stop-color="#FDC830"/>
<stop offset="1" stop-color="#F37335"/>
</linearGradient>
</defs>
</svg>
