<svg width="14" height="14" viewBox="0 0 14 14" fill="none" xmlns="http://www.w3.org/2000/svg">
<g clip-path="url(#clip0_5_25003)">
<path d="M11.3954 1.82118L10.4294 0.854012C10.1591 0.582361 9.83767 0.367009 9.48362 0.220421C9.12956 0.0738321 8.74995 -0.00108266 8.36675 1.18215e-05H4.66667C3.8934 0.000938072 3.15208 0.308526 2.6053 0.855307C2.05851 1.40209 1.75093 2.14341 1.75 2.91668V11.0833C1.75093 11.8566 2.05851 12.5979 2.6053 13.1447C3.15208 13.6915 3.8934 13.9991 4.66667 14H9.33333C10.1066 13.9991 10.8479 13.6915 11.3947 13.1447C11.9415 12.5979 12.2491 11.8566 12.25 11.0833V3.88326C12.2509 3.50012 12.1759 3.12059 12.0292 2.76664C11.8825 2.41269 11.6671 2.09134 11.3954 1.82118ZM10.5706 2.64601C10.6533 2.72845 10.7274 2.81914 10.7917 2.91668H9.33333V1.45835C9.43071 1.52328 9.52155 1.59752 9.60458 1.68001L10.5706 2.64601ZM11.0833 11.0833C11.0833 11.5475 10.899 11.9926 10.5708 12.3208C10.2426 12.649 9.79746 12.8333 9.33333 12.8333H4.66667C4.20254 12.8333 3.75742 12.649 3.42923 12.3208C3.10104 11.9926 2.91667 11.5475 2.91667 11.0833V2.91668C2.91667 2.45255 3.10104 2.00743 3.42923 1.67924C3.75742 1.35105 4.20254 1.16668 4.66667 1.16668H8.16667V2.91668C8.16667 3.2261 8.28958 3.52284 8.50838 3.74164C8.72717 3.96043 9.02391 4.08335 9.33333 4.08335H11.0833V11.0833ZM9.33333 5.25001C9.48804 5.25001 9.63642 5.31147 9.74581 5.42087C9.85521 5.53026 9.91667 5.67864 9.91667 5.83335C9.91667 5.98806 9.85521 6.13643 9.74581 6.24582C9.63642 6.35522 9.48804 6.41668 9.33333 6.41668H4.66667C4.51196 6.41668 4.36358 6.35522 4.25419 6.24582C4.14479 6.13643 4.08333 5.98806 4.08333 5.83335C4.08333 5.67864 4.14479 5.53026 4.25419 5.42087C4.36358 5.31147 4.51196 5.25001 4.66667 5.25001H9.33333ZM9.91667 8.16668C9.91667 8.32139 9.85521 8.46976 9.74581 8.57916C9.63642 8.68855 9.48804 8.75001 9.33333 8.75001H4.66667C4.51196 8.75001 4.36358 8.68855 4.25419 8.57916C4.14479 8.46976 4.08333 8.32139 4.08333 8.16668C4.08333 8.01197 4.14479 7.8636 4.25419 7.7542C4.36358 7.6448 4.51196 7.58335 4.66667 7.58335H9.33333C9.48804 7.58335 9.63642 7.6448 9.74581 7.7542C9.85521 7.8636 9.91667 8.01197 9.91667 8.16668ZM9.80467 10.1576C9.89535 10.2823 9.93293 10.4379 9.90921 10.5903C9.88549 10.7427 9.80239 10.8795 9.67808 10.9708C9.08706 11.3919 8.38705 11.6335 7.66208 11.6667C7.23851 11.6646 6.82781 11.5209 6.49542 11.2583C6.30408 11.1271 6.23117 11.0833 6.08708 11.0833C5.69708 11.1437 5.32911 11.3032 5.01842 11.5465C4.89519 11.6344 4.74264 11.6709 4.59299 11.6484C4.44334 11.6258 4.3083 11.546 4.21638 11.4258C4.12447 11.3056 4.08288 11.1543 4.10039 11.004C4.11791 10.8537 4.19316 10.7161 4.31025 10.6202C4.82427 10.2211 5.4415 9.97709 6.08942 9.91668C6.47799 9.92289 6.85365 10.0572 7.15808 10.2988C7.29685 10.4236 7.47551 10.4949 7.66208 10.5C8.13906 10.4643 8.59773 10.3013 8.99033 10.0281C9.11552 9.93735 9.27161 9.90002 9.4243 9.92431C9.577 9.94859 9.71381 10.0325 9.80467 10.1576Z" fill="#A39898"/>
</g>
<defs>
<clipPath id="clip0_5_25003">
<rect width="14" height="14" fill="white"/>
</clipPath>
</defs>
</svg>
