<svg width="47" height="48" viewBox="0 0 47 48" fill="none" xmlns="http://www.w3.org/2000/svg">
<g clip-path="url(#clip0_5_19109)">
<g clip-path="url(#clip1_5_19109)">
<path d="M32.5172 18.2609C32.5172 18.2609 34.9804 18.098 35.6657 18.3723C36.351 18.6466 36.7233 21.295 36.351 21.3113C35.9787 21.3275 35.7709 20.7273 35.7709 20.7273C35.7709 20.7273 36.0083 21.3656 35.6819 21.4335C35.3581 21.5014 34.832 20.9228 34.832 20.9228C34.832 20.9228 32.0531 22.012 30.8526 19.8391C29.8004 17.9404 32.5172 18.2609 32.5172 18.2609Z" fill="#F1A634"/>
<path d="M22.2166 10.3323L22.0386 11.8479C22.0386 11.8479 22.2598 12.3151 23.1312 12.4944C23.7815 12.6275 24.0297 12.5052 24.0297 12.5052V10.9679L22.4783 10.4246L22.2193 10.3323H22.2166Z" fill="#F7C06D"/>
<path d="M22.4756 10.4248C22.4756 10.4655 22.4837 10.5172 22.5026 10.5769C22.7508 11.3755 23.6519 11.6471 24.0269 11.7286V10.968L22.4756 10.4248Z" fill="#583A3A"/>
<path d="M24.769 7.55363C24.769 7.55363 25.3355 9.55005 24.8985 10.5686C24.4614 11.5872 23.5252 11.2911 22.9802 11.0087C22.4352 10.7262 22.2167 10.335 22.2167 10.335C22.2167 10.335 21.6555 10.4464 21.3669 9.89501C21.0755 9.34634 21.3722 8.80038 21.696 8.70803C22.0198 8.61839 22.3543 8.89001 22.3543 8.89001L22.1439 8.30331C22.1439 8.30331 23.7141 5.68216 24.7717 7.55363H24.769Z" fill="#F7C06D"/>
<path d="M24.3721 9.94391C24.3721 9.94391 24.3532 9.94391 24.3425 9.93848C24.3101 9.92218 24.2939 9.88144 24.3101 9.84884C24.4639 9.52289 24.2615 9.11275 24.2588 9.10731C24.2426 9.07472 24.2561 9.03398 24.2885 9.01496C24.3209 8.99867 24.3613 9.01225 24.3802 9.04484C24.391 9.06385 24.6149 9.51746 24.4342 9.90588C24.4234 9.93033 24.3991 9.94391 24.3721 9.94391Z" fill="#583A3A"/>
<path d="M22.157 9.76745C22.1354 9.76745 22.1138 9.75658 22.103 9.73757L21.6714 9.1237C21.6498 9.09382 21.6579 9.05036 21.6876 9.02863C21.7172 9.0069 21.7604 9.01505 21.782 9.04493L22.2137 9.6588C22.2352 9.68868 22.2272 9.73213 22.1975 9.75386C22.1867 9.76201 22.1732 9.76745 22.1597 9.76745H22.157Z" fill="#583A3A"/>
<path d="M21.6392 9.54736C21.6015 9.54736 21.5718 9.51748 21.5718 9.47945C21.5718 9.44143 21.6015 9.41155 21.6392 9.41155H21.9981C22.0358 9.40883 22.0655 9.43871 22.0655 9.47402C22.0655 9.51205 22.0358 9.54193 21.9981 9.54193H21.6392V9.54736Z" fill="#583A3A"/>
<path d="M23.7438 10.441C23.6764 10.441 23.6062 10.4247 23.5388 10.3758C23.3121 10.2183 23.2717 9.93853 23.269 9.92767C23.2663 9.90322 23.2771 9.87878 23.2959 9.86248C23.3175 9.8489 23.3418 9.84618 23.3661 9.85705L24.0622 10.2047C24.0837 10.2156 24.0972 10.2346 24.0999 10.259C24.0999 10.2835 24.0918 10.3052 24.073 10.3188C24.0649 10.3242 23.9165 10.4383 23.7438 10.4383V10.441ZM23.447 10.0499C23.4794 10.1205 23.5307 10.2047 23.6143 10.2645C23.7033 10.327 23.8113 10.3052 23.8868 10.2726L23.4443 10.0526L23.447 10.0499Z" fill="#583A3A"/>
<path d="M23.6221 9.12103C23.5844 9.12103 23.5547 9.08844 23.5547 9.05312L23.5601 8.6973C23.5601 8.65927 23.5898 8.62939 23.6275 8.62939C23.6653 8.62939 23.695 8.66199 23.695 8.6973L23.6896 9.05312C23.6896 9.09115 23.6599 9.12103 23.6221 9.12103Z" fill="#583A3A"/>
<path d="M24.669 9.18332C24.6312 9.18332 24.6016 9.15344 24.6016 9.11541V8.75687C24.6016 8.71884 24.6285 8.68896 24.6663 8.68896C24.7041 8.68896 24.7338 8.71884 24.7338 8.75687V9.11269C24.7338 9.15072 24.7068 9.1806 24.669 9.1806V9.18332Z" fill="#583A3A"/>
<path d="M23.3928 8.40119C23.3928 8.40119 23.3658 8.39848 23.355 8.38761C23.3254 8.36588 23.3173 8.32514 23.3389 8.29526C23.5034 8.06167 23.811 8.17303 23.8245 8.17847C23.8596 8.19205 23.8757 8.23007 23.865 8.26538C23.8515 8.30069 23.8164 8.31699 23.7786 8.30613C23.7705 8.30341 23.5547 8.22736 23.4495 8.37675C23.436 8.39576 23.4171 8.40391 23.3955 8.40391L23.3928 8.40119Z" fill="#583A3A"/>
<path d="M24.8633 8.39036C24.8445 8.39036 24.8256 8.38221 24.8121 8.36591C24.7851 8.33332 24.6907 8.2464 24.6016 8.2464C24.5585 8.2464 24.518 8.26541 24.4802 8.30616C24.456 8.33332 24.4128 8.33603 24.3858 8.31159C24.3588 8.28714 24.3561 8.24368 24.3804 8.21652C24.4452 8.1459 24.518 8.10787 24.6043 8.1133C24.7716 8.11602 24.9065 8.27356 24.9146 8.28171C24.9389 8.31159 24.9362 8.35233 24.9065 8.37678C24.893 8.38764 24.8795 8.39308 24.8633 8.39308V8.39036Z" fill="#583A3A"/>
<path d="M22.3541 8.89017C22.3541 8.89017 22.2488 9.22427 22.6886 8.93635C23.1284 8.65115 23.1769 8.17852 23.4359 7.62713C23.6949 7.07574 24.1698 6.74164 24.4719 7.14636L24.7714 7.55108L24.1104 6.56509C24.1104 6.56509 23.158 5.59269 22.0762 6.38039C20.8405 7.28217 21.1643 7.93406 21.1643 7.93406C21.1643 7.93406 21.6229 8.50175 22.3514 8.88746L22.3541 8.89017Z" fill="#583A3A"/>
<path d="M22.1787 8.40397C22.1787 8.40397 22.3433 9.57466 22.6104 9.48774C22.8748 9.40082 22.578 8.21655 22.578 8.21655L22.1787 8.40397Z" fill="#583A3A"/>
<path d="M21.3746 8.94437C21.3746 8.94437 25.7049 7.56181 25.972 7.18969C26.2391 6.81757 24.8253 7.15981 24.8253 7.15981C24.8253 7.15981 24.0915 5.39155 22.1544 6.22543C20.3872 6.98597 21.3746 8.94708 21.3746 8.94708V8.94437Z" fill="#FF5555"/>
<path d="M35.7709 20.798C35.7466 20.798 35.7223 20.7844 35.7115 20.7627L35.1827 19.7685C35.1665 19.7359 35.1773 19.6952 35.2097 19.6762C35.2421 19.6572 35.2826 19.6707 35.3014 19.7033L35.8302 20.6975C35.8464 20.7301 35.8356 20.7708 35.8033 20.7898C35.7925 20.7953 35.7817 20.798 35.7709 20.798Z" fill="#583A3A"/>
<path d="M36.4727 20.4693C36.4485 20.4693 36.4242 20.4557 36.4107 20.4313L35.9224 19.3665C35.9062 19.3312 35.9224 19.2932 35.9547 19.2769C35.9871 19.2606 36.0276 19.2769 36.0438 19.3095L36.5321 20.3743C36.5483 20.4096 36.5321 20.4476 36.4997 20.4639C36.4916 20.4693 36.4808 20.4693 36.4727 20.4693Z" fill="#583A3A"/>
<path d="M29.6171 33.9961V35.6585H25.8643V33.7979L29.6171 33.9961Z" fill="#FF9583"/>
<path d="M25.8078 40.5177C26.029 40.792 34.8028 41.1098 35.2345 41.0609C35.6688 41.012 35.5285 41.0935 35.6688 41.012C35.8091 40.9305 35.6823 39.8332 35.6823 39.8332C35.6823 39.8332 35.6823 39.8223 35.6823 39.8033C35.6769 39.6322 35.623 38.6896 34.9215 38.198C34.1472 37.6575 32.8117 37.4157 32.8117 37.4157C32.8117 37.4157 30.5292 35.7914 30.3404 35.7045C30.1515 35.6176 29.968 34.7756 29.8817 34.7457C29.8008 34.7158 25.9211 34.7864 25.6837 34.9521C25.5056 35.0771 25.5407 37.9698 25.6621 39.5371C25.7026 40.0695 25.7511 40.447 25.8078 40.5177Z" fill="#4D7046"/>
<path d="M25.8078 40.5177C26.029 40.792 34.8028 41.1098 35.2345 41.0609C35.6688 41.012 35.5285 41.0935 35.6688 41.012C35.8091 40.9305 35.6823 39.8332 35.6823 39.8332C35.6823 39.8332 35.6823 39.8223 35.6823 39.8033C34.2092 39.8033 30.2594 39.7761 27.7773 39.6512C26.9113 39.6077 26.2152 39.5697 25.6621 39.5371C25.7026 40.0695 25.7511 40.447 25.8078 40.5177Z" fill="#FCE4E0"/>
<path d="M31.1792 34.4742C31.1792 34.4742 33.9419 26.5808 32.5335 24.0629C31.1252 21.545 21.0025 23.3675 21.0025 23.3675L16.3404 23.593C16.3404 23.593 15.3961 28.2051 17.3791 29.4872C19.3594 30.7692 25.3381 30.3183 25.3381 30.3183L24.5989 34.4796H31.1819L31.1792 34.4742Z" fill="#A55D47"/>
<path d="M29.5174 36.6117C29.4904 36.6117 29.4661 36.5954 29.4553 36.571C29.4419 36.5357 29.4553 36.4976 29.4904 36.4813L30.6802 35.9761C30.7153 35.9625 30.7531 35.9761 30.7692 36.0114C30.7827 36.0467 30.7692 36.0848 30.7342 36.1011L29.5444 36.6063C29.5444 36.6063 29.5255 36.6117 29.5174 36.6117Z" fill="#FF5555"/>
<path d="M30.2322 37.0653C30.2053 37.0653 30.181 37.049 30.1702 37.0246C30.1567 36.9893 30.1702 36.9513 30.2053 36.935L31.3951 36.4297C31.4301 36.4162 31.4706 36.4297 31.4841 36.4651C31.4976 36.5004 31.4841 36.5384 31.449 36.5547L30.2592 37.0599C30.2592 37.0599 30.2403 37.0653 30.2322 37.0653Z" fill="#FF5555"/>
<path d="M25.3379 30.3781C25.3379 30.3781 25.3136 30.3754 25.3028 30.3672C25.2813 30.3536 25.2678 30.3265 25.2732 30.302C25.2813 30.2396 25.4971 28.7782 26.0178 28.5202C26.1419 28.4577 26.2741 28.4659 26.409 28.5419C26.5412 28.618 26.6113 28.7239 26.6194 28.857C26.6518 29.4274 25.4269 30.3265 25.3757 30.3645C25.3649 30.3727 25.3514 30.3781 25.3379 30.3781ZM26.1905 28.6126C26.1527 28.6126 26.1149 28.6207 26.0772 28.6397C25.7372 28.8081 25.516 29.6827 25.4296 30.1608C25.8208 29.8539 26.5115 29.2319 26.4899 28.8652C26.4845 28.7782 26.4387 28.7103 26.3443 28.6587C26.2903 28.6288 26.239 28.6126 26.1905 28.6126Z" fill="white"/>
<path d="M41.0024 49.4241C44.3148 49.4241 47 46.6685 47 43.2692C47 39.8699 44.3148 37.1143 41.0024 37.1143C37.6901 37.1143 35.0049 39.8699 35.0049 43.2692C35.0049 46.6685 37.6901 49.4241 41.0024 49.4241Z" fill="#583A3A"/>
<path d="M10.9175 49.9974C14.2298 49.9974 16.915 47.2417 16.915 43.8424C16.915 40.4432 14.2298 37.6875 10.9175 37.6875C7.60512 37.6875 4.91992 40.4432 4.91992 43.8424C4.91992 47.2417 7.60512 49.9974 10.9175 49.9974Z" fill="#583A3A"/>
<path d="M41.6086 45.9778C43.0941 45.6404 44.0268 44.1546 43.6917 42.659C43.3567 41.1635 41.8808 40.2245 40.3953 40.5618C38.9098 40.8992 37.9772 42.385 38.3122 43.8806C38.6473 45.3761 40.1231 46.3151 41.6086 45.9778Z" fill="#994239"/>
<path d="M11.552 46.5448C13.0337 46.1911 13.9501 44.695 13.5987 43.2033C13.2473 41.7115 11.7613 40.789 10.2796 41.1427C8.79786 41.4964 7.88151 42.9925 8.23287 44.4843C8.58423 45.976 10.0702 46.8986 11.552 46.5448Z" fill="#994239"/>
<path d="M24.3236 13.429C24.3236 13.429 25.9208 16.8867 27.4424 17.4327C28.3624 17.7613 31.3086 17.2751 31.3086 17.2751L32.2583 21.2326C32.2583 21.2326 28.1196 23.9624 24.9765 22.1453C22.8721 20.9284 21.9629 18.8206 21.9629 18.8206L24.3236 13.429Z" fill="#FCE4E0"/>
<path d="M26.3986 18.875C26.3527 18.875 26.3123 18.8559 26.2826 18.8179C26.1801 18.6903 26.145 18.549 26.1828 18.3996C26.315 17.8564 27.3726 17.3892 27.4184 17.3702C27.4454 17.3593 27.4751 17.3647 27.494 17.3865C27.5128 17.4082 27.5182 17.4408 27.5021 17.4652C27.3752 17.6961 26.7331 18.8478 26.4148 18.875C26.4094 18.875 26.404 18.875 26.4013 18.875H26.3986ZM27.2781 17.5875C26.9706 17.745 26.3959 18.0818 26.3123 18.4322C26.2853 18.5409 26.3123 18.6387 26.3878 18.7337C26.5632 18.7256 26.9786 18.109 27.2808 17.5875H27.2781Z" fill="white"/>
<path d="M23.8166 24.666C23.8166 24.666 24.5559 17.707 24.6476 16.1289C24.707 15.1185 24.7043 13.5485 24.7043 13.5485C24.7043 13.5485 24.7744 13.0107 24.7313 12.7852C24.6908 12.5598 21.9928 10.9083 21.6718 10.9599C21.3534 11.0115 21.7176 11.6824 21.7176 11.6824C21.7176 11.6824 18.7148 11.6037 17.0097 15.5205C15.7848 18.329 15.4287 23.8294 15.4287 23.8294L23.8166 24.6687V24.666Z" fill="#FFBA08"/>
<path d="M22.7858 12.3232C22.7858 12.3232 22.7642 12.3232 22.7534 12.3151L21.685 11.742C21.6527 11.723 21.6392 11.6822 21.658 11.6496C21.6769 11.617 21.7174 11.6034 21.7498 11.6225L22.8182 12.1956C22.8505 12.2146 22.864 12.2553 22.8451 12.2879C22.8344 12.3097 22.8101 12.3232 22.7858 12.3232Z" fill="white"/>
<path d="M23.509 16.2129C23.509 16.2129 23.6169 13.0838 21.9874 12.1549C20.3578 11.2259 17.5789 11.9701 17.5789 11.9701L17.2524 15.0069C17.2524 15.0069 19.311 12.2581 21.7418 13.1028C23.5576 13.7357 23.509 16.2156 23.509 16.2156V16.2129Z" fill="#04B200"/>
<path d="M20.0634 22.1806C20.0634 22.1806 18.1101 21.7433 16.9608 21.0479C15.8114 20.3498 15.5066 18.4268 15.5066 18.4268L15.0884 21.7677C15.0884 21.7677 16.95 22.7537 20.0634 22.1806Z" fill="#04B200"/>
<path d="M24.553 17.5303C24.553 17.5303 25.2167 14.9553 25.0899 14.4827C24.9658 14.0101 24.6987 13.7683 24.6987 13.7683L24.5503 17.5303H24.553Z" fill="#04B200"/>
<path d="M37.0903 23.582C37.0903 23.582 38.0561 27.1756 38.5553 30.0032C39.049 32.809 38.817 36.3102 38.817 36.3102C38.817 36.3102 40.2739 35.3894 43.1877 36.3102C46.1014 37.231 45.7723 39.5398 45.7723 39.5398C45.7723 39.5398 43.7488 37.6901 40.6111 39.1867C37.4734 40.6833 36.9122 43.2148 36.575 43.3289C36.2377 43.443 33.9957 43.3289 33.9957 43.3289C33.9957 43.3289 33.8824 44.3638 33.1 44.8256C32.3176 45.2873 17.9672 45.0564 17.6326 44.8256C17.2954 44.5947 17.6326 42.984 17.6326 42.984C17.6326 42.984 4.4828 42.9324 4.03494 42.7042C3.58708 42.4733 7.43167 35.5062 12.9247 33.4337C18.4177 31.364 24.8065 32.3989 25.141 33.3197C25.4783 34.2405 23.0124 35.5062 22.6751 37.8069C22.3379 40.1075 26.7625 42.0822 30.8634 40.8436C36.5777 39.1161 33.3995 23.8265 33.3995 23.8265L37.0903 23.5847V23.582Z" fill="#FF5555"/>
<path d="M14.7029 34.1211H24.9686C25.5169 34.1211 25.9614 33.6736 25.9614 33.1215V31.3234C25.9614 30.7713 25.5169 30.3238 24.9686 30.3238H14.7029C14.1545 30.3238 13.71 30.7713 13.71 31.3234V33.1215C13.71 33.6736 14.1545 34.1211 14.7029 34.1211Z" fill="#A0463A"/>
<path d="M33.6073 25.584H37.174C37.7656 25.584 38.2451 25.1012 38.2451 24.5056V21.5993C38.2451 21.0037 37.7656 20.521 37.174 20.521H33.6073C33.0158 20.521 32.5362 21.0037 32.5362 21.5993V24.5056C32.5362 25.1012 33.0158 25.584 33.6073 25.584Z" fill="#A0463A"/>
<path d="M27.8041 34.3221V35.9844H24.0513V34.1238L27.8041 34.3221Z" fill="#FF9583"/>
<path d="M23.9943 40.8436C24.2156 41.1179 32.9893 41.4357 33.421 41.3868C33.8554 41.3379 33.7151 41.4194 33.8554 41.3379C33.9956 41.2564 33.8688 40.1591 33.8688 40.1591C33.8688 40.1591 33.8688 40.1482 33.8688 40.1292C33.8634 39.9581 33.8095 39.0156 33.108 38.5239C32.3337 37.9834 30.9982 37.7417 30.9982 37.7417C30.9982 37.7417 28.7157 36.1174 28.5269 36.0304C28.338 35.9435 28.1546 35.1015 28.0682 35.0716C27.9873 35.0417 24.1076 35.1124 23.8702 35.2781C23.6922 35.403 23.7272 38.2958 23.8486 39.863C23.8891 40.3954 23.9377 40.773 23.9943 40.8436Z" fill="#04B200"/>
<path d="M23.9943 40.8436C24.2156 41.1179 32.9893 41.4357 33.421 41.3868C33.8553 41.3379 33.7151 41.4194 33.8553 41.3379C33.9956 41.2565 33.8688 40.1591 33.8688 40.1591C33.8688 40.1591 33.8688 40.1482 33.8688 40.1292C32.3958 40.1292 28.4459 40.1021 25.9638 39.9771C25.0978 39.9337 24.4017 39.8956 23.8486 39.863C23.8891 40.3954 23.9377 40.773 23.9943 40.8436Z" fill="#FCE4E0"/>
<path d="M29.4983 34.8001C29.4983 34.8001 32.0532 26.9068 30.7528 24.3888C29.4524 21.8709 20.0878 23.6935 20.0878 23.6935L15.7765 23.9189C15.7765 23.9189 14.905 28.5311 16.737 29.8131C18.5689 31.0952 24.097 30.6443 24.097 30.6443L23.4117 34.8055H29.4983V34.8001Z" fill="#B56A4D"/>
<path d="M27.7044 36.9377C27.6774 36.9377 27.6531 36.9214 27.6424 36.8969C27.6289 36.8616 27.6424 36.8236 27.6774 36.8073L28.8672 36.3021C28.9023 36.2885 28.9428 36.3021 28.9563 36.3374C28.9697 36.3727 28.9563 36.4107 28.9212 36.427L27.7314 36.9322C27.7314 36.9322 27.7125 36.9377 27.7044 36.9377Z" fill="#FF5555"/>
<path d="M28.4193 37.394C28.3923 37.394 28.368 37.3777 28.3572 37.3532C28.3437 37.3179 28.3572 37.2799 28.3923 37.2636L29.5821 36.7584C29.6171 36.7448 29.6576 36.7584 29.6711 36.7937C29.6846 36.829 29.6711 36.867 29.636 36.8833L28.4462 37.3885C28.4462 37.3885 28.4273 37.394 28.4193 37.394Z" fill="#FF5555"/>
<path d="M23.5249 30.7068C23.5249 30.7068 23.5006 30.7041 23.4898 30.6959C23.4655 30.6823 23.4547 30.6552 23.4574 30.628C23.4655 30.5655 23.6814 29.1042 24.2048 28.8434C24.3316 28.781 24.4611 28.7891 24.596 28.8652C24.7282 28.9412 24.801 29.0472 24.8091 29.183C24.8415 29.7534 23.6166 30.6552 23.5654 30.6932C23.5546 30.7013 23.5411 30.7068 23.5249 30.7068ZM24.3774 28.9412C24.3397 28.9412 24.3019 28.9494 24.2641 28.9684C23.9269 29.1368 23.7056 30.006 23.6193 30.484C24.0105 30.1771 24.6958 29.5578 24.6742 29.1938C24.6688 29.1069 24.623 29.039 24.5312 28.9874C24.4773 28.9575 24.426 28.9412 24.3774 28.9412Z" fill="white"/>
<path d="M33.3994 21.0968C33.3994 21.7976 33.9633 22.3653 34.6594 22.3653C35.3554 22.3653 35.9193 21.7976 35.9193 21.0968C35.9193 20.3961 35.3554 19.8284 34.6594 19.8284C33.9633 19.8284 33.3994 20.3961 33.3994 21.0968Z" fill="#583A3A"/>
<path d="M7.14601 39.8875C7.14601 39.8875 7.12173 39.8848 7.11094 39.8766C7.07856 39.8576 7.06777 39.8141 7.08935 39.7843C8.58132 37.3044 11.8647 35.3052 11.8971 35.2862C11.9295 35.2672 11.97 35.2781 11.9888 35.3107C12.0077 35.3433 11.9969 35.384 11.9646 35.403C11.9322 35.422 8.67845 37.4049 7.20267 39.8549C7.18918 39.8766 7.16759 39.8875 7.14601 39.8875Z" fill="white"/>
<path d="M37.7783 36.3564C37.7783 36.3564 37.7649 36.3564 37.7568 36.3537C37.7217 36.3401 37.7028 36.3021 37.7163 36.2668C38.067 35.2482 37.8755 32.2576 37.8728 32.2277C37.8728 32.1897 37.8971 32.1571 37.9348 32.1544C37.978 32.149 38.005 32.1816 38.0077 32.2169C38.0158 32.3418 38.2046 35.2672 37.8431 36.3102C37.8323 36.3374 37.808 36.3564 37.7783 36.3564Z" fill="white"/>
<path d="M30.7988 19.5268C30.7988 19.5268 32.8924 18.2094 33.6263 18.1252C34.3601 18.041 35.9303 20.1977 35.612 20.3878C35.2936 20.5779 34.8269 20.1515 34.8269 20.1515C34.8269 20.1515 35.3368 20.6024 35.0805 20.8143C34.8268 21.0288 34.0903 20.7708 34.0903 20.7708C34.0903 20.7708 32.1532 23.0524 30.0731 21.7106C28.2546 20.5372 30.7961 19.5268 30.7961 19.5268H30.7988Z" fill="#F7C06D"/>
<path d="M34.8269 20.2193C34.8269 20.2193 34.8 20.2166 34.7892 20.2085L33.8584 19.5837C33.8287 19.562 33.8179 19.5213 33.8395 19.4887C33.8611 19.4561 33.9015 19.4479 33.9339 19.4696L34.8647 20.0944C34.8944 20.1161 34.9052 20.1569 34.8836 20.1894C34.8701 20.2085 34.8485 20.2193 34.8269 20.2193Z" fill="#583A3A"/>
<path d="M35.2909 19.5946C35.2774 19.5946 35.2612 19.5891 35.2504 19.581L34.3196 18.8775C34.2899 18.8558 34.2845 18.8123 34.3061 18.7824C34.3277 18.7525 34.3708 18.7471 34.4005 18.7688L35.3313 19.4723C35.361 19.4941 35.3664 19.5375 35.3448 19.5674C35.3313 19.5864 35.3124 19.5946 35.2909 19.5946Z" fill="#583A3A"/>
<path d="M31.1226 18.5923L31.4194 22.7671C31.4194 22.7671 22.3057 25.3882 19.8586 22.3597C17.4116 19.3284 19.3946 12.1222 21.6528 12.804C23.2688 13.2929 23.6708 17.2532 23.6708 17.2532L31.1226 18.5923Z" fill="#FCE4E0"/>
<path d="M22.7238 17.4136C22.4486 17.4136 22.2004 17.3783 22.1195 17.2615C22.0871 17.2181 22.0628 17.142 22.1221 17.0306C22.4162 16.4983 23.5709 17.1203 23.7031 17.1936C23.7274 17.2072 23.7409 17.2371 23.7355 17.2642C23.7301 17.2914 23.7085 17.3158 23.6816 17.3186C23.5494 17.3403 23.1069 17.4109 22.7238 17.4109V17.4136ZM22.5565 16.9546C22.4135 16.9546 22.2975 16.9953 22.2409 17.0985C22.2085 17.1556 22.2247 17.1773 22.2301 17.1827C22.3245 17.3158 22.945 17.2887 23.4549 17.2181C23.1986 17.0958 22.829 16.9546 22.5592 16.9546H22.5565Z" fill="white"/>
<path d="M9.93756 21.8701L15.2777 22.5483C15.9444 22.633 16.553 22.1575 16.6372 21.4863L17.7771 12.3884C17.8613 11.7172 17.389 11.1044 16.7222 11.0197L11.3821 10.3415C10.7154 10.2568 10.1067 10.7323 10.0226 11.4036L8.88264 20.5014C8.79853 21.1726 9.27083 21.7854 9.93756 21.8701Z" fill="#4D7046"/>
<path d="M10.6309 21.9602L15.971 22.6384C16.6377 22.7231 17.2464 22.2476 17.3305 21.5764L18.4705 12.4785C18.5546 11.8073 18.0823 11.1945 17.4156 11.1098L12.0755 10.4316C11.4088 10.3469 10.8001 10.8224 10.716 11.4937L9.576 20.5915C9.49189 21.2627 9.9642 21.8755 10.6309 21.9602Z" fill="#04B200"/>
<path d="M17.8268 16.1151L10.2563 15.1536C10.2186 15.1482 10.1943 15.1156 10.197 15.0775C10.2024 15.0395 10.2348 15.0151 10.2725 15.0178L17.8349 15.9793C17.8727 15.9848 17.8969 16.0174 17.8942 16.0554C17.8889 16.0907 17.8619 16.1151 17.8268 16.1151Z" fill="#E8821C"/>
</g>
</g>
<defs>
<clipPath id="clip0_5_19109">
<rect width="47" height="48" fill="white"/>
</clipPath>
<clipPath id="clip1_5_19109">
<rect width="43" height="44" fill="white" transform="translate(4 6)"/>
</clipPath>
</defs>
</svg>
