<svg width="12" height="12" viewBox="0 0 12 12" fill="none" xmlns="http://www.w3.org/2000/svg">
<path d="M11 6.5V7.5C11 10 10 11 7.5 11H4.5C2 11 1 10 1 7.5V6.74" stroke="white" stroke-linecap="round" stroke-linejoin="round"/>
<path d="M5.5 1H4.5C2 1 1 2 1 4.5" stroke="white" stroke-linecap="round" stroke-linejoin="round"/>
<path d="M9.96494 4.50513L10.4899 3.98013C11.1699 3.30013 11.4899 2.51013 10.4899 1.51013C9.48994 0.510126 8.69994 0.830126 8.01994 1.51013L4.07994 5.45013C3.92994 5.60013 3.77994 5.89513 3.74994 6.11013L3.53494 7.61513C3.45494 8.16013 3.83994 8.54013 4.38494 8.46513L5.88994 8.25013C6.09994 8.22013 6.39494 8.07013 6.54994 7.92013L8.13994 6.33013L8.50494 5.96513" stroke="white" stroke-miterlimit="10" stroke-linecap="round" stroke-linejoin="round"/>
<path d="M7.45508 2.0752C7.79008 3.2702 8.72508 4.2052 9.92508 4.5452" stroke="white" stroke-miterlimit="10" stroke-linecap="round" stroke-linejoin="round"/>
</svg>
