<svg width="14" height="11" viewBox="0 0 14 11" fill="none" xmlns="http://www.w3.org/2000/svg">
<path d="M9.7944 2.7809C10.0973 2.7809 10.3941 2.69578 10.6509 2.53524L13.9657 0.463483C13.9657 0.207498 13.7582 0 13.5023 0H6.08653C5.83057 0 5.62305 0.207498 5.62305 0.463483L8.9379 2.53524C9.19473 2.69578 9.49151 2.7809 9.7944 2.7809Z" fill="#FF5555"/>
<path d="M9.7944 3.24515C9.49151 3.24515 9.19473 3.16003 8.9379 2.99949L5.62305 0.927734V4.6356C5.62305 5.14754 6.03807 5.56257 6.55001 5.56257H13.0388C13.5507 5.56257 13.9657 5.14754 13.9657 4.6356V0.927734L10.6509 2.99949C10.3941 3.16003 10.0973 3.24515 9.7944 3.24515Z" fill="#FF5555"/>
<path d="M7.87921 7.29286C7.11528 7.29286 6.46014 7.75544 6.17629 8.41533C4.47506 7.86839 3.13233 6.52564 2.5854 4.82444C3.24529 4.54056 3.70787 3.88542 3.70787 3.12151C3.70787 2.0976 2.87784 1.26758 1.85393 1.26758C0.830021 1.26758 0 2.0976 0 3.12151C0 7.47309 3.52764 11.0007 7.87921 11.0007C8.90313 11.0007 9.73315 10.1707 9.73315 9.14679C9.73315 8.12288 8.90313 7.29286 7.87921 7.29286Z" fill="#FF5555"/>
</svg>
