<svg width="81" height="82" viewBox="0 0 81 82" fill="none" xmlns="http://www.w3.org/2000/svg">
<path d="M58.7561 0.401302C57.8256 0.565189 57.0166 0.659715 56.2076 0.754242C49.3863 3.19107 44.9877 9.99085 37.2495 9.25489C25.3716 8.18318 10.7212 4.42851 2.69996 15.5532C1.41096 17.545 0.584157 19.775 0.423339 22.0989C0.262521 24.4227 0.767073 26.8405 2.1371 29.2086C5.52655 34.8256 10.2007 39.7459 9.37084 46.6752C8.10701 56.908 0.647379 70.9636 9.17074 78.7068C10.1178 79.5661 11.262 80.35 12.6345 81.0393C14.6152 81.9809 16.9121 82.2362 18.9567 81.469C20.1049 81.0221 21.2589 80.6301 22.4186 80.2929C31.2071 78.1507 39.8845 77.3853 48.8173 78.6614C53.4111 79.4268 58.0054 80.9583 62.8005 80.1345C63.5726 79.9942 64.335 79.8052 65.0833 79.5686C66.6553 79.0696 68.1415 78.3322 69.4898 77.3822C70.1762 76.7612 70.7996 76.0739 71.3509 75.3302C72.9615 73.1469 73.8061 70.5861 73.7312 67.8086C73.692 67.0046 73.5587 66.208 73.3341 65.435C72.3612 62.3715 70.9709 59.3583 69.8053 56.3298C68.6397 53.3012 67.6993 50.266 67.6275 47.184C67.3089 44.2733 68.6096 41.3884 69.9459 38.7748C73.1536 33.4807 77.6602 29.9476 79.4599 24.2717C80.9871 18.6247 80.5648 12.664 77.5074 7.55525C75.1473 3.73122 71.233 0.635162 66.4385 0.291429C64.1392 0.0121458 61.5888 0.0287192 58.7561 0.401302Z" fill="#DCE5F7" fill-opacity="0.2"/>
<path d="M68.9244 70.9989L39.1204 69.0545L9.2973 70.9989C9.18055 70.9989 9.08594 70.9043 9.08594 70.7875V31.0312H69.1359V70.7875C69.1358 70.9043 69.0412 70.9989 68.9244 70.9989Z" fill="#8E8E8E"/>
<path d="M69.0908 30.9216L39.2106 1.04132C39.1555 0.986226 39.0662 0.986226 39.0111 1.04132L9.13095 30.9216C9.07093 30.9816 9.07093 31.079 9.13095 31.139L39.1109 61.1188L69.0908 31.1388C69.1509 31.0788 69.1509 30.9816 69.0908 30.9216Z" fill="#6A6A6A"/>
<path d="M68.925 71C68.9834 71 69.0361 70.9763 69.0744 70.938L39.211 41.0744C39.156 41.0195 39.0669 41.0195 39.0119 41.0744L9.14844 70.938C9.18672 70.9763 9.23949 71 9.29787 71H68.925Z" fill="#838383"/>
<path d="M44.9445 26.2782L39.1112 32.1116L33.2778 26.2782H8.21273C8.09529 26.2782 8 26.1829 8 26.0655V10.9354C8 10.8179 8.09529 10.7227 8.21273 10.7227H70.0096C70.127 10.7227 70.2223 10.8179 70.2223 10.9354V26.0655C70.2223 26.1829 70.127 26.2782 70.0096 26.2782H44.9445Z" fill="#F4AA65"/>
<path d="M18.2193 16.5277C17.9362 16.0373 17.3088 15.8694 16.8186 16.1524L15.8308 16.7227V15.582C15.8308 15.0156 15.3719 14.5566 14.8055 14.5566C14.239 14.5566 13.7801 15.0156 13.7801 15.582V16.7228L12.7921 16.1524C12.3014 15.8693 11.6745 16.0372 11.3915 16.5277C11.1083 17.0181 11.2763 17.6453 11.7667 17.9284L12.7547 18.4988L11.7669 19.069C11.2765 19.3522 11.1084 19.9793 11.3916 20.4697C11.5815 20.7987 11.9262 20.9826 12.2805 20.9826C12.4544 20.9826 12.6308 20.9383 12.7923 20.845L13.7802 20.2746V21.4154C13.7802 21.9818 14.2392 22.4408 14.8056 22.4408C15.372 22.4408 15.831 21.9818 15.831 21.4154V20.2748L16.8188 20.845C16.9804 20.9383 17.1566 20.9826 17.3305 20.9826C17.6849 20.9826 18.0296 20.7987 18.2195 20.4697C18.5026 19.9793 18.3346 19.3522 17.8442 19.069L16.8562 18.4988L17.844 17.9285C18.3344 17.6453 18.5026 17.0181 18.2193 16.5277Z" fill="#EAF9FA"/>
<path d="M27.942 16.5277C27.659 16.0373 27.0316 15.8694 26.5413 16.1524L25.5534 16.7228V15.582C25.5534 15.0156 25.0944 14.5566 24.528 14.5566C23.9615 14.5566 23.5026 15.0156 23.5026 15.582V16.7227L22.5148 16.1524C22.0241 15.8693 21.397 16.0372 21.1141 16.5277C20.831 17.0181 20.999 17.6453 21.4894 17.9284L22.4772 18.4987L21.4894 19.0689C20.999 19.352 20.831 19.9792 21.1141 20.4696C21.304 20.7985 21.6487 20.9824 22.0031 20.9824C22.177 20.9824 22.3533 20.9381 22.5148 20.8449L23.5026 20.2746V21.4153C23.5026 21.9817 23.9615 22.4407 24.528 22.4407C25.0944 22.4407 25.5534 21.9817 25.5534 21.4153V20.2745L26.5413 20.8449C26.7029 20.9381 26.8791 20.9824 27.053 20.9824C27.4074 20.9824 27.7521 20.7985 27.942 20.4696C28.2251 19.9792 28.0571 19.352 27.5667 19.0689L26.5788 18.4988L27.5665 17.9285C28.057 17.6453 28.2251 17.0181 27.942 16.5277Z" fill="#EAF9FA"/>
<path d="M66.4554 19.0689L65.4676 18.4987L66.4554 17.9284C66.9458 17.6453 67.1138 17.0181 66.8306 16.5277C66.5476 16.0373 65.9202 15.8694 65.43 16.1524L64.4422 16.7227V15.582C64.4422 15.0156 63.9832 14.5566 63.4168 14.5566C62.8504 14.5566 62.3914 15.0156 62.3914 15.582V16.7228L61.4035 16.1524C60.9126 15.8693 60.2858 16.0372 60.0028 16.5277C59.7196 17.0181 59.8877 17.6453 60.3781 17.9284L61.3659 18.4987L60.3781 19.0689C59.8877 19.352 59.7196 19.9792 60.0028 20.4696C60.1927 20.7985 60.5373 20.9824 60.8917 20.9824C61.0656 20.9824 61.242 20.9381 61.4035 20.8449L62.3914 20.2745V21.4153C62.3914 21.9817 62.8504 22.4407 63.4168 22.4407C63.9832 22.4407 64.4422 21.9817 64.4422 21.4153V20.2746L65.43 20.8449C65.5916 20.9381 65.7678 20.9824 65.9417 20.9824C66.2961 20.9824 66.6407 20.7985 66.8306 20.4696C67.1138 19.9793 66.9458 19.3522 66.4554 19.0689Z" fill="#EAF9FA"/>
<path d="M57.108 16.5277C56.825 16.0373 56.1974 15.8694 55.7073 16.1524L54.7195 16.7227V15.582C54.7195 15.0156 54.2605 14.5566 53.6941 14.5566C53.1277 14.5566 52.6687 15.0156 52.6687 15.582V16.7228L51.6808 16.1524C51.1901 15.8693 50.5631 16.0372 50.2801 16.5277C49.997 17.0181 50.165 17.6453 50.6554 17.9284L51.6432 18.4987L50.6554 19.0689C50.165 19.352 49.997 19.9792 50.2801 20.4696C50.47 20.7985 50.8147 20.9824 51.1691 20.9824C51.343 20.9824 51.5193 20.9381 51.6808 20.8449L52.6687 20.2745V21.4153C52.6687 21.9817 53.1277 22.4407 53.6941 22.4407C54.2605 22.4407 54.7195 21.9817 54.7195 21.4153V20.2746L55.7073 20.8449C55.8689 20.9381 56.0451 20.9824 56.219 20.9824C56.5734 20.9824 56.9181 20.7985 57.108 20.4696C57.3911 19.9792 57.2231 19.352 56.7327 19.0689L55.7448 18.4988L56.7326 17.9285C57.223 17.6453 57.3911 17.0181 57.108 16.5277Z" fill="#EAF9FA"/>
<path d="M37.6627 16.5277C37.3797 16.0373 36.7521 15.8694 36.262 16.1524L35.2741 16.7228V15.582C35.2741 15.0156 34.8151 14.5566 34.2487 14.5566C33.6823 14.5566 33.2233 15.0156 33.2233 15.582V16.7227L32.2355 16.1524C31.7447 15.8693 31.1178 16.0372 30.8348 16.5277C30.5517 17.0181 30.7197 17.6453 31.2101 17.9284L32.1979 18.4987L31.2101 19.0689C30.7197 19.352 30.5517 19.9792 30.8348 20.4696C31.0247 20.7985 31.3694 20.9824 31.7238 20.9824C31.8977 20.9824 32.074 20.9381 32.2355 20.8449L33.2233 20.2746V21.4153C33.2233 21.9817 33.6823 22.4407 34.2487 22.4407C34.8151 22.4407 35.2741 21.9817 35.2741 21.4153V20.2745L36.262 20.8449C36.4236 20.9381 36.5998 20.9824 36.7737 20.9824C37.1281 20.9824 37.4728 20.7985 37.6627 20.4696C37.9458 19.9792 37.7778 19.352 37.2874 19.0689L36.2996 18.4988L37.2874 17.9285C37.7778 17.6453 37.9458 17.0181 37.6627 16.5277Z" fill="#EAF9FA"/>
<path d="M47.3855 16.5276C47.1025 16.0372 46.4751 15.8693 45.9848 16.1523L44.9969 16.7227V15.582C44.9969 15.0156 44.5379 14.5566 43.9715 14.5566C43.405 14.5566 42.9461 15.0156 42.9461 15.582V16.7227L41.9581 16.1523C41.4673 15.8691 40.8403 16.037 40.5575 16.5276C40.2743 17.018 40.4423 17.6451 40.9328 17.9283L41.9205 18.4985L40.9328 19.0688C40.4423 19.3519 40.2743 19.979 40.5575 20.4694C40.7474 20.7984 41.092 20.9823 41.4464 20.9823C41.6203 20.9823 41.7967 20.938 41.9581 20.8447L42.9461 20.2744V21.415C42.9461 21.9814 43.405 22.4404 43.9715 22.4404C44.5379 22.4404 44.9969 21.9814 44.9969 21.415V20.2744L45.9848 20.8447C46.1464 20.938 46.3226 20.9823 46.4965 20.9823C46.8509 20.9823 47.1956 20.7984 47.3855 20.4694C47.6686 19.979 47.5006 19.3519 47.0102 19.0688L46.0224 18.4987L47.0102 17.9284C47.5006 17.6451 47.6688 17.018 47.3855 16.5276Z" fill="#EAF9FA"/>
</svg>
