<svg width="19" height="14" viewBox="0 0 19 14" fill="none" xmlns="http://www.w3.org/2000/svg">
<path d="M7.59808 5.42592C8.63665 5.96311 9.85428 5.96311 10.857 5.42592L16.4796 2.5609L17.7689 1.91627C17.3033 0.913519 16.2647 0.197266 15.0471 0.197266H3.44381C2.26199 0.197266 1.22342 0.913519 0.722046 1.91627L2.0113 2.5609L7.59808 5.42592Z" fill="#FE724C"/>
<path d="M11.5375 6.71513C10.8213 7.07326 10.0334 7.25232 9.24551 7.25232C8.45763 7.25232 7.66975 7.07326 6.9535 6.71513L1.83229 4.10081L0.39978 3.38455V10.189C0.39978 11.8363 1.76066 13.1972 3.40804 13.1972H15.0472C16.6945 13.1972 18.0554 11.8363 18.0554 10.189V3.38455L16.6229 4.10081L11.5375 6.71513Z" fill="#FE724C"/>
</svg>
