<svg width="120" height="120" viewBox="0 0 120 120" fill="none" xmlns="http://www.w3.org/2000/svg">
<path d="M112.979 63.7021C112.864 62.3535 111.996 61.2461 110.714 60.8118L100.31 57.2887L110.438 45.6683C111.111 44.897 111.392 43.877 111.211 42.8701C111.029 41.8632 110.408 41.0061 109.508 40.5186L96.4413 33.4388C95.5874 32.9763 94.521 33.2932 94.0581 34.1468C93.5957 35.0004 93.9128 36.0673 94.7662 36.5297L107.654 43.5123L96.8601 55.8955L62.7675 37.4236L69.0935 30.1662C69.8215 30.4334 70.6076 30.5791 71.427 30.5791C73.9711 30.5791 76.1919 29.1722 77.3551 27.0963L87.1236 32.389C87.3899 32.5331 87.6765 32.6016 87.9594 32.6016C88.5838 32.6016 89.1883 32.2683 89.5068 31.6807C89.9692 30.8271 89.6521 29.7602 88.7985 29.2978L78.2131 23.5629C78.0938 19.9218 75.0969 16.9961 71.4272 16.9961C67.6824 16.9961 64.6357 20.0428 64.6357 23.7876C64.6357 25.4365 65.2268 26.9494 66.2074 28.1271L60.0002 35.2484L49.003 22.6321C47.9647 21.4408 46.2695 21.1345 44.8794 21.8873L40.5807 24.2163C40.077 20.2331 36.6699 17.1416 32.5521 17.1416C28.0887 17.1416 24.4573 20.7731 24.4573 25.2368C24.4573 27.7048 25.5689 29.917 27.3162 31.403L10.4917 40.5186C9.59217 41.0061 8.97201 41.863 8.7899 42.8701C8.60826 43.877 8.88951 44.897 9.56194 45.6681L19.6903 57.2884L9.28654 60.8114C8.00427 61.2457 7.13637 62.3531 7.02153 63.7017C6.90669 65.0503 7.57466 66.2887 8.76482 66.9335L20.9822 73.5528V80.1877C20.9822 81.1585 21.769 81.9455 22.74 81.9455C23.711 81.9455 24.4978 81.1585 24.4978 80.1877V75.4575L41.5904 84.7182C42.3195 85.1134 43.1331 85.3142 43.9496 85.3142C44.4835 85.3142 45.0191 85.2282 45.5328 85.0543L58.2426 80.7509V115.725L25.2469 97.8473C24.7849 97.597 24.498 97.1151 24.498 96.5896V88.8655C24.498 87.8947 23.7112 87.1077 22.7402 87.1077C21.7692 87.1077 20.9824 87.8947 20.9824 88.8655V96.5896C20.9824 98.4065 21.9745 100.073 23.572 100.938L57.6442 119.399C58.3821 119.799 59.1914 119.999 60.0007 119.999C60.81 119.999 61.6193 119.799 62.3571 119.399L96.4293 100.938C98.0266 100.073 99.0189 98.4065 99.0189 96.5896V73.5525L111.236 66.9333C112.426 66.2892 113.094 65.051 112.979 63.7021ZM63.8862 50.1032C70.0395 51.8329 74.337 57.5071 74.337 63.9021C74.337 65.6829 74.0171 67.4112 73.3847 69.0487L60.0002 76.3006L46.6157 69.0487C45.9836 67.4112 45.6634 65.6829 45.6634 63.9021C45.6634 57.4874 49.9773 51.8083 56.1546 50.0914C57.0897 49.8315 57.6372 48.8624 57.3773 47.9272C57.1176 46.9918 56.148 46.4445 55.2131 46.7042C47.5206 48.8425 42.148 55.9143 42.148 63.9021C42.148 64.8654 42.226 65.8162 42.376 66.7519L26.43 58.112L60.0007 39.923L93.5711 58.1123L77.6251 66.7521C77.7751 65.8165 77.8531 64.8656 77.8531 63.9023C77.8531 55.9389 72.5011 48.8729 64.838 46.7188C63.9033 46.4558 62.9327 47.001 62.6702 47.9352C62.4068 48.8699 62.9512 49.8404 63.8862 50.1032ZM71.427 20.5122C73.2333 20.5122 74.7031 21.9817 74.7031 23.7881C74.7031 25.5944 73.2333 27.0642 71.427 27.0642C69.6206 27.0642 68.1511 25.5944 68.1511 23.7881C68.1511 21.9817 69.6206 20.5122 71.427 20.5122ZM32.5521 20.6578C35.0771 20.6578 37.1316 22.7121 37.1316 25.2372C37.1316 27.7622 35.0771 29.8167 32.5521 29.8167C30.0272 29.8167 27.9729 27.7624 27.9729 25.2372C27.9729 22.7121 30.0272 20.6578 32.5521 20.6578ZM31.3118 33.2372C31.7164 33.2998 32.1305 33.3324 32.5521 33.3324C35.8283 33.3324 38.6537 31.3751 39.9266 28.5696L46.4389 25.0413L57.2324 37.4241L23.1398 55.896L12.3461 43.5127L31.3118 33.2372ZM44.405 81.725C44.0291 81.8525 43.6133 81.8166 43.265 81.6277L23.5851 70.9652C23.58 70.9624 23.5746 70.9596 23.5694 70.9568L10.7692 64.0216L22.5766 60.0234L55.6213 77.9274L44.405 81.725ZM95.5026 96.5903C95.5026 97.1158 95.2155 97.5977 94.7538 97.848L61.758 115.726V80.7516L74.4678 85.055C74.9815 85.2289 75.5171 85.3149 76.0512 85.3149C76.8673 85.3149 77.6811 85.1138 78.4102 84.7189L95.5028 75.4582V96.5903H95.5026ZM76.7351 81.6277C76.3869 81.8166 75.9711 81.8525 75.5951 81.725L64.3791 77.9274L97.4238 60.0234L109.231 64.0216L76.7351 81.6277ZM109.586 64.1418C109.586 64.1418 109.586 64.1416 109.585 64.1416L109.586 64.1418Z" fill="#DFE1E3"/>
<path d="M73.146 99.5359L69.1135 101.721C68.2599 102.183 67.9431 103.25 68.4055 104.104C68.7238 104.691 69.3285 105.024 69.9528 105.024C70.2355 105.024 70.5226 104.956 70.7886 104.812L74.821 102.627C75.6746 102.165 75.9915 101.098 75.5291 100.244C75.0667 99.3906 74.0003 99.0733 73.146 99.5359Z" fill="#DFE1E3"/>
<path d="M39.3034 14.8031C39.6467 15.1462 40.0967 15.318 40.5465 15.318C40.9963 15.318 41.4463 15.1464 41.7896 14.8031L43.2397 13.353L44.6898 14.8031C45.0331 15.1462 45.4831 15.318 45.9329 15.318C46.3827 15.318 46.8327 15.1464 47.176 14.8031C47.8625 14.1166 47.8625 13.0035 47.176 12.3173L45.7257 10.867L47.176 9.41666C47.8625 8.73018 47.8625 7.61713 47.176 6.93088C46.4893 6.24439 45.3765 6.24439 44.69 6.93088L43.2399 8.38096L41.7899 6.93088C41.1031 6.24439 39.9903 6.24439 39.3038 6.93088C38.6174 7.61736 38.6174 8.73041 39.3038 9.41666L40.7542 10.867L39.3038 12.3173C38.6169 13.0035 38.6169 14.1166 39.3034 14.8031Z" fill="#DFE1E3"/>
<path d="M91.3444 26.3177C91.6878 26.6608 92.1378 26.8326 92.5875 26.8326C93.0373 26.8326 93.4873 26.6611 93.8306 26.3177L95.2807 24.8676L96.7308 26.3177C97.0742 26.6608 97.5242 26.8326 97.9739 26.8326C98.4237 26.8326 98.8737 26.6611 99.2171 26.3177C99.9035 25.6312 99.9035 24.5182 99.2171 23.8319L97.7667 22.3816L99.2171 20.9313C99.9035 20.2448 99.9035 19.1318 99.2171 18.4455C98.5303 17.759 97.4175 17.759 96.731 18.4455L95.281 19.8956L93.8309 18.4455C93.1442 17.759 92.0313 17.759 91.3449 18.4455C90.6584 19.132 90.6584 20.2451 91.3449 20.9313L92.7952 22.3816L91.3449 23.8319C90.6579 24.5182 90.6579 25.6312 91.3444 26.3177Z" fill="#DFE1E3"/>
<path d="M81.6399 15.3166C85.8629 15.3166 89.2983 11.8812 89.2983 7.65844C89.2981 3.43547 85.8626 0 81.6399 0C77.4171 0 73.9814 3.43547 73.9814 7.65844C73.9814 11.8812 77.4169 15.3166 81.6399 15.3166ZM81.6399 3.51562C83.9241 3.51562 85.7827 5.37398 85.7827 7.65844C85.7827 9.94266 83.9241 11.801 81.6399 11.801C79.3557 11.801 77.4971 9.94266 77.4971 7.65844C77.4971 5.37398 79.3557 3.51562 81.6399 3.51562Z" fill="#DFE1E3"/>
<path d="M59.8017 65.7466C58.1081 65.7466 56.5097 66.3081 55.2984 67.3295C54.5564 67.9553 54.462 69.0644 55.088 69.8064C55.7135 70.5487 56.8226 70.6429 57.5648 70.0171C58.1344 69.5369 58.9491 69.262 59.802 69.262H59.8137C60.6708 69.2645 61.4885 69.5446 62.0578 70.0305C62.389 70.3131 62.7947 70.4512 63.1981 70.4512C63.6947 70.4512 64.1883 70.2419 64.5359 69.8345C65.1661 69.0963 65.0784 67.9865 64.3402 67.3562C63.1298 66.3231 61.5258 65.7512 59.8238 65.7461C59.8165 65.7466 59.809 65.7466 59.8017 65.7466Z" fill="#DFE1E3"/>
<path d="M52.3647 60.5402H52.3483C51.3765 60.5259 50.5935 61.3153 50.5865 62.2859C50.5799 63.2566 51.3695 64.0491 52.3403 64.0559H52.3527C53.3176 64.0559 54.1035 63.2768 54.1103 62.3102C54.1171 61.3394 53.3357 60.547 52.3647 60.5402Z" fill="#DFE1E3"/>
<path d="M67.3081 64.0196C67.3142 64.0207 67.3206 64.0214 67.3267 64.0226C67.3773 64.0325 67.4286 64.0407 67.4807 64.0461C67.4975 64.0477 67.5146 64.0477 67.5315 64.0489C67.5706 64.0517 67.6098 64.0554 67.6499 64.0557H67.6623C67.7228 64.0557 67.7825 64.0526 67.8416 64.0465C68.7292 63.9577 69.422 63.2086 69.422 62.2976C69.422 61.3986 68.7467 60.6586 67.876 60.5539C67.8681 60.5529 67.8603 60.5511 67.8524 60.5504C67.8123 60.5461 67.7713 60.545 67.7303 60.5433C67.7115 60.5426 67.6932 60.5403 67.6742 60.54H67.6651C67.6649 60.54 67.6644 60.54 67.6642 60.54H67.6578H67.6475C67.6468 60.54 67.6461 60.54 67.6454 60.54C66.6805 60.54 65.9028 61.3191 65.896 62.2857C65.8902 63.1395 66.5005 63.8548 67.3081 64.0196Z" fill="#DFE1E3"/>
</svg>
