<svg width="192" height="250" viewBox="0 0 192 250" fill="none" xmlns="http://www.w3.org/2000/svg">
<g clip-path="url(#clip0_5_81075)">
<path fill-rule="evenodd" clip-rule="evenodd" d="M96.1054 224.868C147.389 224.868 188.966 230.498 188.966 237.434C188.966 244.37 147.389 250 96.1054 250C44.8217 250 3.24463 244.38 3.24463 237.434C3.24463 230.488 44.8217 224.868 96.1054 224.868Z" fill="#F9F9F9"/>
</g>
<g opacity="0.4" clip-path="url(#clip1_5_81075)">
<path d="M83.2911 193.723C83.2911 195.178 83.8691 196.573 84.8979 197.602C85.9268 198.631 87.3222 199.209 88.7773 199.209C89.0683 199.209 89.3473 199.325 89.5531 199.53C89.7589 199.736 89.8745 200.015 89.8745 200.306C89.8745 200.597 89.7589 200.876 89.5531 201.082C89.3473 201.288 89.0683 201.404 88.7773 201.404C87.2582 201.404 85.7732 200.953 84.5101 200.109C83.247 199.265 82.2626 198.066 81.6812 196.662C81.0999 195.259 80.9478 193.714 81.2442 192.224C81.5405 190.735 82.272 189.366 83.3462 188.292C84.4204 187.218 85.7889 186.486 87.2788 186.19C88.7687 185.893 90.3131 186.046 91.7165 186.627C93.12 187.208 94.3195 188.193 95.1635 189.456C96.0075 190.719 96.4579 192.204 96.4579 193.723L96.4579 220.057C96.4579 220.348 96.3423 220.627 96.1365 220.832C95.9308 221.038 95.6517 221.154 95.3607 221.154C95.0697 221.154 94.7906 221.038 94.5848 220.832C94.379 220.627 94.2634 220.348 94.2634 220.057L94.2634 193.723C94.2634 192.268 93.6854 190.872 92.6566 189.844C91.6277 188.815 90.2323 188.237 88.7773 188.237C87.3222 188.237 85.9268 188.815 84.8979 189.844C83.8691 190.872 83.2911 192.268 83.2911 193.723ZM85.4855 209.084C85.4855 209.666 85.7167 210.224 86.1283 210.636C86.5398 211.047 87.098 211.279 87.68 211.279C87.971 211.279 88.2501 211.394 88.4559 211.6C88.6617 211.806 88.7773 212.085 88.7773 212.376C88.7773 212.667 88.6617 212.946 88.4559 213.152C88.2501 213.358 87.971 213.473 87.68 213.473C86.812 213.473 85.9634 213.216 85.2416 212.733C84.5199 212.251 83.9573 211.566 83.6252 210.764C83.293 209.962 83.2061 209.079 83.3754 208.228C83.5447 207.377 83.9628 206.595 84.5766 205.981C85.1904 205.367 85.9724 204.949 86.8238 204.78C87.6751 204.61 88.5576 204.697 89.3596 205.029C90.1616 205.362 90.847 205.924 91.3293 206.646C91.8116 207.368 92.069 208.216 92.069 209.084L92.069 220.057C92.069 220.348 91.9534 220.627 91.7476 220.832C91.5418 221.038 91.2627 221.154 90.9717 221.154C90.6807 221.154 90.4016 221.038 90.1959 220.832C89.9901 220.627 89.8745 220.348 89.8745 220.057L89.8745 209.084C89.8745 208.502 89.6433 207.944 89.2317 207.532C88.8202 207.121 88.262 206.89 87.68 206.89C87.098 206.89 86.5398 207.121 86.1283 207.532C85.7167 207.944 85.4855 208.502 85.4855 209.084ZM99.7496 221.154C99.4586 221.154 99.1795 221.038 98.9738 220.832C98.768 220.627 98.6524 220.348 98.6524 220.057L98.6524 198.02C98.6524 196.718 99.0385 195.445 99.7619 194.362C100.485 193.279 101.513 192.436 102.716 191.937C103.919 191.439 105.243 191.309 106.52 191.563C107.797 191.817 108.97 192.444 109.891 193.364C110.812 194.285 111.439 195.458 111.693 196.735C111.947 198.012 111.816 199.336 111.318 200.539C110.82 201.742 109.976 202.77 108.893 203.494C107.811 204.217 106.538 204.603 105.236 204.603C104.945 204.603 104.666 204.487 104.46 204.282C104.254 204.076 104.139 203.797 104.139 203.506C104.139 203.215 104.254 202.936 104.46 202.73C104.666 202.524 104.945 202.409 105.236 202.409C106.104 202.409 106.952 202.151 107.674 201.669C108.396 201.187 108.958 200.501 109.291 199.699C109.623 198.897 109.71 198.015 109.54 197.163C109.371 196.312 108.953 195.53 108.339 194.916C107.725 194.302 106.943 193.884 106.092 193.715C105.241 193.546 104.358 193.633 103.556 193.965C102.754 194.297 102.069 194.86 101.587 195.581C101.104 196.303 100.847 197.152 100.847 198.02L100.847 220.057C100.847 220.348 100.731 220.627 100.525 220.832C100.32 221.038 100.041 221.154 99.7496 221.154Z" fill="#E1E1E1"/>
</g>
<g opacity="0.4">
<path d="M125.304 171.61C125.292 171.647 125.288 171.686 125.292 171.725C125.296 171.764 125.308 171.802 125.327 171.836C125.347 171.87 125.373 171.9 125.404 171.924C125.435 171.948 125.471 171.965 125.509 171.975L126.475 172.233C126.637 172.277 126.801 172.179 126.865 172.024C127.177 171.284 127.854 170.865 128.793 171.117C129.597 171.332 130.225 171.931 129.966 172.898C129.766 173.641 129.237 173.866 128.405 174.201C127.463 174.562 126.66 175.064 126.413 176.162L126.349 176.417C126.329 176.494 126.341 176.576 126.381 176.644C126.422 176.713 126.487 176.763 126.564 176.783L127.514 177.038C127.592 177.059 127.675 177.048 127.744 177.008C127.814 176.968 127.865 176.901 127.886 176.824L127.919 176.701C128.144 175.86 128.529 175.7 129.568 175.277C130.427 174.926 131.332 174.523 131.671 173.259C132.145 171.489 130.879 170.233 129.243 169.795C127.759 169.397 125.948 169.653 125.304 171.61ZM125.319 178.849C125.152 179.473 125.526 180.068 126.211 180.252C126.924 180.443 127.539 180.113 127.706 179.489C127.88 178.842 127.509 178.256 126.796 178.065C126.112 177.881 125.492 178.203 125.319 178.849Z" fill="#B5B5B5"/>
</g>
<g opacity="0.4">
<path d="M93.6928 160.456C93.6911 160.495 93.6975 160.534 93.7115 160.571C93.7255 160.607 93.7468 160.641 93.7742 160.669C93.8016 160.697 93.8344 160.719 93.8707 160.734C93.9069 160.749 93.9458 160.756 93.985 160.755H94.9855C95.1529 160.755 95.2863 160.618 95.3081 160.452C95.4173 159.657 95.963 159.077 96.9356 159.077C97.7676 159.077 98.5292 159.493 98.5292 160.494C98.5292 161.264 98.0756 161.618 97.3589 162.156C96.5427 162.749 95.8963 163.442 95.9424 164.566L95.946 164.829C95.9473 164.909 95.9798 164.984 96.0365 165.04C96.0932 165.096 96.1696 165.127 96.2492 165.127H97.2327C97.3131 165.127 97.3903 165.095 97.4471 165.039C97.504 164.982 97.5359 164.905 97.5359 164.824V164.697C97.5359 163.826 97.867 163.573 98.7608 162.895C99.4993 162.333 100.269 161.71 100.269 160.401C100.269 158.569 98.722 157.684 97.0278 157.684C95.4913 157.684 93.808 158.399 93.6928 160.456ZM95.581 167.445C95.581 168.091 96.0964 168.569 96.8059 168.569C97.5444 168.569 98.0525 168.091 98.0525 167.445C98.0525 166.775 97.5432 166.305 96.8046 166.305C96.0964 166.305 95.581 166.775 95.581 167.445Z" fill="#B5B5B5"/>
</g>
<g opacity="0.4">
<path d="M61.0261 174.557C61.0443 174.592 61.0693 174.622 61.0998 174.647C61.1302 174.672 61.1654 174.69 61.2031 174.701C61.2408 174.711 61.2803 174.714 61.3192 174.709C61.358 174.704 61.3954 174.69 61.429 174.67L62.2955 174.17C62.4404 174.086 62.4874 173.901 62.4232 173.746C62.12 173.003 62.3028 172.228 63.1451 171.741C63.8655 171.325 64.7331 171.305 65.2333 172.171C65.6184 172.838 65.4027 173.372 65.0512 174.196C64.6409 175.118 64.4273 176.041 65.0293 176.992L65.1641 177.218C65.2049 177.286 65.271 177.335 65.3481 177.355C65.4251 177.375 65.5069 177.364 65.5758 177.324L66.4276 176.833C66.4972 176.792 66.548 176.726 66.5688 176.649C66.5896 176.571 66.5787 176.488 66.5385 176.418L66.4749 176.308C66.0395 175.554 66.1995 175.169 66.6346 174.135C66.9934 173.28 67.3487 172.355 66.6944 171.221C65.7782 169.634 63.9954 169.642 62.5282 170.489C61.1975 171.257 60.0975 172.718 61.0261 174.557ZM66.1559 179.666C66.4791 180.225 67.1643 180.381 67.7787 180.027C68.4183 179.657 68.6195 178.99 68.2963 178.43C67.9616 177.85 67.2852 177.697 66.6456 178.066C66.0322 178.421 65.8212 179.086 66.1559 179.666Z" fill="#B5B5B5"/>
</g>
<g clip-path="url(#clip2_5_81075)">
<path d="M59.4616 232.804C55.2728 207.672 46.8954 157.275 46.8954 156.746H144.779L132.213 232.804H59.4616Z" fill="white"/>
<path d="M134.569 236.178H57.1062L44.7524 157.083L50.3614 156.231L61.9695 230.498H129.705L141.313 156.231L146.922 157.083L134.569 236.178Z" fill="#DFE1E3"/>
<path d="M114.049 190.739H77.6253L45.5323 158.681L49.5802 154.634L79.9685 185.058H111.706L142.094 154.634L146.141 158.681L114.049 190.739Z" fill="#DFE1E3"/>
<path d="M157.964 174.515L142.946 159.498H48.7275L33.7111 174.515L29.6996 170.503L46.3853 153.818H145.289L161.975 170.503L157.964 174.515Z" fill="#DFE1E3"/>
</g>
<defs>
<clipPath id="clip0_5_81075">
<rect width="185.722" height="25.1323" fill="white" transform="translate(3.24463 224.868)"/>
</clipPath>
<clipPath id="clip1_5_81075">
<rect width="35.1116" height="35.1116" fill="white" transform="translate(78.9022 221.154) rotate(-90)"/>
</clipPath>
<clipPath id="clip2_5_81075">
<rect width="132.275" height="132.275" fill="white" transform="translate(29.6996 105.82)"/>
</clipPath>
</defs>
</svg>
