<svg width="162" height="145" viewBox="0 0 162 145" fill="none" xmlns="http://www.w3.org/2000/svg">
<path d="M38.9737 40.6435C38.8713 41.3961 39.3986 42.0822 40.1513 42.1846C40.9039 42.287 41.59 41.7596 41.6924 41.007C41.7948 40.2543 41.2674 39.5682 40.5148 39.4658C39.7621 39.3634 39.0761 39.8908 38.9737 40.6435Z" fill="#FF5555"/>
<path d="M33.3251 32.3542C33.1255 33.8544 34.1751 35.2368 35.6804 35.4365C37.1805 35.6361 38.563 34.5865 38.7626 33.0812C38.9623 31.5811 37.9127 30.1987 36.4074 29.999C34.9072 29.7993 33.5248 30.8489 33.3251 32.3542Z" fill="#FF5555"/>
<path d="M21.7011 23.7727C27.4565 19.1617 28.3843 10.7581 23.7733 5.0026C19.1623 -0.75285 10.7587 -1.68062 5.0032 2.93037C-0.752252 7.54135 -1.68002 15.945 2.93096 21.7005C7.54195 27.4559 15.9456 28.3837 21.7011 23.7727Z" fill="#FF5555"/>
<path d="M32.8934 22.4471C32.9536 18.0786 29.4611 14.4885 25.0927 14.4283C20.7243 14.368 17.1341 17.8605 17.0739 22.2289C17.0137 26.5974 20.5062 30.1875 24.8746 30.2477C29.243 30.308 32.8331 26.8155 32.8934 22.4471Z" fill="#FF5555"/>
<path d="M25.7316 17.5008C25.4858 17.1168 25.1684 16.7635 24.7895 16.4717C23.2944 15.3145 21.2567 15.3401 19.7974 16.4L11.9279 10.2201L7.56051 6.78965C7.19187 6.49781 6.65938 6.56437 6.36754 6.93301L5.48689 8.0543L4.71376 9.03736C4.468 9.34968 4.52432 9.80024 4.83664 10.0409L4.93392 10.1177C5.24625 10.3635 5.69681 10.3071 5.93745 9.99993L6.71058 9.01688L7.42227 9.57496L6.64914 10.558C6.40338 10.8703 6.4597 11.3158 6.77202 11.5615L6.90002 11.6639C7.21235 11.9097 7.66291 11.8534 7.90355 11.5462L8.67668 10.5631L9.39349 11.1212L8.65108 12.0735C8.42068 12.3705 8.42068 12.8006 8.69204 13.0617C9.00437 13.3638 9.49589 13.3228 9.75189 12.99L10.525 12.007L18.3945 18.1869C18.1846 18.6938 18.0822 19.2314 18.0822 19.769C18.0822 21.0029 18.6301 22.2215 19.6746 23.0458C21.5383 24.5102 24.2519 24.1364 25.6445 22.1857C26.6532 20.7725 26.6327 18.8935 25.7316 17.4957V17.5008ZM23.7552 22.0935C23.5556 22.0781 23.3508 22.0013 23.1818 21.8682C22.721 21.5047 22.6391 20.834 23.0026 20.368C23.3661 19.9021 24.0368 19.8253 24.4977 20.1837C24.6717 20.322 24.7895 20.5012 24.8509 20.6957C24.9533 21.0234 24.9021 21.392 24.6717 21.6839C24.4413 21.9757 24.0881 22.1191 23.745 22.0884L23.7552 22.0935Z" fill="white"/>
<path d="M25.6444 22.19C24.2517 24.1356 21.5381 24.5145 19.6744 23.0501C18.6299 22.2309 18.082 21.0072 18.082 19.7733C18.7528 21.1455 19.8126 22.3589 21.4613 22.6149C22.4238 22.7634 23.1714 22.533 23.7602 22.0927C24.1083 22.1183 24.4565 21.98 24.6869 21.6882C24.9173 21.3964 24.9685 21.0277 24.8661 20.7C25.4293 19.6043 25.6495 18.2987 25.7365 17.5C26.6376 18.8978 26.6581 20.7768 25.6495 22.19H25.6444Z" fill="white"/>
<path d="M97.2349 94.1161C101.661 75.3632 90.0468 56.5729 71.2939 52.1469C52.541 47.7208 33.7508 59.3349 29.3247 78.0878C24.8986 96.8407 36.5128 115.631 55.2657 120.057C74.0186 124.483 92.8088 112.869 97.2349 94.1161Z" fill="#FFFAF4"/>
<path d="M75.8468 78.8499C90.4917 78.8499 102.364 66.978 102.364 52.3332C102.364 37.6884 90.4917 25.8164 75.8468 25.8164C61.202 25.8164 49.3301 37.6884 49.3301 52.3332C49.3301 66.978 61.202 78.8499 75.8468 78.8499Z" fill="#FFFAF4"/>
<path d="M151.697 77.0019C154.066 62.55 144.271 48.9139 129.819 46.5447C115.367 44.1755 101.731 53.9705 99.362 68.4224C96.9929 82.8743 106.788 96.5104 121.24 98.8796C135.692 101.249 149.328 91.4538 151.697 77.0019Z" fill="#FFFAF4"/>
<path d="M161.536 144.441H19.2754" stroke="#D7E3F4" stroke-width="2.18" stroke-miterlimit="10"/>
<path d="M85.1669 8.66922C84.6549 8.72042 84.148 8.85866 83.6616 9.09418C81.7467 10.0107 80.7432 12.0638 81.0709 14.0606L70.9025 18.8274L65.2602 21.4745C64.784 21.6998 64.5792 22.263 64.7994 22.7443L65.4752 24.1881L66.0691 25.4528C66.2586 25.8521 66.7347 26.0262 67.1392 25.8368L67.2672 25.7753C67.6717 25.5859 67.8407 25.1097 67.6564 24.7104L67.0624 23.4406L67.9789 23.0105L68.5728 24.2803C68.7623 24.6796 69.2385 24.8537 69.6429 24.6643L69.8119 24.5875C70.2164 24.398 70.3853 23.9219 70.201 23.5225L69.6071 22.2527L70.5287 21.8175L71.1073 23.0463C71.2865 23.4252 71.7217 23.6454 72.1159 23.5071C72.5716 23.3484 72.7815 22.8364 72.5818 22.4063L71.9879 21.1366L82.1564 16.3698C82.5608 16.8357 83.0472 17.2095 83.5848 17.4808C84.8239 18.1004 86.3241 18.172 87.6706 17.5372C90.0771 16.4107 91.0704 13.5026 89.8211 11.1217C88.9148 9.40139 87.0204 8.46954 85.1669 8.6641V8.66922ZM88.7715 12.9649C88.6537 13.1595 88.4745 13.3233 88.2543 13.4258C87.6604 13.7074 86.9436 13.4462 86.662 12.8472C86.3804 12.2481 86.6415 11.5313 87.2354 11.2548C87.4607 11.1473 87.7014 11.1217 87.9267 11.1576C88.3055 11.219 88.6486 11.4596 88.8278 11.8334C89.007 12.2123 88.966 12.6373 88.7663 12.9649H88.7715Z" fill="#FFE0BF"/>
<path d="M89.8202 11.121C91.0695 13.5018 90.0711 16.41 87.6698 17.5364C86.3181 18.1713 84.8179 18.0996 83.584 17.4801C85.2992 17.5006 87.0451 17.05 88.1357 15.5243C88.7706 14.6334 88.9191 13.7681 88.7706 12.9591C88.9703 12.6263 89.0112 12.2065 88.832 11.8276C88.658 11.4538 88.3098 11.2132 87.9309 11.1517C87.1168 10.0356 85.9187 9.15491 85.1661 8.66338C87.0195 8.4637 88.914 9.39555 89.8202 11.121Z" fill="#FFE0BF"/>
<path d="M129.597 24.1666C129.362 24.0437 129.101 23.9566 128.824 23.9208C127.734 23.7723 126.71 24.3765 126.28 25.3391L120.504 24.4994L117.299 24.0334C117.028 23.9925 116.777 24.1819 116.736 24.4533L116.618 25.2725L116.516 25.9944C116.485 26.2197 116.638 26.4347 116.869 26.4655L116.941 26.4757C117.171 26.5064 117.381 26.3528 117.412 26.1224L117.514 25.4005L118.036 25.4773L117.934 26.1992C117.903 26.4245 118.057 26.6396 118.287 26.6703L118.384 26.6856C118.615 26.7164 118.825 26.5627 118.855 26.3323L118.958 25.6104L119.48 25.6872L119.378 26.3835C119.347 26.5986 119.47 26.8188 119.685 26.87C119.931 26.9314 120.166 26.7676 120.202 26.5269L120.304 25.805L126.08 26.6447C126.121 26.9621 126.228 27.2642 126.382 27.5356C126.74 28.1602 127.375 28.6159 128.138 28.7285C129.505 28.9282 130.77 27.9503 130.908 26.5576C131.005 25.549 130.452 24.6069 129.592 24.1614L129.597 24.1666ZM129.935 27.0594C129.828 27.1106 129.705 27.1311 129.582 27.1106C129.244 27.0594 129.009 26.7471 129.055 26.404C129.106 26.061 129.418 25.8255 129.756 25.8767C129.884 25.8971 129.997 25.9535 130.084 26.0303C130.232 26.1634 130.314 26.3682 130.283 26.5832C130.253 26.7983 130.114 26.9724 129.93 27.0594H129.935Z" fill="#FFE0BF"/>
<path d="M130.919 26.5629C130.78 27.9505 129.516 28.9335 128.149 28.7338C127.381 28.6212 126.751 28.1655 126.393 27.5409C127.13 28.0375 128.016 28.3447 128.927 27.9966C129.459 27.7918 129.767 27.459 129.936 27.0647C130.12 26.9777 130.253 26.8036 130.289 26.5885C130.32 26.3735 130.238 26.1738 130.089 26.0407C130.053 25.3239 129.787 24.5968 129.603 24.1719C130.463 24.6173 131.021 25.5594 130.919 26.5681V26.5629Z" fill="#FFE0BF"/>
<path d="M136.074 36.3477H65.7347C63.2859 36.3477 61.3008 38.3328 61.3008 40.7816V103.395C61.3008 105.844 63.2859 107.829 65.7347 107.829H136.074C138.523 107.829 140.508 105.844 140.508 103.395V40.7816C140.508 38.3328 138.523 36.3477 136.074 36.3477Z" fill="#562E9C" fill-opacity="0.1"/>
<path d="M127.938 58.9668H73.875V66.7186H127.938V58.9668Z" fill="white"/>
<path d="M127.938 72.7246H73.875V80.4764H127.938V72.7246Z" fill="white"/>
<path d="M127.938 87.7461H73.875V95.4979H127.938V87.7461Z" fill="#FF5555"/>
<path d="M81.5396 76.5999C81.5396 77.0914 81.1402 77.4908 80.6487 77.4908C80.1572 77.4908 79.7578 77.0914 79.7578 76.5999C79.7578 76.1084 80.1572 75.709 80.6487 75.709C81.1402 75.709 81.5396 76.1084 81.5396 76.5999Z" fill="#1D262D"/>
<path d="M90.5415 76.5999C90.5415 77.0914 90.1422 77.4908 89.6507 77.4908C89.1591 77.4908 88.7598 77.0914 88.7598 76.5999C88.7598 76.1084 89.1591 75.709 89.6507 75.709C90.1422 75.709 90.5415 76.1084 90.5415 76.5999Z" fill="#1D262D"/>
<path d="M99.5415 76.5999C99.5415 77.0914 99.1422 77.4908 98.6507 77.4908C98.1591 77.4908 97.7598 77.0914 97.7598 76.5999C97.7598 76.1084 98.1591 75.709 98.6507 75.709C99.1422 75.709 99.5415 76.1084 99.5415 76.5999Z" fill="#1D262D"/>
<path d="M86.0396 76.5999C86.0396 77.0914 85.6402 77.4908 85.1487 77.4908C84.6572 77.4908 84.2578 77.0914 84.2578 76.5999C84.2578 76.1084 84.6572 75.709 85.1487 75.709C85.6402 75.709 86.0396 76.1084 86.0396 76.5999Z" fill="#1D262D"/>
<path d="M95.0416 76.5999C95.0416 77.0914 94.6422 77.4908 94.1507 77.4908C93.6591 77.4908 93.2598 77.0914 93.2598 76.5999C93.2598 76.1084 93.6591 75.709 94.1507 75.709C94.6422 75.709 95.0416 76.1084 95.0416 76.5999Z" fill="#1D262D"/>
<path d="M113.049 76.5999C113.049 77.0914 112.65 77.4908 112.158 77.4908C111.667 77.4908 111.268 77.0914 111.268 76.5999C111.268 76.1084 111.667 75.709 112.158 75.709C112.65 75.709 113.049 76.1084 113.049 76.5999Z" fill="#1D262D"/>
<path d="M104.042 76.5999C104.042 77.0914 103.642 77.4908 103.151 77.4908C102.659 77.4908 102.26 77.0914 102.26 76.5999C102.26 76.1084 102.659 75.709 103.151 75.709C103.642 75.709 104.042 76.1084 104.042 76.5999Z" fill="#1D262D"/>
<path d="M108.547 76.5999C108.547 77.0914 108.148 77.4908 107.657 77.4908C107.165 77.4908 106.766 77.0914 106.766 76.5999C106.766 76.1084 107.165 75.709 107.657 75.709C108.148 75.709 108.547 76.1084 108.547 76.5999Z" fill="#1D262D"/>
<path d="M122.049 76.5999C122.049 77.0914 121.65 77.4908 121.158 77.4908C120.667 77.4908 120.268 77.0914 120.268 76.5999C120.268 76.1084 120.667 75.709 121.158 75.709C121.65 75.709 122.049 76.1084 122.049 76.5999Z" fill="#1D262D"/>
<path d="M117.549 76.5999C117.549 77.0914 117.15 77.4908 116.658 77.4908C116.167 77.4908 115.768 77.0914 115.768 76.5999C115.768 76.1084 116.167 75.709 116.658 75.709C117.15 75.709 117.549 76.1084 117.549 76.5999Z" fill="#1D262D"/>
<path d="M90.5415 63.262C90.5415 63.7535 90.1422 64.1529 89.6507 64.1529C89.1591 64.1529 88.7598 63.7535 88.7598 63.262C88.7598 62.7705 89.1591 62.3711 89.6507 62.3711C90.1422 62.3711 90.5415 62.7705 90.5415 63.262Z" fill="#1D262D"/>
<path d="M99.5435 63.262C99.5435 63.7535 99.1441 64.1529 98.6526 64.1529C98.1611 64.1529 97.7617 63.7535 97.7617 63.262C97.7617 62.7705 98.1611 62.3711 98.6526 62.3711C99.1441 62.3711 99.5435 62.7705 99.5435 63.262Z" fill="#1D262D"/>
<path d="M95.0416 63.262C95.0416 63.7535 94.6422 64.1529 94.1507 64.1529C93.6591 64.1529 93.2598 63.7535 93.2598 63.262C93.2598 62.7705 93.6591 62.3711 94.1507 62.3711C94.6422 62.3711 95.0416 62.7705 95.0416 63.262Z" fill="#1D262D"/>
<path d="M113.049 63.262C113.049 63.7535 112.65 64.1529 112.158 64.1529C111.667 64.1529 111.268 63.7535 111.268 63.262C111.268 62.7705 111.667 62.3711 112.158 62.3711C112.65 62.3711 113.049 62.7705 113.049 63.262Z" fill="#1D262D"/>
<path d="M104.044 63.262C104.044 63.7535 103.644 64.1529 103.153 64.1529C102.661 64.1529 102.262 63.7535 102.262 63.262C102.262 62.7705 102.661 62.3711 103.153 62.3711C103.644 62.3711 104.044 62.7705 104.044 63.262Z" fill="#1D262D"/>
<path d="M108.549 63.262C108.549 63.7535 108.15 64.1529 107.658 64.1529C107.167 64.1529 106.768 63.7535 106.768 63.262C106.768 62.7705 107.167 62.3711 107.658 62.3711C108.15 62.3711 108.549 62.7705 108.549 63.262Z" fill="#1D262D"/>
<path d="M110.768 45.6249C115.232 40.1801 114.437 32.1472 108.992 27.6828C103.548 23.2183 95.5148 24.0131 91.0503 29.4578C86.5859 34.9026 87.3806 42.9355 92.8254 47.3999C98.2701 51.8644 106.303 51.0696 110.768 45.6249Z" fill="url(#paint0_linear_9571_2046)"/>
<path d="M105.789 32.6504L96.0195 42.4195" stroke="white" stroke-width="2.27" stroke-miterlimit="10"/>
<path d="M105.789 42.4195L96.0195 32.6504" stroke="white" stroke-width="2.27" stroke-miterlimit="10"/>
<path d="M37.6112 90.0783L50.8158 89.5305L51.3944 66.9357L49.7508 62.3583L44.2826 60.4741L40.4528 59.7676C38.2205 60.1925 36.6281 62.1842 36.7101 64.4575L38.1437 80.4475L37.6112 90.0783Z" fill="#F7D6B2"/>
<path d="M42.9102 56.2344V60.7759C42.9102 60.7759 43.8676 61.3493 46.1153 61.3493C47.3236 61.3493 47.6001 61.5592 47.6001 61.5592V59.0965L42.9153 56.2344H42.9102Z" fill="#F7D6B2"/>
<path d="M42.3832 52.8438C42.3934 53.0076 42.3985 53.1612 42.4088 53.3097C42.4088 53.3609 42.4037 53.4172 42.4037 53.4735C42.291 56.1667 44.0216 59.0544 46.6277 59.4487C46.6277 59.4487 46.6482 59.4538 46.684 59.4589C46.7045 59.4589 46.7352 59.464 46.7762 59.464C47.3343 59.5306 49.3516 59.6995 50.0889 58.8854C50.9542 57.928 51.7222 56.1821 51.7222 54.984C51.7222 53.7859 51.5071 53.5043 51.5071 53.023C51.5071 52.6441 51.7119 51.4665 51.7119 50.9545C51.7273 48.5481 50.1094 46.1621 47.237 46.1621C42.9259 46.1621 42.2654 49.9458 42.3883 52.8438H42.3832Z" fill="#F7D6B2"/>
<path d="M32.2595 78.7357C33.6778 79.3245 37.8608 71.414 39.3866 67.9272C40.9124 64.4405 41.491 61.4145 39.7655 60.6977C38.04 59.9809 36.3043 62.5204 34.9015 66.0635C33.5037 69.6066 30.8412 78.152 32.2595 78.7408V78.7357Z" fill="#F7D6B2"/>
<path d="M32.7975 94.4704C34.1594 94.4909 34.6919 84.4914 34.7329 81.6651C34.7789 78.8389 34.6151 75.8539 33.0893 75.8283C31.5635 75.8027 31.3075 78.7826 31.2615 81.6088C31.2154 84.4351 31.4304 94.4499 32.7924 94.4704H32.7975Z" fill="#F7D6B2"/>
<path d="M32.8991 91.8841C31.2965 91.7408 31.3631 94.5926 31.4245 95.5654C31.5167 97.1475 33.1602 98.6938 33.7746 98.6631C34.389 98.6375 33.9077 95.0688 34.0408 94.9408C34.174 94.8128 34.2508 96.7533 34.8242 96.6663C35.3977 96.5792 35.198 94.2291 34.7577 93.3331C34.3225 92.432 33.9077 91.9814 32.9042 91.8892L32.8991 91.8841Z" fill="#F7D6B2"/>
<path d="M41.8856 63.4988C41.645 64.6918 40.8975 66.3558 39.8991 68.1888C38.7983 70.201 37.8101 71.9264 37.165 73.0375C36.7656 73.7236 36.4993 74.169 36.4174 74.3072C36.4021 74.338 36.3918 74.3533 36.3918 74.3533L32.5723 72.7917C32.5723 72.7917 34.8405 63.3606 38.3887 60.4626C38.4143 60.4421 38.8187 60.2578 38.8597 60.2578C40.8616 60.6367 42.3055 61.4354 41.8856 63.4988Z" fill="url(#paint1_linear_9571_2046)"/>
<path d="M45.7821 88.3979C44.4663 88.8946 43.7341 90.9887 44.1795 92.9292C44.5328 94.4754 45.1575 96.462 46.2532 98.7814C48.9873 104.577 51.1019 112.329 53.0424 112.303C54.9829 112.278 55.6229 107.465 53.7233 101.203C52.003 95.5404 50.4311 88.1163 49.0026 87.7477C48.2807 87.5633 46.9341 87.9576 45.7821 88.3928V88.3979Z" fill="#F7D6B2"/>
<path d="M53.6777 111.075C48.4092 109.462 50.79 134.96 52.5615 139.492C54.3331 144.023 54.9936 131.939 55.311 124.121C55.6284 116.303 55.7513 111.71 53.6777 111.075Z" fill="#F7D6B2"/>
<path d="M51.1934 133.818C51.2548 133.9 51.6337 140.858 51.6337 140.858C51.6337 140.858 54.9924 141.099 54.9924 140.858C54.9924 140.618 55.2536 134.581 55.2536 134.581L51.1934 133.823V133.818Z" fill="#F7D6B2"/>
<path d="M39.3301 133.818C39.3915 133.9 39.7704 140.858 39.7704 140.858C39.7704 140.858 43.1292 141.099 43.1292 140.858C43.1292 140.618 43.3903 134.581 43.3903 134.581L39.3301 133.823V133.818Z" fill="#F7D6B2"/>
<path d="M39.3709 88.3058C37.9834 88.5413 36.857 90.446 36.9184 92.4428C36.9645 94.03 37.1949 96.0985 37.8195 98.5869C39.3812 104.803 39.9546 112.821 41.8593 113.169C43.7691 113.517 45.3307 108.924 44.6804 102.412C44.0916 96.5235 43.9892 88.9356 42.658 88.2955C41.9822 87.973 40.5895 88.101 39.3709 88.3058Z" fill="#F7D6B2"/>
<path d="M42.5863 111.618C37.4048 109.739 38.8486 135.339 40.3898 139.947C41.9309 144.56 42.8525 132.518 43.5642 124.725C44.2759 116.933 44.6241 112.355 42.5863 111.618Z" fill="#F7D6B2"/>
<path d="M51.49 88.5207C51.49 88.5207 56.18 108.269 56.0724 112.426C55.9649 116.584 55.1662 138.324 55.1662 138.324C55.1662 138.324 51.4234 138.339 51.4234 138.324C48.5357 122.625 49.7287 113.286 49.4113 111.525C49.0938 109.764 45.5712 102.248 45.5712 102.248C45.5712 102.248 45.4125 110.885 45.4125 113.286C45.4125 115.688 43.2518 138.165 43.2518 138.165L39.3811 138.247C39.3811 138.247 38.1369 122.887 38.1369 119.763C38.1369 116.64 38.8947 111.766 38.8588 111.126C38.8179 110.486 32.7813 94.8133 36.7801 88.7358C42.0384 80.7433 51.4951 88.5207 51.4951 88.5207H51.49Z" fill="url(#paint2_linear_9571_2046)"/>
<path d="M53.3795 67.0109C53.3795 67.3232 53.3693 67.5946 53.2874 68.0042C53.2464 68.1885 53.2003 68.4087 53.1287 68.6698C52.929 69.4224 52.5757 70.5488 51.9459 72.4433C50.2512 77.5582 51.7616 88.5919 51.7821 88.6994C51.7821 88.6994 36.3912 89.0732 36.4219 88.6278C36.6677 85.5864 39.0178 82.8831 37.0158 72.1924C35.3723 63.4012 37.5586 60.0578 39.4837 59.8274C43.2879 59.3718 49.9952 61.6399 50.9117 62.4899C51.8282 63.3398 53.3437 65.1113 53.3744 67.0058L53.3795 67.0109Z" fill="url(#paint3_linear_9571_2046)"/>
<path d="M67.1634 62.3989C66.9586 60.8936 58.0907 61.2827 54.3428 61.7282C50.595 62.1736 47.7175 63.1925 47.9684 65.0357C48.2192 66.8738 51.2657 67.0838 54.9982 66.5001C58.7307 65.9164 67.3734 63.9042 67.1634 62.3989Z" fill="#EED7BA"/>
<path d="M60.4863 65.5778C60.4863 65.5778 56.4158 67.1445 53.2721 68.0098C51.347 68.5372 49.6215 68.3375 49.2426 67.1957C49.2324 67.165 49.1812 67.1752 49.1505 67.1599C47.1895 66.3919 46.5751 63.115 48.5002 62.26C49.6113 61.7684 51.987 61.835 54.0555 61.6814C58.085 61.3793 59.5442 61.3281 59.5442 61.3281L60.4351 65.3371L60.4863 65.5727V65.5778Z" fill="url(#paint4_linear_9571_2046)"/>
<path d="M52.4327 49.4653C52.3968 50.1104 52.1818 50.817 51.7415 51.5747C50.4 53.8736 49.6371 56.0445 49.673 58.7479C49.719 61.9838 51.6596 65.8443 49.6525 68.8396C46.7289 73.2018 39.2229 72.8895 35.9563 69.2492C33.7701 66.812 33.2683 62.8747 35.8335 60.4683C36.9394 59.4289 37.9736 58.4407 38.6136 57.0481C40.3954 53.1568 40.1804 46.9104 45.1366 45.3231C47.9066 44.4374 52.6272 45.9836 52.4327 49.4704V49.4653Z" fill="#1D262D"/>
<path d="M55.019 140.147C55.019 140.147 55.3723 141.176 57.5125 142.513C59.6527 143.849 60.2159 143.557 60.2619 144.059C60.308 144.561 51.3633 144.146 51.3633 144.146L51.5015 140.029C51.5015 140.029 55.0139 140.034 55.0139 140.142L55.019 140.147Z" fill="url(#paint5_linear_9571_2046)"/>
<path d="M43.1562 140.034C43.1562 140.034 43.5606 140.9 45.0045 142.292C46.2794 143.526 47.4007 143.26 47.2983 143.7C47.201 144.125 39.6387 143.849 39.6387 143.849V140.029C39.6387 140.029 43.1613 140.029 43.1562 140.029V140.034Z" fill="url(#paint6_linear_9571_2046)"/>
<path d="M54.0144 49.6647C53.0518 50.6068 59.7181 57.9695 61.674 59.9714C63.6298 61.9785 65.8468 63.9497 66.9272 62.895C68.0075 61.8402 66.0926 59.5772 64.1316 57.5701C62.1757 55.563 54.9769 48.7226 54.0093 49.6647H54.0144Z" fill="#EED7BA"/>
<path d="M50.8102 47.0939C50.4364 47.4676 52.423 49.2904 52.9452 49.8792C53.022 49.9662 53.0732 50.0328 53.0681 50.0584C53.0681 50.084 53.0323 50.084 52.9862 50.0686C52.679 49.9867 51.5833 49.2852 51.2659 49.6692C50.9228 50.0942 52.4383 51.5278 53.3804 51.9938C53.4316 52.0194 53.488 52.0552 53.5392 52.0757C54.4608 52.4443 55.0649 52.5006 55.8637 51.8965C57.1334 50.9339 55.1827 48.8859 54.4915 48.2151C53.9078 47.6468 53.063 47.2577 52.3155 47.0683C51.6191 46.8942 51.015 46.8891 50.8051 47.099L50.8102 47.0939Z" fill="#EED7BA"/>
<path style="mix-blend-mode:multiply" opacity="0.5" d="M37.1809 73.0014L37.1655 73.0424C36.7661 73.7285 36.4999 74.1739 36.418 74.3122L36.8225 70.252C36.8941 71.6036 37.1809 73.0065 37.1809 73.0065V73.0014Z" fill="url(#paint7_linear_9571_2046)"/>
<path style="mix-blend-mode:multiply" opacity="0.5" d="M53.2884 68.0059C53.2474 68.1902 53.2013 68.4103 53.1296 68.6715C52.1671 69.25 50.2266 68.8046 50.2266 68.8046L53.273 68.011C53.273 68.011 53.273 68.011 53.2884 68.011V68.0059Z" fill="url(#paint8_linear_9571_2046)"/>
<path d="M140.662 132.839C140.36 134.759 140.36 136.71 140.611 138.635C140.682 139.183 140.708 139.725 140.682 140.263C140.652 140.826 140.534 141.466 140.058 141.768C139.331 142.229 138.404 141.563 137.887 140.872C135.634 137.867 135.501 133.894 133.581 130.719C133.284 130.233 132.961 129.746 132.623 129.26L133.187 127.109L132.014 128.384C130.673 126.449 129.377 124.447 129.393 122.041L131.108 122.189C131.108 122.189 130.202 121.815 129.403 121.503C129.47 119.88 129.674 118.206 129.106 116.68C128.691 115.574 127.887 114.688 127.125 113.772L128.251 112.097C128.251 112.097 127.181 112.435 126.254 112.625C126.182 112.517 126.116 112.41 126.049 112.297C125.036 110.567 124.923 108.585 125.01 106.629C125.056 105.539 125.133 104.428 125.317 103.342C125.732 103.368 126.08 103.383 126.08 103.383L125.471 102.549C125.604 101.965 125.773 101.397 125.998 100.838C126.152 100.454 126.715 99.1028 127.206 99.0464C128.625 98.8877 129.807 100.183 130.314 101.514C130.796 102.779 131.011 104.038 131.553 105.221L130.862 105.953L132.04 106.112C132.096 106.199 132.158 106.286 132.219 106.373C133.668 108.35 136.218 109.891 137.703 111.826C136.571 112.133 135.496 112.512 135.496 112.512L138.624 113.49C138.993 114.565 138.967 115.789 138.297 117.253C138.081 117.73 137.841 118.185 137.626 118.646L136.796 118.083L137.375 119.23C137.134 119.834 136.97 120.459 136.986 121.16C137.032 123.234 138.327 124.964 139.382 126.761C139.203 127.33 139.044 127.831 139.044 127.831L139.925 127.744C140.16 128.21 140.36 128.692 140.503 129.183C140.846 130.371 140.851 131.61 140.662 132.834V132.839Z" fill="#26B872"/>
<path style="mix-blend-mode:screen" d="M137.877 136.024C137.417 131.047 136.05 128.866 134.846 126.941C134.268 126.019 133.725 125.149 133.387 124.084C133.003 122.88 132.957 121.396 132.911 119.824C132.834 117.238 132.752 114.565 131.16 112.835C128.441 109.891 127.898 103.066 127.898 103.004L128.375 102.994C128.375 103.056 128.881 109.666 131.508 112.512C133.223 114.371 133.305 117.136 133.382 119.808C133.428 121.344 133.469 122.793 133.838 123.935C134.16 124.944 134.662 125.748 135.251 126.685C136.423 128.559 137.877 130.883 138.348 135.978L137.877 136.024Z" fill="#34D15A"/>
<path d="M142.798 137.217C143.704 136.767 144.452 136.193 144.871 135.563C146.29 133.449 146.136 130.607 146.535 128.191C147.012 125.318 148.292 122.482 150.565 120.664C152.408 119.189 153.642 117.551 154.031 115.145C154.41 112.779 154.164 110.373 154.42 107.997C154.692 105.493 155.163 103.072 155.926 100.67C156.571 98.6478 157.247 95.2634 153.893 95.7243C152.562 95.9035 151.312 96.61 150.463 97.6494C148.23 100.384 148.425 104.259 146.766 107.28C145.926 108.806 144.631 109.938 143.402 111.141C142.296 112.216 141.129 113.511 140.893 115.099C140.76 116.02 140.868 116.972 140.653 117.884C140.35 119.149 139.475 120.137 138.681 121.125C137.816 122.195 137.202 123.311 136.582 124.53C135.036 127.561 133.51 131.426 134.432 134.841C134.698 135.84 135.189 136.818 136.019 137.437C137.862 138.82 140.909 138.17 142.813 137.222L142.798 137.217Z" fill="#26B872"/>
<path style="mix-blend-mode:screen" d="M142.782 115.533C142.951 115.507 143.105 115.625 143.131 115.794L144.016 122.097L149.643 111.032C149.72 110.879 149.904 110.823 150.058 110.899C150.212 110.976 150.268 111.161 150.191 111.314L146.08 119.404L151.804 115.395C151.942 115.298 152.137 115.333 152.229 115.472C152.326 115.61 152.29 115.804 152.152 115.902L145.65 120.453C145.609 120.484 145.563 120.494 145.517 120.505L140.151 131.057L144.078 129.275C144.231 129.204 144.416 129.275 144.482 129.429C144.554 129.582 144.482 129.767 144.329 129.833L139.936 131.825C139.874 131.856 139.808 131.861 139.746 131.846L138.727 133.853C138.651 134.006 138.466 134.063 138.313 133.986C138.277 133.965 138.246 133.945 138.22 133.914C138.139 133.822 138.118 133.689 138.174 133.571L143.561 122.978C143.525 122.937 143.499 122.885 143.489 122.824L142.516 115.881C142.491 115.712 142.608 115.559 142.777 115.533H142.782Z" fill="#34D15A"/>
<path d="M141.425 107.148C142.716 105.074 143.914 104.296 143.934 104.286C143.985 104.255 144.021 104.204 144.037 104.147C145.455 103.011 149.244 99.7389 147.334 98.5972C145.445 97.4656 144.072 102.115 143.627 103.886C143.402 104.035 142.255 104.864 141.026 106.83C141.492 104.931 142.388 100.379 140.258 100.609C137.867 100.87 140.13 106.257 140.662 107.45C140.227 108.228 139.787 109.15 139.388 110.245C139.301 110.486 139.213 110.737 139.132 110.998C139.132 108.899 138.896 104.757 136.971 105.432C134.754 106.211 137.969 110.742 138.855 111.925C138.476 113.297 138.148 114.935 137.949 116.876C137.493 114.946 136.244 110.558 134.462 111.725C132.465 113.025 136.807 116.743 137.882 117.618C137.77 119.011 137.718 120.547 137.759 122.236C137.058 120.455 135.128 116.108 133.505 117.552C131.718 119.144 136.623 122.201 137.78 122.882C137.826 124.177 137.923 125.554 138.087 127.029C136.853 125.621 133.494 122.083 132.45 124.013C131.344 126.056 136.623 127.249 138.149 127.551C138.323 129.046 138.558 130.628 138.87 132.313C137.923 131.202 134.114 126.937 132.987 129.015C131.81 131.186 137.841 132.4 138.927 132.599C139.132 133.675 139.362 134.791 139.623 135.948C139.654 136.081 139.787 136.168 139.925 136.137C139.941 136.137 139.951 136.127 139.966 136.122C140.079 136.076 140.14 135.953 140.115 135.835C139.848 134.678 139.618 133.567 139.418 132.492C140.652 132.369 146.684 131.652 145.573 129.486C144.492 127.377 140.386 131.253 139.372 132.256C139.065 130.603 138.835 129.041 138.661 127.572C139.833 127.459 145.967 126.747 144.846 124.561C143.76 122.446 139.628 126.353 138.635 127.341C138.451 125.718 138.338 124.203 138.287 122.795C139.597 122.728 145.542 122.303 144.549 120.101C143.591 117.977 139.423 121.484 138.277 122.508C138.225 120.721 138.271 119.103 138.389 117.649C139.705 117.715 145.655 117.884 144.886 115.601C144.149 113.399 139.674 116.441 138.415 117.357C138.604 115.258 138.947 113.502 139.347 112.048C140.749 112.114 146.561 112.268 145.803 110.005C145.091 107.87 140.867 110.655 139.454 111.658C139.577 111.239 139.71 110.844 139.838 110.476C140.243 109.354 140.688 108.417 141.133 107.639C142.434 107.685 148.414 107.777 147.61 105.499C146.888 103.441 142.936 106.057 141.42 107.153L141.425 107.148Z" fill="#00370D"/>
<path d="M133.739 144.129H144.922C145.644 144.129 146.243 143.576 146.304 142.859L147.733 128.211H130.934L132.362 142.859C132.424 143.576 133.023 144.129 133.745 144.129H133.739Z" fill="url(#paint9_linear_9571_2046)"/>
<path d="M130.508 131.059H148.142C148.476 131.059 148.746 130.788 148.746 130.454V128.816C148.746 128.482 148.476 128.212 148.142 128.212H130.508C130.175 128.212 129.904 128.482 129.904 128.816V130.454C129.904 130.788 130.175 131.059 130.508 131.059Z" fill="url(#paint10_linear_9571_2046)"/>
<defs>
<linearGradient id="paint0_linear_9571_2046" x1="100.912" y1="25.1557" x2="100.912" y2="50.2286" gradientUnits="userSpaceOnUse">
<stop stop-color="#FF6D6D"/>
<stop offset="1" stop-color="#FF6666"/>
</linearGradient>
<linearGradient id="paint1_linear_9571_2046" x1="37.2622" y1="67.216" x2="37.2622" y2="87.5016" gradientUnits="userSpaceOnUse">
<stop offset="0.06" stop-color="#E38204"/>
<stop offset="1" stop-color="#E35802"/>
</linearGradient>
<linearGradient id="paint2_linear_9571_2046" x1="45.4637" y1="118.662" x2="46.0218" y2="87.681" gradientUnits="userSpaceOnUse">
<stop stop-color="#008BEC"/>
<stop offset="1" stop-color="#0077EC"/>
</linearGradient>
<linearGradient id="paint3_linear_9571_2046" x1="44.9007" y1="67.2157" x2="44.9007" y2="87.5014" gradientUnits="userSpaceOnUse">
<stop offset="0.06" stop-color="#E38204"/>
<stop offset="1" stop-color="#E35802"/>
</linearGradient>
<linearGradient id="paint4_linear_9571_2046" x1="53.907" y1="67.2162" x2="53.907" y2="87.5019" gradientUnits="userSpaceOnUse">
<stop offset="0.06" stop-color="#E38204"/>
<stop offset="1" stop-color="#E35802"/>
</linearGradient>
<linearGradient id="paint5_linear_9571_2046" x1="51.3633" y1="142.169" x2="60.2619" y2="142.169" gradientUnits="userSpaceOnUse">
<stop stop-color="#008BEC"/>
<stop offset="1" stop-color="#0077EC"/>
</linearGradient>
<linearGradient id="paint6_linear_9571_2046" x1="39.6387" y1="141.99" x2="47.3034" y2="141.99" gradientUnits="userSpaceOnUse">
<stop stop-color="#008BEC"/>
<stop offset="1" stop-color="#0077EC"/>
</linearGradient>
<linearGradient id="paint7_linear_9571_2046" x1="36.418" y1="72.2744" x2="37.1809" y2="72.2744" gradientUnits="userSpaceOnUse">
<stop offset="0.06" stop-color="#E38204"/>
<stop offset="1" stop-color="#E35802"/>
</linearGradient>
<linearGradient id="paint8_linear_9571_2046" x1="50.2214" y1="68.4871" x2="53.2884" y2="68.4871" gradientUnits="userSpaceOnUse">
<stop offset="0.06" stop-color="#E38204"/>
<stop offset="1" stop-color="#E35802"/>
</linearGradient>
<linearGradient id="paint9_linear_9571_2046" x1="130.928" y1="136.173" x2="147.727" y2="136.173" gradientUnits="userSpaceOnUse">
<stop offset="0.06" stop-color="#E38204"/>
<stop offset="1" stop-color="#E35802"/>
</linearGradient>
<linearGradient id="paint10_linear_9571_2046" x1="129.909" y1="129.635" x2="148.746" y2="129.635" gradientUnits="userSpaceOnUse">
<stop offset="0.06" stop-color="#E38204"/>
<stop offset="1" stop-color="#E35802"/>
</linearGradient>
</defs>
</svg>
