<svg width="12" height="13" viewBox="0 0 12 13" fill="none" xmlns="http://www.w3.org/2000/svg">
<path d="M11 12.0469H1C0.795 12.0469 0.625 11.8769 0.625 11.6719C0.625 11.4669 0.795 11.2969 1 11.2969H11C11.205 11.2969 11.375 11.4669 11.375 11.6719C11.375 11.8769 11.205 12.0469 11 12.0469Z" fill="white"/>
<path d="M1.84961 11.6717H1.09961L1.12461 5.65673C1.12461 5.23173 1.31961 4.83674 1.65461 4.57674L5.15461 1.85174C5.64961 1.46674 6.34461 1.46674 6.84461 1.85174L10.3446 4.57174C10.6746 4.83174 10.8746 5.23673 10.8746 5.65673V11.6717H10.1246V5.66174C10.1246 5.47174 10.0346 5.28674 9.88461 5.16674L6.38461 2.44674C6.15961 2.27174 5.84461 2.27174 5.61461 2.44674L2.11461 5.17175C1.96461 5.28675 1.87461 5.47174 1.87461 5.66174L1.84961 11.6717Z" fill="white"/>
<path d="M7.25 12.0469H4.75C4.545 12.0469 4.375 11.8769 4.375 11.6719V9.92188C4.375 9.30188 4.88 8.79688 5.5 8.79688H6.5C7.12 8.79688 7.625 9.30188 7.625 9.92188V11.6719C7.625 11.8769 7.455 12.0469 7.25 12.0469ZM5.125 11.2969H6.875V9.92188C6.875 9.71688 6.705 9.54688 6.5 9.54688H5.5C5.295 9.54688 5.125 9.71688 5.125 9.92188V11.2969Z" fill="white"/>
<path d="M4.75 7.92188H3.75C3.27 7.92188 2.875 7.52688 2.875 7.04688V6.29688C2.875 5.81688 3.27 5.42188 3.75 5.42188H4.75C5.23 5.42188 5.625 5.81688 5.625 6.29688V7.04688C5.625 7.52688 5.23 7.92188 4.75 7.92188ZM3.75 6.17188C3.68 6.17188 3.625 6.22688 3.625 6.29688V7.04688C3.625 7.11688 3.68 7.17188 3.75 7.17188H4.75C4.82 7.17188 4.875 7.11688 4.875 7.04688V6.29688C4.875 6.22688 4.82 6.17188 4.75 6.17188H3.75Z" fill="white"/>
<path d="M8.25 7.92188H7.25C6.77 7.92188 6.375 7.52688 6.375 7.04688V6.29688C6.375 5.81688 6.77 5.42188 7.25 5.42188H8.25C8.73 5.42188 9.125 5.81688 9.125 6.29688V7.04688C9.125 7.52688 8.73 7.92188 8.25 7.92188ZM7.25 6.17188C7.18 6.17188 7.125 6.22688 7.125 6.29688V7.04688C7.125 7.11688 7.18 7.17188 7.25 7.17188H8.25C8.32 7.17188 8.375 7.11688 8.375 7.04688V6.29688C8.375 6.22688 8.32 6.17188 8.25 6.17188H7.25Z" fill="white"/>
<path d="M9.50004 4.54688C9.29504 4.54688 9.12504 4.38188 9.12504 4.17688L9.11504 3.04688H7.29004C7.08504 3.04688 6.91504 2.87687 6.91504 2.67188C6.91504 2.46688 7.08504 2.29688 7.29004 2.29688H9.49004C9.69504 2.29688 9.86504 2.46187 9.86504 2.66687L9.88004 4.16687C9.87504 4.37687 9.71004 4.54688 9.50004 4.54688C9.50504 4.54688 9.50004 4.54688 9.50004 4.54688Z" fill="white"/>
</svg>
