<svg width="14" height="14" viewBox="0 0 14 14" fill="none" xmlns="http://www.w3.org/2000/svg">
<g clip-path="url(#clip0_5_25038)">
<path d="M7 0C5.61553 0 4.26216 0.410543 3.11101 1.17971C1.95987 1.94888 1.06266 3.04213 0.532846 4.32122C0.003033 5.6003 -0.13559 7.00777 0.134506 8.36563C0.404603 9.7235 1.07129 10.9708 2.05026 11.9497C3.02922 12.9287 4.2765 13.5954 5.63437 13.8655C6.99224 14.1356 8.3997 13.997 9.67879 13.4672C10.9579 12.9373 12.0511 12.0401 12.8203 10.889C13.5895 9.73785 14 8.38447 14 7C13.998 5.1441 13.2599 3.36479 11.9475 2.05247C10.6352 0.74015 8.8559 0.0020073 7 0ZM7 12.8333C5.84628 12.8333 4.71846 12.4912 3.75918 11.8502C2.79989 11.2093 2.05222 10.2982 1.61071 9.23232C1.16919 8.16642 1.05368 6.99353 1.27876 5.86197C1.50384 4.73042 2.05941 3.69102 2.87521 2.87521C3.69102 2.0594 4.73042 1.50383 5.86198 1.27875C6.99353 1.05367 8.16642 1.16919 9.23232 1.6107C10.2982 2.05221 11.2093 2.79989 11.8502 3.75917C12.4912 4.71846 12.8333 5.84628 12.8333 7C12.8316 8.54658 12.2165 10.0293 11.1229 11.1229C10.0293 12.2165 8.54658 12.8316 7 12.8333Z" fill="#A39898"/>
<path d="M6.99967 5.83301H6.41634C6.26163 5.83301 6.11326 5.89447 6.00386 6.00386C5.89447 6.11326 5.83301 6.26163 5.83301 6.41634C5.83301 6.57105 5.89447 6.71942 6.00386 6.82882C6.11326 6.93822 6.26163 6.99967 6.41634 6.99967H6.99967V10.4997C6.99967 10.6544 7.06113 10.8028 7.17053 10.9122C7.27993 11.0215 7.4283 11.083 7.58301 11.083C7.73772 11.083 7.88609 11.0215 7.99549 10.9122C8.10488 10.8028 8.16634 10.6544 8.16634 10.4997V6.99967C8.16634 6.69026 8.04342 6.39351 7.82463 6.17472C7.60584 5.95592 7.30909 5.83301 6.99967 5.83301Z" fill="#A39898"/>
<path d="M7 4.66699C7.48325 4.66699 7.875 4.27524 7.875 3.79199C7.875 3.30874 7.48325 2.91699 7 2.91699C6.51675 2.91699 6.125 3.30874 6.125 3.79199C6.125 4.27524 6.51675 4.66699 7 4.66699Z" fill="#A39898"/>
</g>
<defs>
<clipPath id="clip0_5_25038">
<rect width="14" height="14" fill="white"/>
</clipPath>
</defs>
</svg>
