<svg width="14" height="14" viewBox="0 0 14 14" fill="none" xmlns="http://www.w3.org/2000/svg">
<g clip-path="url(#clip0_5_25017)">
<path d="M9.33301 13.4167C9.33301 13.7387 9.07226 14 8.74967 14H3.49967C1.89142 14 0.583008 12.6916 0.583008 11.0833V2.91667C0.583008 1.30842 1.89142 0 3.49967 0H6.13343C7.22368 0 8.24918 0.424667 9.02093 1.19583L11.0533 3.22933C11.2113 3.38742 11.3583 3.56067 11.4896 3.74442C11.6768 4.00633 11.6162 4.37092 11.3543 4.55817C11.0923 4.74483 10.7272 4.68475 10.5405 4.42225C10.4466 4.291 10.3416 4.16675 10.229 4.05475L8.19609 2.02125C8.01059 1.83575 7.80468 1.67883 7.58301 1.55167V4.08333C7.58301 4.40475 7.84434 4.66667 8.16634 4.66667H9.91634C10.2389 4.66667 10.4997 4.928 10.4997 5.25C10.4997 5.572 10.2389 5.83333 9.91634 5.83333H8.16634C7.20151 5.83333 6.41634 5.04817 6.41634 4.08333V1.18008C6.32301 1.17133 6.22851 1.16667 6.13343 1.16667H3.49967C2.53484 1.16667 1.74967 1.95183 1.74967 2.91667V11.0833C1.74967 12.0482 2.53484 12.8333 3.49967 12.8333H8.74967C9.07226 12.8333 9.33301 13.0947 9.33301 13.4167ZM12.6493 9.48908L10.8753 9.19333C10.6578 9.15717 10.4997 8.9705 10.4997 8.75C10.4997 8.42858 10.761 8.16667 11.083 8.16667H12.406C12.6137 8.16667 12.8073 8.27867 12.9118 8.45833C13.0722 8.73717 13.428 8.83225 13.7086 8.67125C13.9874 8.50967 14.0831 8.15325 13.9209 7.87442C13.6094 7.33483 13.0284 6.99942 12.4054 6.99942H12.2491V6.41608C12.2491 6.09408 11.9883 5.83275 11.6658 5.83275C11.3432 5.83275 11.0824 6.09408 11.0824 6.41608V6.99942C10.1176 6.99942 9.33243 7.78458 9.33243 8.74942C9.33243 9.54275 9.90059 10.2136 10.6828 10.3437L12.4568 10.6394C12.6743 10.6756 12.8324 10.8623 12.8324 11.0828C12.8324 11.4042 12.5711 11.6661 12.2491 11.6661H10.9261C10.7184 11.6661 10.5248 11.5541 10.4203 11.3744C10.2599 11.095 9.90351 10.9999 9.62351 11.1615C9.34468 11.3231 9.24901 11.6795 9.41118 11.9583C9.72268 12.4979 10.3037 12.8328 10.9267 12.8328H11.083V13.4161C11.083 13.7381 11.3438 13.9994 11.6663 13.9994C11.9889 13.9994 12.2497 13.7381 12.2497 13.4161V12.8328C13.2145 12.8328 13.9997 12.0476 13.9997 11.0828C13.9997 10.2894 13.4315 9.61917 12.6493 9.48908ZM4.37467 8.75H7.58301C7.90559 8.75 8.16634 8.48867 8.16634 8.16667C8.16634 7.84467 7.90559 7.58333 7.58301 7.58333H4.37467C3.57084 7.58333 2.91634 8.23783 2.91634 9.04167V10.2083C2.91634 11.0122 3.57084 11.6667 4.37467 11.6667H7.58301C7.90559 11.6667 8.16634 11.4053 8.16634 11.0833C8.16634 10.7613 7.90559 10.5 7.58301 10.5H4.37467C4.21367 10.5 4.08301 10.3693 4.08301 10.2083V9.04167C4.08301 8.88067 4.21367 8.75 4.37467 8.75ZM3.49967 6.41667H4.66634C4.98834 6.41667 5.24967 6.15533 5.24967 5.83333C5.24967 5.51133 4.98834 5.25 4.66634 5.25H3.49967C3.17767 5.25 2.91634 5.51133 2.91634 5.83333C2.91634 6.15533 3.17767 6.41667 3.49967 6.41667ZM3.49967 4.08333H4.66634C4.98834 4.08333 5.24967 3.822 5.24967 3.5C5.24967 3.178 4.98834 2.91667 4.66634 2.91667H3.49967C3.17767 2.91667 2.91634 3.178 2.91634 3.5C2.91634 3.822 3.17767 4.08333 3.49967 4.08333Z" fill="#A39898"/>
</g>
<defs>
<clipPath id="clip0_5_25017">
<rect width="14" height="14" fill="white"/>
</clipPath>
</defs>
</svg>
