<svg width="14" height="14" viewBox="0 0 14 14" fill="none" xmlns="http://www.w3.org/2000/svg">
<path d="M11.0833 2.33301H2.91667C1.30608 2.33301 0 3.63851 0 5.24967V8.74967C0 10.3603 1.30608 11.6663 2.91667 11.6663H11.0833C12.6916 11.6663 14 10.3579 14 8.74967V5.24967C14 3.64142 12.6916 2.33301 11.0833 2.33301ZM4.73667 9.33301C4.5465 9.33301 4.38142 9.20176 4.33883 9.01626L4.18425 8.34134H2.779L2.61917 9.01859C2.57542 9.20293 2.4115 9.33301 2.22192 9.33301C1.95883 9.33301 1.76458 9.08743 1.82467 8.83134L2.64892 5.33542C2.76617 4.83026 3.31217 4.51526 3.84825 4.73984C4.10433 4.84717 4.27642 5.09334 4.33942 5.36401L5.1345 8.83367C5.19283 9.08917 4.99917 9.33301 4.73667 9.33301ZM12.8333 8.74967C12.8333 9.71451 12.0482 10.4997 11.0833 10.4997H7V3.49967H11.0833C12.0482 3.49967 12.8333 4.28484 12.8333 5.24967V8.74967ZM11.9583 5.60901V5.62126C11.9583 5.81959 11.7973 5.98059 11.599 5.98059H11.4147C11.3441 6.72434 11.0547 7.57368 10.4773 8.23576C10.7934 8.42768 11.1726 8.56476 11.6346 8.60851C11.8183 8.62601 11.9583 8.78118 11.9583 8.96609V8.97834C11.9583 9.19184 11.774 9.35634 11.5617 9.33592C10.8984 9.27234 10.3606 9.05067 9.92367 8.73976C9.48442 9.05359 8.94017 9.27351 8.27167 9.33592C8.05933 9.35576 7.87558 9.19126 7.87558 8.97776V8.96551C7.87558 8.77826 8.02025 8.62484 8.20692 8.60734C8.66658 8.56359 9.04575 8.42826 9.36017 8.23693C9.16708 8.01584 9.00608 7.77376 8.87425 7.52117C8.75 7.28317 8.92617 6.99851 9.1945 6.99851H9.20033C9.33217 6.99851 9.45525 7.06967 9.51592 7.18634C9.62383 7.39167 9.75858 7.58942 9.92017 7.77084C10.3973 7.23417 10.6155 6.54117 10.6802 5.97942H8.2355C8.03717 5.97942 7.87617 5.81842 7.87617 5.62009V5.60784C7.87617 5.40951 8.03717 5.24851 8.2355 5.24851H9.55208V5.02451C9.55208 4.82617 9.71308 4.66517 9.91142 4.66517H9.92367C10.122 4.66517 10.283 4.82617 10.283 5.02451V5.24851H11.5996C11.7979 5.24851 11.9589 5.40951 11.9589 5.60784L11.9583 5.60901ZM3.53792 5.51976L3.997 7.52467H2.97208L3.44517 5.51976C3.45042 5.49817 3.46908 5.48301 3.49125 5.48301C3.51342 5.48301 3.53325 5.49817 3.53792 5.51976Z" fill="#A39898"/>
</svg>
