<svg width="19" height="19" viewBox="0 0 19 19" fill="none" xmlns="http://www.w3.org/2000/svg">
<path d="M4.83333 10.7795C5.07223 11.5681 5.51141 12.2814 6.10804 12.8498C6.70467 13.4181 7.43839 13.8222 8.23768 14.0226C9.03696 14.2229 9.87453 14.2128 10.6687 13.9931C11.4629 13.7734 12.1866 13.3516 12.7693 12.769C13.3519 12.1863 13.7737 11.4626 13.9934 10.6684C14.2131 9.8742 14.2233 9.03664 14.0229 8.23735C13.8225 7.43807 13.4184 6.70434 12.8501 6.10771C12.2817 5.51108 11.5685 5.07191 10.7798 4.83301C10.9184 5.28091 10.988 5.74726 10.9863 6.21609C10.9862 7.4811 10.4836 8.69426 9.58909 9.58876C8.69459 10.4833 7.48143 10.9859 6.21642 10.986C5.74759 10.9877 5.28123 10.918 4.83333 10.7795Z" fill="black" fill-opacity="0.37"/>
<g opacity="0.9">
<path d="M9.50016 3.08301C9.34545 3.08301 9.19708 3.02155 9.08768 2.91215C8.97829 2.80276 8.91683 2.65438 8.91683 2.49967V1.91634C8.91683 1.76163 8.97829 1.61326 9.08768 1.50386C9.19708 1.39447 9.34545 1.33301 9.50016 1.33301C9.65487 1.33301 9.80325 1.39447 9.91264 1.50386C10.022 1.61326 10.0835 1.76163 10.0835 1.91634V2.49967C10.0835 2.65438 10.022 2.80276 9.91264 2.91215C9.80325 3.02155 9.65487 3.08301 9.50016 3.08301Z" fill="white"/>
<path d="M9.50016 15.9165C9.65487 15.9165 9.80325 15.978 9.91264 16.0874C10.022 16.1968 10.0835 16.3451 10.0835 16.4998V17.0832C10.0835 17.2379 10.022 17.3863 9.91264 17.4956C9.80325 17.605 9.65487 17.6665 9.50016 17.6665C9.34545 17.6665 9.19708 17.605 9.08768 17.4956C8.97829 17.3863 8.91683 17.2379 8.91683 17.0832V16.4998C8.91683 16.3451 8.97829 16.1968 9.08768 16.0874C9.19708 15.978 9.34545 15.9165 9.50016 15.9165Z" fill="white"/>
<path d="M1.91683 8.9165H2.50016C2.65487 8.9165 2.80325 8.97796 2.91264 9.08736C3.02204 9.19675 3.0835 9.34513 3.0835 9.49984C3.0835 9.65455 3.02204 9.80292 2.91264 9.91232C2.80325 10.0217 2.65487 10.0832 2.50016 10.0832H1.91683C1.76212 10.0832 1.61375 10.0217 1.50435 9.91232C1.39495 9.80292 1.3335 9.65455 1.3335 9.49984C1.3335 9.34513 1.39495 9.19675 1.50435 9.08736C1.61375 8.97796 1.76212 8.9165 1.91683 8.9165Z" fill="white"/>
<path d="M16.5003 8.9165H17.0837C17.2384 8.9165 17.3867 8.97796 17.4961 9.08736C17.6055 9.19675 17.667 9.34513 17.667 9.49984C17.667 9.65455 17.6055 9.80292 17.4961 9.91232C17.3867 10.0217 17.2384 10.0832 17.0837 10.0832H16.5003C16.3456 10.0832 16.1972 10.0217 16.0878 9.91232C15.9785 9.80292 15.917 9.65455 15.917 9.49984C15.917 9.34513 15.9785 9.19675 16.0878 9.08736C16.1972 8.97796 16.3456 8.9165 16.5003 8.9165Z" fill="white"/>
<path d="M4.55061 3.72466L4.96303 4.13708C5.01874 4.19089 5.06318 4.25526 5.09375 4.32642C5.12433 4.39759 5.14042 4.47414 5.14109 4.55159C5.14176 4.62905 5.12701 4.70586 5.09767 4.77755C5.06834 4.84924 5.02503 4.91437 4.97026 4.96914C4.91549 5.02391 4.85036 5.06723 4.77867 5.09656C4.70698 5.12589 4.63017 5.14065 4.55271 5.13997C4.47526 5.1393 4.39871 5.12321 4.32754 5.09264C4.25637 5.06206 4.19201 5.01762 4.1382 4.96191L3.7252 4.55008C3.671 4.49588 3.62801 4.43154 3.59867 4.36072C3.56934 4.28991 3.55425 4.21402 3.55425 4.13737C3.55425 4.06072 3.56934 3.98483 3.59867 3.91401C3.62801 3.8432 3.671 3.77886 3.7252 3.72466C3.77939 3.67046 3.84374 3.62747 3.91455 3.59814C3.98536 3.56881 4.06126 3.55371 4.1379 3.55371C4.21455 3.55371 4.29045 3.56881 4.36126 3.59814C4.43207 3.62747 4.49641 3.67046 4.55061 3.72466Z" fill="white"/>
<path d="M14.8623 14.037L15.2753 14.4494C15.3295 14.5036 15.3725 14.5679 15.4019 14.6387C15.4312 14.7095 15.4463 14.7854 15.4463 14.8621C15.4463 14.9387 15.4312 15.0146 15.4019 15.0854C15.3725 15.1562 15.3295 15.2206 15.2753 15.2748C15.1659 15.3842 15.0174 15.4457 14.8626 15.4457C14.786 15.4457 14.7101 15.4306 14.6393 15.4013C14.5685 15.372 14.5041 15.329 14.4499 15.2748L14.0375 14.8624C13.9833 14.8082 13.9403 14.7439 13.911 14.6731C13.8816 14.6024 13.8665 14.5265 13.8665 14.4499C13.8664 14.3732 13.8815 14.2974 13.9108 14.2266C13.9401 14.1558 13.9831 14.0914 14.0372 14.0372C14.0914 13.983 14.1557 13.94 14.2265 13.9107C14.2972 13.8814 14.3731 13.8662 14.4497 13.8662C14.6045 13.8662 14.7529 13.9276 14.8623 14.037Z" fill="white"/>
<path d="M4.13837 14.0368C4.24839 13.9305 4.39574 13.8717 4.54869 13.8731C4.70164 13.8744 4.84794 13.9357 4.9561 14.0439C5.06425 14.1521 5.1256 14.2984 5.12693 14.4513C5.12826 14.6043 5.06946 14.7516 4.9632 14.8616L4.55079 15.2746C4.44133 15.3841 4.29288 15.4456 4.13808 15.4456C3.98328 15.4456 3.83483 15.3841 3.72537 15.2746C3.61591 15.1652 3.55442 15.0167 3.55442 14.8619C3.55442 14.7071 3.61591 14.5587 3.72537 14.4492L4.13837 14.0368Z" fill="white"/>
<path d="M14.8623 4.96249C14.7523 5.06875 14.605 5.12755 14.452 5.12622C14.2991 5.12489 14.1528 5.06354 14.0446 4.95539C13.9365 4.84723 13.8751 4.70093 13.8738 4.54798C13.8725 4.39503 13.9312 4.24768 14.0375 4.13766L14.4499 3.72466C14.5594 3.6152 14.7078 3.55371 14.8626 3.55371C15.0174 3.55371 15.1659 3.6152 15.2753 3.72466C15.3848 3.83412 15.4463 3.98257 15.4463 4.13737C15.4463 4.29216 15.3848 4.44062 15.2753 4.55008L14.8623 4.96249Z" fill="white"/>
<path d="M4.42542 10.365C4.50067 10.2907 4.5947 10.2383 4.69745 10.2133C4.8002 10.1883 4.9078 10.1918 5.00875 10.2232C5.40018 10.3441 5.80775 10.4047 6.21742 10.4029C7.32749 10.4018 8.3918 9.96041 9.17679 9.17552C9.96179 8.39063 10.4034 7.32639 10.4046 6.21632C10.406 5.80678 10.345 5.39941 10.2238 5.00823C10.1921 4.90718 10.1885 4.7994 10.2135 4.69648C10.2384 4.59355 10.2909 4.49936 10.3653 4.42399C10.4397 4.34863 10.5332 4.29494 10.6358 4.26869C10.7384 4.24244 10.8462 4.24462 10.9477 4.27498C11.8332 4.54276 12.6342 5.03548 13.2725 5.70507C13.9109 6.37466 14.3648 7.19827 14.59 8.09556C14.8152 8.99285 14.804 9.93318 14.5574 10.8248C14.3109 11.7165 13.8375 12.5291 13.1834 13.1833C12.5293 13.8374 11.7167 14.3109 10.8251 14.5575C9.93345 14.8041 8.99312 14.8154 8.09581 14.5903C7.1985 14.3652 6.37486 13.9113 5.70521 13.273C5.03556 12.6348 4.54278 11.8338 4.27492 10.9483C4.24455 10.8466 4.24252 10.7385 4.26904 10.6357C4.29556 10.5329 4.34963 10.4393 4.42542 10.365ZM9.39717 13.5832C10.3121 13.5831 11.2017 13.2833 11.93 12.7296C12.6583 12.1759 13.1852 11.3988 13.43 10.5173C13.6748 9.63575 13.624 8.6983 13.2855 7.84834C12.947 6.99839 12.3393 6.28275 11.5555 5.8109C11.5652 5.94507 11.5701 6.08118 11.5701 6.21923C11.5684 7.63858 11.0038 8.99931 10.0001 10.0029C8.99639 11.0065 7.6356 11.5709 6.21625 11.5725C6.08034 11.5725 5.94442 11.5672 5.80792 11.5573C6.18269 12.174 6.70954 12.6842 7.33801 13.0389C7.96647 13.3937 8.6755 13.5811 9.39717 13.5832Z" fill="white"/>
</g>
</svg>
