<svg width="20" height="20" viewBox="0 0 20 20" fill="none" xmlns="http://www.w3.org/2000/svg">
<path d="M2.00271 5.13718H2.00567C2.00573 5.28451 2.06392 5.42586 2.16761 5.53052C2.27129 5.63518 2.41209 5.69469 2.5594 5.69612V5.69661H17.4404V5.69637C17.5882 5.69571 17.7299 5.63652 17.8342 5.53173C17.9386 5.42694 17.9972 5.28508 17.9973 5.13718H17.9998V2.55845C17.9995 2.41025 17.9404 2.26821 17.8356 2.16351C17.7307 2.0588 17.5885 2 17.4404 2H2.5594C2.41106 2.00007 2.26881 2.05903 2.16392 2.16393C2.05902 2.26883 2.00007 2.41108 2 2.55944C2 2.56905 2.00247 2.57817 2.00296 2.58779L2.00271 5.13718ZM17.4401 8.15182H2.5594C2.41106 8.15188 2.26881 8.21084 2.16392 8.31574C2.05902 8.42065 2.00007 8.5629 2 8.71125C2 8.72087 2.00247 8.72999 2.00296 8.73961V11.289H2.00592C2.00598 11.4363 2.06417 11.5777 2.16785 11.6823C2.27154 11.787 2.41234 11.8465 2.55965 11.8479V11.8484H17.4406V11.8482C17.5885 11.8475 17.7301 11.7883 17.8345 11.6835C17.9388 11.5788 17.9975 11.4369 17.9975 11.289H18V8.71027C17.9995 8.56204 17.9404 8.42004 17.8354 8.31536C17.7305 8.21069 17.5883 8.15188 17.4401 8.15182ZM17.4401 14.3034H2.5594C2.41106 14.3035 2.26881 14.3624 2.16392 14.4673C2.05902 14.5722 2.00007 14.7145 2 14.8628C2 14.8724 2.00247 14.8816 2.00296 14.8912V17.4406H2.00592C2.00598 17.5879 2.06417 17.7292 2.16785 17.8339C2.27154 17.9386 2.41234 17.9981 2.55965 17.9995V18H17.4406C17.5885 17.9993 17.7301 17.9398 17.8345 17.835C17.9389 17.7301 17.9975 17.5882 17.9975 17.4403H18V14.8616C17.9995 14.7134 17.9403 14.5715 17.8353 14.4668C17.7304 14.3622 17.5883 14.3035 17.4401 14.3034Z" fill="#758599" fill-opacity="0.5"/>
</svg>
