<svg width="15" height="17" viewBox="0 0 15 17" fill="none" xmlns="http://www.w3.org/2000/svg">
<path d="M7.4997 0.691406C5.73566 0.693347 4.04442 1.39492 2.79699 2.64223C1.54957 3.88953 0.847821 5.5807 0.845703 7.34474C0.845703 9.05807 2.17237 11.7394 4.78904 15.3141C5.10054 15.7408 5.50841 16.088 5.97944 16.3273C6.45047 16.5667 6.97135 16.6914 7.4997 16.6914C8.02805 16.6914 8.54894 16.5667 9.01997 16.3273C9.491 16.088 9.89886 15.7408 10.2104 15.3141C12.827 11.7394 14.1537 9.05807 14.1537 7.34474C14.1516 5.5807 13.4498 3.88953 12.2024 2.64223C10.955 1.39492 9.26374 0.693347 7.4997 0.691406ZM7.4997 9.99674C6.97229 9.99674 6.45671 9.84034 6.01818 9.54733C5.57965 9.25431 5.23786 8.83783 5.03602 8.35056C4.83419 7.86329 4.78138 7.32712 4.88428 6.80983C4.98717 6.29255 5.24115 5.8174 5.61409 5.44446C5.98703 5.07152 6.46218 4.81754 6.97946 4.71465C7.49675 4.61175 8.03292 4.66456 8.52019 4.86639C9.00746 5.06823 9.42394 5.41002 9.71696 5.84855C10.01 6.28708 10.1664 6.80266 10.1664 7.33007C10.1664 8.03732 9.88542 8.7156 9.38532 9.21569C8.88522 9.71579 8.20695 9.99674 7.4997 9.99674Z" fill="#FE724C"/>
</svg>
