<svg width="21" height="21" viewBox="0 0 21 21" fill="none" xmlns="http://www.w3.org/2000/svg">
<g id="location 1" clip-path="url(#clip0_5_56366)">
<g id="Group">
<path id="Vector" d="M18.7941 14.5218C18.5104 14.3659 18.1542 14.4696 17.9984 14.7532C17.8426 15.0368 17.9462 15.3931 18.2298 15.5488C18.9278 15.9323 19.3281 16.3574 19.3281 16.7151C19.3281 17.1526 18.7082 17.8308 16.9682 18.4219C15.2493 19.006 12.9521 19.3276 10.5 19.3276C8.04785 19.3276 5.7507 19.006 4.03176 18.4219C2.2918 17.8308 1.67188 17.1526 1.67188 16.7151C1.67188 16.3574 2.07219 15.9323 2.77016 15.5488C3.05379 15.393 3.15738 15.0368 3.00156 14.7531C2.84574 14.4695 2.48961 14.3659 2.2059 14.5217C1.4277 14.9493 0.5 15.6768 0.5 16.7151C0.5 17.5109 1.04734 18.6456 3.65477 19.5315C5.49195 20.1557 7.92297 20.4994 10.5 20.4994C13.077 20.4994 15.508 20.1557 17.3452 19.5315C19.9527 18.6456 20.5 17.5109 20.5 16.7151C20.5 15.6768 19.5723 14.9493 18.7941 14.5218Z" fill="#FF5555"/>
<path id="Vector_2" d="M6.07684 17.5755C7.26629 17.9115 8.83734 18.0966 10.5006 18.0966C12.1638 18.0966 13.7349 17.9115 14.9243 17.5755C16.3795 17.1644 17.1174 16.5693 17.1174 15.8069C17.1174 15.0445 16.3795 14.4495 14.9243 14.0384C14.6013 13.9471 14.25 13.8671 13.8764 13.7988C13.6736 14.1493 13.4611 14.51 13.2388 14.8812C13.6523 14.9432 14.0404 15.0193 14.3929 15.1091C15.4639 15.3818 15.8551 15.6889 15.9355 15.807C15.8551 15.925 15.4639 16.2321 14.393 16.5048C13.3793 16.763 12.0752 16.9103 10.7016 16.9234C10.6351 16.9284 10.5681 16.9311 10.5006 16.9311C10.433 16.9311 10.3661 16.9284 10.2995 16.9234C8.92594 16.9103 7.6218 16.763 6.60816 16.5048C5.53723 16.2321 5.14602 15.925 5.06559 15.807C5.14602 15.6889 5.53727 15.3818 6.6082 15.1091C6.9607 15.0193 7.34887 14.9432 7.76234 14.8812C7.54012 14.5101 7.32758 14.1493 7.12473 13.7988C6.75121 13.8671 6.39984 13.9471 6.07684 14.0384C4.62164 14.4495 3.88379 15.0445 3.88379 15.8069C3.88379 16.5693 4.62164 17.1644 6.07684 17.5755Z" fill="#FF5555"/>
<path id="Vector_3" d="M10.4996 15.7591C11.0212 15.7591 11.495 15.4934 11.7671 15.0482C13.6737 11.9288 15.9465 7.81758 15.9465 5.94684C15.9465 2.94344 13.503 0.5 10.4996 0.5C7.49617 0.5 5.05273 2.94344 5.05273 5.94684C5.05273 7.81758 7.32551 11.9288 9.23211 15.0482C9.50422 15.4934 9.97805 15.7591 10.4996 15.7591ZM8.31027 5.57285C8.31027 4.3657 9.29242 3.38359 10.4996 3.38359C11.7068 3.38359 12.6889 4.3657 12.6889 5.57285C12.6889 6.78004 11.7068 7.76215 10.4996 7.76215C9.29242 7.76215 8.31027 6.78008 8.31027 5.57285Z" fill="#FF5555"/>
</g>
</g>
<defs>
<clipPath id="clip0_5_56366">
<rect width="20" height="20" fill="white" transform="translate(0.5 0.5)"/>
</clipPath>
</defs>
</svg>
