<svg width="113" height="137" viewBox="0 0 113 137" fill="none" xmlns="http://www.w3.org/2000/svg">
<g clip-path="url(#clip0_5_10006)">
<path d="M102.661 106.732L101.785 104.085L98.0935 92.7949L96.7179 88.6149L93.6364 79.2049L91.3371 78.689C88.3953 78.0151 85.4391 77.5773 82.4048 77.3575C80.8241 77.2321 79.229 77.1703 77.6029 77.1703C70.1261 77.1703 62.8525 78.4075 55.657 79.6282C49.8062 80.6146 44.1278 81.5701 38.5601 81.8826C37.2625 81.9607 35.994 82.008 34.7128 82.008C30.6931 82.008 27.1888 81.5847 23.9984 80.74L19.5087 79.5192L14.8792 93.6433L14.2223 95.6633L10.3423 107.5L8.49667 113.106L2.74023 130.658L5.49323 131.786C11.0627 134.057 17.3818 135.183 24.6553 135.183C36.043 135.183 47.3835 132.397 58.0198 129.797C68.0936 127.339 77.338 125.069 86.6768 125.069C92.1828 125.069 97.3603 125.868 102.585 127.543L110.281 130.001L102.663 106.732H102.661Z" fill="#FE724C" fill-opacity="0.2"/>
<path d="M98.5417 103.324C83.0018 99.6508 69.2532 102.503 55.3866 105.378C52.5555 105.965 49.7336 106.55 46.9189 107.079C51.0021 105.555 54.9637 103.929 58.7983 102.356C71.9299 96.9695 83.4102 92.2626 95.3422 93.269C97.4201 93.4489 99.0498 92.6114 99.1478 91.338C99.244 90.0918 97.8339 88.8129 95.8649 88.3297C81.2724 84.7474 68.4365 87.1035 55.5281 89.476C51.4685 90.2226 47.4379 90.962 43.4744 91.5142L44.1187 85.3814C44.2548 84.0916 42.685 83.0652 40.6162 83.0652C38.5473 83.0652 36.6981 84.0916 36.4803 85.3814L35.3044 92.3389C30.4208 92.6005 25.6861 92.3644 21.1782 91.2544L17.6721 90.3916L13.3257 95.4235L16.9444 96.3573C30.2865 99.8033 44.5288 97.0712 57.7584 94.5316C60.3372 94.0375 62.8688 93.5506 65.3587 93.1183C61.7872 94.3826 58.1795 95.7887 54.5245 97.2111C40.6488 102.617 26.4483 108.147 13.7413 106.894C11.5799 106.681 9.11729 107.709 7.96854 109.339C6.79439 111.004 7.33882 112.792 9.28243 113.49C14.8937 115.502 20.8969 116.291 27.0544 116.291C36.8505 116.291 46.5886 114.313 55.8983 112.292L55.8457 123.03C55.8348 125.323 58.1359 127.232 60.9869 127.232C63.8379 127.232 66.0356 125.323 65.8995 123.03L65.1464 110.314C76.0585 108.1 86.3827 106.763 97.333 109.471L102.022 110.632L103.039 104.379L98.5435 103.318L98.5417 103.324Z" fill="#FE724C" fill-opacity="0.2"/>
<path d="M94.9032 78.4856L92.5258 77.9533C89.3355 77.2321 86.1596 76.7798 82.8894 76.56C81.3886 76.451 79.8551 76.4037 78.3071 76.4037C70.5799 76.4037 63.0558 77.6717 55.6262 78.9088C49.6193 79.9261 43.7848 80.898 38.0447 81.2413C36.6673 81.3195 35.3081 81.3667 33.947 81.3667C29.7857 81.3667 26.1562 80.9434 22.8715 80.0515L18.2257 78.8144L7.51131 110.225L0 132.208L2.87822 133.398C8.71269 135.808 15.3293 136.998 22.9786 136.998C34.976 136.998 46.9117 134.055 58.0798 131.3C68.6689 128.684 78.3525 126.289 88.145 126.289C93.9323 126.289 99.3766 127.134 104.866 128.903L113 131.518L94.9013 78.4838L94.9032 78.4856ZM65.7617 120.669C62.4461 121.343 59.145 122.109 55.844 122.876C55.6407 122.923 55.4375 122.97 55.2342 123.018C44.8156 125.445 34.6802 127.824 24.7933 127.824C20.1784 127.824 16.0498 127.292 12.3114 126.197L15.362 115.174L17.6141 107.079L20.3671 97.1039L21.9478 91.4361L23.6537 85.2669C26.5627 85.7374 29.675 85.9554 33.0396 85.9554C34.1666 85.9554 35.2772 85.9245 36.4024 85.8773C38.1863 85.7992 39.9684 85.6738 41.736 85.5013C42.5345 85.4068 43.3312 85.3287 44.1297 85.2342C48.7446 84.6856 53.2652 83.8881 57.6605 83.1197C65.1846 81.8045 72.146 80.5983 79.1383 80.5983C79.4831 80.5983 79.8261 80.5983 80.1546 80.6146C83.0491 80.6619 85.8021 80.9271 88.5243 81.4139L90.1358 87.2071L91.7781 93.1255L94.3587 102.474L96.2352 109.222L99.0354 119.337C94.9376 118.571 90.8236 118.195 86.5534 118.195C79.5139 118.195 72.616 119.245 65.7653 120.669H65.7617Z" fill="#F98875"/>
<g opacity="0.2">
<path d="M78.3054 76.4019C71.6307 76.4019 65.1084 77.3484 58.666 78.4038V98.8169C58.7277 98.8478 58.8021 98.8896 58.862 98.9186C61.537 97.5871 68.5293 93.0311 74.8483 86.6893C76.7247 84.8109 78.5395 82.76 80.151 80.6146C80.964 79.5501 81.7154 78.4692 82.4032 77.3574C82.5756 77.0904 82.748 76.8252 82.8877 76.5581C81.3869 76.4491 79.8534 76.4019 78.3054 76.4019Z" fill="#9D2201"/>
</g>
<path d="M47.7661 94.3118C47.7806 94.3408 47.7951 94.3681 47.8224 94.3826V94.2972C47.7933 94.2972 47.7806 94.3118 47.7661 94.3118Z" fill="#F23358"/>
<path d="M58.8672 39C46.3852 39 36.2661 49.1275 36.2661 61.6239C36.2661 61.722 36.2661 61.8183 36.2697 61.9182C36.4748 78.1404 53.9474 95.4562 58.8654 98.9205C63.7834 95.4544 81.2578 78.1404 81.461 61.9182C81.4647 61.8201 81.4647 61.7238 81.4647 61.6239C81.4665 49.1275 71.3492 39 58.8672 39ZM58.8672 71.3282C53.2142 71.3282 48.6319 66.7413 48.6319 61.0826C48.6319 55.4239 53.2142 50.837 58.8672 50.837C64.5202 50.837 69.1025 55.4239 69.1025 61.0826C69.1025 66.7413 64.5202 71.3282 58.8672 71.3282Z" fill="#FE724C"/>
<path d="M58.7111 71.3209C53.1307 71.2373 48.6319 66.6904 48.6319 61.0844C48.6319 55.4784 53.1325 50.9314 58.7111 50.8478V39.0073C46.3018 39.0908 36.2661 49.1802 36.2661 61.6221C36.2661 61.7202 36.2661 61.8165 36.2697 61.9164C36.473 77.9806 53.6008 95.1074 58.7111 98.806V71.3209Z" fill="#FF6338"/>
</g>
<path d="M47.9804 34.5574C46.3553 35 44.9272 34.0984 44.484 32.4918C44.0408 30.8361 44.8779 29.3934 46.503 28.9508C48.1281 28.5082 49.5234 29.3607 49.9995 31.0164C50.4262 32.6066 49.6711 34.0984 48.0132 34.541H47.9804V34.5574Z" fill="#FFDDD3"/>
<path d="M44.3691 27.4918L38 13.0492L45.633 11L47.6685 26.6066L44.3691 27.4918Z" fill="#FFDDD3"/>
<path d="M61.3052 31.3279C59.1219 31.1312 57.7923 29.4098 57.9729 27.2787C58.1699 25.0656 59.8278 23.6721 61.9946 23.8689C64.1778 24.0656 65.4746 25.7049 65.3269 27.918C65.1463 30.0492 63.554 31.5246 61.338 31.3279H61.3052Z" fill="#FF9D83"/>
<path d="M60.1067 20.9672L58.4487 0L69.6767 0.983607L64.4567 21.3443L60.1067 20.9672Z" fill="#FF9D83"/>
<path d="M83.9764 15.063C86.2088 14.6695 88.3428 16.1613 88.7368 18.3908C89.1307 20.6203 87.6369 22.7515 85.4045 23.1449C83.172 23.5384 81.0381 22.0466 80.6441 19.8171C80.2501 17.5875 81.7439 15.4564 83.9764 15.063Z" fill="#FFDDD3"/>
<path d="M78.8713 27.2925C79.9055 27.1121 80.9068 27.8007 81.0874 28.8498C81.268 29.8826 80.5785 30.8826 79.528 31.063C78.4938 31.2433 77.4925 30.5548 77.3119 29.5056C77.1313 28.4728 77.8208 27.4728 78.8713 27.2925Z" fill="#FFDDD3"/>
<path d="M75.0137 35.5384C74.9316 35.0957 75.2271 34.6695 75.6867 34.5875C76.1299 34.5056 76.5567 34.8007 76.6388 35.2597C76.7208 35.7023 76.4254 36.1285 75.9657 36.2105C75.5225 36.2925 75.0957 35.9974 75.0137 35.5384Z" fill="#FFDDD3"/>
<path d="M86.3621 40.7541C86.8217 40.2787 87.4948 40.2787 87.938 40.7213C88.3976 41.1803 88.3648 41.8197 87.9051 42.2951C87.4455 42.7541 86.8053 42.8033 86.3293 42.3279C85.8533 41.8525 85.9189 41.2131 86.3621 40.7541ZM88.5453 39.2295L94.2414 32L97.114 34.9344L89.4318 40.1148L88.5453 39.2295Z" fill="#FF9D83"/>
<path d="M23.0068 32.0395C23.1217 30.2527 24.6647 28.892 26.4539 29.0068C28.2432 29.1215 29.6057 30.6625 29.4907 32.4494C29.3758 34.2363 27.8328 35.5969 26.0436 35.4822C24.2543 35.3674 22.8919 33.8264 23.0068 32.0395Z" fill="#FF9D83"/>
<path d="M31.4934 38.2527C31.5426 37.4166 32.2649 36.7772 33.1021 36.8428C33.9393 36.892 34.5795 37.6133 34.5138 38.4494C34.4645 39.2854 33.7423 39.9248 32.9051 39.8592C32.0679 39.81 31.4277 39.0887 31.4934 38.2527Z" fill="#FF9D83"/>
<defs>
<clipPath id="clip0_5_10006">
<rect width="113" height="98" fill="white" transform="translate(0 39)"/>
</clipPath>
</defs>
</svg>
