<svg width="14" height="14" viewBox="0 0 14 14" fill="none" xmlns="http://www.w3.org/2000/svg">
<g clip-path="url(#clip0_5_25047)">
<path d="M13.3168 5.35033L11.0541 3.08758C10.9441 2.98132 10.7967 2.92252 10.6438 2.92385C10.4908 2.92518 10.3445 2.98653 10.2363 3.09468C10.1282 3.20284 10.0668 3.34914 10.0655 3.50209C10.0642 3.65504 10.123 3.80239 10.2292 3.91241L12.492 6.17516C12.5592 6.24372 12.618 6.3201 12.667 6.40266C12.6582 6.40266 12.6512 6.39799 12.6425 6.39799L3.49349 6.41666C3.33878 6.41666 3.19041 6.47812 3.08101 6.58751C2.97161 6.69691 2.91016 6.84528 2.91016 6.99999C2.91016 7.1547 2.97161 7.30308 3.08101 7.41247C3.19041 7.52187 3.33878 7.58333 3.49349 7.58333L12.639 7.56466C12.6553 7.56466 12.6687 7.55649 12.6845 7.55533C12.6327 7.654 12.5671 7.74476 12.4897 7.82483L10.2269 10.0876C10.1712 10.1414 10.1268 10.2058 10.0962 10.2769C10.0656 10.3481 10.0495 10.4246 10.0488 10.5021C10.0482 10.5795 10.0629 10.6564 10.0923 10.728C10.1216 10.7997 10.1649 10.8649 10.2197 10.9196C10.2744 10.9744 10.3396 11.0177 10.4113 11.0471C10.483 11.0764 10.5598 11.0911 10.6372 11.0905C10.7147 11.0898 10.7912 11.0737 10.8624 11.0431C10.9336 11.0126 10.9979 10.9681 11.0517 10.9124L13.3145 8.64966C13.7519 8.2121 13.9977 7.61871 13.9977 6.99999C13.9977 6.38128 13.7519 5.78789 13.3145 5.35033H13.3168Z" fill="#FE724C"/>
<path d="M4.08333 12.8333H2.91667C2.45254 12.8333 2.00742 12.649 1.67923 12.3208C1.35104 11.9926 1.16667 11.5475 1.16667 11.0833V2.91667C1.16667 2.45254 1.35104 2.00742 1.67923 1.67923C2.00742 1.35104 2.45254 1.16667 2.91667 1.16667H4.08333C4.23804 1.16667 4.38642 1.10521 4.49581 0.995812C4.60521 0.886416 4.66667 0.738043 4.66667 0.583333C4.66667 0.428624 4.60521 0.280251 4.49581 0.170854C4.38642 0.0614582 4.23804 0 4.08333 0L2.91667 0C2.1434 0.00092625 1.40208 0.308514 0.855295 0.855295C0.308515 1.40208 0.00092625 2.1434 0 2.91667L0 11.0833C0.00092625 11.8566 0.308515 12.5979 0.855295 13.1447C1.40208 13.6915 2.1434 13.9991 2.91667 14H4.08333C4.23804 14 4.38642 13.9385 4.49581 13.8291C4.60521 13.7197 4.66667 13.5714 4.66667 13.4167C4.66667 13.262 4.60521 13.1136 4.49581 13.0042C4.38642 12.8948 4.23804 12.8333 4.08333 12.8333Z" fill="#FE724C"/>
</g>
<defs>
<clipPath id="clip0_5_25047">
<rect width="14" height="14" fill="white"/>
</clipPath>
</defs>
</svg>
