<svg xmlns="http://www.w3.org/2000/svg" width="119" height="40" fill="none" xmlns:v="https://vecta.io/nano"><path d="M49.056 30.064c-1.521 0-2.83-.308-3.928-.924a6.33 6.33 0 0 1-2.522-2.638c-.59-1.142-.886-2.493-.886-4.053 0-1.521.295-2.856.886-4.004a6.56 6.56 0 0 1 2.493-2.686c1.078-.642 2.342-.963 3.793-.963a7.7 7.7 0 0 1 2.724.472c.847.308 1.585.773 2.214 1.396.635.622 1.13 1.406 1.482 2.349.353.937.529 2.034.529 3.292v1.126H43.357V20.89h8.625c0-.59-.128-1.113-.385-1.569a2.76 2.76 0 0 0-1.069-1.069c-.449-.263-.972-.395-1.569-.395-.623 0-1.174.144-1.656.433a3.04 3.04 0 0 0-1.117 1.145c-.27.475-.407 1.004-.414 1.588v2.416c0 .732.135 1.364.404 1.896a2.96 2.96 0 0 0 1.165 1.232c.501.289 1.094.433 1.781.433a3.88 3.88 0 0 0 1.251-.193 2.58 2.58 0 0 0 .972-.578 2.51 2.51 0 0 0 .616-.943l3.793.25a5.17 5.17 0 0 1-1.184 2.387c-.59.674-1.354 1.2-2.291 1.579-.931.372-2.006.558-3.225.558zm8.997-.289V10.061h13.053v3.437h-8.885v4.698h8.019v3.437h-8.019v8.144h-4.168zm20.833.289c-1.495 0-2.788-.318-3.879-.953a6.52 6.52 0 0 1-2.512-2.676c-.59-1.149-.886-2.48-.886-3.995 0-1.527.295-2.862.886-4.004a6.44 6.44 0 0 1 2.512-2.676c1.091-.642 2.384-.963 3.879-.963s2.785.321 3.87.963c1.091.635 1.932 1.527 2.522 2.676.59 1.142.886 2.477.886 4.005 0 1.514-.295 2.846-.886 3.995a6.5 6.5 0 0 1-2.522 2.676c-1.084.635-2.374.953-3.87.953zm.019-3.177c.68 0 1.248-.192 1.704-.578.456-.392.799-.924 1.03-1.598.237-.674.356-1.441.356-2.301s-.119-1.627-.356-2.301c-.231-.674-.574-1.206-1.03-1.598s-1.024-.587-1.704-.587c-.687 0-1.264.196-1.733.587-.462.391-.812.924-1.049 1.598-.231.674-.347 1.441-.347 2.301s.115 1.627.347 2.301.587 1.206 1.049 1.598c.468.385 1.046.578 1.733.578zm16.064 3.177c-1.495 0-2.788-.318-3.879-.953a6.52 6.52 0 0 1-2.513-2.676c-.59-1.149-.886-2.48-.886-3.995 0-1.527.295-2.862.886-4.004.59-1.149 1.428-2.041 2.513-2.676 1.091-.642 2.384-.963 3.879-.963s2.785.321 3.87.963c1.091.635 1.932 1.527 2.522 2.676.591 1.142.886 2.477.886 4.005 0 1.514-.295 2.846-.886 3.995-.59 1.142-1.431 2.034-2.522 2.676-1.085.635-2.374.953-3.87.953zm.019-3.177c.68 0 1.248-.192 1.704-.578.456-.392.799-.924 1.03-1.598.238-.674.356-1.441.356-2.301s-.119-1.627-.356-2.301c-.231-.674-.574-1.206-1.03-1.598s-1.024-.587-1.704-.587c-.687 0-1.264.196-1.733.587-.462.391-.812.924-1.049 1.598-.231.674-.346 1.441-.346 2.301s.115 1.627.346 2.301c.237.674.587 1.206 1.049 1.598.468.385 1.046.578 1.733.578zm14.831 3.129c-1.123 0-2.141-.289-3.052-.866-.905-.584-1.623-1.441-2.156-2.57-.526-1.136-.789-2.528-.789-4.178 0-1.694.272-3.103.818-4.226.545-1.13 1.27-1.973 2.175-2.532.912-.565 1.91-.847 2.994-.847.828 0 1.518.141 2.07.424.558.276 1.007.623 1.347 1.04.347.411.61.815.79 1.213h.125v-7.412h4.091v19.715h-4.043v-2.368h-.173a5.33 5.33 0 0 1-.818 1.223c-.347.398-.799.728-1.358.991-.552.263-1.226.395-2.021.395zm1.299-3.263c.661 0 1.22-.18 1.675-.539.462-.366.815-.876 1.059-1.53.25-.655.376-1.422.376-2.301s-.122-1.643-.366-2.291-.597-1.149-1.059-1.502-1.024-.53-1.685-.53c-.674 0-1.242.183-1.704.549s-.811.873-1.049 1.521-.356 1.399-.356 2.253c0 .86.119 1.62.356 2.281.244.655.594 1.168 1.049 1.54.462.366 1.03.549 1.704.549z" fill="#f55"/><path d="M-.092 30.043l17.502 9.998L-.092 10.043v20z" fill="url(#A)"/><path d="M17.41.041L-.092 10.043h35L17.41.041z" fill="url(#B)"/><path d="M17.41 40.041l17.498-9.998v-20L17.41 40.041z" fill="url(#C)"/><path d="M-.092 10.043L17.41 40.041l17.498-29.998h-35z" fill="url(#D)"/><g clip-path="url(#E)"><path fill-rule="evenodd" d="M6.221 28.172l.033.014h22.851c.13-.057.225-.14.184-.29s-.175-.169-.314-.163h-.075-.035-3.014c.635-.235 1.142-.597 1.471-1.164.323-.548.409-1.195.24-1.803l.05-.015.082-.023c.077-.019.148-.052.211-.099a.55.55 0 0 0 .152-.171.53.53 0 0 0 .067-.215c.006-.075-.003-.151-.029-.222-.331-.988-1.442-1.81-2.53-1.893a3.81 3.81 0 0 0-1.245.123 5.25 5.25 0 0 0-.557-1.407l-1.455-2.713-.593-1.099-.05-.098-.027-.054.071-.004.11-.008c.037-.001.074-.008.108-.023s.065-.035.09-.06.046-.056.059-.089.02-.068.019-.104v-1.792a.26.26 0 0 0-.019-.108.27.27 0 0 0-.063-.092c-.027-.026-.06-.047-.096-.06s-.075-.02-.113-.019a4.38 4.38 0 0 0-.752.043c-.661.119-1.128.511-1.482 1.036-.02.042-.055.077-.098.098a.23.23 0 0 1-.14.021c-.121-.013-.244-.016-.366-.02l-.075-.002c-.216-.007-.352.092-.354.256s.118.263.326.271l.151.002.242.009a.22.22 0 0 1 .128.092l.159.234.093.14a1.15 1.15 0 0 1 .139.193l.489 1.24.854 2.146a3.22 3.22 0 0 1 .163 2.12c-.253.934-.743 1.751-1.348 2.512-.046.037-.104.055-.163.051h-2.966a.68.68 0 0 1-.242-.048c-.757-.302-1.115-.922-.98-1.709l.012-.072c.023-.148.049-.31.139-.407.336-.362.472-.75.306-1.237h.065.118c.275-.009.416-.145.418-.404v-.482-.15c0-.468-.306-.758-.798-.758-1.52 0-3.04 0-4.56 0a1.52 1.52 0 0 0-.173.006c-.125.008-.244.052-.342.126a.58.58 0 0 0-.204.29.55.55 0 0 0-.011.364c.037.119.114.224.219.297a.4.4 0 0 0 .1.037l-.571.319-1.798-1.933h.103.127l3.14-.013c.177-.001.282-.086.28-.218s-.102-.212-.282-.213h-.437-.193l-.006-.045-.006-.062-.001-2.34v-.653-1.274c-.001-.359-.152-.5-.528-.5-1.757 0-3.513 0-5.27 0-.391 0-.535.136-.536.504v2.491 1.88c-.063 0-.125 0-.185 0-.154-.001-.3-.001-.446.002-.06.002-.147.008-.173.044-.053.068-.08.151-.078.236.015.113.124.15.24.151l.46.005.739.006 2.288-.002c.046-.002.093.006.135.024a.29.29 0 0 1 .108.08l1.077 1.157.464.497.305.331.138.149c-.11.102-.208.215-.293.337-.075.15-.194.276-.342.362s-.32.129-.494.123c-.286.009-.478.193-.576.449-.06.155-.11.314-.153.474-.04.139-.032.287.023.422a.68.68 0 0 0 .282.325c.097.051.198.095.301.133l-.036.199-.102.498c-.007.058-.034.111-.077.152a.27.27 0 0 1-.16.071c-.126.013-.17.122-.17.238l-.001.173.002.519c.006.214.112.31.336.312l.088.001.78-.003c.05-.008.102.001.145.027a.2.2 0 0 1 .09.112c.136.303.337.576.59.8s.551.397.877.506l.076.031.036.015-.008.018h-.173c-1.52 0-3.04 0-4.56 0-.062-.01-.126-.007-.187.009-.072.036-.166.096-.178.159s.028.128.064.193l.023.041c.009.017.035.027.06.037zm18.181-.449H12.69l.21-.107.494-.269c.38-.241.674-.586.844-.99a.19.19 0 0 1 .084-.107c.041-.025.09-.034.137-.027h2.046l3.43.007c.73.004 1.442-.214 2.034-.623l.095-.063.024-.016.516.253c.176.933.776 1.586 1.8 1.942zm-.635-1.987l-.006-.03.273-.051.594-.116a3.59 3.59 0 0 0 1.087-.463c.176-.097.36-.179.551-.245.027-.001.053.004.077.015s.044.028.06.049c.321.696-.105 1.527-.867 1.766-.695.218-1.531-.154-1.752-.856a.58.58 0 0 1-.016-.069zm-11.695.978c-.488.053-.989-.151-1.22-.482h2.141a1.27 1.27 0 0 1-.407.335 1.33 1.33 0 0 1-.515.147zm9.543-11.738v1.44h-.292v-1.44h.292zM9.07 22.678l-.299.914c-.17-.036-.253-.128-.219-.272.038-.166.09-.329.156-.487.063-.149.213-.156.363-.155zm-2.444-5.599v-1.201h.795v.209H6.88v.286h.489v.209H6.88v.496h-.254zm-.581.018a.48.48 0 0 1-.239-.056c-.066-.038-.118-.091-.154-.161a.53.53 0 0 1-.054-.247c0-.093.018-.174.054-.244a.4.4 0 0 1 .152-.164c.066-.039.143-.059.231-.059a.47.47 0 0 1 .166.029.37.37 0 0 1 .135.085c.039.038.069.086.09.143a.57.57 0 0 1 .032.201v.069h-.613 0c0 .045.008.083.025.116a.18.18 0 0 0 .071.075c.03.018.067.026.109.026.028 0 .053-.004.076-.012s.043-.02.059-.035.029-.035.038-.057l.231.015c-.012.055-.036.104-.072.145s-.082.073-.14.096-.122.034-.196.034zm-.175-.648c-.015.027-.023.056-.025.089h.378c0-.036-.008-.068-.023-.096s-.037-.049-.065-.065-.059-.024-.096-.024-.072.009-.101.026-.052.04-.068.07zm1.822.589a.46.46 0 0 0 .236.058.46.46 0 0 0 .236-.058c.066-.039.118-.093.154-.163s.054-.151.054-.243-.018-.174-.054-.244a.39.39 0 0 0-.154-.163c-.066-.039-.145-.059-.236-.059s-.17.02-.236.059-.117.093-.153.163-.054.151-.054.244.018.173.054.243.087.124.153.163zm.341-.171c-.028.023-.062.035-.104.035s-.077-.012-.106-.035a.22.22 0 0 1-.064-.097.43.43 0 0 1-.021-.14.43.43 0 0 1 .021-.14.22.22 0 0 1 .064-.097c.029-.024.064-.036.106-.036s.076.012.104.036.049.056.063.097a.42.42 0 0 1 .022.14.42.42 0 0 1-.022.14c-.014.041-.035.073-.063.097zm.908.229a.46.46 0 0 1-.236-.058c-.066-.039-.117-.093-.153-.163s-.054-.151-.054-.243.018-.174.054-.244.087-.124.153-.163.145-.059.236-.059.17.02.236.059a.39.39 0 0 1 .154.163c.036.069.054.151.054.244s-.018.173-.054.243-.087.124-.154.163a.46.46 0 0 1-.236.058zm.001-.194c.041 0 .076-.012.104-.035s.049-.056.063-.097a.42.42 0 0 0 .022-.14.42.42 0 0 0-.022-.14c-.014-.041-.035-.073-.063-.097s-.062-.036-.104-.036-.077.012-.106.036a.22.22 0 0 0-.064.097.43.43 0 0 0-.021.14.43.43 0 0 0 .021.14.22.22 0 0 0 .064.097c.029.023.064.035.106.035zm.751.138a.34.34 0 0 0 .186.053c.048 0 .09-.008.123-.024s.062-.036.083-.06.038-.049.05-.075h.01v.144h.246v-1.201h-.249v.452h-.008c-.011-.024-.027-.049-.048-.074s-.048-.047-.082-.063-.076-.026-.126-.026a.34.34 0 0 0-.182.052c-.055.034-.099.085-.133.154s-.05.154-.05.258.016.185.048.255.076.121.131.157zm.367-.179a.16.16 0 0 1-.102.033c-.041 0-.076-.011-.104-.034s-.049-.054-.064-.094a.41.41 0 0 1-.022-.139c0-.052.007-.098.022-.137s.036-.07.064-.093.063-.033.104-.033.074.011.103.032.05.052.064.091.022.086.022.14-.008.1-.023.14-.036.071-.064.093z" fill="#fff"/></g><defs><linearGradient id="A" x1="17.41" y1="40.041" x2="-.097" y2="10.046" gradientUnits="userSpaceOnUse"><stop offset=".021" stop-color="#e01112"/><stop offset="1" stop-color="#ff5758"/></linearGradient><linearGradient id="B" x1="17.408" y1="10.043" x2="17.408" y2=".041" gradientUnits="userSpaceOnUse"><stop stop-color="#ff5758"/><stop offset="1" stop-color="#e01112"/></linearGradient><linearGradient id="C" x1="17.41" y1="40.041" x2="34.909" y2="10.043" gradientUnits="userSpaceOnUse"><stop offset=".021" stop-color="#e01112"/><stop offset="1" stop-color="#ff5758"/></linearGradient><linearGradient id="D" x1="17.408" y1="40.041" x2="17.408" y2="10.043" gradientUnits="userSpaceOnUse"><stop stop-color="#ff5758"/><stop offset="1" stop-color="#e01112"/></linearGradient><clipPath id="E"><path fill="#fff" transform="translate(3.928 13.889)" d="M0 0h25.433v14.368H0z"/></clipPath></defs></svg>