<svg width="24" height="24" viewBox="0 0 24 24" fill="none" xmlns="http://www.w3.org/2000/svg">
<g clip-path="url(#clip0_5_24910)">
<path d="M23.0693 6.71365L23.6128 6.16248C23.9708 5.79832 24.0926 5.26337 23.9276 4.78016C23.7804 4.31668 23.384 3.9761 22.9037 3.90022L20.2854 3.50466C20.1262 3.47747 19.991 3.37238 19.9255 3.22469L18.7459 0.741236C18.5423 0.290602 18.0937 0.000976562 17.5992 0.000976562C17.1047 0.000976562 16.656 0.290602 16.4524 0.741236L15.272 3.22703C15.2065 3.37473 15.0713 3.47982 14.9121 3.507L12.2938 3.90256C11.8134 3.97845 11.4171 4.31902 11.2699 4.7825C11.1049 5.26571 11.2267 5.80067 11.5847 6.16482L11.8194 6.40481H1.99991C0.895923 6.40617 0.00131243 7.30078 0 8.40477V21.9997C0.00131243 23.1036 0.895923 23.9982 1.99991 23.9996H21.9989C23.1029 23.9983 23.9975 23.1036 23.9988 21.9997V8.40036C24.0003 7.71551 23.6491 7.07813 23.0693 6.71365ZM12.0298 5.03374C12.0819 4.85585 12.2313 4.72353 12.4142 4.69335L15.0321 4.29779C15.454 4.23118 15.815 3.95881 15.9949 3.5714L17.1748 1.08514C17.246 0.91368 17.4135 0.801936 17.5992 0.801936C17.7848 0.801936 17.9523 0.91368 18.0236 1.08514L19.2035 3.5714C19.3833 3.95867 19.7441 4.23104 20.1658 4.29779L22.7841 4.69335C22.967 4.72353 23.1164 4.85585 23.1685 5.03374C23.2366 5.23116 23.1882 5.45015 23.0433 5.60052L21.1634 7.50402C20.8623 7.81469 20.727 8.25013 20.799 8.67677L21.2445 11.3779C21.2833 11.5828 21.2006 11.7917 21.0322 11.9146C20.8946 12.0162 20.7103 12.0275 20.5614 11.9434L18.1951 10.6503C17.8238 10.4468 17.3744 10.4468 17.0032 10.6503L14.6393 11.9434C14.4904 12.0274 14.306 12.0162 14.1685 11.9146C14 11.7916 13.9174 11.5827 13.9561 11.3778L14.3993 8.67672C14.4707 8.24971 14.3344 7.81422 14.0325 7.50397L12.155 5.60047C12.0096 5.44987 11.9612 5.23027 12.0298 5.03252V5.03374ZM1.99991 7.20042H12.6098L13.4637 8.06597C13.5863 8.19347 13.6408 8.37172 13.6105 8.54595L13.165 11.247C13.0751 11.7542 13.2849 12.2678 13.7041 12.567C14.091 12.8454 14.6035 12.8765 15.0213 12.647L17.3867 11.3539C17.519 11.281 17.6793 11.281 17.8115 11.3539L20.177 12.647C20.5947 12.8767 21.1073 12.8456 21.4941 12.567C21.9134 12.2678 22.1232 11.7542 22.0333 11.247L21.5877 8.54595C21.5574 8.37172 21.6119 8.19347 21.7345 8.06597L22.4845 7.30603C22.9195 7.49572 23.2003 7.92578 23.1989 8.40036V16H0.799975V8.40036C0.799975 7.73763 1.33718 7.20042 1.99991 7.20042ZM23.1988 19.9998H0.799975V16.7999H23.1989L23.1988 19.9998ZM21.9989 23.1996H1.99991C1.33723 23.1996 0.799975 22.6623 0.799975 21.9997V20.7997H23.1989V21.9997C23.1988 22.6624 22.6616 23.1996 21.9989 23.1996Z" fill="#A39898"/>
<path d="M17.5992 13.9999C17.8201 13.9999 17.9991 13.8208 17.9991 13.5999V12.4C17.9991 12.1791 17.82 12 17.5992 12C17.3783 12 17.1992 12.1791 17.1992 12.4V13.5999C17.1992 13.8208 17.3783 13.9999 17.5992 13.9999Z" fill="#A39898"/>
<path d="M17.5992 15.5998C17.8201 15.5998 17.9991 15.4207 17.9991 15.1998V14.7999C17.9991 14.579 17.82 14.3999 17.5992 14.3999C17.3783 14.3999 17.1992 14.579 17.1992 14.7999V15.1998C17.1992 15.4207 17.3783 15.5998 17.5992 15.5998Z" fill="#A39898"/>
<path d="M19.1988 14.8002C19.4197 14.8002 19.5988 14.6211 19.5988 14.4002V13.2003C19.5988 12.9793 19.4197 12.8003 19.1988 12.8003C18.9779 12.8003 18.7988 12.9793 18.7988 13.2003V14.4002C18.7988 14.6211 18.9779 14.8002 19.1988 14.8002Z" fill="#A39898"/>
<path d="M15.9996 14.8002C16.2205 14.8002 16.3995 14.6211 16.3995 14.4002V13.2003C16.3995 12.9793 16.2204 12.8003 15.9996 12.8003C15.7787 12.8003 15.5996 12.9793 15.5996 13.2003V14.4002C15.5996 14.6211 15.7787 14.8002 15.9996 14.8002Z" fill="#A39898"/>
<path d="M3.59935 13.6H7.59913C8.26182 13.6 8.79907 13.0628 8.79907 12.4001V10.0002C8.79907 9.33755 8.26182 8.80029 7.59913 8.80029H3.59935C2.93667 8.80029 2.39941 9.33755 2.39941 10.0002V12.4001C2.39941 13.0628 2.93667 13.6 3.59935 13.6ZM3.19939 10.0002C3.19939 9.77932 3.37849 9.60027 3.59935 9.60027H7.59913C7.82004 9.60027 7.9991 9.77937 7.9991 10.0002V12.4001C7.9991 12.621 7.82 12.8001 7.59913 12.8001H3.59935C3.37844 12.8001 3.19939 12.621 3.19939 12.4001V10.0002Z" fill="#A39898"/>
</g>
<defs>
<clipPath id="clip0_5_24910">
<rect width="24" height="24" fill="white"/>
</clipPath>
</defs>
</svg>
