<svg width="14" height="14" viewBox="0 0 14 14" fill="none" xmlns="http://www.w3.org/2000/svg">
<path d="M9.91699 12.3962H4.08366C1.95449 12.3962 0.729492 11.1712 0.729492 9.04199V4.95866C0.729492 2.82949 1.95449 1.60449 4.08366 1.60449H8.16699C8.40616 1.60449 8.60449 1.80283 8.60449 2.04199C8.60449 2.28116 8.40616 2.47949 8.16699 2.47949H4.08366C2.41533 2.47949 1.60449 3.29033 1.60449 4.95866V9.04199C1.60449 10.7103 2.41533 11.5212 4.08366 11.5212H9.91699C11.5853 11.5212 12.3962 10.7103 12.3962 9.04199V6.12533C12.3962 5.88616 12.5945 5.68783 12.8337 5.68783C13.0728 5.68783 13.2712 5.88616 13.2712 6.12533V9.04199C13.2712 11.1712 12.0462 12.3962 9.91699 12.3962Z" fill="#A39898"/>
<path d="M7.00028 7.50712C6.51028 7.50712 6.01445 7.35546 5.63528 7.04629L3.80944 5.58796C3.62278 5.43629 3.58778 5.16213 3.73945 4.97546C3.89111 4.78879 4.16527 4.7538 4.35194 4.90546L6.17777 6.36379C6.62111 6.71963 7.37361 6.71963 7.81694 6.36379L8.50527 5.81546C8.69194 5.66379 8.97195 5.69296 9.11778 5.88546C9.26945 6.07212 9.24028 6.35213 9.04778 6.49796L8.35944 7.04629C7.9861 7.35546 7.49028 7.50712 7.00028 7.50712Z" fill="#A39898"/>
<path d="M11.3753 5.10417C10.3312 5.10417 9.47949 4.2525 9.47949 3.20833C9.47949 2.16417 10.3312 1.3125 11.3753 1.3125C12.4195 1.3125 13.2712 2.16417 13.2712 3.20833C13.2712 4.2525 12.4195 5.10417 11.3753 5.10417ZM11.3753 2.1875C10.8153 2.1875 10.3545 2.64833 10.3545 3.20833C10.3545 3.76833 10.8153 4.22917 11.3753 4.22917C11.9353 4.22917 12.3962 3.76833 12.3962 3.20833C12.3962 2.64833 11.9353 2.1875 11.3753 2.1875Z" fill="#A39898"/>
</svg>
