<svg width="20" height="21" viewBox="0 0 20 21" fill="none" xmlns="http://www.w3.org/2000/svg">
<g id="user 1">
<g id="Group 1597884879">
<path id="Vector" d="M9.99993 10.3905C10.8899 10.3905 11.7599 10.1266 12.5 9.63211C13.24 9.13765 13.8167 8.43486 14.1573 7.6126C14.4979 6.79035 14.587 5.88556 14.4134 5.01266C14.2398 4.13976 13.8112 3.33795 13.1819 2.70863C12.5525 2.0793 11.7507 1.65072 10.8778 1.47709C10.0049 1.30346 9.10013 1.39257 8.27788 1.73316C7.45563 2.07375 6.75283 2.65052 6.25837 3.39053C5.76392 4.13054 5.5 5.00055 5.5 5.89055C5.50119 7.08364 5.97567 8.22753 6.81931 9.07117C7.66296 9.91481 8.80684 10.3893 9.99993 10.3905ZM9.99993 2.8906C10.5933 2.8906 11.1733 3.06655 11.6666 3.39619C12.1599 3.72582 12.5445 4.19435 12.7715 4.74252C12.9986 5.29069 13.058 5.89388 12.9422 6.47582C12.8265 7.05775 12.5408 7.59229 12.1212 8.01184C11.7017 8.43139 11.1671 8.71711 10.5852 8.83286C10.0033 8.94862 9.40006 8.88921 8.8519 8.66215C8.30373 8.43509 7.8352 8.05058 7.50556 7.55724C7.17592 7.0639 6.99998 6.48389 6.99998 5.89055C6.99998 5.09492 7.31604 4.33187 7.87864 3.76927C8.44124 3.20667 9.20429 2.8906 9.99993 2.8906Z" fill="#9DB2CE"/>
<path id="Vector_2" d="M9.99989 11.8906C8.21032 11.8926 6.49461 12.6044 5.22919 13.8698C3.96377 15.1352 3.25199 16.8509 3.25 18.6405C3.25 18.8394 3.32902 19.0302 3.46967 19.1708C3.61032 19.3115 3.80108 19.3905 3.99999 19.3905C4.1989 19.3905 4.38966 19.3115 4.53031 19.1708C4.67096 19.0302 4.74998 18.8394 4.74998 18.6405C4.74998 17.2482 5.30309 15.9128 6.28764 14.9283C7.27219 13.9437 8.60753 13.3906 9.99989 13.3906C11.3923 13.3906 12.7276 13.9437 13.7121 14.9283C14.6967 15.9128 15.2498 17.2482 15.2498 18.6405C15.2498 18.8394 15.3288 19.0302 15.4695 19.1708C15.6101 19.3115 15.8009 19.3905 15.9998 19.3905C16.1987 19.3905 16.3895 19.3115 16.5301 19.1708C16.6708 19.0302 16.7498 18.8394 16.7498 18.6405C16.7478 16.8509 16.036 15.1352 14.7706 13.8698C13.5052 12.6044 11.7895 11.8926 9.99989 11.8906Z" fill="#9DB2CE"/>
</g>
</g>
</svg>
