<svg width="20" height="21" viewBox="0 0 20 21" fill="none" xmlns="http://www.w3.org/2000/svg">
<g id="solar:heart-linear">
<path id="Vector" d="M9.99984 4.97346L9.54984 5.40679C9.60814 5.46728 9.67804 5.51539 9.75536 5.54826C9.83267 5.58112 9.91582 5.59806 9.99984 5.59806C10.0838 5.59806 10.167 5.58112 10.2443 5.54826C10.3216 5.51539 10.3915 5.46728 10.4498 5.40679L9.99984 4.97346ZM7.85484 15.6585C6.5915 14.6626 5.21067 13.6901 4.11484 12.4568C3.0415 11.2468 2.2915 9.83513 2.2915 8.00429H1.0415C1.0415 10.226 1.9665 11.921 3.18067 13.2868C4.37234 14.6285 5.89234 15.7035 7.08067 16.6401L7.85567 15.6585H7.85484ZM2.2915 8.00429C2.2915 6.21263 3.304 4.70929 4.6865 4.07679C6.02984 3.46263 7.83484 3.62513 9.54984 5.40679L10.4498 4.54096C8.4165 2.42679 6.05317 2.07763 4.1665 2.94013C2.3215 3.78429 1.0415 5.74429 1.0415 8.00429H2.2915ZM7.08067 16.6401C7.50817 16.9768 7.9665 17.3351 8.43067 17.6068C8.89484 17.8776 9.42484 18.0985 9.99984 18.0985V16.8485C9.7415 16.8485 9.43817 16.7485 9.0615 16.5276C8.684 16.3076 8.29317 16.0043 7.85484 15.6585L7.08067 16.6401ZM12.919 16.6401C14.1073 15.7026 15.6273 14.6293 16.819 13.2868C18.0332 11.9201 18.9582 10.226 18.9582 8.00429H17.7082C17.7082 9.83513 16.9582 11.2468 15.8848 12.4568C14.789 13.6901 13.4082 14.6626 12.1448 15.6585L12.919 16.6401ZM18.9582 8.00429C18.9582 5.74429 17.679 3.78429 15.8332 2.94013C13.9465 2.07763 11.5848 2.42679 9.54984 4.54013L10.4498 5.40679C12.1648 3.62596 13.9698 3.46263 15.3132 4.07679C16.6957 4.70929 17.7082 6.21179 17.7082 8.00429H18.9582ZM12.1448 15.6585C11.7065 16.0043 11.3157 16.3076 10.9382 16.5276C10.5615 16.7476 10.2582 16.8485 9.99984 16.8485V18.0985C10.5748 18.0985 11.1048 17.8776 11.569 17.6068C12.034 17.3351 12.4915 16.9768 12.919 16.6401L12.1448 15.6585Z" fill="#9DB2CE"/>
</g>
</svg>
