<svg width="20" height="21" viewBox="0 0 20 21" fill="none" xmlns="http://www.w3.org/2000/svg">
<g id="streamline:travel-hotel-serving-dome-cook-tool-dome-kitchen-drink-serving-platter-dish-tools-food-cooking" clip-path="url(#clip0_693_2220)">
<path id="Vector" d="M17.8572 14.3192V13.6049C17.8572 11.5211 17.0294 9.52257 15.5559 8.04907C14.0824 6.57557 12.0839 5.74777 10.0001 5.74777M10.0001 5.74777C7.91623 5.74777 5.91773 6.57557 4.44423 8.04907C2.97073 9.52257 2.14293 11.5211 2.14293 13.6049V14.3192M10.0001 5.74777V2.89062M19.2858 14.3192H0.714355L1.1715 15.8478C1.34716 16.4386 1.70918 16.9567 2.20351 17.3249C2.69784 17.6931 3.29798 17.8915 3.91436 17.8906H16.0858C16.7022 17.8915 17.3023 17.6931 17.7966 17.3249C18.291 16.9567 18.653 16.4386 18.8286 15.8478L19.2858 14.3192Z" stroke="#9DB2CE" stroke-width="1.5" stroke-linecap="round" stroke-linejoin="round"/>
</g>
<defs>
<clipPath id="clip0_693_2220">
<rect width="20" height="20" fill="white" transform="translate(0 0.390625)"/>
</clipPath>
</defs>
</svg>
