<svg width="107" height="104" viewBox="0 0 107 104" fill="none" xmlns="http://www.w3.org/2000/svg">
<path d="M100.969 53.1557C100.969 79.247 79.8153 100.287 53.8378 100.287C27.8604 100.287 6.70654 79.2634 6.70654 53.1557C6.70654 42.0798 10.5291 31.8952 16.9281 23.8531C25.7578 12.7157 39.2399 6.02441 53.8378 6.02441C68.4358 6.02441 81.9353 12.7577 90.7547 23.8531C97.1547 31.8952 100.969 42.0798 100.969 53.1557Z" fill="#DCDCDC"/>
<path d="M12.7701 12.2566C12.2563 13.3899 12.7753 14.7325 13.9086 15.2453C15.0419 15.7591 16.3773 15.2556 16.8912 14.1222C17.405 12.9889 16.9086 11.6381 15.7753 11.1243C14.6419 10.6104 13.284 11.1222 12.7712 12.2556L12.7701 12.2566Z" fill="#DCDCDC"/>
<path d="M80.4111 5.09544C79.8973 6.22878 80.4162 7.57134 81.5496 8.08416C82.6829 8.59801 84.0183 8.09442 84.5321 6.96109C85.046 5.82775 84.5496 4.47698 83.4162 3.96314C82.2829 3.44929 80.925 3.96108 80.4121 5.09442L80.4111 5.09544Z" fill="#DCDCDC"/>
<path d="M7.61015 98.0196C7.28913 98.0196 7.02759 97.7591 7.02759 97.4371V88.6206C7.02759 88.2996 7.2881 88.0381 7.61015 88.0381C7.9322 88.0381 8.19272 88.2986 8.19272 88.6206V97.4371C8.19272 97.7581 7.9322 98.0196 7.61015 98.0196Z" fill="#E0E0E0"/>
<path d="M11.443 88.0679C11.443 90.1849 9.72816 91.8997 7.61124 91.8997C5.49432 91.8997 3.77637 90.1849 3.77637 88.0679C3.77637 85.951 5.49432 78.8115 7.61124 78.8115C9.72816 78.8115 11.443 85.952 11.443 88.0679Z" fill="url(#paint0_linear_5_26541)"/>
<path d="M91.5732 59.6758V94.0512C91.5732 95.8512 90.1138 97.3107 88.3138 97.3107H40.9917V59.6768H91.5732V59.6758Z" fill="url(#paint1_linear_5_26541)"/>
<path d="M46.004 62.0102V97.3107H19.5107C17.7107 97.3107 16.2512 95.8512 16.2512 94.0512V60.6717C16.2512 59.8337 16.5415 59.0296 17.0687 58.3763L28.3599 44.5384C29.0461 43.6943 30.081 43.2061 31.1692 43.2061C32.2574 43.2061 33.2933 43.6943 33.9784 44.5384L46.002 62.0091L46.004 62.0102Z" fill="url(#paint2_linear_5_26541)"/>
<path d="M95.8839 64.8624C95.2839 66.129 94.0039 66.9331 92.606 66.9331H49.8203C50.4603 65.6931 50.3414 64.1362 49.405 62.9885L33.9783 44.5403C33.2921 43.6962 32.2573 43.208 31.1691 43.208H79.1588C80.247 43.208 81.2829 43.6962 81.968 44.5403L95.4162 61.0101C96.3003 62.0983 96.485 63.5957 95.885 64.8613L95.8839 64.8624Z" fill="url(#paint3_linear_5_26541)"/>
<path d="M48.9241 68.0628C48.9179 68.0761 48.9046 68.0894 48.8913 68.0956C47.319 69.3746 45.0441 69.1161 43.7867 67.5807L31.1692 52.5694L18.559 67.5807C17.2923 69.1304 15.0102 69.3612 13.4543 68.0956C13.441 68.0884 13.4277 68.0761 13.4215 68.0628C11.8984 66.7961 11.68 64.5274 12.9405 62.991L28.361 44.5428C29.0533 43.6987 30.082 43.2104 31.1702 43.2104C32.2584 43.2104 33.2943 43.6987 33.9795 44.5428L49.4061 62.991C50.6656 64.5274 50.4482 66.7971 48.9251 68.0628H48.9241Z" fill="url(#paint4_linear_5_26541)"/>
<path d="M64.9794 75.8975H58.2584C57.539 75.8975 56.9558 76.4806 56.9558 77.2V83.921C56.9558 84.6404 57.539 85.2236 58.2584 85.2236H64.9794C65.6988 85.2236 66.282 84.6404 66.282 83.921V77.2C66.282 76.4806 65.6988 75.8975 64.9794 75.8975Z" fill="url(#paint5_linear_5_26541)"/>
<path d="M83.5733 75.8975H76.8522C76.1329 75.8975 75.5497 76.4806 75.5497 77.2V83.921C75.5497 84.6404 76.1329 85.2236 76.8522 85.2236H83.5733C84.2927 85.2236 84.8758 84.6404 84.8758 83.921V77.2C84.8758 76.4806 84.2927 75.8975 83.5733 75.8975Z" fill="url(#paint6_linear_5_26541)"/>
<path d="M36.3825 82.9487V97.3098H24.8328V82.9487C24.8328 79.759 27.4184 77.1733 30.6081 77.1733C33.7979 77.1733 36.3835 79.759 36.3835 82.9487H36.3825Z" fill="url(#paint7_linear_5_26541)"/>
<path d="M64.1548 46.8388C64.1548 47.9577 60.5056 48.8552 56.0051 48.8552C51.5046 48.8552 47.8481 47.9588 47.8481 46.8388C47.8481 45.7188 51.4974 44.8306 56.0051 44.8306C60.5128 44.8306 64.1548 45.728 64.1548 46.8388Z" fill="url(#paint8_linear_5_26541)"/>
<path d="M56.8501 6.04837C47.683 5.56735 40.0994 12.8638 40.0994 21.9294C40.0994 27.1766 42.6378 31.8258 46.5496 34.7294C49.5927 36.9807 52.045 39.9376 53.4347 43.4617L54.3117 45.6894C54.9168 47.2258 57.0901 47.2258 57.6881 45.6894L58.4881 43.6709C59.9168 40.0463 62.4235 37.0032 65.5363 34.6586C69.526 31.6699 72.0563 26.8576 71.9014 21.4556C71.6604 13.274 65.0317 6.47401 56.8501 6.04735V6.04837ZM56.004 29.6135C51.763 29.6135 48.3209 26.1725 48.3209 21.9304C48.3209 17.6884 51.763 14.2545 56.004 14.2545C60.245 14.2545 63.6799 17.6894 63.6799 21.9304C63.6799 26.1714 60.245 29.6135 56.004 29.6135Z" fill="url(#paint9_linear_5_26541)"/>
<path d="M97.2604 98.0196C96.9394 98.0196 96.6779 97.759 96.6779 97.437V89.3262C96.6779 89.0052 96.9384 88.7437 97.2604 88.7437C97.5825 88.7437 97.843 89.0042 97.843 89.3262V97.437C97.843 97.758 97.5825 98.0196 97.2604 98.0196Z" fill="#E0E0E0"/>
<path d="M100.788 88.8162C100.788 90.7639 99.2102 92.3414 97.2625 92.3414C95.3148 92.3414 93.7343 90.7639 93.7343 88.8162C93.7343 86.8686 95.3148 80.2993 97.2625 80.2993C99.2102 80.2993 100.788 86.8686 100.788 88.8162Z" fill="url(#paint10_linear_5_26541)"/>
<path d="M31.4737 33.6175C31.4737 35.9939 29.5394 37.9283 27.1578 37.9283H13.7507C11.0563 37.9283 8.86963 35.7375 8.86963 33.0473C8.86963 30.357 11.0081 28.2134 13.6604 28.1662C14.6532 25.158 17.4963 23.0903 20.6994 23.0903C24.406 23.0903 27.4953 25.7755 28.0378 29.3919C30.0194 29.8001 31.4737 31.5539 31.4737 33.6165V33.6175Z" fill="url(#paint11_linear_5_26541)"/>
<path d="M103.132 22.7211C103.132 25.3837 100.965 27.5509 98.2973 27.5509H83.2747C80.2553 27.5509 77.806 25.0955 77.806 22.0822C77.806 19.0688 80.2019 16.6668 83.1742 16.6134C84.2871 13.2422 87.4717 10.9263 91.0614 10.9263C95.2153 10.9263 98.6768 13.9355 99.284 17.9878C101.504 18.4463 103.134 20.4104 103.134 22.7222L103.132 22.7211Z" fill="url(#paint12_linear_5_26541)"/>
<path d="M98.8932 98.0196H95.7989C95.4778 98.0196 95.2163 97.7591 95.2163 97.4371C95.2163 97.115 95.4768 96.8545 95.7989 96.8545H98.8932C99.2143 96.8545 99.4758 97.115 99.4758 97.4371C99.4758 97.7591 99.2153 98.0196 98.8932 98.0196Z" fill="#E0E0E0"/>
<path d="M9.15678 98.0196H6.06242C5.7414 98.0196 5.47986 97.7591 5.47986 97.4371C5.47986 97.115 5.74037 96.8545 6.06242 96.8545H9.15678C9.47781 96.8545 9.73935 97.115 9.73935 97.4371C9.73935 97.7591 9.47883 98.0196 9.15678 98.0196Z" fill="#E0E0E0"/>
<defs>
<linearGradient id="paint0_linear_5_26541" x1="7.52509" y1="78.8115" x2="7.64509" y2="91.8997" gradientUnits="userSpaceOnUse">
<stop stop-color="#DCDCDC"/>
<stop offset="1" stop-color="white"/>
</linearGradient>
<linearGradient id="paint1_linear_5_26541" x1="95.245" y1="78.4932" x2="29.2912" y2="78.4932" gradientUnits="userSpaceOnUse">
<stop stop-color="#DCDCDC"/>
<stop offset="1" stop-color="white"/>
</linearGradient>
<linearGradient id="paint2_linear_5_26541" x1="31.4215" y1="104.282" x2="30.6451" y2="34.9394" gradientUnits="userSpaceOnUse">
<stop stop-color="#DCDCDC"/>
<stop offset="1" stop-color="white"/>
</linearGradient>
<linearGradient id="paint3_linear_5_26541" x1="31.168" y1="55.0706" x2="96.2337" y2="55.0706" gradientUnits="userSpaceOnUse">
<stop stop-color="#9F9F9F"/>
<stop offset="1" stop-color="#B2B2B2"/>
</linearGradient>
<linearGradient id="paint4_linear_5_26541" x1="31.1723" y1="58.6238" x2="31.1723" y2="43.311" gradientUnits="userSpaceOnUse">
<stop stop-color="#9F9F9F"/>
<stop offset="1" stop-color="#B2B2B2"/>
</linearGradient>
<linearGradient id="paint5_linear_5_26541" x1="56.9558" y1="80.5611" x2="66.282" y2="80.5611" gradientUnits="userSpaceOnUse">
<stop stop-color="#9F9F9F"/>
<stop offset="1" stop-color="#B2B2B2"/>
</linearGradient>
<linearGradient id="paint6_linear_5_26541" x1="75.5497" y1="80.5611" x2="84.8758" y2="80.5611" gradientUnits="userSpaceOnUse">
<stop stop-color="#9F9F9F"/>
<stop offset="1" stop-color="#B2B2B2"/>
</linearGradient>
<linearGradient id="paint7_linear_5_26541" x1="24.8328" y1="87.2421" x2="36.3825" y2="87.2421" gradientUnits="userSpaceOnUse">
<stop stop-color="#9F9F9F"/>
<stop offset="1" stop-color="#B2B2B2"/>
</linearGradient>
<linearGradient id="paint8_linear_5_26541" x1="55.9815" y1="44.6736" x2="56.0256" y2="49.5136" gradientUnits="userSpaceOnUse">
<stop stop-color="#DCDCDC"/>
<stop offset="1" stop-color="white"/>
</linearGradient>
<linearGradient id="paint9_linear_5_26541" x1="58.2122" y1="53.2484" x2="54.4696" y2="0.17145" gradientUnits="userSpaceOnUse">
<stop stop-color="#DCDCDC"/>
<stop offset="1" stop-color="white"/>
</linearGradient>
<linearGradient id="paint10_linear_5_26541" x1="97.1825" y1="80.3003" x2="97.2932" y2="92.3414" gradientUnits="userSpaceOnUse">
<stop stop-color="#DCDCDC"/>
<stop offset="1" stop-color="white"/>
</linearGradient>
<linearGradient id="paint11_linear_5_26541" x1="20.8942" y1="24.0821" x2="19.0922" y2="47.1314" gradientUnits="userSpaceOnUse">
<stop stop-color="#DCDCDC"/>
<stop offset="0.5" stop-color="white"/>
</linearGradient>
<linearGradient id="paint12_linear_5_26541" x1="91.2789" y1="12.037" x2="89.2594" y2="37.8627" gradientUnits="userSpaceOnUse">
<stop stop-color="#DCDCDC"/>
<stop offset="0.5" stop-color="white"/>
</linearGradient>
</defs>
</svg>
