<svg width="206" height="121" viewBox="0 0 206 121" fill="none" xmlns="http://www.w3.org/2000/svg">
<g clip-path="url(#clip0_5_79539)">
<path d="M163.624 20.8975L163.915 21.9452L162.97 28.596L161.213 29.0843L162.14 22.7266L159.827 23.3689L160.143 24.5055L158.707 24.9051L158.025 22.4514L163.621 20.8975H163.624Z" fill="#E0E0E0"/>
<path d="M170.784 24.0641C171.128 25.3013 170.521 26.6303 168.524 27.1838C167.555 27.4531 166.462 27.465 165.65 27.1749L165.944 25.7601C166.584 26.0117 167.375 26.0383 168.103 25.8371C168.912 25.6121 169.315 25.1356 169.158 24.5673C169.004 24.0197 168.548 23.7593 167.28 24.1115L165.493 24.6087L164.759 20.5804L169.019 19.3965L169.38 20.6929L166.468 21.5009L166.726 22.8565L167.295 22.6996C169.359 22.1254 170.435 22.8269 170.781 24.0612L170.784 24.0641Z" fill="#E0E0E0"/>
<path d="M170.654 20.9328C170.337 19.7963 170.767 18.861 171.703 18.6005C172.63 18.343 173.486 18.9113 173.806 20.0567C174.126 21.2022 173.685 22.1316 172.757 22.3891C171.818 22.6495 170.971 22.0694 170.654 20.9328ZM173.308 20.1959C173.057 19.2901 172.476 18.8699 171.827 19.0504C171.17 19.2339 170.903 19.8969 171.152 20.7937C171.401 21.6906 171.972 22.1227 172.633 21.9392C173.282 21.7586 173.56 21.1016 173.308 20.1929V20.1959ZM175.948 17.4758L176.537 17.313L173.711 25.6153L173.122 25.7781L175.948 17.4758ZM175.85 23.0343C175.533 21.8977 175.972 20.9595 176.899 20.702C177.838 20.4415 178.685 21.0216 179.002 22.1582C179.319 23.2948 178.89 24.2301 177.953 24.4906C177.026 24.7481 176.167 24.1709 175.85 23.0343ZM178.504 22.2973C178.256 21.4005 177.684 20.9684 177.023 21.1519C176.375 21.3324 176.096 21.9895 176.348 22.8982C176.6 23.8039 177.18 24.2242 177.829 24.0436C178.487 23.8601 178.753 23.1971 178.504 22.3003V22.2973Z" fill="#E0E0E0"/>
<path d="M178.843 118.058L199.7 118.222L199.907 91.9156L179.049 91.7519L178.843 118.058Z" fill="#EBEBEB"/>
<path d="M191.746 92.6936L191.373 118.166L188.079 118.139L188.784 92.6729L191.746 92.6936Z" fill="#FAFAFA"/>
<path d="M167.069 92.501L179.038 92.5957L199.896 92.7585L179.014 95.5022L178.836 118.068L166.877 117.973L167.069 92.501Z" fill="#E0E0E0"/>
<path d="M173.584 92.5545L173.11 118.024L169.558 117.994L170.139 92.5249L173.584 92.5545Z" fill="#FAFAFA"/>
<path d="M183.055 84.8027C183.055 84.856 182.702 84.9182 182.062 84.9833C181.419 85.0454 180.489 85.1135 179.328 85.1046C178.164 85.0869 176.783 85.0069 175.246 84.5689C175.05 84.5038 174.849 84.4239 174.647 84.3025C174.449 84.1841 174.247 84.0184 174.102 83.7875C173.951 83.5596 173.886 83.2755 173.883 83.0239C173.88 82.7693 173.921 82.5385 173.972 82.3254C174.173 81.5144 174.381 80.6708 174.745 79.8213C174.929 79.401 175.151 78.9926 175.42 78.6197C175.693 78.2556 175.998 77.9004 176.413 77.64C176.62 77.5097 176.851 77.4061 177.103 77.3558C177.355 77.3055 177.621 77.3114 177.861 77.3706C178.344 77.492 178.706 77.7554 179.014 78.0011C180.234 78.9837 181.126 80.0907 181.733 81.097C182.341 82.1034 182.663 83.0061 182.832 83.6336C182.995 84.267 183.013 84.6281 182.969 84.6399C182.838 84.6814 182.545 83.2547 181.274 81.393C180.637 80.4725 179.748 79.4573 178.575 78.5634C178.288 78.3444 177.992 78.155 177.696 78.0898C177.405 78.0247 177.109 78.0898 176.822 78.2793C176.534 78.4628 176.28 78.7528 176.045 79.0725C175.817 79.3951 175.622 79.7503 175.456 80.1321C175.127 80.8928 174.917 81.7186 174.712 82.5029C174.618 82.8818 174.6 83.1955 174.733 83.3998C174.861 83.6188 175.16 83.7845 175.483 83.9C175.806 84.0124 176.17 84.0983 176.511 84.1723C176.854 84.2492 177.189 84.3084 177.518 84.3588C178.173 84.4594 178.792 84.5186 179.357 84.56C180.492 84.637 181.419 84.6518 182.062 84.6843C182.705 84.7139 183.06 84.7494 183.063 84.8027H183.055Z" fill="#E0E0E0"/>
<path d="M182.622 84.9922C182.613 84.9389 183.001 84.8264 183.703 84.6666C184.406 84.5038 185.428 84.2966 186.675 83.9977C187.919 83.6958 189.391 83.2991 190.935 82.6539C191.32 82.497 191.699 82.3194 192.004 82.0856C192.155 81.9702 192.28 81.84 192.348 81.7068C192.419 81.5736 192.434 81.4433 192.407 81.2746C192.38 81.1089 192.3 80.9195 192.206 80.7123C192.105 80.5021 192.004 80.289 191.903 80.0759C191.699 79.6527 191.477 79.2383 191.222 78.8505C190.964 78.4628 190.677 78.1106 190.348 77.8176C190.019 77.5216 189.658 77.27 189.288 77.1368C188.914 76.9977 188.535 76.977 188.189 77.0894C187.836 77.196 187.51 77.4239 187.205 77.6873C185.961 78.7825 185.007 79.9723 184.352 81.0467C183.689 82.1211 183.309 83.0801 183.087 83.755C182.865 84.4298 182.776 84.8205 182.717 84.8116C182.673 84.8057 182.658 84.3972 182.797 83.678C182.936 82.9617 183.25 81.9317 183.881 80.7744C184.509 79.6142 185.451 78.3444 186.74 77.1546C187.072 76.8586 187.466 76.5567 187.969 76.3909C188.473 76.2193 189.051 76.2489 189.548 76.4294C189.8 76.5182 190.034 76.6396 190.253 76.7816C190.467 76.9237 190.674 77.0776 190.864 77.2522C191.252 77.5956 191.583 78.0011 191.871 78.4302C192.155 78.8624 192.392 79.3093 192.6 79.7474C192.7 79.9664 192.804 80.1854 192.905 80.4015C193.002 80.6235 193.112 80.8662 193.159 81.1592C193.213 81.4463 193.168 81.7956 193.014 82.0649C192.866 82.3342 192.662 82.5266 192.457 82.6776C192.046 82.9795 191.616 83.1571 191.21 83.3169C189.59 83.9503 188.07 84.2966 186.796 84.5364C185.519 84.7731 184.48 84.8945 183.76 84.9685C183.04 85.0395 182.637 85.0484 182.631 84.9981L182.622 84.9922Z" fill="#FAFAFA"/>
<path d="M163.275 92.4655L193.935 92.7061L194.003 83.9985L163.343 83.7579L163.275 92.4655Z" fill="#E0E0E0"/>
<path d="M174.55 92.5511L202.263 92.7686L202.331 84.061L174.619 83.8436L174.55 92.5511Z" fill="#EBEBEB"/>
<path d="M193.826 84.0037L193.63 92.7499L190.398 92.6848L190.624 83.98L193.826 84.0037Z" fill="#FAFAFA"/>
<path d="M170.862 83.8674L170.548 92.5367L166.996 92.5071L167.185 83.7964L170.862 83.8674Z" fill="#FAFAFA"/>
<path d="M194.753 118.366L204.28 118.441L204.374 106.424L194.848 106.35L194.753 118.366Z" fill="#EBEBEB"/>
<path d="M200.643 106.785L200.474 118.42L198.969 118.408L199.289 106.773L200.643 106.785Z" fill="#FAFAFA"/>
<path d="M189.371 106.697L194.836 106.741L204.363 106.815L194.827 108.07L194.747 118.376L189.282 118.332L189.371 106.697Z" fill="#E0E0E0"/>
<path d="M192.347 106.72L192.128 118.355L190.508 118.344L190.771 106.708L192.347 106.72Z" fill="#FAFAFA"/>
<path d="M196.673 103.18C196.673 103.278 196.039 103.426 194.963 103.464C194.421 103.473 193.787 103.456 193.041 103.254C192.851 103.189 192.602 103.1 192.413 102.822C192.321 102.686 192.282 102.511 192.279 102.369C192.279 102.227 192.3 102.106 192.324 101.999C192.416 101.62 192.507 101.23 192.685 100.818C192.774 100.614 192.884 100.416 193.017 100.232C193.15 100.055 193.304 99.8741 193.529 99.7321C193.743 99.59 194.069 99.5101 194.344 99.587C194.617 99.6581 194.797 99.8001 194.945 99.9185C195.514 100.392 195.923 100.922 196.193 101.404C196.729 102.381 196.723 103.091 196.631 103.103C196.516 103.133 196.329 102.505 195.733 101.7C195.434 101.301 195.028 100.866 194.507 100.478C194.383 100.386 194.264 100.318 194.178 100.306C194.098 100.294 194.036 100.306 193.935 100.371C193.84 100.434 193.737 100.549 193.639 100.682C193.544 100.815 193.464 100.963 193.393 101.126C193.254 101.449 193.156 101.822 193.061 102.174C193.017 102.34 193.029 102.414 193.041 102.431C193.05 102.464 193.144 102.538 193.278 102.582C193.553 102.677 193.882 102.751 194.166 102.804C194.457 102.858 194.735 102.893 194.99 102.92C196.015 103.017 196.675 103.065 196.675 103.177L196.673 103.18Z" fill="#E0E0E0"/>
<path d="M196.474 103.266C196.453 103.157 197.17 102.967 198.293 102.668C198.853 102.511 199.511 102.319 200.198 102.02C200.367 101.949 200.527 101.869 200.636 101.78C200.69 101.739 200.725 101.695 200.734 101.671C200.743 101.647 200.743 101.647 200.737 101.603C200.728 101.526 200.61 101.295 200.521 101.111C200.429 100.922 200.331 100.741 200.222 100.576C200.112 100.41 199.993 100.265 199.857 100.144C199.721 100.019 199.576 99.9186 199.442 99.8713C199.306 99.8209 199.188 99.8121 199.069 99.8476C198.951 99.8801 198.817 99.966 198.687 100.075C198.133 100.552 197.692 101.073 197.384 101.538C196.758 102.479 196.625 103.204 196.507 103.183C196.456 103.177 196.424 102.985 196.465 102.645C196.507 102.304 196.631 101.816 196.913 101.265C197.191 100.712 197.618 100.111 198.219 99.5398C198.379 99.3947 198.577 99.2379 198.847 99.1461C199.119 99.0514 199.439 99.0662 199.7 99.1609C199.833 99.2083 199.955 99.2704 200.067 99.3415C200.174 99.4125 200.278 99.4865 200.373 99.5753C200.565 99.744 200.728 99.9453 200.867 100.152C201.004 100.363 201.116 100.573 201.214 100.78C201.261 100.881 201.306 100.981 201.353 101.082C201.401 101.185 201.457 101.313 201.483 101.481C201.513 101.647 201.483 101.866 201.395 102.023C201.306 102.183 201.19 102.286 201.081 102.366C200.861 102.523 200.654 102.606 200.464 102.677C199.706 102.961 198.998 103.109 198.406 103.201C197.221 103.373 196.489 103.364 196.471 103.266H196.474Z" fill="#FAFAFA"/>
<path d="M187.641 106.675L201.644 106.785L201.675 102.807L187.673 102.697L187.641 106.675Z" fill="#E0E0E0"/>
<path d="M192.793 106.716L205.451 106.815L205.482 102.838L192.825 102.738L192.793 106.716Z" fill="#EBEBEB"/>
<path d="M201.593 102.816L201.502 106.812L200.026 106.779L200.13 102.804L201.593 102.816Z" fill="#FAFAFA"/>
<path d="M191.103 102.754L190.961 106.714L189.338 106.7L189.424 102.722L191.103 102.754Z" fill="#FAFAFA"/>
<path d="M13.475 118.325L30.5615 118.459L30.7309 96.9097L13.6444 96.7756L13.475 118.325Z" fill="#EBEBEB"/>
<path d="M24.0488 97.5417L23.7437 118.405L21.0449 118.385L21.6226 97.521L24.0488 97.5417Z" fill="#FAFAFA"/>
<path d="M3.83331 97.3818L13.6358 97.4588L30.7229 97.592L13.6181 99.8414L13.4729 118.326L3.67334 118.249L3.83331 97.3818Z" fill="#E0E0E0"/>
<path d="M9.16872 97.426L8.78064 118.29L5.87158 118.266L6.34853 97.4023L9.16872 97.426Z" fill="#FAFAFA"/>
<path d="M16.9272 91.0741C16.9301 91.1807 16.6428 91.2931 16.1184 91.3997C15.5941 91.5033 14.8268 91.6098 13.8611 91.6424C13.3782 91.6572 12.842 91.6513 12.2673 91.6039C11.98 91.5773 11.6808 91.5447 11.3727 91.4944C11.0616 91.4411 10.7624 91.3908 10.3951 91.2813C10.2144 91.2221 10.0218 91.1511 9.81744 91.0297C9.616 90.9113 9.39382 90.7367 9.22792 90.4762C9.0561 90.2158 8.97908 89.8902 8.97612 89.6268C8.9702 89.3604 9.01463 89.1354 9.0561 88.946C9.21904 88.2652 9.38493 87.5638 9.70487 86.8149C9.8678 86.4449 10.0663 86.0839 10.3092 85.7464C10.4366 85.5777 10.561 85.4238 10.715 85.2669C10.8691 85.1101 11.0439 84.9621 11.2512 84.8319C11.4556 84.7046 11.6956 84.598 11.9652 84.5447C12.2318 84.4915 12.5251 84.5004 12.7739 84.5625C13.2805 84.6957 13.6123 84.9562 13.8789 85.1722C14.9068 86.0276 15.6385 86.9925 16.1184 87.8627C16.5983 88.7359 16.8264 89.5172 16.9153 90.0589C17.0012 90.6065 16.9568 90.9172 16.859 90.9409C16.6309 90.9972 16.2754 89.8783 15.2001 88.4547C14.6609 87.7502 13.9352 86.9748 13.002 86.291C12.7828 86.1283 12.5725 86.0158 12.4391 85.998C12.3177 85.9832 12.2318 85.998 12.06 86.1075C11.98 86.1608 11.8941 86.2378 11.8111 86.3266C11.7282 86.4183 11.6334 86.5337 11.5534 86.6462C11.3905 86.88 11.2453 87.1405 11.1209 87.4306C10.872 88.0018 10.6973 88.6648 10.5284 89.2953C10.4929 89.4344 10.4751 89.5439 10.4721 89.609C10.4721 89.6771 10.4721 89.683 10.478 89.6978C10.478 89.7303 10.6321 89.8606 10.8602 89.9405C11.0824 90.0263 11.3816 90.1033 11.6452 90.1684C11.9148 90.2365 12.1814 90.2898 12.4391 90.3401C12.9576 90.4377 13.4523 90.5029 13.9085 90.5561C14.8209 90.6597 15.5793 90.7219 16.1066 90.8018C16.6339 90.8788 16.9272 90.9705 16.9301 91.0771L16.9272 91.0741Z" fill="#E0E0E0"/>
<path d="M16.5745 91.2312C16.536 91.0092 17.8187 90.657 19.8272 90.1035C20.8285 89.8164 22.0046 89.4642 23.228 88.9285C23.5302 88.7982 23.8116 88.6562 23.9982 88.5052C24.0901 88.4342 24.1434 88.3602 24.1523 88.3335C24.1612 88.3039 24.1582 88.3276 24.1523 88.2596C24.1404 88.1974 24.096 88.076 24.016 87.9132C23.936 87.7445 23.8531 87.5729 23.7701 87.4012C23.6042 87.0638 23.4324 86.7441 23.2399 86.4511C23.0443 86.1581 22.837 85.9006 22.6 85.6904C22.4845 85.5809 22.3571 85.4892 22.2327 85.4004C22.1142 85.3204 21.9957 85.2583 21.8831 85.2139C21.652 85.1281 21.4595 85.1162 21.264 85.1695C21.0655 85.2228 20.8374 85.3648 20.6033 85.5602C19.6109 86.4037 18.823 87.3272 18.266 88.1589C17.1374 89.8283 16.8796 91.1187 16.6456 91.0832C16.5449 91.0714 16.4767 90.7251 16.539 90.1094C16.6041 89.4968 16.8233 88.6118 17.321 87.6143C17.8157 86.6139 18.58 85.5247 19.6643 84.4947C19.9546 84.2312 20.316 83.9412 20.8166 83.7695C21.3202 83.5919 21.9127 83.6215 22.3926 83.7961C22.6355 83.882 22.8607 83.9945 23.0651 84.1276C23.2606 84.2579 23.4472 84.394 23.622 84.5509C23.9745 84.8587 24.2708 85.2257 24.5226 85.6016C24.7714 85.9805 24.9729 86.3653 25.1476 86.7352C25.2306 86.9188 25.3165 87.0993 25.3965 87.2799C25.4794 87.4693 25.5861 87.7031 25.6364 88.0168C25.6927 88.3247 25.6394 88.739 25.4646 89.038C25.2958 89.3399 25.0795 89.5323 24.881 89.6803C24.4781 89.9674 24.099 90.1154 23.7553 90.2456C22.3867 90.7547 21.1099 91.0122 20.0494 91.172C18.9859 91.3259 18.1238 91.3792 17.5225 91.3851C16.9241 91.3881 16.5864 91.3378 16.5686 91.2342L16.5745 91.2312Z" fill="#FAFAFA"/>
<path d="M0.729912 97.3571L25.8442 97.5542L25.9003 90.4213L0.785983 90.2242L0.729912 97.3571Z" fill="#E0E0E0"/>
<path d="M9.96153 97.4278L32.6646 97.606L32.7206 90.473L10.0176 90.2948L9.96153 97.4278Z" fill="#EBEBEB"/>
<path d="M25.7522 90.4201L25.5922 97.5859L22.9438 97.5326L23.1275 90.3994L25.7522 90.4201Z" fill="#FAFAFA"/>
<path d="M6.93779 90.3107L6.68302 97.4113L3.771 97.3876L3.928 90.2515L6.93779 90.3107Z" fill="#FAFAFA"/>
<path d="M33.0545 8.47484L33.3448 9.60253L28.8272 10.7628L28.5961 9.86595L30.3439 7.09852C30.7438 6.4592 30.7586 6.1277 30.6846 5.83764C30.5631 5.36703 30.1691 5.1776 29.5381 5.34039C29.0256 5.47062 28.6405 5.7814 28.4539 6.25497L27.2778 5.86428C27.5652 5.07105 28.291 4.42284 29.3663 4.14462C30.6994 3.80128 31.7629 4.25709 32.0413 5.34039C32.1895 5.92051 32.1628 6.49176 31.5259 7.4833L30.4831 9.13488L33.0545 8.47484Z" fill="#E0E0E0"/>
<path d="M33.1317 6.471C32.6251 4.49976 33.4309 3.09976 34.9002 2.72387C36.3784 2.34501 37.75 3.1856 38.2566 5.15684C38.7632 7.12808 37.9663 8.52512 36.488 8.90397C35.0187 9.27987 33.6382 8.44224 33.1317 6.471ZM36.8643 5.51202C36.5147 4.15642 35.8926 3.71541 35.1994 3.893C34.5151 4.06763 34.1833 4.7543 34.5299 6.1099C34.8795 7.46846 35.5016 7.90651 36.1859 7.73188C36.8791 7.55429 37.2109 6.86762 36.8643 5.51202Z" fill="#E0E0E0"/>
<path d="M38.5971 3.56748C38.3483 2.5937 38.7275 1.80639 39.5303 1.5992C40.3242 1.39498 41.044 1.89222 41.2958 2.87489C41.5476 3.85755 41.1566 4.63894 40.3627 4.84317C39.5599 5.05035 38.8459 4.54126 38.5971 3.56748ZM40.8693 2.9844C40.6708 2.20893 40.1849 1.84191 39.628 1.98398C39.0652 2.12901 38.8252 2.68842 39.0237 3.45797C39.2222 4.22456 39.6991 4.60342 40.2649 4.45839C40.8189 4.31632 41.0677 3.75987 40.8693 2.9844ZM43.1621 0.714216L43.6657 0.583984L41.1181 7.60468L40.6145 7.73491L43.1621 0.714216ZM42.9844 5.44401C42.7356 4.47023 43.1236 3.67996 43.9175 3.47573C44.7204 3.26854 45.4343 3.77763 45.6831 4.75141C45.932 5.72519 45.5528 6.5125 44.75 6.71969C43.9561 6.92392 43.2332 6.41779 42.9844 5.44401ZM45.2565 4.86092C45.0581 4.09137 44.5811 3.71547 44.0153 3.86051C43.4584 4.00258 43.2125 4.55902 43.411 5.3345C43.6095 6.10997 44.0953 6.47699 44.6522 6.33492C45.2151 6.18988 45.455 5.63048 45.2565 4.86092Z" fill="#E0E0E0"/>
<path d="M89.1737 27.1898C89.1945 28.4092 88.2732 29.5458 86.2113 29.5813C85.1952 29.5991 84.1466 29.3386 83.4326 28.8532L84.0636 27.5598C84.6205 27.9653 85.3908 28.1872 86.1462 28.1754C86.9845 28.1606 87.497 27.8113 87.4852 27.2223C87.4763 26.6748 87.0675 26.3403 86.1136 26.3551L85.3463 26.3669L85.3285 25.26L86.789 23.5492L83.7022 23.6025L83.6785 22.2587L88.7531 22.1699L88.7708 23.2562L87.1682 25.1475C88.4776 25.331 89.153 26.1272 89.1708 27.1927L89.1737 27.1898Z" fill="#E0E0E0"/>
<path d="M89.9263 25.7691C89.8848 23.3805 91.1882 22.0013 92.9686 21.9717C94.7609 21.9421 96.0969 23.274 96.1384 25.6626C96.1799 28.0511 94.8882 29.4304 93.096 29.46C91.3156 29.4896 89.9677 28.1577 89.9263 25.7691ZM94.4498 25.6922C94.4202 24.0465 93.8307 23.3746 92.9923 23.3894C92.1628 23.4042 91.597 24.0968 91.6237 25.7425C91.6533 27.3881 92.2428 28.06 93.0723 28.0452C93.9107 28.0304 94.4794 27.3378 94.4498 25.6922Z" fill="#E0E0E0"/>
<path d="M96.956 23.9401C96.9353 22.7621 97.5841 21.9629 98.5587 21.9452C99.5215 21.9274 100.209 22.694 100.229 23.8839C100.25 25.0737 99.5896 25.861 98.6268 25.8788C97.6522 25.8965 96.9768 25.1211 96.956 23.9401ZM99.7111 23.8927C99.6963 22.9515 99.24 22.401 98.5676 22.4128C97.8833 22.4247 97.4597 23.0018 97.4745 23.9312C97.4893 24.8636 97.9366 25.423 98.618 25.4111C99.2904 25.3993 99.7259 24.834 99.7111 23.8927ZM102.949 21.9215L103.559 21.9097L98.7335 29.2382L98.1232 29.25L102.946 21.9215H102.949ZM101.456 27.2758C101.435 26.0978 102.096 25.2987 103.059 25.2809C104.033 25.2631 104.709 26.0386 104.729 27.2196C104.75 28.3976 104.101 29.1967 103.127 29.2145C102.164 29.2323 101.477 28.4568 101.456 27.2758ZM104.211 27.2285C104.196 26.2961 103.749 25.7367 103.067 25.7486C102.395 25.7604 101.96 26.3257 101.974 27.2669C101.989 28.2082 102.445 28.7587 103.118 28.7469C103.802 28.735 104.226 28.1578 104.211 27.2285Z" fill="#E0E0E0"/>
<path d="M124.231 4.81633C124.088 5.73979 123.286 6.44423 121.793 6.21632C121.067 6.10681 120.338 5.78715 119.885 5.35206L120.504 4.49963C120.853 4.85777 121.372 5.11231 121.917 5.19519C122.521 5.28694 122.933 5.09159 122.998 4.66538C123.06 4.25396 122.832 3.94614 121.884 3.80111L120.548 3.59688L121.265 0.699219L124.453 1.18463L124.305 2.15545L122.124 1.82395L121.89 2.80365L122.317 2.86877C123.863 3.10555 124.37 3.89287 124.228 4.81633H124.231Z" fill="#F5F5F5"/>
<path d="M124.874 3.92261C125.137 2.19999 126.242 1.36828 127.525 1.56363C128.816 1.76194 129.616 2.88371 129.353 4.60632C129.089 6.32894 127.993 7.16065 126.701 6.9653C125.419 6.76995 124.61 5.64522 124.874 3.92261ZM128.135 4.41986C128.316 3.23297 127.975 2.67652 127.368 2.58477C126.769 2.49301 126.278 2.92219 126.097 4.10908C125.916 5.29596 126.26 5.85241 126.855 5.94416C127.46 6.03592 127.954 5.60674 128.135 4.42282V4.41986Z" fill="#F5F5F5"/>
<path d="M130.152 3.46981C130.283 2.62035 130.846 2.12606 131.548 2.23261C132.241 2.33916 132.641 2.97257 132.51 3.83091C132.38 4.68926 131.808 5.17467 131.115 5.06812C130.413 4.96156 130.022 4.32224 130.152 3.46981ZM134.708 2.75354L135.15 2.82161L130.783 7.49813L130.342 7.43005L134.708 2.75354ZM132.137 3.77468C132.241 3.09688 131.98 2.64402 131.497 2.57003C131.005 2.49603 130.629 2.85713 130.526 3.52901C130.422 4.20089 130.674 4.65966 131.165 4.73366C131.651 4.80765 132.033 4.45248 132.137 3.77468ZM132.978 6.42372C133.109 5.57425 133.681 5.07996 134.374 5.18651C135.076 5.29306 135.467 5.93239 135.336 6.78481C135.206 7.63428 134.643 8.12857 133.941 8.02202C133.248 7.91546 132.848 7.27614 132.978 6.42372ZM134.963 6.72562C135.067 6.05374 134.815 5.59497 134.323 5.52097C133.838 5.44697 133.455 5.80215 133.352 6.47995C133.248 7.15775 133.509 7.6106 133.992 7.6846C134.483 7.75859 134.86 7.3975 134.963 6.72562Z" fill="#F5F5F5"/>
<path d="M5.34119 29.9364L4.25696 34.5626L3.18457 34.311L4.06736 30.5432L3.14014 30.3271L3.34158 29.4688L5.33823 29.9364H5.34119Z" fill="#F5F5F5"/>
<path d="M5.60483 32.4373C5.96327 30.91 7.01196 30.244 8.14951 30.5104C9.29299 30.7798 9.92991 31.8423 9.57442 33.3666C9.21597 34.8939 8.17321 35.5628 7.02973 35.2935C5.89218 35.0271 5.24934 33.9645 5.60483 32.4373ZM8.49611 33.1151C8.74199 32.0643 8.47241 31.5404 7.93919 31.4161C7.40892 31.2918 6.9379 31.6411 6.69202 32.6918C6.44614 33.7425 6.71276 34.2664 7.24302 34.3907C7.77922 34.5151 8.2532 34.1658 8.49908 33.1151H8.49611Z" fill="#F5F5F5"/>
<path d="M14.5068 32.0793L14.8979 32.171L10.6528 36.0573L10.2617 35.9655L14.5068 32.0793ZM10.3713 32.4019C10.5491 31.6471 11.0882 31.2446 11.7103 31.3896C12.3265 31.5347 12.6405 32.1296 12.4598 32.8903C12.2821 33.6509 11.737 34.0446 11.1208 33.9025C10.4987 33.7575 10.1936 33.1566 10.3684 32.4019H10.3713ZM12.131 32.8133C12.2732 32.2125 12.0717 31.7892 11.6422 31.6886C11.2067 31.5879 10.8423 31.8839 10.7031 32.4788C10.5639 33.0738 10.7564 33.5029 11.1919 33.6036C11.6215 33.7042 11.9888 33.4141 12.131 32.8133ZM12.6968 35.2463C12.8745 34.4915 13.4226 34.0919 14.0358 34.234C14.6579 34.3791 14.963 34.9799 14.7853 35.7346C14.6075 36.4894 14.0684 36.8919 13.4463 36.7469C12.8301 36.6019 12.5191 36.001 12.6938 35.2463H12.6968ZM14.4565 35.6577C14.5957 35.0628 14.4031 34.6336 13.9677 34.533C13.5381 34.4323 13.1708 34.7224 13.0286 35.3232C12.8864 35.9241 13.0878 36.3473 13.5174 36.448C13.9529 36.5516 14.3172 36.2526 14.4565 35.6577Z" fill="#F5F5F5"/>
<path d="M33.38 77.7909C28.2225 72.5165 20.1441 70.3025 13.0166 72.2057C19.208 76.3524 26.1666 78.5752 33.62 78.6374" fill="#E8505B"/>
<path d="M26.4721 53.3518C27.3193 47.3552 24.9879 40.6127 20.4969 36.2529C20.3488 42.1962 22.858 48.8825 26.4721 53.3518Z" fill="#E8505B"/>
<path d="M30.0653 64.6792C26.8629 58.5642 21.6077 53.5473 15.3481 50.6289C17.2233 57.5312 23.1333 63.1785 30.1186 64.7443" fill="#E8505B"/>
<path d="M30.8091 66.8634C27.1861 66.964 23.5157 66.8367 20.0112 65.9103C16.5067 64.9839 13.1503 63.2021 10.8159 60.4287C17.8664 60.4376 24.9021 62.5835 30.7528 66.5111" fill="#E8505B"/>
<path d="M28.9692 59.6653C30.8089 52.7748 33.8453 48.0095 39.2635 44.1499C39.6723 47.5004 38.8488 50.99 36.9825 53.8048C35.1162 56.6196 32.219 58.7359 28.9692 59.6653Z" fill="#E8505B"/>
<path d="M42.6495 71.5459C42.7443 67.5412 40.1611 63.6076 36.4492 62.1011C36.7514 65.6588 39.5479 69.7729 42.6495 71.5459Z" fill="#E8505B"/>
<path d="M44.3823 65.7389C44.7941 59.985 48.8851 54.6603 54.3448 52.7778C53.0917 58.5347 49.762 63.3266 44.3823 65.7389Z" fill="#E8505B"/>
<path d="M41.7725 76.0446C43.0492 74.2184 45.1348 73.0818 47.2943 72.5165C49.4539 71.9512 51.7083 71.9038 53.939 71.8564C50.9292 75.1626 46.4116 77.045 41.9443 76.8497" fill="#E8505B"/>
<path d="M39.1836 90.7285C43.2035 89.4883 47.6856 89.808 51.4893 91.6076C55.293 93.4071 58.3798 96.6689 59.9647 100.564C52.4166 99.1314 44.9662 95.7839 39.1836 90.7285Z" fill="#E8505B"/>
<path d="M30.8977 85.6255C32.1508 89.3282 31.9108 93.8064 29.1232 96.9971C27.9886 93.1967 28.6581 88.899 30.8977 85.6255Z" fill="#E8505B"/>
<path d="M26.0008 83.5688C25.6512 88.3312 22.6059 92.8035 18.2986 94.8754C18.0853 94.979 17.8365 95.0766 17.6173 94.9878C17.2766 94.8487 17.247 94.387 17.2884 94.0229C17.8335 89.2783 21.3528 84.6906 26.0008 83.5718" fill="#E8505B"/>
<path d="M22.8016 83.0891C20.6805 85.377 17.5878 86.7385 14.4684 86.7533C11.346 86.7681 8.24145 85.4421 6.09668 83.1749C11.4082 82.5948 17.5344 82.207 22.8016 83.0891Z" fill="#E8505B"/>
<path d="M22.0078 40.6719C22.0078 40.6719 22.0197 40.7252 22.0552 40.8287C22.0937 40.9383 22.15 41.0863 22.2181 41.2786C22.3692 41.6812 22.5825 42.2583 22.858 42.9953C23.1454 43.7382 23.4742 44.6558 23.8563 45.7184C24.0489 46.2511 24.2533 46.8194 24.4725 47.4232C24.6828 48.03 24.9021 48.6693 25.1361 49.3412C26.0781 52.0287 27.1209 55.2519 28.2496 58.8422C29.3575 62.4384 30.5187 66.4105 31.6652 70.5986C32.7939 74.7927 33.7951 78.8092 34.6453 82.4764C35.4719 86.1466 36.1858 89.4615 36.6983 92.2615C36.8316 92.9601 36.956 93.626 37.0745 94.2565C37.1811 94.8869 37.2819 95.4848 37.3767 96.0412C37.5692 97.1541 37.7351 98.1161 37.8447 98.9034C37.9632 99.6818 38.058 100.292 38.1232 100.715C38.1558 100.913 38.1824 101.07 38.2002 101.185C38.218 101.292 38.2298 101.345 38.2328 101.345C38.2358 101.345 38.2328 101.289 38.2209 101.182C38.2061 101.067 38.1884 100.91 38.1647 100.709C38.1084 100.283 38.0284 99.6729 37.9247 98.8915C37.827 98.1013 37.6729 97.1393 37.4922 96.0235C37.4033 95.4641 37.3056 94.8662 37.2048 94.2357C37.0893 93.6053 36.9679 92.9364 36.8434 92.2379C36.3458 89.432 35.6496 86.114 34.832 82.4379C33.9907 78.7677 32.9953 74.7483 31.8637 70.5483C30.7202 66.3572 29.55 62.3851 28.4332 58.7889C27.2957 55.1987 26.2351 51.9784 25.2783 49.2968C25.0413 48.6249 24.8162 47.9856 24.5999 47.3818C24.3777 46.7809 24.1674 46.2127 23.9689 45.6828C23.5779 44.6203 23.2372 43.7086 22.938 42.9687C22.6477 42.2347 22.4196 41.6634 22.2626 41.2638C22.1856 41.0774 22.1263 40.9294 22.0819 40.8228C22.0404 40.7252 22.0167 40.6748 22.0137 40.6748L22.0078 40.6719Z" fill="#263238"/>
<path d="M51.1756 55.8496C51.1756 55.8496 51.143 55.8762 51.0837 55.9354C51.0186 56.0035 50.9356 56.0923 50.829 56.2018C50.6068 56.4386 50.2869 56.7908 49.884 57.2585C49.0812 58.1908 47.9525 59.5731 46.7587 61.423C45.5648 63.2699 44.3414 65.62 43.4882 68.4111C42.6113 71.1933 42.0692 74.3544 41.5271 77.6605C40.4458 84.2757 39.1216 90.2013 38.1648 94.4871C37.6819 96.6182 37.2879 98.3497 37.0154 99.5602C36.885 100.149 36.7813 100.611 36.7102 100.942C36.6806 101.093 36.654 101.212 36.6362 101.304C36.6214 101.386 36.6155 101.428 36.6184 101.428C36.6214 101.428 36.6362 101.389 36.6569 101.309C36.6806 101.218 36.7132 101.102 36.7517 100.954C36.8347 100.629 36.9472 100.167 37.0954 99.581C37.3857 98.3733 37.7974 96.6478 38.3099 94.5226C39.3053 90.2457 40.6532 84.3201 41.7345 77.696C42.2766 74.3899 42.8128 71.2377 43.6748 68.4703C44.5132 65.694 45.7129 63.3528 46.886 61.5029C48.0591 59.65 49.17 58.2559 49.9521 57.3118C50.3431 56.8382 50.6542 56.4771 50.8675 56.2314C50.9652 56.116 51.0452 56.0242 51.1074 55.9502C51.1608 55.8851 51.1874 55.8526 51.1845 55.8496H51.1756Z" fill="#263238"/>
<path d="M21.2168 82.8611C21.2168 82.8611 21.282 82.8788 21.4094 82.8966C21.5575 82.9144 21.7411 82.9321 21.9604 82.9588C22.0818 82.9706 22.2151 82.9824 22.3573 82.9972C22.5025 83.018 22.6595 83.0416 22.8283 83.0683C23.166 83.1186 23.5512 83.1689 23.9689 83.2607C24.1792 83.3021 24.3984 83.3465 24.6295 83.3909C24.8576 83.4471 25.0916 83.5093 25.3345 83.5685C25.8263 83.678 26.3328 83.8585 26.875 84.0213C27.9414 84.3943 29.0908 84.8767 30.2373 85.5012C31.3778 86.1346 32.3879 86.8657 33.253 87.5938C33.6707 87.9727 34.0765 88.3279 34.4083 88.7038C34.7667 89.059 35.0571 89.426 35.3237 89.7575C35.6051 90.0801 35.8036 90.4145 36.0021 90.6898C36.2035 90.9651 36.3487 91.2196 36.4672 91.4268C36.5797 91.6162 36.6716 91.7731 36.7486 91.9033C36.8138 92.0099 36.8523 92.0661 36.8582 92.0632C36.8641 92.0602 36.8375 91.9981 36.7841 91.8856C36.716 91.7524 36.633 91.5866 36.5353 91.3913C36.4286 91.1752 36.2924 90.9148 36.0969 90.6306C35.9043 90.3465 35.7147 90.0031 35.4362 89.6716C35.1726 89.3283 34.8852 88.9524 34.5298 88.5883C34.198 88.2036 33.7921 87.8395 33.3715 87.4518C32.5064 86.7059 31.4874 85.963 30.3321 85.3237C29.1738 84.6903 28.0095 84.2108 26.9312 83.8437C26.3832 83.6839 25.8707 83.5093 25.373 83.4027C25.1271 83.3435 24.8872 83.2873 24.6591 83.234C24.428 83.1926 24.2058 83.1541 23.9925 83.1156C23.5689 83.0298 23.1809 82.9913 22.8402 82.9528C22.6713 82.9351 22.5143 82.9144 22.3662 82.8996C22.221 82.8907 22.0877 82.8848 21.9663 82.8788C21.7441 82.87 21.5634 82.8611 21.4123 82.8552C21.2849 82.8522 21.2198 82.8552 21.2198 82.8611H21.2168Z" fill="#263238"/>
<path d="M19.7031 55.9774C19.7031 55.9774 19.8305 56.1195 20.0853 56.3444C20.3726 56.5931 20.74 56.9127 21.1784 57.2916C22.1056 58.0848 23.4002 59.1711 24.834 60.3579C26.2707 61.5478 27.5771 62.6133 28.5281 63.3799C28.9843 63.741 29.3635 64.04 29.6627 64.2768C29.9322 64.4839 30.0863 64.5964 30.0952 64.5846C30.1041 64.5727 29.9678 64.4425 29.713 64.2146C29.4257 63.966 29.0583 63.6463 28.6199 63.2675C27.6927 62.4742 26.4011 61.3909 24.9643 60.2011C23.5305 59.0142 22.2241 57.9457 21.2732 57.1821C20.817 56.821 20.4378 56.522 20.1386 56.2852C19.869 56.078 19.715 55.9656 19.7031 55.9774Z" fill="#263238"/>
<path d="M18.3995 62.9948C18.3847 63.048 21.1723 63.9182 24.6264 64.9394C28.0835 65.9605 30.8948 66.7419 30.9126 66.6886C30.9274 66.6353 28.1398 65.7652 24.6857 64.744C21.2315 63.7229 18.4172 62.9415 18.4024 62.9948H18.3995Z" fill="#263238"/>
<path d="M28.6936 60.201C28.6936 60.201 28.8062 60.0649 28.981 59.8015C29.1765 59.5025 29.4224 59.1266 29.7156 58.6827C30.3377 57.7414 31.2235 56.4539 32.2692 55.0865C33.3179 53.719 34.3251 52.5262 35.0687 51.6738C35.4212 51.2742 35.7145 50.9368 35.9514 50.6675C36.1588 50.4277 36.2714 50.2916 36.2595 50.2827C36.2506 50.2738 36.1203 50.3922 35.8922 50.6142C35.6641 50.8362 35.3471 51.1647 34.959 51.5791C34.1859 52.4078 33.1579 53.5888 32.1063 54.9622C31.0546 56.3355 30.1866 57.6408 29.5912 58.6057C29.295 59.0882 29.0609 59.4818 28.9099 59.76C28.7558 60.0383 28.6788 60.1951 28.6906 60.201H28.6936Z" fill="#263238"/>
<path d="M38.378 64.0961C38.3543 64.1139 38.6149 64.5164 39.0326 65.1705C39.4503 65.8247 40.0132 66.7333 40.5997 67.7604C41.1833 68.7874 41.6781 69.7375 42.0276 70.4301C42.3772 71.1227 42.5905 71.5519 42.6171 71.5401C42.6408 71.5282 42.4749 71.0783 42.155 70.368C41.838 69.6576 41.3611 68.6927 40.7745 67.6597C40.185 66.6268 39.5985 65.724 39.1511 65.0906C38.7038 64.4543 38.3987 64.0813 38.378 64.0961Z" fill="#263238"/>
<path d="M41.6897 76.2373C41.7045 76.2639 42.2347 76.0064 43.1057 75.6128C43.9766 75.2221 45.1912 74.71 46.5657 74.2276C47.9403 73.7481 49.2112 73.3899 50.1354 73.1531C51.0597 72.9164 51.6373 72.7891 51.6314 72.7565C51.6314 72.7417 51.4803 72.7565 51.2167 72.8009C50.9501 72.8394 50.5709 72.9134 50.1028 73.014C49.1667 73.2153 47.881 73.5527 46.5006 74.0352C45.1201 74.5206 43.9055 75.0563 43.0464 75.4825C42.6169 75.6956 42.2732 75.8762 42.0422 76.0123C41.8082 76.1455 41.6837 76.2254 41.6897 76.2373Z" fill="#263238"/>
<path d="M39.083 90.752C39.083 90.752 39.1393 90.7786 39.2548 90.8111C39.3941 90.8467 39.557 90.8881 39.7555 90.9384C40.2265 91.0479 40.8516 91.19 41.6099 91.3646C43.1741 91.7287 45.3514 92.1815 47.668 92.9629C49.9846 93.7502 51.9723 94.7536 53.3202 95.6149C53.9957 96.0441 54.523 96.423 54.8784 96.6982C55.2339 96.9705 55.4294 97.1244 55.4413 97.1126C55.4472 97.1067 55.4028 97.0623 55.3169 96.9824C55.228 96.9025 55.1036 96.7811 54.9288 96.639C54.5881 96.346 54.0697 95.9464 53.4002 95.4965C52.0642 94.5968 50.0675 93.5638 47.7361 92.7735C45.4018 91.9862 43.2155 91.5541 41.6425 91.2285C40.8782 91.0805 40.2472 90.9562 39.7732 90.8644C39.3318 90.7815 39.086 90.7431 39.083 90.7549V90.752Z" fill="#263238"/>
<path d="M29.6508 94.3304C29.707 94.3393 30.0388 92.3858 30.3914 89.9676C30.7468 87.5494 30.9868 85.5811 30.9305 85.5752C30.8742 85.5663 30.5424 87.5198 30.1899 89.941C29.8344 92.3591 29.5945 94.3274 29.6508 94.3333V94.3304Z" fill="#263238"/>
<path d="M19.8304 90.7669C19.8541 90.7847 20.1829 90.3762 20.7162 89.7162C21.2464 89.0561 21.9811 88.1475 22.8135 87.1589C23.646 86.1703 24.4162 85.2912 24.9761 84.6549C25.536 84.0185 25.8796 83.6219 25.8589 83.6041C25.85 83.5953 25.7493 83.6811 25.5775 83.8439C25.4056 84.0067 25.1627 84.2523 24.8694 84.5572C24.2829 85.1699 23.4919 86.0371 22.6595 87.0287C21.8271 88.0202 21.1072 88.9466 20.6036 89.6303C20.3518 89.9707 20.1533 90.2519 20.02 90.4502C19.8867 90.6485 19.8186 90.761 19.8304 90.7699V90.7669Z" fill="#263238"/>
<path d="M45.8165 99.8652V104.713H44.6048L40.2916 118.314H30.7261L26.5491 104.85L24.9316 104.713V99.8652H45.8165Z" fill="#455A64"/>
<path d="M25.7402 104.85C25.7402 104.906 29.9646 104.95 35.1725 104.95C40.3803 104.95 44.6047 104.906 44.6047 104.85C44.6047 104.793 40.3833 104.749 35.1725 104.749C29.9616 104.749 25.7402 104.793 25.7402 104.85Z" fill="#263238"/>
<path d="M18.8618 73.6652C18.8618 73.6652 19.0781 73.7362 19.475 73.8309C19.9046 73.9345 20.4704 74.0707 21.1547 74.2364C22.5707 74.5857 24.5111 75.1184 26.6203 75.8258C28.7266 76.5362 30.5988 77.285 31.9378 77.8592C32.5806 78.1404 33.1138 78.3742 33.5197 78.5518C33.893 78.7176 34.1033 78.8034 34.1092 78.7886C34.1151 78.7768 33.9167 78.6673 33.5552 78.4778C33.1938 78.2884 32.6606 78.0309 31.997 77.726C30.6699 77.1163 28.8036 76.3438 26.6884 75.6305C24.5733 74.9201 22.6181 74.411 21.1902 74.0943C20.4763 73.9375 19.8986 73.8191 19.4958 73.751C19.0929 73.68 18.8707 73.6504 18.8677 73.6622L18.8618 73.6652Z" fill="#263238"/>
<path d="M28.916 112.4C28.916 112.457 31.8784 112.501 35.534 112.501C39.1896 112.501 42.1519 112.457 42.1519 112.4C42.1519 112.344 39.1896 112.3 35.534 112.3C31.8784 112.3 28.916 112.344 28.916 112.4Z" fill="#FAFAFA"/>
<path d="M28.5425 111.275C28.5425 111.332 31.6826 111.376 35.5544 111.376C39.4263 111.376 42.5664 111.332 42.5664 111.275C42.5664 111.219 39.4263 111.175 35.5544 111.175C31.6826 111.175 28.5425 111.219 28.5425 111.275Z" fill="#FAFAFA"/>
<path d="M180.685 81.0141L160.935 58.848C159.362 57.0839 157.116 56.0658 154.749 56.048L89.7278 55.5744C85.0768 55.5419 81.2938 59.3038 81.3057 63.9478L81.4153 109.949C81.4271 114.57 85.1894 118.305 89.8137 118.284L154.607 118.012C157.03 118.003 159.332 116.94 160.914 115.102L180.78 92.0128C183.511 88.8399 183.469 84.1367 180.685 81.0111V81.0141ZM169.697 88.9938C168.264 92.5189 164.241 94.2149 160.712 92.7823C157.184 91.3498 155.487 87.3304 156.921 83.8052C158.354 80.2801 162.377 78.5841 165.905 80.0166C169.434 81.4492 171.131 85.4686 169.697 88.9938Z" fill="#E8505B"/>
<g opacity="0.4">
<path d="M180.685 81.0141L160.935 58.848C159.362 57.0839 157.116 56.0658 154.749 56.048L89.7278 55.5744C85.0768 55.5419 81.2938 59.3038 81.3057 63.9478L81.4153 109.949C81.4271 114.57 85.1894 118.305 89.8137 118.284L154.607 118.012C157.03 118.003 159.332 116.94 160.914 115.102L180.78 92.0128C183.511 88.8399 183.469 84.1367 180.685 81.0111V81.0141ZM169.697 88.9938C168.264 92.5189 164.241 94.2149 160.712 92.7823C157.184 91.3498 155.487 87.3304 156.921 83.8052C158.354 80.2801 162.377 78.5841 165.905 80.0166C169.434 81.4492 171.131 85.4686 169.697 88.9938Z" fill="black"/>
</g>
<path d="M184.106 81.0141L164.356 58.848C162.783 57.0839 160.537 56.0658 158.171 56.048L93.1491 55.5744C88.4982 55.5419 84.7152 59.3038 84.7271 63.9478L84.8367 109.949C84.8485 114.57 88.6108 118.305 93.235 118.284L158.028 118.012C160.452 118.003 162.753 116.94 164.335 115.102L184.201 92.0128C186.932 88.8399 186.891 84.1367 184.106 81.0111V81.0141ZM173.119 88.9938C171.685 92.5189 167.662 94.2149 164.134 92.7823C160.606 91.3498 158.908 87.3304 160.342 83.8052C161.776 80.2801 165.799 78.5841 169.327 80.0166C172.855 81.4492 174.553 85.4686 173.119 88.9938Z" fill="#E8505B"/>
<path d="M106.356 79.4719C106.409 73.8956 109.845 70.3823 114.668 70.4297C119.494 70.4741 122.818 74.0022 122.764 79.6258C122.711 85.2495 119.322 88.7154 114.496 88.671C109.674 88.6266 106.299 85.0512 106.353 79.4749L106.356 79.4719ZM118.036 79.5814C118.069 76.0385 116.715 74.3248 114.633 74.3041C112.6 74.2863 111.164 76.0208 111.131 79.5163C111.098 83.0119 112.5 84.773 114.535 84.7937C116.617 84.8144 118.004 83.1243 118.036 79.5814ZM134.386 70.992L140.014 71.0453L117.1 103.911L111.472 103.858L134.386 70.992ZM128.722 95.2774C128.772 89.7011 132.211 86.1878 136.987 86.2351C141.809 86.2795 145.184 89.855 145.13 95.4313C145.077 101.008 141.641 104.521 136.815 104.474C132.04 104.429 128.665 100.854 128.719 95.2774H128.722ZM140.355 95.3869C140.388 91.8913 139.031 90.1302 136.951 90.1095C134.919 90.0918 133.482 91.7789 133.45 95.3218C133.417 98.8647 134.818 100.581 136.853 100.599C138.936 100.62 140.322 98.8824 140.355 95.3869Z" fill="white"/>
<path d="M181.947 94.7002C181.965 94.6795 182.187 94.8393 182.593 95.1649C182.998 95.4904 183.591 95.9759 184.34 96.6181C185.09 97.2575 186.002 98.0537 187.03 99.0097C188.058 99.9657 189.205 101.087 190.39 102.405C191.572 103.725 192.81 105.237 193.924 107.013C194.063 107.235 194.202 107.46 194.344 107.685C194.475 107.916 194.608 108.15 194.741 108.386C195.014 108.851 195.266 109.351 195.494 109.866C195.944 110.899 196.314 112.039 196.35 113.279C196.368 113.895 196.285 114.534 196.077 115.144C195.873 115.753 195.538 116.334 195.103 116.822C194.235 117.807 193.02 118.471 191.714 118.758C190.401 119.045 189.024 118.962 187.712 118.663C186.393 118.364 185.125 117.864 183.893 117.26C181.428 116.043 179.316 114.347 177.521 112.515C176.623 111.598 175.803 110.633 175.056 109.653C174.313 108.679 173.605 107.712 172.935 106.753C170.263 102.911 168.195 99.205 166.892 95.8959C166.566 95.0701 166.282 94.2769 166.039 93.5133C165.92 93.1315 165.808 92.7585 165.716 92.3886C165.627 92.0186 165.529 91.6693 165.503 91.2934C165.405 90.5594 165.592 89.8194 165.988 89.3074C166.382 88.7894 166.91 88.4934 167.396 88.3306C167.639 88.2418 167.878 88.2063 168.101 88.1679C168.326 88.156 168.539 88.1294 168.735 88.153C169.129 88.1678 169.449 88.2685 169.697 88.3632C169.94 88.4757 170.118 88.5793 170.213 88.6799C170.314 88.7717 170.361 88.822 170.352 88.8308C170.343 88.8397 170.278 88.8101 170.168 88.7421C170.062 88.6681 169.881 88.5911 169.647 88.5082C169.404 88.4431 169.099 88.3691 168.729 88.381C168.545 88.3691 168.349 88.4076 168.139 88.4283C167.935 88.4757 167.716 88.5201 167.496 88.6118C167.061 88.7805 166.605 89.0676 166.288 89.5234C165.965 89.9733 165.829 90.589 165.932 91.2401C165.962 91.5628 166.068 91.915 166.163 92.2672C166.261 92.6224 166.382 92.9835 166.507 93.3564C166.765 94.0993 167.061 94.8807 167.399 95.6888C168.743 98.915 170.838 102.558 173.516 106.341C174.188 107.288 174.896 108.241 175.64 109.203C176.378 110.159 177.18 111.095 178.06 111.986C179.817 113.761 181.867 115.398 184.237 116.567C185.419 117.147 186.642 117.627 187.88 117.911C189.116 118.195 190.378 118.266 191.554 118.015C192.718 117.763 193.802 117.174 194.552 116.328C195.316 115.49 195.666 114.383 195.642 113.288C195.621 112.19 195.295 111.118 194.875 110.133C194.661 109.638 194.43 109.159 194.167 108.7C194.039 108.469 193.912 108.238 193.787 108.01C193.651 107.789 193.518 107.567 193.385 107.347C192.318 105.598 191.124 104.089 189.984 102.763C188.837 101.437 187.726 100.3 186.734 99.3175C185.742 98.3348 184.862 97.512 184.145 96.8372C183.431 96.1623 182.877 95.6384 182.495 95.2773C182.122 94.9162 181.935 94.7179 181.953 94.6972L181.947 94.7002Z" fill="#263238"/>
<path d="M151.088 48.7577C151.046 48.7637 150.214 42.9713 149.233 35.8233C148.25 28.6724 147.488 22.8712 147.53 22.8652C147.571 22.8593 148.404 28.6517 149.384 35.8026C150.368 42.9506 151.129 48.7548 151.088 48.7607V48.7577Z" fill="#263238"/>
<path d="M175.513 17.0788C175.513 17.0788 175.507 17.1114 175.486 17.1676C175.462 17.2328 175.43 17.3186 175.391 17.4251C175.299 17.659 175.172 17.9905 175.009 18.4108C174.671 19.275 174.191 20.5063 173.596 22.0277C172.408 25.0822 170.788 29.3118 169.066 34.0061C167.345 38.7033 165.846 42.9773 164.78 46.0762C164.25 47.6183 163.82 48.8703 163.521 49.7464C163.373 50.1726 163.257 50.5071 163.174 50.7438C163.136 50.8504 163.103 50.9362 163.079 51.0013C163.059 51.0605 163.044 51.0872 163.044 51.0872C163.044 51.0872 163.05 51.0546 163.065 50.9954C163.085 50.9274 163.112 50.8415 163.145 50.732C163.222 50.4923 163.328 50.1548 163.465 49.7257C163.743 48.8525 164.158 47.5916 164.679 46.0377C165.719 42.9299 167.203 38.65 168.924 33.9498C170.648 29.2526 172.284 25.0289 173.498 21.9833C174.105 20.4619 174.603 19.2306 174.956 18.3841C175.13 17.9698 175.267 17.6412 175.364 17.4103C175.409 17.3068 175.447 17.2239 175.474 17.1588C175.501 17.1025 175.513 17.0729 175.516 17.0759L175.513 17.0788Z" fill="#263238"/>
<path d="M193.014 39.8577C193.041 39.8902 188.798 43.2082 183.543 47.2691C178.285 51.3299 174.004 54.5916 173.978 54.5591C173.951 54.5265 178.19 51.2086 183.448 47.1477C188.704 43.0898 192.987 39.8251 193.014 39.8577Z" fill="#263238"/>
<path d="M140.802 49.8383C140.77 49.865 139.128 47.7753 137.141 45.1766C135.153 42.5749 133.568 40.4468 133.601 40.4202C133.633 40.3935 135.274 42.4832 137.262 45.0849C139.25 47.6865 140.835 49.8146 140.802 49.8413V49.8383Z" fill="#263238"/>
<path d="M191.011 66.1527C191 66.1941 188.402 65.4719 185.208 64.5425C182.015 63.6132 179.437 62.8259 179.449 62.7844C179.461 62.743 182.059 63.4652 185.253 64.3946C188.446 65.3239 191.023 66.1113 191.011 66.1527Z" fill="#263238"/>
<path d="M153.68 66.0612L155.605 64.9512L156.63 62.98L157.738 64.9039L159.711 65.928L157.786 67.0349L156.761 69.0062L155.653 67.0823L153.68 66.0612Z" fill="white"/>
<path d="M143.27 63.0036L143.945 62.6159L144.304 61.9263L144.692 62.6011L145.382 62.9592L144.707 63.347L144.351 64.0366L143.963 63.3618L143.27 63.0036Z" fill="white"/>
<path d="M149.917 76.5979L151.221 75.849L151.914 74.5142L152.664 75.8165L154 76.5091L152.696 77.2579L152.003 78.5928L151.254 77.2905L149.917 76.5979Z" fill="white"/>
<path d="M204.579 118.314C204.579 118.355 158.885 118.391 102.534 118.391C46.1837 118.391 0.477051 118.355 0.477051 118.314C0.477051 118.272 46.16 118.237 102.534 118.237C158.908 118.237 204.579 118.272 204.579 118.314Z" fill="#263238"/>
<path d="M59.9852 113.066C59.9852 113.066 47.6143 116.487 47.1166 116.662C46.3701 116.926 46.4975 119.652 47.6558 119.61C48.2038 119.589 57.1591 119.945 58.2878 119.874C59.4194 119.802 62.4647 118.601 62.4647 118.601L59.9822 113.069L59.9852 113.066Z" fill="#455A64"/>
<path d="M54.8336 117.784C54.7714 117.793 54.6884 117.138 54.2885 116.458C53.9004 115.771 53.3761 115.368 53.4146 115.321C53.4353 115.274 54.0515 115.623 54.4692 116.357C54.8928 117.085 54.8869 117.793 54.8336 117.787V117.784Z" fill="#263238"/>
<path d="M56.122 117.198C56.0628 117.21 55.9354 116.624 55.6066 115.978C55.2837 115.33 54.8897 114.88 54.9341 114.839C54.9697 114.797 55.4525 115.203 55.7932 115.887C56.1398 116.567 56.1754 117.195 56.125 117.198H56.122Z" fill="#263238"/>
<path d="M57.331 116.875C57.2688 116.872 57.3162 116.254 57.0407 115.57C56.7771 114.88 56.3238 114.46 56.3683 114.413C56.392 114.365 56.9489 114.747 57.2363 115.493C57.5325 116.236 57.3814 116.893 57.334 116.875H57.331Z" fill="#263238"/>
<path d="M57.1118 115.28C57.0911 115.286 56.9815 114.939 56.9785 114.359C56.9785 114.069 57.0141 113.726 57.1029 113.35C57.1474 113.164 57.2096 112.971 57.2866 112.776C57.3281 112.678 57.3725 112.566 57.4851 112.474C57.6006 112.37 57.8109 112.391 57.9087 112.495C58.0213 112.592 58.0568 112.731 58.0746 112.844C58.0864 112.956 58.0924 113.063 58.0894 113.169C58.0864 113.383 58.0598 113.587 58.0124 113.773C57.9206 114.152 57.7724 114.466 57.6302 114.717C57.3429 115.218 57.0911 115.475 57.0733 115.46C57.0437 115.44 57.2511 115.153 57.4999 114.649C57.6214 114.398 57.7487 114.087 57.8258 113.732C57.8643 113.554 57.885 113.365 57.885 113.166C57.8791 112.977 57.885 112.74 57.7724 112.648C57.7132 112.601 57.6599 112.595 57.6095 112.634C57.5562 112.675 57.5088 112.761 57.4732 112.85C57.3962 113.033 57.334 113.217 57.2866 113.394C57.1888 113.75 57.1414 114.081 57.1237 114.359C57.0881 114.919 57.1444 115.268 57.1089 115.274L57.1118 115.28Z" fill="#263238"/>
<path d="M57.1295 115.153C57.1236 115.129 57.4228 115.028 57.9264 115.025C58.1782 115.025 58.4803 115.052 58.8032 115.132C58.9632 115.176 59.135 115.218 59.3098 115.318C59.4787 115.404 59.6564 115.638 59.5883 115.884C59.5349 116.115 59.3394 116.274 59.1439 116.325C58.9484 116.381 58.7558 116.36 58.5899 116.325C58.2493 116.248 57.9856 116.079 57.7871 115.931C57.3902 115.62 57.1976 115.384 57.2124 115.366C57.2332 115.339 57.4672 115.543 57.8701 115.813C58.0715 115.943 58.3263 116.082 58.6284 116.141C58.7795 116.171 58.9395 116.18 59.0876 116.135C59.2328 116.094 59.3542 115.984 59.3898 115.842C59.4253 115.703 59.3424 115.579 59.2061 115.496C59.0728 115.413 58.9099 115.366 58.7588 115.321C58.4537 115.233 58.1663 115.194 57.9264 115.176C57.4435 115.144 57.1384 115.191 57.1324 115.159L57.1295 115.153Z" fill="#263238"/>
<path d="M52.9317 117.917C52.8695 117.911 52.9317 117.381 52.6888 116.801C52.4577 116.218 52.043 115.881 52.0844 115.833C52.1052 115.783 52.6206 116.076 52.8813 116.724C53.1479 117.369 52.982 117.938 52.9346 117.917H52.9317Z" fill="#263238"/>
<path d="M61.564 118.485C61.564 118.485 61.3981 118.577 61.0841 118.71C60.7671 118.832 60.302 118.997 59.7066 119.136C58.5246 119.435 56.836 119.604 54.9845 119.583C53.1301 119.563 51.4593 119.48 50.2477 119.429C49.673 119.4 49.1931 119.373 48.8139 119.353C48.4762 119.329 48.2896 119.311 48.2896 119.296C48.2896 119.281 48.4791 119.273 48.8169 119.273C49.196 119.273 49.6789 119.279 50.2536 119.281C51.5067 119.305 53.1597 119.338 54.9875 119.373C56.8331 119.394 58.4979 119.249 59.677 118.991C60.859 118.749 61.5492 118.444 61.564 118.482V118.485Z" fill="#263238"/>
<path d="M61.9286 118.766C61.9109 118.796 61.5732 118.598 61.0014 118.346C60.4356 118.103 59.5913 117.813 58.6611 117.958C57.728 118.1 57.0674 118.728 56.6378 119.16C56.2053 119.61 55.9506 119.909 55.9239 119.888C55.9061 119.873 56.1164 119.545 56.5282 119.062C56.7356 118.823 57.0022 118.547 57.3488 118.296C57.6924 118.044 58.1338 117.831 58.6256 117.754C59.6239 117.6 60.5008 117.935 61.0607 118.216C61.6294 118.506 61.9375 118.749 61.9257 118.769L61.9286 118.766Z" fill="#263238"/>
<path d="M49.5193 119.302C49.4956 119.287 49.6023 119.124 49.7 118.834C49.7978 118.547 49.8748 118.124 49.7918 117.674C49.7089 117.221 49.4867 116.854 49.2912 116.62C49.0957 116.387 48.9387 116.271 48.9565 116.247C48.9653 116.23 49.152 116.313 49.3801 116.54C49.6082 116.762 49.8659 117.153 49.9577 117.642C50.0496 118.133 49.9459 118.589 49.8126 118.876C49.6793 119.169 49.5371 119.311 49.5223 119.299L49.5193 119.302Z" fill="#263238"/>
<path d="M72.8952 113.433C72.8952 113.433 85.5861 115.36 86.0986 115.475C86.8688 115.647 87.0702 118.37 85.9149 118.465C85.3669 118.509 76.5212 119.924 75.3896 119.989C74.2579 120.054 70.709 119.125 70.709 119.125L72.8982 113.433H72.8952Z" fill="#455A64"/>
<path d="M78.5713 117.503C78.6335 117.503 78.6394 116.845 78.9534 116.12C79.2586 115.392 79.7296 114.93 79.6852 114.886C79.6585 114.842 79.0897 115.259 78.7609 116.037C78.4261 116.813 78.518 117.511 78.5683 117.5L78.5713 117.503Z" fill="#263238"/>
<path d="M77.2202 117.077C77.2825 117.079 77.3358 116.485 77.5876 115.804C77.8305 115.12 78.1712 114.629 78.1208 114.593C78.0823 114.558 77.6498 115.016 77.3921 115.736C77.1284 116.452 77.1669 117.082 77.2202 117.079V117.077Z" fill="#263238"/>
<path d="M75.9821 116.899C76.0443 116.887 75.9229 116.28 76.1154 115.567C76.2932 114.851 76.696 114.38 76.6457 114.338C76.6161 114.294 76.1095 114.741 75.914 115.514C75.7096 116.286 75.9347 116.919 75.9821 116.896V116.899Z" fill="#263238"/>
<path d="M76.0089 115.289C76.0326 115.289 76.0978 114.937 76.0326 114.359C75.997 114.072 75.923 113.732 75.7897 113.374C75.7215 113.193 75.6386 113.01 75.5379 112.826C75.4875 112.734 75.4283 112.628 75.3038 112.548C75.1765 112.459 74.972 112.504 74.8832 112.619C74.7825 112.732 74.7647 112.874 74.7617 112.986C74.7617 113.101 74.7706 113.205 74.7854 113.312C74.815 113.522 74.8654 113.723 74.9335 113.904C75.0698 114.268 75.2535 114.564 75.4253 114.797C75.7719 115.262 76.0504 115.487 76.0652 115.469C76.0918 115.446 75.8519 115.185 75.5468 114.715C75.3957 114.478 75.2327 114.188 75.1142 113.841C75.055 113.67 75.0106 113.483 74.9869 113.288C74.9691 113.099 74.9395 112.865 75.0372 112.758C75.0905 112.702 75.1409 112.693 75.1972 112.726C75.2564 112.761 75.3127 112.838 75.3572 112.924C75.4549 113.099 75.5379 113.273 75.609 113.442C75.7482 113.782 75.8341 114.105 75.8874 114.38C75.9911 114.931 75.9763 115.286 76.0089 115.286V115.289Z" fill="#263238"/>
<path d="M75.9792 115.165C75.9821 115.141 75.674 115.076 75.1704 115.132C74.9216 115.162 74.6253 115.224 74.3113 115.342C74.1573 115.404 73.9914 115.467 73.8314 115.588C73.6744 115.695 73.5263 115.949 73.6211 116.183C73.7011 116.405 73.9173 116.541 74.1158 116.568C74.3173 116.6 74.5039 116.556 74.6668 116.5C74.9956 116.381 75.2356 116.186 75.4163 116.011C75.7718 115.656 75.9377 115.396 75.9199 115.381C75.8962 115.357 75.6859 115.588 75.3185 115.902C75.1319 116.056 74.8979 116.224 74.6046 116.319C74.4594 116.366 74.2995 116.393 74.1484 116.366C74.0003 116.343 73.867 116.248 73.8137 116.112C73.7633 115.979 73.8314 115.842 73.9558 115.748C74.0773 115.65 74.2343 115.585 74.3795 115.52C74.6727 115.396 74.9512 115.322 75.1912 115.277C75.6681 115.185 75.9762 115.2 75.9762 115.165H75.9792Z" fill="#263238"/>
<path d="M80.476 117.411C80.5352 117.396 80.4137 116.878 80.5856 116.275C80.7455 115.668 81.1158 115.286 81.0714 115.242C81.0447 115.194 80.5678 115.546 80.3841 116.218C80.1945 116.89 80.4286 117.438 80.473 117.408L80.476 117.411Z" fill="#263238"/>
<path d="M71.9707 119C71.9707 119 72.1455 119.071 72.4714 119.166C72.8002 119.246 73.2831 119.358 73.8904 119.427C75.099 119.58 76.7965 119.548 78.6331 119.308C80.4728 119.068 82.1199 118.784 83.3167 118.595C83.8825 118.497 84.3565 118.414 84.7297 118.349C85.0615 118.287 85.2452 118.246 85.2452 118.231C85.2452 118.216 85.0556 118.231 84.7179 118.269C84.3417 118.317 83.8647 118.379 83.293 118.45C82.0517 118.621 80.4135 118.852 78.6035 119.104C76.7728 119.344 75.102 119.397 73.9022 119.281C72.6995 119.181 71.9767 118.962 71.9678 119H71.9707Z" fill="#263238"/>
<path d="M71.6422 119.326C71.6629 119.353 71.974 119.116 72.5131 118.799C73.0464 118.491 73.8521 118.104 74.7912 118.136C75.7332 118.166 76.465 118.71 76.9419 119.089C77.4248 119.483 77.7151 119.752 77.7358 119.726C77.7536 119.708 77.5048 119.406 77.0367 118.977C76.7997 118.764 76.5064 118.521 76.1302 118.314C75.7599 118.104 75.2978 117.944 74.7971 117.929C73.7899 117.896 72.9545 118.332 72.4332 118.675C71.9029 119.03 71.6244 119.308 71.6392 119.326H71.6422Z" fill="#263238"/>
<path d="M112.363 61.3371C112.259 61.0914 111.993 60.973 111.993 60.973L112.295 60.3692C112.295 60.3692 112.265 60.017 112.12 59.7595C111.975 59.505 111.454 59.5257 111.454 59.5257L111.531 59.357C111.643 59.1143 111.62 58.8301 111.466 58.6111C111.442 58.5785 111.418 58.546 111.388 58.5105C111.178 58.253 110.731 58.176 110.731 58.176C110.731 58.176 111.027 57.6077 110.894 57.3709C110.719 57.0572 110.094 56.7198 109.632 56.8737C109.131 57.0424 108.068 57.5574 107.336 57.9688C107.046 58.1316 106.681 57.9955 106.566 57.6876C106.344 57.0957 105.955 56.1959 105.443 55.5802C104.886 54.9113 104.362 54.9646 104.06 55.08C103.914 55.1363 103.852 55.3109 103.935 55.4441C104.166 55.8259 104.619 56.5895 104.741 56.9122C104.886 57.2969 105.046 60.2153 105.046 60.2153L104.246 61.7367L96.1648 74.4846C96.1648 74.4846 83.9746 66.2741 84.022 66.0698L83.4473 75.4821L92.6366 81.5793C94.2333 82.6389 96.2181 82.9349 98.0548 82.3903C99.8826 81.8487 101.379 80.5286 102.14 78.7852L108.322 65.3802L109.072 64.2851L111.984 62.4204C111.984 62.4204 112.458 61.5857 112.357 61.3401L112.363 61.3371Z" fill="#FFBE9D"/>
<path d="M111.021 58.1969C111.021 58.1969 111.003 58.2177 110.962 58.2502C110.914 58.2887 110.858 58.3331 110.787 58.3893C110.624 58.5166 110.405 58.6853 110.135 58.8955C109.857 59.1086 109.528 59.3602 109.164 59.6384C108.977 59.7745 108.796 59.9314 108.577 60.0646C108.364 60.1948 108.07 60.2807 107.804 60.1652C107.673 60.106 107.573 59.9936 107.516 59.8722C107.46 59.7479 107.442 59.6117 107.448 59.4815C107.463 59.2151 107.605 58.9931 107.756 58.8185C107.913 58.6439 108.085 58.5048 108.242 58.3745C108.399 58.2443 108.544 58.1229 108.681 58.0105C108.944 57.7944 109.161 57.6168 109.318 57.4895C109.389 57.4333 109.448 57.3859 109.492 57.3504C109.534 57.3179 109.555 57.3031 109.558 57.306C109.558 57.306 109.54 57.3268 109.501 57.3623C109.457 57.4007 109.401 57.4511 109.335 57.5132C109.181 57.6464 108.971 57.8299 108.713 58.0549C108.58 58.1673 108.435 58.2917 108.281 58.4248C108.127 58.558 107.955 58.6972 107.807 58.8659C107.662 59.0346 107.531 59.2447 107.519 59.4874C107.502 59.7212 107.599 59.9965 107.83 60.1001C107.943 60.1504 108.073 60.1593 108.195 60.1356C108.316 60.1149 108.432 60.0646 108.536 60.0024C108.746 59.8752 108.932 59.7183 109.119 59.5851C109.486 59.3128 109.818 59.0642 110.1 58.857C110.375 58.6557 110.6 58.4929 110.766 58.3716C110.84 58.3183 110.9 58.2769 110.95 58.2413C110.991 58.2117 111.015 58.1969 111.018 58.1999L111.021 58.1969Z" fill="#EB996E"/>
<path d="M111.67 59.5671C111.67 59.5671 111.625 59.6115 111.537 59.6796C111.448 59.7477 111.314 59.8424 111.148 59.9578C110.817 60.1887 110.352 60.4935 109.821 60.8073C109.688 60.8842 109.561 60.9642 109.424 61.0234C109.288 61.0826 109.143 61.1181 109.001 61.1033C108.716 61.0707 108.515 60.8635 108.453 60.6623C108.39 60.458 108.441 60.2834 108.491 60.1828C108.518 60.1325 108.545 60.0969 108.565 60.0733C108.586 60.0525 108.598 60.0407 108.601 60.0437C108.607 60.0466 108.562 60.094 108.521 60.1946C108.479 60.2952 108.444 60.461 108.506 60.6445C108.568 60.825 108.758 61.0086 109.013 61.0352C109.137 61.047 109.27 61.0145 109.401 60.9553C109.531 60.899 109.655 60.8191 109.789 60.7422C110.316 60.4314 110.787 60.1324 111.122 59.9134C111.282 59.8098 111.415 59.724 111.522 59.653C111.617 59.5908 111.67 59.5612 111.673 59.5642L111.67 59.5671Z" fill="#EB996E"/>
<path d="M112.046 60.9022C112.046 60.9022 111.999 60.9348 111.907 60.9851C111.8 61.0384 111.667 61.1065 111.513 61.1834C111.178 61.3492 110.716 61.5711 110.201 61.8139C110.073 61.8731 109.949 61.9382 109.815 61.9796C109.685 62.024 109.546 62.0418 109.416 62.0122C109.288 61.9855 109.173 61.9056 109.119 61.7991C109.063 61.6925 109.057 61.58 109.075 61.4853C109.11 61.29 109.232 61.1716 109.306 61.1035C109.386 61.0354 109.439 61.0088 109.442 61.0117C109.445 61.0177 109.398 61.0502 109.327 61.1242C109.258 61.1953 109.152 61.3166 109.125 61.4912C109.113 61.5771 109.125 61.6807 109.173 61.7665C109.22 61.8553 109.318 61.9204 109.43 61.9411C109.543 61.9648 109.67 61.95 109.792 61.9056C109.916 61.8642 110.038 61.7991 110.168 61.7399C110.683 61.4972 111.148 61.284 111.489 61.1301C111.649 61.0591 111.782 60.9999 111.892 60.9525C111.987 60.9111 112.043 60.8934 112.043 60.8963L112.046 60.9022Z" fill="#EB996E"/>
<path d="M112.256 62.1421C112.256 62.1421 112.082 62.1984 111.794 62.2635C111.507 62.3286 111.107 62.4144 110.666 62.5032C110.556 62.524 110.446 62.5476 110.343 62.5684C110.239 62.5891 110.135 62.6098 110.032 62.6068C109.928 62.6039 109.827 62.5713 109.756 62.5092C109.682 62.447 109.647 62.3552 109.65 62.2753C109.661 62.1125 109.762 62.0149 109.827 61.9645C109.898 61.9142 109.946 61.9083 109.946 61.9113C109.946 61.9172 109.904 61.935 109.845 61.9882C109.789 62.0385 109.706 62.1392 109.703 62.2753C109.703 62.3434 109.733 62.4144 109.795 62.4618C109.857 62.5121 109.943 62.5388 110.035 62.5388C110.127 62.5388 110.224 62.521 110.331 62.4973C110.435 62.4766 110.544 62.4529 110.654 62.4322C111.095 62.3434 111.495 62.2665 111.785 62.2132C112.076 62.1599 112.256 62.1333 112.259 62.1451L112.256 62.1421Z" fill="#EB996E"/>
<path d="M109.096 61.5532C109.09 61.5769 108.728 61.4467 108.266 61.4703C107.804 61.4881 107.457 61.6539 107.449 61.6302C107.437 61.6154 107.783 61.4171 108.263 61.3964C108.743 61.3727 109.105 61.5384 109.096 61.5532Z" fill="#EB996E"/>
<path d="M65.569 58.7622C65.569 58.7622 61.469 55.3052 62.4199 52.9255C63.3709 50.5458 66.0015 49.3648 67.2931 45.0375C68.3269 41.5805 74.4857 34.9209 81.7851 39.9259C81.7851 39.9259 84.2557 39.5352 85.6599 40.66C87.064 41.7847 87.4017 44.0282 88.0001 46.6181C88.9185 50.6109 89.4221 53.6802 87.6447 55.6307C85.8643 57.5813 85.2155 58.1111 85.3103 60.3309C85.4347 63.2286 86.7145 62.8409 85.6095 64.9542L79.4862 62.9593L79.424 61.2751L78.8049 62.8586L75.2441 61.58L65.569 58.7593V58.7622Z" fill="#263238"/>
<path d="M85.9537 44.1914C85.5568 45.106 85.8826 46.1597 86.2589 47.0802C86.638 48.0007 87.0735 48.9774 86.8839 49.9542C86.5462 51.6857 84.3926 52.6506 84.1556 54.3998C84.0282 55.3381 84.4992 56.2912 84.3155 57.2176C84.1407 58.1144 83.3883 58.7922 82.5914 59.2421C81.7945 59.6949 80.9117 59.9939 80.1652 60.5207C80.1652 60.5207 78.5181 61.8704 75.6802 59.6446" fill="#263238"/>
<path d="M74.3262 41.9297C73.5648 41.7521 72.7917 42.1872 72.5487 42.9301L66.6654 62.4354C65.9071 64.7174 68.7776 67.1533 71.2305 67.9465C73.7041 68.7487 74.2077 67.5736 74.9927 65.4248C76.308 61.8375 76.779 60.4819 76.7731 60.5026C76.7731 60.5026 80.0554 61.065 82.1084 57.2409C83.1274 55.3407 84.1761 52.005 84.9434 49.2464C85.6336 46.7661 85.0618 43.2261 82.5497 42.643L74.3232 41.9268L74.3262 41.9297Z" fill="#FFBE9D"/>
<path d="M82.8637 51.2919C82.7778 51.5701 82.4726 51.727 82.1794 51.6411C81.889 51.5582 81.7202 51.2652 81.8061 50.987C81.892 50.7088 82.1971 50.5519 82.4874 50.6377C82.7778 50.7206 82.9466 51.0136 82.8607 51.2919H82.8637Z" fill="#263238"/>
<path d="M83.6783 50.5843C83.5895 50.6287 83.2991 50.2025 82.7393 50.0101C82.1823 49.8088 81.6728 49.9538 81.6372 49.865C81.6165 49.8236 81.7261 49.7259 81.9513 49.6579C82.1734 49.5898 82.5171 49.5691 82.8637 49.6904C83.2103 49.8118 83.4591 50.0426 83.5835 50.2321C83.7109 50.4244 83.7257 50.5665 83.6843 50.5843H83.6783Z" fill="#263238"/>
<path d="M77.3212 49.5248C77.2353 49.803 76.9302 49.9599 76.6369 49.874C76.3466 49.7912 76.1777 49.4981 76.2636 49.2199C76.3495 48.9417 76.6547 48.7848 76.945 48.8707C77.2353 48.9535 77.4041 49.2466 77.3182 49.5248H77.3212Z" fill="#263238"/>
<path d="M78.1001 48.9148C78.0112 48.9592 77.718 48.533 77.161 48.3406C76.6041 48.1394 76.0946 48.2844 76.059 48.1956C76.0413 48.1542 76.1479 48.0565 76.3731 47.9884C76.5952 47.9203 76.9389 47.8996 77.2855 48.021C77.6321 48.1453 77.8809 48.3732 78.0053 48.5626C78.1297 48.755 78.1475 48.8971 78.106 48.9148H78.1001Z" fill="#263238"/>
<path d="M78.6867 53.7602C78.6956 53.7276 79.0629 53.7868 79.6525 53.9111C79.8006 53.9467 79.9457 53.9644 80.002 53.8756C80.0702 53.7839 80.0642 53.6092 80.0524 53.4198C80.0376 53.0291 80.0228 52.6177 80.0079 52.1885C79.9605 50.4393 79.9783 49.0186 80.0494 49.0186C80.1205 49.0186 80.2153 50.4333 80.2657 52.1856C80.2746 52.6147 80.2834 53.0261 80.2894 53.4198C80.2894 53.6004 80.316 53.8164 80.1679 54.0059C80.0939 54.0976 79.9605 54.139 79.8598 54.1331C79.7591 54.1302 79.6791 54.1035 79.6051 54.0828C79.0274 53.9171 78.6749 53.7957 78.6838 53.7631L78.6867 53.7602Z" fill="#263238"/>
<path d="M76.7731 60.5026C76.7731 60.5026 73.9855 59.7331 71.8525 57.1729C71.8525 57.1729 72.2525 60.4316 76.4383 61.4616L76.7731 60.5026Z" fill="#EB996E"/>
<path d="M77.9817 55.0237C77.872 54.6893 77.5728 54.4199 77.2085 54.3371C76.9567 54.2779 76.6723 54.3104 76.456 54.4555C76.2398 54.6005 76.1124 54.8698 76.1805 55.1066C76.2575 55.37 76.5567 55.5299 76.85 55.5476C77.1433 55.5654 77.4336 55.4677 77.7121 55.37C77.7891 55.3434 77.8691 55.3138 77.9283 55.2605C77.9876 55.2073 78.0261 55.1244 77.9994 55.0533" fill="#EB996E"/>
<path d="M78.5177 47.3137C78.4288 47.4616 77.863 47.2752 77.1669 47.2278C76.4707 47.1657 75.8812 47.2604 75.819 47.1005C75.7923 47.0236 75.9167 46.8934 76.1685 46.7838C76.4174 46.6743 76.7966 46.5944 77.2143 46.627C77.632 46.6595 77.9934 46.7957 78.2244 46.9437C78.4555 47.0917 78.5592 47.2397 78.5177 47.3107V47.3137Z" fill="#263238"/>
<path d="M84.4841 48.7312C84.3271 48.8259 83.8946 48.5595 83.3288 48.3938C82.7689 48.2102 82.2594 48.1866 82.1853 48.0208C82.1557 47.9409 82.2683 47.8343 82.5112 47.7692C82.7511 47.7041 83.1244 47.7041 83.5124 47.8225C83.8976 47.9409 84.2027 48.154 84.3627 48.3434C84.5256 48.5329 84.5523 48.6838 84.4812 48.7312H84.4841Z" fill="#263238"/>
<path d="M67.48 54.7282C68.582 51.0373 69.687 47.3464 70.789 43.6555C71.0141 42.8978 71.2778 42.0897 71.9058 41.6132C72.5013 41.1633 73.3011 41.11 74.0476 41.0952C77.2677 41.0301 80.4997 41.3468 83.6458 42.0424C83.7968 42.7942 83.1451 43.5075 82.4193 43.7502C81.6935 43.9929 80.9026 43.9071 80.1353 43.916C79.3681 43.9248 78.5356 44.061 78.0143 44.6263C77.4632 45.2272 77.407 46.1536 76.8856 46.7811C75.988 47.8584 74.1098 47.6305 73.2182 48.7168C72.5427 49.5367 72.7264 50.7354 72.5042 51.7713C72.3363 52.5547 71.9453 53.5225 71.3311 54.6749C70.7653 55.7375 72.1872 57.762 70.7712 60.3874L68.0221 59.606L69.2278 55.551L67.5926 59.3544L67.4771 54.7282H67.48Z" fill="#263238"/>
<path d="M77.0279 53.6924C77.0871 53.725 77.0575 53.873 77.0516 54.0861C77.0457 54.2962 77.0753 54.5833 77.2116 54.8468C77.3508 55.1102 77.57 55.2966 77.7448 55.4121C77.9225 55.5305 78.0588 55.5897 78.0558 55.6577C78.0558 55.7169 77.887 55.7791 77.6204 55.7169C77.3597 55.6577 77.0042 55.4506 76.7998 55.0628C76.5984 54.6751 76.628 54.2637 76.7287 54.018C76.8294 53.7635 76.9746 53.6628 77.0249 53.6954L77.0279 53.6924Z" fill="#263238"/>
<path d="M76.2101 44.7949C76.2101 44.7949 76.1598 44.8304 76.0561 44.8807C75.9524 44.9281 75.8043 45.0109 75.6206 45.1204C75.2533 45.3454 74.7438 45.7243 74.2639 46.331C73.7899 46.9319 73.3396 47.7695 73.1944 48.7758C73.1174 49.279 73.1411 49.8118 73.2063 50.3653C73.2655 50.9187 73.3544 51.4989 73.31 52.1056C73.2892 52.4075 73.227 52.7065 73.1204 52.9847C73.0137 53.2629 72.8686 53.5145 72.7264 53.7542C72.4361 54.2337 72.1724 54.6984 72.1072 55.2016C72.0302 55.6988 72.0835 56.1872 72.1428 56.6371C72.205 57.087 72.285 57.5073 72.3176 57.901C72.3857 58.6823 72.2583 59.3335 72.045 59.7212C71.9443 59.9196 71.8288 60.0468 71.7518 60.1327C71.6658 60.2126 71.6214 60.2511 71.6184 60.2451C71.6036 60.2333 71.8051 60.0823 71.9917 59.6916C72.1813 59.3069 72.2909 58.6735 72.208 57.9069C72.1695 57.5251 72.0835 57.1048 72.0154 56.6519C71.9473 56.1991 71.888 55.7018 71.965 55.1779C72.0806 54.0887 73.1322 53.2896 73.1559 52.0908C73.1974 51.5077 73.1115 50.9335 73.0552 50.3771C72.993 49.8206 72.9693 49.2672 73.0552 48.7492C73.2122 47.7133 73.6862 46.8608 74.1779 46.257C74.6786 45.6473 75.2089 45.2744 75.588 45.0613C75.7806 44.9547 75.9346 44.8837 76.0413 44.8422C76.1479 44.7978 76.2042 44.7801 76.2072 44.783L76.2101 44.7949Z" fill="#263238"/>
<path d="M89.4873 61.4381C89.4873 61.4381 89.4725 61.4529 89.437 61.4796C89.4014 61.5032 89.354 61.5447 89.28 61.5861C89.1378 61.6719 88.9156 61.7815 88.6075 61.8614C88.2994 61.9413 87.9054 61.9768 87.4581 61.9028C87.0137 61.8288 86.5101 61.6246 86.0954 61.225C85.6836 60.8284 85.3637 60.2483 85.2778 59.5764C85.2333 59.2419 85.2481 58.8868 85.3459 58.5375C85.4437 58.1912 85.6125 57.8538 85.8347 57.5489C86.2761 56.9333 86.8923 56.4331 87.4729 55.8796C87.7603 55.6014 88.0446 55.3054 88.2787 54.9709C88.5127 54.6365 88.6964 54.2576 88.8297 53.858C89.0963 53.0559 89.1615 52.2153 89.1407 51.4162C89.12 50.6141 89.0193 49.8415 88.9008 49.1105C88.6608 47.6513 88.2905 46.3638 87.9143 45.3101C87.5381 44.2534 87.153 43.4335 86.8745 42.8712C86.7353 42.59 86.6227 42.3739 86.5457 42.2289C86.4687 42.0809 86.4331 42.0039 86.4361 42.001C86.442 42.001 86.4864 42.072 86.5723 42.2141C86.6582 42.3562 86.7797 42.5663 86.9278 42.8445C87.2211 43.401 87.624 44.2179 88.015 45.2745C88.409 46.3282 88.7912 47.6187 89.04 49.0898C89.1615 49.8238 89.2681 50.5993 89.2918 51.4132C89.3125 52.2242 89.2503 53.0796 88.9748 53.9083C88.8356 54.3198 88.646 54.7104 88.4031 55.0597C88.1602 55.409 87.8699 55.7079 87.5766 55.9891C86.99 56.5485 86.3798 57.0398 85.9502 57.6318C85.734 57.9248 85.574 58.2445 85.4763 58.573C85.3815 58.9016 85.3666 59.2419 85.4052 59.5616C85.4792 60.2039 85.7814 60.7662 86.1694 61.1481C86.5605 61.5358 87.0404 61.74 87.4699 61.8199C87.9024 61.8999 88.2905 61.8732 88.5927 61.8051C89.2029 61.6631 89.4755 61.4204 89.4873 61.444V61.4381Z" fill="#263238"/>
<path d="M64.2864 57.4242C64.2745 57.3976 64.6922 57.3828 65.2373 56.9506C65.7735 56.5303 66.366 55.6394 66.4993 54.4052C66.5763 53.7925 66.5645 53.1147 66.5496 52.3836C66.5408 51.6555 66.5259 50.8593 66.7303 50.0483C66.8281 49.6428 66.9821 49.2403 67.2073 48.8614C67.4354 48.4885 67.7464 48.1422 68.1434 47.9025C68.9462 47.4111 69.9327 47.4348 70.8066 47.13C71.248 46.982 71.6272 46.7156 71.9412 46.39C72.2552 46.0615 72.504 45.6826 72.744 45.3067C73.218 44.5608 73.6712 43.7765 74.394 43.3147C74.7466 43.0839 75.1494 42.9536 75.5405 42.8974C75.9315 42.8382 76.3166 42.8382 76.684 42.8471C77.4157 42.8708 78.0941 42.9211 78.7073 42.8323C79.9367 42.6636 80.8372 42.1545 81.3971 41.7579C81.6815 41.5596 81.877 41.3761 82.0163 41.2547C82.0755 41.1985 82.1259 41.1511 82.1673 41.1126C82.2029 41.0801 82.2207 41.0653 82.2236 41.0682C82.2236 41.0682 81.9926 41.382 81.4356 41.8082C80.8817 42.2226 79.9752 42.7553 78.728 42.9418C78.1059 43.0424 77.4157 42.9951 76.6869 42.9773C75.97 42.9625 75.1554 42.9892 74.477 43.4361C73.7956 43.8742 73.3513 44.6378 72.8773 45.3896C72.6373 45.7684 72.3855 46.1562 72.0597 46.4966C71.7368 46.8369 71.328 47.124 70.8658 47.2779C69.9534 47.5917 68.9818 47.571 68.2323 48.0357C67.4798 48.4915 67.074 49.3113 66.8785 50.0868C66.6741 50.8741 66.683 51.6585 66.6859 52.3866C66.6948 53.1147 66.7007 53.8014 66.6148 54.4229C66.4637 55.6779 65.8416 56.5836 65.2817 57.001C65.0003 57.2141 64.7456 57.3206 64.5678 57.3709C64.4819 57.4005 64.4108 57.4065 64.3634 57.4183C64.316 57.4272 64.2923 57.4301 64.2923 57.4272L64.2864 57.4242Z" fill="#455A64"/>
<path d="M67.2549 45.165C67.2608 45.1472 67.4534 45.2656 67.8385 45.3218C68.2206 45.381 68.8042 45.3485 69.4382 45.0584C70.0751 44.7743 70.709 44.2178 71.3519 43.5519C71.6777 43.2204 72.0154 42.8652 72.4035 42.5307C72.7886 42.1992 73.2271 41.8825 73.7395 41.6753C74.2491 41.4681 74.7882 41.3971 75.3007 41.3882C75.8132 41.3793 76.302 41.4267 76.7671 41.4681C77.2292 41.5125 77.6706 41.5569 78.0794 41.5629C78.4882 41.5688 78.8704 41.5362 79.214 41.4711C79.8983 41.3438 80.4138 41.0745 80.7011 40.817C80.9944 40.5624 81.107 40.3671 81.1218 40.3789C81.1277 40.3789 81.0981 40.4292 81.0418 40.5151C81.0152 40.5595 80.9767 40.6128 80.9263 40.669C80.8789 40.7282 80.8196 40.7933 80.7426 40.8614C80.4582 41.1396 79.9339 41.4356 79.2348 41.5777C78.8852 41.6517 78.4971 41.6901 78.0794 41.6901C77.6617 41.6901 77.2174 41.6487 76.7552 41.6102C76.2931 41.5717 75.8073 41.5273 75.3066 41.5392C74.806 41.551 74.2876 41.6191 73.8018 41.8174C72.8212 42.2229 72.1162 43.0013 71.4585 43.6495C70.8068 44.3125 70.1521 44.8749 69.4885 45.1531C68.8309 45.4402 68.2236 45.455 67.8355 45.3751C67.64 45.3396 67.4948 45.2774 67.4 45.239C67.3082 45.1916 67.2608 45.165 67.2608 45.159L67.2549 45.165Z" fill="#455A64"/>
<path d="M88.6905 53.464C88.6698 53.4551 88.8001 53.2746 88.8357 52.9016C88.8801 52.5317 88.7675 51.9752 88.412 51.4069C88.0684 50.8238 87.4315 50.3177 86.7857 49.6873C86.4658 49.3676 86.1458 49.0036 85.9236 48.5507C85.7015 48.1008 85.5919 47.5858 85.5563 47.0619C85.4882 46.0112 85.6689 45.0285 85.6452 44.1376C85.6393 43.2497 85.423 42.4476 84.9934 41.9296C84.5787 41.4027 84.0603 41.1541 83.693 41.0949C83.3227 41.0328 83.1123 41.1008 83.1094 41.0801C83.1094 41.0742 83.1597 41.0624 83.2575 41.0416C83.3582 41.0239 83.5063 41.012 83.6989 41.0357C84.081 41.0772 84.632 41.3228 85.0734 41.8615C85.5356 42.3913 85.7696 43.2319 85.7814 44.1347C85.8111 45.0433 85.6363 46.026 85.7044 47.0501C85.74 47.5592 85.8437 48.0535 86.054 48.4826C86.2614 48.9118 86.5694 49.2699 86.8805 49.5866C87.5085 50.2141 88.1543 50.741 88.498 51.3507C88.8505 51.9456 88.9542 52.5287 88.886 52.9105C88.8594 53.1029 88.8031 53.245 88.7616 53.3338C88.7142 53.4226 88.6875 53.467 88.6816 53.467L88.6905 53.464Z" fill="#455A64"/>
<path d="M62.4735 55.2373C62.4735 55.2373 62.4054 55.2077 62.2839 55.1337C62.1654 55.0567 61.9965 54.9265 61.8218 54.7193C61.4722 54.3197 61.0989 53.5383 61.253 52.5586C61.3004 52.3189 61.3804 52.0732 61.5048 51.8364C61.6381 51.6026 61.8158 51.3865 62.0262 51.1912C62.4528 50.8035 63.0008 50.5223 63.5666 50.2441C64.1295 49.9629 64.7338 49.6728 65.2137 49.1963C65.6966 48.7227 65.9661 48.0508 66.1468 47.3553C66.3275 46.6538 66.449 45.9434 66.6801 45.2864C66.9052 44.6293 67.2044 44.0255 67.5392 43.4838C68.2087 42.3976 69.0292 41.5688 69.7935 40.9828C70.5549 40.3938 71.257 40.0386 71.7517 39.8344C71.9976 39.7248 72.196 39.6627 72.3293 39.6183C72.4627 39.5739 72.5337 39.5532 72.5367 39.5591C72.5426 39.5769 72.2582 39.6657 71.7754 39.8906C71.2925 40.1126 70.6052 40.4766 69.8587 41.0716C69.1152 41.6606 68.3123 42.4864 67.6606 43.5608C67.3348 44.0965 67.0415 44.6914 66.8223 45.3367C66.5971 45.9819 66.4786 46.6834 66.295 47.3937C66.1143 48.1011 65.8328 48.8056 65.3203 49.3028C64.8138 49.803 64.1946 50.0931 63.6288 50.3713C63.06 50.6466 62.5238 50.9189 62.1121 51.2859C61.9077 51.4724 61.7388 51.6766 61.6085 51.8956C61.487 52.1176 61.407 52.3514 61.3596 52.5793C61.2767 53.0411 61.3241 53.4762 61.4307 53.8314C61.5403 54.1895 61.7033 54.4766 61.8692 54.6808C62.201 55.0982 62.4883 55.2165 62.4735 55.2373Z" fill="#263238"/>
<path d="M89.523 53.7396C89.523 53.7396 89.6504 53.5976 89.837 53.3193C90.0266 53.0411 90.2459 52.5971 90.3614 52.0081C90.4769 51.4191 90.4769 50.6881 90.2873 49.9185C90.1007 49.146 89.7097 48.3498 89.2268 47.5654C88.738 46.7811 88.2137 46.0707 87.7693 45.3959C87.3249 44.724 86.9635 44.0877 86.7206 43.5253C86.4777 42.9629 86.3503 42.4805 86.294 42.1431C86.2674 41.9743 86.2496 41.8441 86.2466 41.7524C86.2407 41.6636 86.2407 41.6162 86.2466 41.6162C86.2614 41.6162 86.2792 41.8027 86.3562 42.1312C86.4303 42.4598 86.5725 42.9304 86.8243 43.4809C87.0761 44.0314 87.4405 44.653 87.8908 45.316C88.3381 45.9819 88.8683 46.6893 89.3631 47.4826C89.8519 48.2728 90.2459 49.0868 90.4325 49.883C90.6191 50.6762 90.6073 51.428 90.474 52.0289C90.3406 52.6327 90.0977 53.0796 89.8904 53.3519C89.7837 53.488 89.6978 53.5887 89.6297 53.6479C89.5645 53.71 89.529 53.7426 89.526 53.7367L89.523 53.7396Z" fill="#263238"/>
<path d="M58.7558 95.0019L56.3237 99.2315C56.3237 99.2315 44.2342 94.8125 37.1571 96.1C34.4672 96.5884 31.5848 102.689 35.507 106.607C39.3315 110.429 46.1746 115.833 59.0076 117.582C59.3276 117.627 64.5858 118.754 64.2599 118.716C63.937 118.678 71.6303 119.894 71.6303 119.894L73.4374 113.069L87.7724 115.315C96.2211 114.738 100.357 105.714 95.2672 102.807C90.5215 100.096 81.5958 99.8797 81.5958 99.8797L78.3609 94.8125L58.7529 95.0019H58.7558Z" fill="#263238"/>
<path d="M71.9148 120.137C71.9533 119.906 72.054 119.284 72.2644 118.009C72.3769 117.328 72.5191 116.499 72.6998 115.543C72.7917 115.067 72.8924 114.558 73.0138 114.022C73.0761 113.756 73.1412 113.48 73.2183 113.202C73.2597 113.063 73.3012 112.921 73.3516 112.782C73.4049 112.64 73.4493 112.498 73.5678 112.361L73.5886 112.465C70.5373 111.382 66.7217 109.952 62.6573 108.241C60.1571 107.179 57.799 106.107 55.7254 104.989C54.6915 104.426 53.7169 103.861 52.8815 103.227C52.0372 102.606 51.2877 101.984 50.5827 101.443C49.1874 100.345 47.9225 99.6342 46.9775 99.3294C46.7464 99.2406 46.5301 99.1903 46.3465 99.1429C46.1628 99.0896 46.0028 99.06 45.8754 99.0423C45.754 99.0186 45.6562 99.0038 45.5822 98.989C45.517 98.9772 45.4814 98.9683 45.4814 98.9653C45.4814 98.9653 45.517 98.9653 45.5822 98.9742C45.6562 98.9831 45.754 98.9979 45.8784 99.0127C46.0087 99.0275 46.1687 99.0512 46.3553 99.1015C46.542 99.1459 46.7612 99.1903 46.9952 99.2761C47.4751 99.4182 48.035 99.6698 48.6542 100.013C49.2733 100.359 49.9398 100.818 50.6478 101.357C51.3588 101.896 52.1142 102.511 52.9555 103.127C53.7909 103.754 54.7567 104.311 55.7905 104.867C57.8613 105.974 60.2193 107.043 62.7166 108.102C66.778 109.813 70.5877 111.255 73.63 112.353L73.7159 112.382L73.6537 112.456C73.5737 112.548 73.5145 112.696 73.4671 112.829C73.4167 112.965 73.3753 113.104 73.3338 113.241C73.2538 113.516 73.1886 113.788 73.1235 114.054C72.999 114.587 72.8924 115.093 72.7976 115.57C72.608 116.523 72.4569 117.349 72.3325 118.027C72.2081 118.698 72.1103 119.225 72.0422 119.595C72.0066 119.776 71.977 119.912 71.9563 120.004C71.9355 120.095 71.9178 120.14 71.9178 120.14L71.9148 120.137Z" fill="#455A64"/>
<path d="M92.4856 103.63C92.4856 103.63 92.4589 103.63 92.4086 103.624C92.3493 103.615 92.2753 103.604 92.1864 103.589C91.9909 103.562 91.7065 103.488 91.3303 103.453C90.5867 103.343 89.4936 103.272 88.1516 103.34C86.8067 103.405 85.2189 103.663 83.4977 104.107C82.6386 104.338 81.744 104.607 80.8286 104.924C79.9132 105.24 78.9801 105.607 78.0232 105.986C77.0664 106.374 76.1007 106.673 75.1616 106.93C74.2225 107.188 73.3071 107.392 72.4303 107.561C70.6765 107.901 69.0828 108.111 67.7408 108.277C66.4018 108.44 65.3146 108.549 64.5651 108.626C64.1978 108.662 63.9104 108.691 63.7001 108.712C63.6083 108.718 63.5342 108.727 63.475 108.73C63.4246 108.733 63.3979 108.733 63.3979 108.73C63.3979 108.73 63.4246 108.721 63.472 108.712C63.5313 108.703 63.6053 108.691 63.6942 108.68C63.9045 108.653 64.1919 108.614 64.5562 108.567C65.3176 108.472 66.3959 108.336 67.726 108.168C69.062 107.99 70.6528 107.768 72.4006 107.422C73.2745 107.25 74.187 107.046 75.1201 106.785C76.0533 106.528 77.0131 106.229 77.964 105.844C78.9208 105.465 79.857 105.098 80.7783 104.782C81.6966 104.465 82.5972 104.198 83.4622 103.971C85.1952 103.532 86.7949 103.284 88.1487 103.231C89.4995 103.174 90.5986 103.263 91.3421 103.393C91.7184 103.438 91.9998 103.521 92.1953 103.559C92.2842 103.58 92.3582 103.598 92.4145 103.609C92.4649 103.621 92.4886 103.63 92.4886 103.633L92.4856 103.63Z" fill="#455A64"/>
<path d="M70.4011 101.173C70.41 101.274 69.7582 101.437 68.6858 101.537C67.6135 101.638 66.1175 101.659 64.4793 101.484C62.8411 101.306 61.3806 100.972 60.3556 100.646C59.3277 100.321 58.7263 100.025 58.7559 99.9271C58.8241 99.711 61.3628 100.386 64.5592 100.717C67.7527 101.07 70.3803 100.948 70.3981 101.173H70.4011Z" fill="#263238"/>
<path d="M81.7322 99.9745C81.7322 99.9745 81.5663 100.031 81.2582 100.102C81.1042 100.134 80.9176 100.182 80.7043 100.247C80.491 100.306 80.2451 100.374 79.9814 100.469C79.4452 100.635 78.8291 100.895 78.1507 101.194C77.4812 101.511 76.7584 101.889 76.0237 102.331C74.5573 103.215 73.3131 104.151 72.4362 104.852C71.9978 105.202 71.6453 105.492 71.4053 105.693C71.1624 105.894 71.0262 106.001 71.0202 105.995C71.0143 105.986 71.1358 105.865 71.3668 105.648C71.5949 105.432 71.9386 105.13 72.3681 104.766C73.2302 104.041 74.4684 103.088 75.9467 102.197C76.6873 101.756 77.416 101.377 78.0944 101.064C78.7787 100.768 79.4067 100.516 79.9518 100.362C80.2214 100.273 80.4702 100.214 80.6865 100.161C80.9027 100.105 81.0923 100.063 81.2493 100.043C81.5604 99.9893 81.7322 99.9656 81.7352 99.9745H81.7322Z" fill="#455A64"/>
<path d="M68.2917 105.992C68.2858 106.01 67.954 105.939 67.4415 105.749C66.929 105.563 66.2418 105.252 65.5012 104.873C64.7902 104.5 64.1444 104.163 63.6201 103.887C63.1401 103.636 62.838 103.488 62.8469 103.467C62.8558 103.449 63.1727 103.562 63.6675 103.79C64.1622 104.015 64.8317 104.358 65.5693 104.734C66.3069 105.11 66.9794 105.435 67.48 105.646C67.9777 105.859 68.2947 105.965 68.2888 105.989L68.2917 105.992Z" fill="#455A64"/>
<path d="M69.6019 95.5025C69.6256 95.5025 69.5841 95.9465 69.5395 96.6598C69.495 97.3731 69.4534 98.3587 69.4742 99.4509C69.495 100.54 69.5752 101.526 69.6464 102.236C69.7206 102.946 69.777 103.387 69.7533 103.39C69.7414 103.39 69.7147 103.284 69.6761 103.089C69.6345 102.893 69.587 102.606 69.5366 102.251C69.4356 101.541 69.3406 100.552 69.3169 99.4539C69.2961 98.3587 69.3525 97.3672 69.4267 96.6509C69.4623 96.2928 69.5009 96.0057 69.5336 95.8074C69.5662 95.6091 69.587 95.4995 69.5989 95.5025H69.6019Z" fill="#455A64"/>
<path d="M70.9461 95.9432C70.9461 95.9432 70.8957 95.9906 70.8187 96.0764C70.7417 96.1623 70.6587 96.3102 70.6291 96.5115C70.6054 96.7098 70.641 96.9703 70.8157 97.1597C70.9846 97.3551 71.3045 97.4113 71.5889 97.3047C71.8733 97.2011 72.0777 96.9496 72.0807 96.6921C72.0896 96.4346 71.9474 96.2126 71.7992 96.0794C71.6452 95.9462 71.4852 95.887 71.3727 95.8722C71.2571 95.8544 71.192 95.8663 71.189 95.8515C71.189 95.8455 71.2512 95.813 71.3756 95.813C71.5 95.813 71.6867 95.8574 71.8674 95.9965C72.0422 96.1356 72.2229 96.3783 72.2199 96.695C72.2258 97.0176 71.9711 97.3314 71.6393 97.4498C71.3104 97.577 70.9135 97.503 70.7091 97.2544C70.5017 97.0117 70.478 96.7128 70.5195 96.4938C70.5669 96.2688 70.6765 96.1119 70.7743 96.032C70.8691 95.9491 70.9401 95.9343 70.9431 95.9403L70.9461 95.9432Z" fill="#455A64"/>
<path d="M74.6254 91.0655C74.6254 91.0655 74.5513 91.178 74.3943 91.3674C74.2403 91.5568 73.9974 91.8173 73.6833 92.1192C73.3693 92.4241 72.9664 92.7585 72.4984 93.0989C72.0244 93.4334 71.4823 93.7708 70.8839 94.0727C70.2825 94.3686 69.6871 94.5995 69.1331 94.7741C68.5791 94.9429 68.0696 95.0612 67.6371 95.1293C67.2046 95.2004 66.8521 95.2359 66.6092 95.2448C66.3662 95.2566 66.23 95.2566 66.23 95.2448C66.23 95.2152 66.7662 95.1856 67.6193 95.0198C68.0459 94.9399 68.5466 94.8097 69.0916 94.638C69.6338 94.4574 70.2233 94.2266 70.8158 93.9336C71.4053 93.6376 71.9444 93.3061 72.4154 92.9835C72.8835 92.652 73.2864 92.3293 73.6093 92.0393C74.2551 91.4591 74.6046 91.0477 74.6254 91.0655Z" fill="#263238"/>
<path d="M80.0344 94.3507C80.0344 94.3981 79.5012 94.3981 78.8732 94.555C78.2422 94.7059 77.7712 94.9545 77.7475 94.9131C77.7238 94.8806 78.18 94.5638 78.8347 94.404C79.4894 94.2412 80.0404 94.3123 80.0344 94.3507Z" fill="#263238"/>
<g opacity="0.3">
<path d="M67.6016 95.0911C70.1552 94.6323 72.5311 93.2619 74.2048 91.2788C74.5218 92.2082 74.2581 93.3092 73.556 93.9959C74.3085 94.3511 75.1883 94.1143 76.0148 94.0018C76.8413 93.8894 77.8456 94.0018 78.2396 94.7329C74.5544 95.0733 70.8484 95.1798 67.1514 95.0496" fill="black"/>
</g>
<path d="M60.2431 89.2927C60.2194 89.3252 59.852 88.8132 58.9663 88.4639C58.5308 88.2893 57.968 88.1739 57.3459 88.1916C56.7238 88.2094 56.0454 88.3722 55.4085 88.7096C54.1169 89.3785 53.3526 90.521 52.766 91.255C52.4905 91.6398 52.3098 91.9832 52.1854 92.217C52.061 92.4538 51.9899 92.584 51.981 92.5781C51.9721 92.5751 52.0225 92.436 52.1321 92.1903C52.2417 91.9476 52.4076 91.5925 52.6771 91.1929C52.9497 90.7933 53.3052 90.3523 53.7169 89.8639C54.1376 89.3874 54.6797 88.9168 55.3374 88.5734C55.992 88.2271 56.7001 88.0584 57.3429 88.0496C57.9857 88.0377 58.5634 88.1709 59.0078 88.3633C59.458 88.5498 59.7721 88.7954 59.9705 88.976C60.0683 89.0677 60.1394 89.1447 60.1838 89.2009C60.2283 89.2572 60.249 89.2868 60.246 89.2897L60.2431 89.2927Z" fill="#263238"/>
<path d="M68.0012 60.9023L63.8628 61.7814L65.9305 69.5154L73.2536 71.0871L78.2778 67.5235L78.968 63.2613L74.6607 61.6334L68.0012 60.9023Z" fill="#FFBE9D"/>
<path d="M65.0892 61.4619C65.0892 61.4619 67.8886 69.5837 73.0609 68.8349C78.2333 68.086 77.8007 62.8205 77.8007 62.8205C77.8007 62.8205 83.1982 64.4632 84.869 66.2154C86.5368 67.9647 85.5592 71.768 85.5592 71.768L84.158 78.6407L81.1127 91.806C81.1127 91.806 82.2769 95.3963 79.3027 96.2842L78.3636 94.8102L60.5093 95.3134C60.5093 95.3134 56.6908 99.7117 55.4999 98.1963C54.309 96.6779 53.1626 93.721 53.1626 93.721L61.3566 62.4298L65.0862 61.459L65.0892 61.4619Z" fill="#455A64"/>
<path d="M83.453 65.1763C83.5981 65.2591 96.129 74.3606 96.129 74.3606C96.129 74.3606 95.1455 81.846 101.156 80.6532C101.156 80.6532 98.727 86.9132 95.4388 85.599C94.5027 85.2261 82.9553 77.9213 82.9553 77.9213L80.5024 72.6972L83.4559 65.1763H83.453Z" fill="#455A64"/>
<path d="M65.0892 61.8643C65.0892 61.8643 64.8048 61.8731 64.3279 61.9175C61.875 62.1543 52.822 64.0279 51.9836 70.4093C51.5452 73.7479 51.4208 83.5124 50.9438 87.6058C50.9438 87.6058 51.7022 93.2946 51.9836 94.3512C52.4843 96.2278 61.567 93.2236 61.567 93.2236L61.5847 75.1539L64.8048 61.8702" fill="#455A64"/>
<path d="M59.3598 78.2647C59.3598 78.2647 59.3687 78.315 59.3746 78.4127C59.3746 78.5074 59.3805 78.6495 59.4042 78.83C59.4427 79.1911 59.5524 79.7091 59.7864 80.3159C60.0175 80.9256 60.37 81.6182 60.7225 82.4114C60.8973 82.808 61.0691 83.2343 61.1965 83.693C61.3209 84.1518 61.4038 84.6402 61.4424 85.1433C61.5194 86.1497 61.4424 87.1057 61.3713 87.967C61.2972 88.8283 61.2261 89.6067 61.1165 90.2549C61.0128 90.9031 60.8765 91.4211 60.758 91.7674C60.6988 91.942 60.6484 92.0752 60.6099 92.164C60.5714 92.2528 60.5507 92.2972 60.5448 92.2972C60.5329 92.2913 60.601 92.1019 60.6988 91.7497C60.7966 91.3974 60.9151 90.8824 61.0069 90.2372C61.0987 89.5919 61.1609 88.8165 61.2261 87.9522C61.2913 87.0909 61.3624 86.1408 61.2854 85.1522C61.2498 84.6579 61.1669 84.1814 61.0484 83.7315C60.9269 83.2816 60.761 82.8613 60.5922 82.4647C60.2485 81.6744 59.9049 80.97 59.6827 80.3484C59.4605 79.7269 59.3628 79.1971 59.342 78.83C59.3272 78.6465 59.3331 78.5045 59.342 78.4068C59.348 78.3091 59.3539 78.2588 59.3598 78.2588V78.2647Z" fill="#263238"/>
<path d="M59.7687 75.9883C59.7924 75.9883 59.8161 76.4471 59.9197 77.1811C60.0205 77.9152 60.2189 78.9215 60.5803 79.993C60.6722 80.2593 60.764 80.5198 60.8647 80.7655C60.8884 80.8217 60.9121 80.9016 60.9388 80.9342C60.9743 80.9904 61.0099 81.0437 61.0454 81.097C61.1136 81.2065 61.1788 81.3189 61.235 81.4314C61.4661 81.8784 61.5727 82.3312 61.5698 82.713C61.5698 83.0948 61.472 83.3938 61.395 83.5862C61.3002 83.7756 61.241 83.8733 61.2321 83.8674C61.1906 83.8555 61.4809 83.45 61.4631 82.713C61.4513 82.349 61.3417 81.9227 61.1136 81.4965C61.0573 81.39 60.9921 81.2834 60.924 81.1769C60.8884 81.1236 60.8529 81.0703 60.8173 81.0141C60.767 80.9371 60.7581 80.8868 60.7285 80.8217C60.6248 80.5731 60.53 80.3097 60.4382 80.0403C60.0738 78.957 59.8901 77.9359 59.8161 77.193C59.7746 76.823 59.7657 76.5181 59.7598 76.3109C59.7598 76.1008 59.7627 75.9883 59.7746 75.9854L59.7687 75.9883Z" fill="#263238"/>
<path d="M60.1361 73.2746C60.1124 73.2835 59.9762 72.9046 59.7096 72.3215C59.4429 71.7355 59.0252 70.9511 58.4565 70.152C57.8847 69.3528 57.2774 68.7017 56.8123 68.2577C56.3472 67.8137 56.0332 67.5621 56.051 67.5444C56.0569 67.5355 56.1428 67.5917 56.288 67.6953C56.4361 67.7989 56.6405 67.9647 56.8864 68.1778C57.3752 68.604 58.0032 69.2522 58.5809 70.0632C59.1556 70.8712 59.5644 71.6792 59.8103 72.2801C59.9317 72.582 60.0206 72.8277 60.071 73.0023C60.1243 73.1769 60.148 73.2746 60.1361 73.2775V73.2746Z" fill="#263238"/>
<path d="M85.8143 67.9703C85.835 67.9732 85.8054 68.2485 85.7521 68.6865C85.6987 69.1276 85.6247 69.7343 85.5536 70.4062C85.4825 71.0781 85.4321 71.6878 85.3936 72.1288C85.3551 72.5698 85.3284 72.8451 85.3047 72.8421C85.284 72.8421 85.2722 72.5669 85.284 72.1229C85.2959 71.6789 85.3314 71.0633 85.3995 70.3884C85.4706 69.7136 85.5625 69.1068 85.6424 68.6688C85.7224 68.2307 85.7906 67.9643 85.8113 67.9673L85.8143 67.9703Z" fill="#263238"/>
<path d="M88.3882 75.5713C88.3911 75.6009 87.9971 75.6364 87.3898 75.811C86.7855 75.9768 85.9709 76.3467 85.3014 77.0334C84.9696 77.3768 84.7148 77.7586 84.5045 78.1167C84.309 78.4837 84.1549 78.8271 84.0453 79.1231C83.995 79.2651 83.9446 79.4013 83.9001 79.5256C83.8676 79.6381 83.835 79.7387 83.8054 79.8334C83.752 80.0021 83.7165 80.0968 83.7076 80.0939C83.6957 80.0939 83.7106 79.9932 83.7491 79.8186C83.7698 79.7209 83.7935 79.6144 83.8172 79.5019C83.8557 79.3746 83.8972 79.2355 83.9416 79.0875C84.0394 78.7827 84.1845 78.4275 84.3771 78.0486C84.5845 77.6787 84.8452 77.282 85.1888 76.9269C85.882 76.2135 86.7381 75.8465 87.3573 75.7045C87.5143 75.666 87.6565 75.6364 87.7809 75.6186C87.9053 75.5979 88.0149 75.5831 88.1038 75.5772C88.2815 75.5624 88.3822 75.5594 88.3822 75.5713H88.3882Z" fill="#263238"/>
<path d="M96.6888 83.8113C96.6888 83.8113 96.6088 83.6988 96.4874 83.4798C96.4252 83.3703 96.3541 83.2371 96.283 83.0743C96.2089 82.9115 96.12 82.731 96.043 82.5208C95.8712 82.1065 95.7083 81.6003 95.5661 81.0261C95.4328 80.449 95.3232 79.8067 95.2758 79.1259C95.2343 78.4452 95.255 77.791 95.3113 77.202C95.3765 76.613 95.4713 76.0891 95.5838 75.657C95.6312 75.438 95.6964 75.2486 95.7497 75.0769C95.8001 74.9052 95.8534 74.7631 95.8978 74.6477C95.9867 74.4139 96.043 74.2896 96.0519 74.2925C96.0815 74.3014 95.883 74.8164 95.6905 75.6807C95.5927 76.1128 95.5098 76.6337 95.4535 77.2139C95.4061 77.797 95.3883 78.4392 95.4328 79.1141C95.4802 79.786 95.5838 80.4223 95.7083 80.9936C95.8416 81.5619 95.9926 82.068 96.1497 82.4824C96.4577 83.3141 96.7214 83.7965 96.6947 83.8113H96.6888Z" fill="#263238"/>
<path d="M93.4306 81.5855C93.4306 81.5855 93.3803 81.476 93.3151 81.2688C93.2529 81.0616 93.1788 80.7538 93.1285 80.369C93.0248 79.6025 93.0455 78.4984 93.4069 77.3619C93.7624 76.2223 94.3815 75.3078 94.9207 74.7454C95.1992 74.4642 95.5043 74.3133 95.7354 74.3073C95.8479 74.3044 95.9338 74.334 95.9872 74.3547C96.0375 74.3843 96.0642 74.402 96.0612 74.405C96.0553 74.4198 95.9486 74.3429 95.7413 74.3665C95.5339 74.3872 95.2584 74.5412 95.0007 74.8194C94.4941 75.3877 93.9016 76.2904 93.555 77.4063C93.1996 78.5192 93.161 79.5965 93.2381 80.3543C93.3121 81.1179 93.4602 81.5737 93.4306 81.5826V81.5855Z" fill="#263238"/>
<path d="M73.0581 80.1115C73.0581 80.1115 73.0433 80.2388 72.984 80.4637C72.9573 80.5762 72.9188 80.7123 72.8626 80.8662C72.8063 81.0201 72.7529 81.2007 72.6641 81.3872C72.5071 81.7719 72.279 82.21 71.9857 82.6717C71.6865 83.1305 71.3162 83.61 70.8748 84.0628C70.4304 84.5127 69.9594 84.8916 69.5062 85.2024C69.05 85.5043 68.6145 85.744 68.2353 85.9068C68.0487 85.9986 67.8709 86.0578 67.7169 86.117C67.5628 86.1762 67.4295 86.2176 67.317 86.2472C67.0948 86.3093 66.9704 86.3389 66.9674 86.3271C66.9585 86.2975 67.4532 86.1643 68.1879 85.8091C68.5582 85.6345 68.9789 85.3888 69.4232 85.084C69.8617 84.7702 70.3238 84.3943 70.7622 83.9533C71.1947 83.5064 71.5621 83.0358 71.8642 82.5918C72.1575 82.139 72.3945 81.7127 72.5604 81.3398C72.8981 80.5969 73.0225 80.0996 73.0521 80.1085L73.0581 80.1115Z" fill="#263238"/>
<g opacity="0.3">
<path d="M62.7995 83.0446C62.2307 80.9698 61.6619 78.892 61.0931 76.8142C61.0102 76.5093 60.871 76.1541 60.5599 76.0979C60.2726 76.0476 60.0059 76.3169 59.9526 76.607C59.8993 76.8941 59.9082 77.2256 59.9378 77.5186C60.0711 78.8712 60.1778 79.7888 60.8087 80.8366C62.0381 82.8788 61.2264 83.8704 61.2264 83.8704C61.3242 86.3566 61.1139 89.7486 60.3407 92.3029L61.0724 95.3841C61.7656 93.0932 63.3505 91.1841 63.6171 88.8044C63.8333 86.8657 63.3149 84.927 62.7995 83.0446Z" fill="black"/>
</g>
<g opacity="0.3">
<path d="M84.1553 78.6788C86.1845 79.7325 87.9886 81.1887 89.9645 82.3164C89.1884 80.7033 87.8968 79.108 86.3237 78.2526C85.9001 78.0217 85.4261 77.8234 84.9492 77.8885C84.4722 77.9566 84.1256 78.2259 84.1997 78.7025" fill="black"/>
</g>
<g opacity="0.3">
<path d="M95.7855 74.2186C95.0923 74.2008 94.568 74.8313 94.2303 75.4351C93.2734 77.137 92.8765 79.1467 93.1105 81.0824C93.152 81.4317 93.2823 81.852 93.6289 81.92C93.8807 81.9703 94.1295 81.7868 94.2421 81.556C94.3547 81.3251 94.3576 81.0617 94.3576 80.8042C94.3547 79.6173 94.2777 78.4245 94.4465 77.2494C94.6154 76.0744 95.0597 74.8934 95.9366 74.0913" fill="black"/>
</g>
<path d="M64.4493 76.4413C64.4493 76.4413 64.473 76.4354 64.5175 76.4324C64.5708 76.4295 64.636 76.4235 64.7219 76.4176C64.9115 76.4087 65.1781 76.3939 65.5247 76.3762C66.2327 76.3436 67.2607 76.2963 68.5582 76.2371C71.174 76.1246 74.8858 75.9677 79.3027 75.7812H79.3738V75.8493C79.4627 79.4603 79.5634 83.6129 79.6701 88.0142C79.673 88.1622 79.676 88.3102 79.6819 88.4552V88.5322H79.6049C74.7377 88.5854 70.1993 88.988 66.3779 89.5178L66.3186 89.5267L66.3038 89.4704C65.2522 85.6049 64.867 82.2721 64.7249 79.9487C64.6538 78.7855 64.6419 77.8679 64.6419 77.2464C64.6419 76.9356 64.6478 76.6958 64.6508 76.533C64.6508 76.4561 64.6538 76.3969 64.6567 76.3495C64.6567 76.3081 64.6597 76.2874 64.6626 76.2874C64.6626 76.2874 64.6656 76.3081 64.6686 76.3495C64.6686 76.3969 64.6686 76.4561 64.6745 76.533C64.6745 76.7018 64.6804 76.9385 64.6834 77.2434C64.6952 77.8679 64.7219 78.7825 64.8019 79.9428C64.9648 82.2603 65.3677 85.5812 66.4312 89.4349L66.3571 89.3875C70.1816 88.8429 74.7288 88.4315 79.6019 88.3782L79.5249 88.4582C79.522 88.3131 79.519 88.1651 79.5131 88.0171C79.4124 83.6189 79.3146 79.4633 79.2317 75.8523L79.3027 75.9204C74.8858 76.0861 71.174 76.2223 68.5552 76.3199C67.2547 76.3643 66.2297 76.3969 65.5188 76.4206C65.1722 76.4295 64.9056 76.4383 64.716 76.4413C64.6301 76.4413 64.5619 76.4413 64.5086 76.4413C64.4612 76.4413 64.4375 76.4413 64.4375 76.4413H64.4493Z" fill="white"/>
<path d="M68.3539 85.4154C68.3124 85.4214 67.9421 83.4235 67.5274 80.9491C67.1126 78.4747 66.8105 76.462 66.852 76.4561C66.8934 76.4501 67.2637 78.448 67.6785 80.9224C68.0932 83.3968 68.3954 85.4066 68.3539 85.4154Z" fill="white"/>
<path d="M68.8012 89.2309C68.7598 89.2368 68.6117 88.5146 68.4695 87.6178C68.3302 86.7209 68.2502 85.9869 68.2917 85.981C68.3332 85.9751 68.4813 86.6973 68.6235 87.5941C68.7627 88.4909 68.8427 89.225 68.8012 89.2309Z" fill="white"/>
<path d="M71.3517 83.4325C71.3517 83.4325 71.3132 83.3378 71.2688 83.1572C71.2244 82.9796 71.1681 82.7162 71.1059 82.3936C70.9814 81.7454 70.8422 80.8456 70.7415 79.8452C70.6408 78.8448 70.6023 77.9331 70.5963 77.2731C70.5934 76.9445 70.5963 76.6782 70.6052 76.4917C70.6111 76.3082 70.623 76.2046 70.6319 76.2046C70.6556 76.2046 70.6704 76.6101 70.7059 77.2672C70.7415 77.9242 70.7978 78.83 70.8955 79.8274C70.9963 80.8249 71.1177 81.7217 71.2155 82.3728C71.3103 83.024 71.3754 83.4236 71.3517 83.4295V83.4325Z" fill="white"/>
<path d="M71.0172 88.8343C70.9757 88.8402 70.8246 87.902 70.6794 86.7417C70.5343 85.5815 70.4543 84.6373 70.4958 84.6314C70.5373 84.6255 70.6883 85.5637 70.8335 86.724C70.9787 87.8842 71.0586 88.8284 71.0172 88.8343Z" fill="white"/>
<path d="M74.3646 88.5944C74.3646 88.5944 74.332 88.4227 74.3054 88.106C74.2758 87.7656 74.2372 87.3158 74.1898 86.7741C74.0921 85.6494 73.9469 84.0984 73.7514 82.3877C73.5529 80.6769 73.3426 79.1318 73.1826 78.016C73.1056 77.4773 73.0404 77.0304 72.993 76.693C72.9486 76.3792 72.9308 76.2075 72.9397 76.2046C72.9516 76.2046 72.9901 76.3733 73.0523 76.6841C73.1145 76.9949 73.1974 77.4448 73.2893 78.0012C73.4789 79.1141 73.707 80.6591 73.9055 82.3728C74.101 84.0836 74.2284 85.6405 74.2995 86.7682C74.335 87.3306 74.3557 87.7893 74.3676 88.1031C74.3765 88.4198 74.3794 88.5944 74.3676 88.5944H74.3646Z" fill="white"/>
<path d="M77.2111 88.7545C77.2111 88.7545 77.1933 88.5769 77.1904 88.2572C77.1874 87.9109 77.1844 87.4551 77.1785 86.9046C77.1667 85.7621 77.137 84.1815 77.0541 82.4412C76.9712 80.6978 76.8527 79.1232 76.7549 77.9837C76.7075 77.4332 76.669 76.9803 76.6394 76.634C76.6127 76.3143 76.6038 76.1397 76.6127 76.1368C76.6216 76.1338 76.6542 76.3114 76.6986 76.6281C76.746 76.9448 76.8023 77.4036 76.8645 77.9718C76.9889 79.1084 77.1282 80.686 77.2111 82.4323C77.2941 84.1786 77.3059 85.7591 77.2911 86.9046C77.2822 87.4758 77.2704 87.9405 77.2526 88.2602C77.2378 88.5798 77.223 88.7574 77.2141 88.7574L77.2111 88.7545Z" fill="white"/>
<g opacity="0.3">
<path d="M67.2104 86.3568C67.6607 86.6647 68.2265 86.7712 68.7716 86.7357C69.3167 86.7002 69.844 86.5315 70.3476 86.3213C71.0141 86.0461 71.6659 85.685 72.1398 85.1403C72.6494 84.5602 72.9249 83.8055 73.0434 83.0418C73.1648 82.2812 73.1411 81.5027 73.1204 80.7332C73.1204 80.7006 73.1204 80.6651 73.0967 80.6355C73.0611 80.5852 72.9782 80.5911 72.9278 80.6325C72.8775 80.674 72.8597 80.7361 72.839 80.7953C71.9591 83.3733 69.7492 85.46 67.1245 86.1911" fill="black"/>
</g>
<path d="M65.3736 111.145L63.5636 107.753L59.4933 88.7187C59.4933 88.7187 55.7488 86.5728 52.6857 91.2789C52.5613 91.4683 56.9012 105.101 58.1128 108.893L58.2817 112.519C58.2817 112.519 58.0654 116.813 58.2817 117.189C58.4979 117.565 59.0341 117.781 59.0341 117.781C59.0341 117.781 58.8741 118.856 60.1095 118.962C60.1095 118.962 60.2161 120.143 61.1315 119.983C62.0439 119.823 62.3668 119.231 62.3668 119.231C62.3668 119.231 62.3668 120.735 63.1726 120.572C63.9783 120.412 64.1087 119.767 64.2598 119.551C64.4079 119.335 64.5797 117.136 64.5797 117.136L64.5649 113.498L66.6623 115.197C67.2695 115.499 68.1553 115.872 68.6589 115.422L65.3736 111.142V111.145Z" fill="#FFBE9D"/>
<path d="M64.5622 113.321C64.6067 113.315 64.7344 114.194 64.6809 115.28C64.6572 115.783 64.6334 116.242 64.6156 116.662C64.5978 117.015 64.5859 117.234 64.5622 117.237C64.5147 117.237 64.4731 116.355 64.5265 115.277C64.58 114.2 64.5206 113.33 64.5622 113.324V113.321Z" fill="#EB996E"/>
<path d="M62.2512 115.854C62.2928 115.854 62.3403 116.66 62.3522 117.651C62.367 118.646 62.3433 119.451 62.2987 119.451C62.2572 119.451 62.2097 118.646 62.1978 117.654C62.1829 116.66 62.2067 115.854 62.2512 115.854Z" fill="#EB996E"/>
<path d="M60.3145 116.514C60.3561 116.511 60.4244 117.077 60.3561 117.775C60.2908 118.474 60.1126 119.015 60.074 119.003C60.0295 118.992 60.1364 118.444 60.2017 117.76C60.27 117.077 60.27 116.517 60.3145 116.514Z" fill="#EB996E"/>
<path d="M59.0671 116.094C59.1087 116.097 59.1087 116.464 59.0641 116.911C59.0196 117.358 58.9484 117.716 58.9068 117.713C58.8652 117.71 58.8652 117.343 58.9098 116.896C58.9543 116.449 59.0255 116.091 59.0671 116.094Z" fill="#EB996E"/>
<path d="M63.135 41.9326L60.4096 37.1317C61.6153 35.1753 62.3114 32.8726 62.3114 30.41C62.3114 23.3212 56.5585 17.5732 49.4636 17.5732C42.3687 17.5732 36.6157 23.3212 36.6157 30.41C36.6157 37.4988 42.3687 43.2467 49.4636 43.2467C52.426 43.2467 55.1543 42.2433 57.3258 40.5592V40.5651L63.135 41.9326Z" fill="white"/>
<path d="M63.1346 41.9328C62.865 41.8706 61.0224 41.4503 57.3135 40.6038C57.2928 40.5979 57.2809 40.5772 57.2839 40.5594C57.2839 40.5535 57.2868 40.5476 57.2898 40.5446V40.5387L57.3491 40.592C56.6174 41.1603 55.7375 41.7167 54.7066 42.1844C53.6727 42.6431 52.4908 43.0161 51.1814 43.1907C50.5297 43.2736 49.8483 43.3268 49.1462 43.2943C48.7967 43.2736 48.4412 43.2647 48.0798 43.2351C47.7213 43.1818 47.3599 43.1256 46.9926 43.0723C45.538 42.7852 44.0509 42.2347 42.6616 41.3734C41.2752 40.515 39.9895 39.3518 38.9615 37.9222C37.9336 36.4956 37.1545 34.8026 36.7901 32.9616C36.4287 31.1235 36.4583 29.1552 36.9412 27.2491C37.427 25.3489 38.3365 23.496 39.6962 21.9688L40.2206 21.3916C40.3924 21.1963 40.5997 21.0364 40.7864 20.8588C40.9819 20.6901 41.1596 20.5007 41.37 20.3498L41.9861 19.888C42.1846 19.7282 42.4068 19.598 42.626 19.4648C42.8452 19.3316 43.0615 19.2013 43.2777 19.0682C43.5058 18.9586 43.7339 18.8462 43.9591 18.7367C44.1872 18.6301 44.4094 18.5058 44.6493 18.4318C46.5156 17.6918 48.5063 17.4107 50.4112 17.5468C52.316 17.683 54.1349 18.2305 55.699 19.1066C57.2661 19.9798 58.5873 21.143 59.6094 22.4424C60.6314 23.7417 61.3542 25.1772 61.8015 26.6068C62.2459 28.0423 62.3644 29.466 62.3614 30.7831C62.3229 32.1032 62.083 33.3197 61.7334 34.3882C61.3809 35.4567 60.9217 36.3772 60.4448 37.1527V37.1142C62.1659 40.1954 63.0102 41.7019 63.1376 41.9328C63.0072 41.7049 62.1422 40.2072 60.3796 37.1527C60.3737 37.1408 60.3737 37.126 60.3796 37.1142C60.8476 36.3417 61.3009 35.4241 61.6445 34.3615C61.9882 33.299 62.2222 32.0914 62.2548 30.7802C62.2548 29.4719 62.1304 28.0631 61.689 26.6423C61.2416 25.2275 60.5247 23.8098 59.5086 22.5252C58.4955 21.2407 57.1861 20.0923 55.6338 19.2309C54.0875 18.3637 52.2863 17.828 50.4052 17.6948C48.5241 17.5616 46.5571 17.8398 44.7115 18.5739C44.4745 18.6479 44.2583 18.7722 44.0302 18.8758C43.805 18.9853 43.5799 19.0948 43.3548 19.2043C43.1415 19.3345 42.9252 19.4648 42.7119 19.595C42.4957 19.7252 42.2794 19.8525 42.0809 20.0123L41.4707 20.4682C41.2633 20.6161 41.0885 20.8026 40.896 20.9713C40.7123 21.1459 40.5079 21.3058 40.3361 21.4982L39.8177 22.0694C38.4727 23.5789 37.5751 25.4111 37.0952 27.2876C36.6183 29.17 36.5857 31.1176 36.9412 32.932C37.2996 34.7493 38.0699 36.4245 39.083 37.8393C40.0991 39.2541 41.367 40.4085 42.7386 41.2609C44.1102 42.1163 45.5825 42.6668 47.0222 42.9539C47.3866 43.0101 47.745 43.0664 48.0975 43.1197C48.453 43.1493 48.8055 43.1611 49.1521 43.1818C49.8453 43.2173 50.5237 43.167 51.1695 43.0871C52.467 42.9184 53.6431 42.5543 54.6711 42.1044C55.699 41.6457 56.5729 41.0951 57.3046 40.5357C57.3224 40.5239 57.3461 40.5269 57.3579 40.5417C57.3698 40.5565 57.3668 40.5742 57.3579 40.589V40.5949L57.3313 40.5357C61.0283 41.4296 62.868 41.8765 63.1346 41.9416V41.9328Z" fill="#263238"/>
<path d="M45.6891 27.9651C45.4996 27.8645 45.2685 27.829 45.0493 27.7994C44.365 27.7135 43.7814 27.9059 43.2837 28.4505C44.676 29.2556 46.566 30.3241 47.9198 31.0966L49.6291 30.1199C48.3997 29.4421 46.8534 28.5897 45.6891 27.9651Z" fill="#E8505B"/>
<g opacity="0.3">
<path d="M45.6891 27.9651C45.4996 27.8645 45.2685 27.829 45.0493 27.7994C44.365 27.7135 43.7814 27.9059 43.2837 28.4505C44.676 29.2556 46.566 30.3241 47.9198 31.0966L49.6291 30.1199C48.3997 29.4421 46.8534 28.5897 45.6891 27.9651Z" fill="black"/>
</g>
<path d="M50.9232 32.8962C50.8788 32.8607 50.8699 32.8518 50.861 32.8459C50.4344 32.6002 49.9841 32.1326 49.5546 32.1415C49.3916 32.1444 49.2139 32.2865 48.7903 32.5233C48.0852 32.9199 46.8973 33.6155 46.1863 34.0091C45.5791 34.3436 44.8414 34.5952 44.1512 34.3761C43.8164 34.2696 43.5469 34.0831 43.1943 33.799C45.8397 32.2658 48.3667 30.8036 50.9232 29.3237C50.8817 29.2083 50.8432 29.0988 50.8047 28.9863C50.4907 28.0599 50.8284 27.0387 51.6312 26.4734C52.4399 25.9051 53.5331 25.9466 54.3092 26.574C55.0646 27.1867 55.3223 28.2404 54.9402 29.1402C54.5551 30.0489 53.6338 30.5787 52.6562 30.478C52.4873 30.4603 52.2948 30.5076 52.1407 30.5816C51.8475 30.7208 51.572 30.9013 51.2194 31.1055C51.8149 31.3719 52.2178 31.7981 52.911 31.733C53.8708 31.6442 54.7239 32.3398 55.0143 33.2662C55.2986 34.1719 54.9669 35.1575 54.1907 35.714C53.4086 36.2734 52.3422 36.2615 51.569 35.6844C50.8077 35.1131 50.4966 34.1157 50.8017 33.2159C50.8373 33.1123 50.8788 33.0117 50.9202 32.8992L50.9232 32.8962ZM52.8961 29.3385C53.4975 29.3385 53.9715 28.8649 53.9656 28.2611C53.9596 27.684 53.4827 27.2074 52.905 27.2045C52.3214 27.2045 51.8208 27.7047 51.8297 28.2878C51.8386 28.862 52.3185 29.3356 52.8991 29.3356L52.8961 29.3385ZM52.8843 34.9859C53.459 34.9947 53.9508 34.5241 53.9656 33.9499C53.9804 33.3432 53.5183 32.8607 52.9169 32.8518C52.3363 32.8459 51.8504 33.3047 51.8297 33.8818C51.809 34.462 52.3007 34.977 52.8873 34.9859H52.8843Z" fill="#E8505B"/>
<path d="M50.0227 31.0613C49.996 31.0702 50.0079 30.8601 49.7916 30.7032C49.688 30.6292 49.525 30.5937 49.3739 30.6529C49.2229 30.7091 49.0925 30.8719 49.0955 31.0584C49.0955 31.2478 49.2229 31.4076 49.3739 31.4639C49.528 31.5231 49.6909 31.4875 49.7916 31.4136C50.0079 31.2567 49.996 31.0495 50.0227 31.0554C50.0316 31.0554 50.0464 31.0998 50.0375 31.1856C50.0257 31.2685 49.9812 31.3958 49.8598 31.4994C49.7413 31.603 49.5339 31.6681 49.3265 31.5941C49.1221 31.529 48.9385 31.31 48.9414 31.0554C48.9414 30.7979 49.1221 30.5818 49.3265 30.5167C49.5339 30.4457 49.7413 30.5108 49.8598 30.6114C49.9812 30.715 50.0286 30.8423 50.0405 30.9252C50.0523 31.011 50.0346 31.0554 50.0257 31.0554L50.0227 31.0613Z" fill="#263238"/>
<path d="M51.913 30.6853C51.913 30.6853 51.8597 30.7267 51.756 30.7889C51.6198 30.8717 51.4746 30.9576 51.3176 31.0552C50.894 31.3039 50.3993 31.5939 49.8571 31.9136C49.3091 32.2273 48.8144 32.5115 48.3878 32.7542C48.2249 32.843 48.0768 32.9258 47.9375 33.0028C47.8309 33.059 47.7716 33.0916 47.7687 33.0857C47.7657 33.0798 47.822 33.0442 47.9257 32.9821C48.0619 32.8992 48.2071 32.8134 48.3641 32.7157C48.7877 32.4671 49.2795 32.177 49.8246 31.8574C50.3726 31.5436 50.8673 31.2595 51.2939 31.0168C51.4568 30.928 51.605 30.8451 51.7442 30.7681C51.8508 30.7119 51.9101 30.6793 51.913 30.6853Z" fill="#263238"/>
<path d="M50.6272 29.5015C50.6272 29.5015 50.6035 29.5192 50.5561 29.5518C50.4909 29.5903 50.4228 29.6347 50.3428 29.685C50.1295 29.8152 49.8659 29.9721 49.5548 30.1615C48.8883 30.5611 47.967 31.1116 46.9361 31.6947C45.92 32.2719 45.0016 32.7928 44.2966 33.1924C43.9796 33.37 43.713 33.5179 43.4938 33.6393C43.4108 33.6837 43.3397 33.7222 43.2745 33.7577C43.2242 33.7843 43.1975 33.7962 43.1946 33.7962C43.1916 33.7962 43.2183 33.7784 43.2686 33.7488C43.3338 33.7103 43.4049 33.6689 43.4819 33.6186C43.6982 33.4913 43.9618 33.3374 44.2758 33.1539C44.9809 32.7484 45.8963 32.2215 46.9064 31.6414C47.9373 31.0583 48.8616 30.5137 49.5341 30.123C49.8481 29.9425 50.1147 29.7886 50.3309 29.6643C50.4109 29.6199 50.485 29.5784 50.5502 29.5429C50.6005 29.5163 50.6272 29.5015 50.6272 29.5044V29.5015Z" fill="#263238"/>
<path d="M99.5659 45.6206L100.129 46.6477L101.157 47.2071L100.129 47.7694L99.5659 48.7965L99.003 47.7694L97.978 47.2071L99.003 46.6477L99.5659 45.6206Z" fill="#E8505B"/>
<path d="M103.322 31.5527L103.909 31.5143L104.38 31.168L104.418 31.7511L104.765 32.2217L104.181 32.2601L103.71 32.6094L103.672 32.0234L103.322 31.5527Z" fill="#E8505B"/>
<path d="M198.077 78.2588L198.664 78.2203L199.135 77.874L199.173 78.4571L199.52 78.9277L198.936 78.9662L198.465 79.3125L198.427 78.7294L198.077 78.2588Z" fill="#E8505B"/>
<path d="M131.332 49.0361L131.918 48.9977L132.389 48.6514L132.428 49.2345L132.774 49.7051L132.191 49.7435L131.72 50.0928L131.681 49.5068L131.332 49.0361Z" fill="#E8505B"/>
<path d="M134.892 24.0288L135.476 23.9904L135.947 23.6411L135.985 24.2272L136.335 24.6978L135.748 24.7362L135.277 25.0825L135.239 24.4995L134.892 24.0288Z" fill="#E8505B"/>
<path d="M116.955 39.5501L117.844 39.0381L118.318 38.1265L118.827 39.0174L119.74 39.488L118.851 40L118.377 40.9087L117.865 40.0208L116.955 39.5501Z" fill="#E8505B"/>
<path d="M191.622 90.0149L192.511 89.5059L192.982 88.5942L193.494 89.4822L194.407 89.9558L193.515 90.4648L193.044 91.3765L192.532 90.4885L191.622 90.0149Z" fill="#E8505B"/>
<path d="M187.158 73.7806L188.049 73.2715L188.52 72.3599L189.033 73.2478L189.942 73.7214L189.054 74.2305L188.583 75.1421L188.07 74.2541L187.158 73.7806Z" fill="#E8505B"/>
</g>
<defs>
<clipPath id="clip0_5_79539">
<rect width="205" height="120" fill="white" transform="translate(0.477051 0.583984)"/>
</clipPath>
</defs>
</svg>
