<svg width="15" height="13" viewBox="0 0 15 13" fill="none" xmlns="http://www.w3.org/2000/svg">
<path d="M6.64096 0.647633L0.81877 10.7312C0.713601 10.9133 0.658223 11.1199 0.658203 11.3302C0.658184 11.5405 0.713524 11.747 0.818659 11.9292C0.923795 12.1113 1.07502 12.2625 1.25713 12.3676C1.43925 12.4728 1.64583 12.5281 1.85611 12.5281H13.4996C13.7098 12.5281 13.9164 12.4728 14.0985 12.3676C14.2806 12.2625 14.4319 12.1113 14.537 11.9292C14.6421 11.747 14.6975 11.5405 14.6975 11.3302C14.6974 11.1199 14.6421 10.9133 14.5369 10.7312L8.71533 0.647633C8.61021 0.465573 8.45903 0.314389 8.27696 0.209277C8.0949 0.104165 7.88837 0.0488281 7.67814 0.0488281C7.46792 0.0488281 7.26139 0.104165 7.07933 0.209277C6.89726 0.314389 6.74608 0.465573 6.64096 0.647633Z" fill="#FF5555"/>
<path d="M7.75469 3.75781H7.60281C7.2289 3.75781 6.92578 4.06093 6.92578 4.43484V7.67094C6.92578 8.04485 7.2289 8.34797 7.60281 8.34797H7.75469C8.1286 8.34797 8.43172 8.04485 8.43172 7.67094V4.43484C8.43172 4.06093 8.1286 3.75781 7.75469 3.75781Z" fill="white"/>
<path d="M7.67875 10.9141C8.0946 10.9141 8.43172 10.577 8.43172 10.1612C8.43172 9.74532 8.0946 9.4082 7.67875 9.4082C7.2629 9.4082 6.92578 9.74532 6.92578 10.1612C6.92578 10.577 7.2629 10.9141 7.67875 10.9141Z" fill="white"/>
</svg>
