<svg width="14" height="14" viewBox="0 0 14 14" fill="none" xmlns="http://www.w3.org/2000/svg">
<path d="M8.75033 13.2712H5.25033C2.08283 13.2712 0.729492 11.9178 0.729492 8.75033V5.25033C0.729492 2.08283 2.08283 0.729492 5.25033 0.729492H8.16699C8.40616 0.729492 8.60449 0.927826 8.60449 1.16699C8.60449 1.40616 8.40616 1.60449 8.16699 1.60449H5.25033C2.56116 1.60449 1.60449 2.56116 1.60449 5.25033V8.75033C1.60449 11.4395 2.56116 12.3962 5.25033 12.3962H8.75033C11.4395 12.3962 12.3962 11.4395 12.3962 8.75033V5.83366C12.3962 5.59449 12.5945 5.39616 12.8337 5.39616C13.0728 5.39616 13.2712 5.59449 13.2712 5.83366V8.75033C13.2712 11.9178 11.9178 13.2712 8.75033 13.2712Z" fill="#A39898"/>
<path d="M12.8337 6.27127H10.5003C8.50533 6.27127 7.72949 5.49544 7.72949 3.50044V1.16711C7.72949 0.992108 7.83449 0.828774 7.99783 0.764608C8.16116 0.694608 8.34783 0.735441 8.47616 0.857941L13.1428 5.52461C13.2653 5.64711 13.3062 5.83961 13.2362 6.00294C13.1662 6.16627 13.0087 6.27127 12.8337 6.27127ZM8.60449 2.22294V3.50044C8.60449 5.00544 8.99533 5.39627 10.5003 5.39627H11.7778L8.60449 2.22294Z" fill="#A39898"/>
<path d="M7.58301 8.02051H4.08301C3.84384 8.02051 3.64551 7.82217 3.64551 7.58301C3.64551 7.34384 3.84384 7.14551 4.08301 7.14551H7.58301C7.82217 7.14551 8.02051 7.34384 8.02051 7.58301C8.02051 7.82217 7.82217 8.02051 7.58301 8.02051Z" fill="#A39898"/>
<path d="M6.41634 10.3545H4.08301C3.84384 10.3545 3.64551 10.1562 3.64551 9.91699C3.64551 9.67783 3.84384 9.47949 4.08301 9.47949H6.41634C6.65551 9.47949 6.85384 9.67783 6.85384 9.91699C6.85384 10.1562 6.65551 10.3545 6.41634 10.3545Z" fill="#A39898"/>
</svg>
