<svg width="81" height="82" viewBox="0 0 81 82" fill="none" xmlns="http://www.w3.org/2000/svg">
<path d="M58.7561 0.402278C57.8256 0.566165 57.0166 0.660692 56.2076 0.755219C49.3863 3.19204 44.9877 9.99182 37.2495 9.25587C25.3716 8.18415 10.7212 4.42948 2.69996 15.5542C1.41096 17.546 0.584157 19.7759 0.423339 22.0998C0.262521 24.4237 0.767073 26.8415 2.1371 29.2096C5.52655 34.8266 10.2007 39.7468 9.37084 46.6761C8.10701 56.909 0.647379 70.9646 9.17074 78.7078C10.1178 79.5671 11.262 80.351 12.6345 81.0403C14.6152 81.9818 16.9121 82.2372 18.9567 81.4699C20.1049 81.0231 21.2589 80.6311 22.4186 80.2939C31.2071 78.1517 39.8845 77.3863 48.8173 78.6624C53.4111 79.4278 58.0054 80.9592 62.8005 80.1355C63.5726 79.9952 64.335 79.8062 65.0833 79.5696C66.6553 79.0706 68.1415 78.3332 69.4898 77.3832C70.1762 76.7622 70.7996 76.0749 71.3509 75.3312C72.9615 73.1479 73.8061 70.5871 73.7312 67.8096C73.692 67.0056 73.5587 66.209 73.3341 65.436C72.3612 62.3725 70.9709 59.3593 69.8053 56.3308C68.6397 53.3022 67.6993 50.2669 67.6275 47.185C67.3089 44.2743 68.6096 41.3894 69.9459 38.7758C73.1536 33.4817 77.6602 29.9486 79.4599 24.2727C80.9871 18.6257 80.5648 12.665 77.5074 7.55623C75.1473 3.73219 71.233 0.636139 66.4385 0.292406C64.1392 0.0131224 61.5888 0.0296958 58.7561 0.402278Z" fill="#DCE5F7" fill-opacity="0.2"/>
<g style="mix-blend-mode:multiply">
<path d="M51.2061 72.885H28.2987C25.7072 72.885 23.2219 71.7022 21.3897 69.5956L19.7361 67.6928C18.2353 65.968 17.3926 63.6282 17.3926 61.1864V20.4295C17.3926 18.2701 18.9154 16.5195 20.7943 16.5195H52.7394L53.3017 70.4445C53.3188 71.7888 52.3736 72.885 51.2061 72.885Z" fill="#DCE5F7"/>
</g>
<path d="M29.2197 8.02441H56.2396C57.2489 8.02441 58.2169 8.42536 58.9306 9.13905C59.6442 9.85274 60.0452 10.8207 60.0452 11.83V67.7702C60.0452 68.7795 59.6442 69.7475 58.9306 70.4611C58.2169 71.1748 57.2489 71.5758 56.2396 71.5758H29.2197C28.2104 71.5758 27.2424 71.1748 26.5287 70.4611C25.815 69.7475 25.4141 68.7795 25.4141 67.7702V11.8306C25.4141 10.8213 25.815 9.85336 26.5287 9.13967C27.2424 8.42598 28.2104 8.02503 29.2197 8.02503V8.02441Z" fill="#083B45"/>
<path d="M27.3795 8.16797L26.498 9.1697V9.84797L27.9049 9.31518L27.3795 8.16797Z" fill="#07343B"/>
<path d="M59.1712 70.1987L60.1257 69.1233L58.6777 68.666L59.1712 70.1987Z" fill="#07343B"/>
<path d="M57.2232 6.91309H30.2027C28.1006 6.91309 26.3965 8.61719 26.3965 10.7193V66.6595C26.3965 68.7616 28.1006 70.4657 30.2027 70.4657H57.2232C59.3253 70.4657 61.0295 68.7616 61.0295 66.6595V10.7193C61.0295 8.61719 59.3253 6.91309 57.2232 6.91309Z" fill="#19575E"/>
<path d="M59.581 15.0762H27.8477V62.3027H59.581V15.0762Z" fill="#FFD871"/>
<path d="M46.9821 12.3251H40.4444C40.2841 12.3251 40.1303 12.2614 40.0169 12.148C39.9035 12.0346 39.8398 11.8808 39.8398 11.7204C39.8398 11.641 39.8553 11.5623 39.8857 11.4889C39.916 11.4155 39.9606 11.3487 40.0167 11.2925C40.0729 11.2363 40.1395 11.1917 40.2129 11.1613C40.2863 11.1309 40.365 11.1152 40.4444 11.1152H46.9821C47.0616 11.1152 47.1404 11.1308 47.2138 11.1611C47.2873 11.1915 47.354 11.2361 47.4103 11.2923C47.4665 11.3485 47.5111 11.4153 47.5414 11.4887C47.5718 11.5622 47.5874 11.6409 47.5873 11.7204C47.5873 11.7999 47.5717 11.8786 47.5413 11.952C47.5108 12.0254 47.4663 12.092 47.41 12.1482C47.3538 12.2043 47.2871 12.2489 47.2137 12.2792C47.1403 12.3096 47.0616 12.3251 46.9821 12.3251Z" fill="#238787"/>
<path d="M48.6957 67.0389H38.4451C38.2845 67.0389 38.1306 66.9752 38.0171 66.8617C37.9036 66.7482 37.8398 66.5942 37.8398 66.4337C37.84 66.2733 37.9038 66.1195 38.0173 66.0061C38.1308 65.8928 38.2847 65.8291 38.4451 65.8291H48.6957C48.856 65.8291 49.0098 65.8928 49.1232 66.0062C49.2366 66.1196 49.3003 66.2734 49.3003 66.4337C49.3004 66.5132 49.2848 66.5918 49.2544 66.6653C49.2241 66.7387 49.1796 66.8054 49.1234 66.8616C49.0673 66.9178 49.0006 66.9624 48.9272 66.9928C48.8538 67.0233 48.7751 67.0389 48.6957 67.0389Z" fill="#238787"/>
<g style="mix-blend-mode:multiply">
<path d="M63.011 51.4131H55.5066L45.7194 56.8368L47.8573 51.4131H12.67C12.0553 51.4123 11.466 51.1675 11.0316 50.7324C10.5972 50.2974 10.3534 49.7077 10.3535 49.0929V24.2557C10.3534 23.9511 10.4134 23.6494 10.5299 23.3679C10.6464 23.0864 10.8173 22.8306 11.0327 22.6152C11.2481 22.3997 11.5038 22.2288 11.7853 22.1122C12.0668 21.9956 12.3684 21.9355 12.6731 21.9355H63.0141C63.6294 21.9355 64.2196 22.18 64.6547 22.6151C65.0898 23.0502 65.3343 23.6404 65.3343 24.2557V49.0929C65.3343 49.3979 65.2742 49.6998 65.1574 49.9815C65.0406 50.2632 64.8694 50.5192 64.6536 50.7346C64.4378 50.9501 64.1817 51.121 63.8999 51.2374C63.618 51.3538 63.316 51.4135 63.011 51.4131Z" fill="#DCE5F7"/>
</g>
<path d="M65.0087 47.8936H58.6865L49.111 55.948L51.1458 47.8936H15.2914C14.6836 47.8936 14.1008 47.6522 13.6711 47.2225C13.2414 46.7928 13 46.21 13 45.6023V21.0726C13 20.4649 13.2414 19.8821 13.6711 19.4524C14.1008 19.0227 14.6836 18.7812 15.2914 18.7812H65.0099C65.6176 18.7812 66.2004 19.0227 66.6301 19.4524C67.0599 19.8821 67.3013 20.4649 67.3013 21.0726V45.6023C67.3013 45.9033 67.242 46.2013 67.1267 46.4794C67.0115 46.7575 66.8426 47.0101 66.6297 47.2229C66.4168 47.4357 66.1641 47.6045 65.8859 47.7196C65.6078 47.8346 65.3097 47.8938 65.0087 47.8936Z" fill="#0461A5"/>
<path d="M69.0331 17.657C68.9463 17.6571 68.8613 17.6314 68.789 17.5832C68.7168 17.535 68.6604 17.4664 68.6272 17.3861C68.5939 17.3059 68.5852 17.2175 68.6022 17.1323C68.6192 17.0471 68.6611 16.9689 68.7225 16.9075L70.3344 15.2963C70.3749 15.2543 70.4233 15.2208 70.4769 15.1978C70.5304 15.1748 70.588 15.1626 70.6463 15.1621C70.7046 15.1616 70.7624 15.1727 70.8164 15.1948C70.8703 15.2168 70.9194 15.2494 70.9606 15.2907C71.0018 15.3319 71.0344 15.3809 71.0565 15.4349C71.0785 15.4888 71.0896 15.5466 71.0891 15.6049C71.0886 15.6632 71.0765 15.7208 71.0534 15.7744C71.0304 15.8279 70.9969 15.8764 70.955 15.9168L69.3437 17.5287C69.2613 17.6109 69.1496 17.657 69.0331 17.657Z" fill="#9CBAF7"/>
<path d="M72.2116 19.9304H70.218C70.1044 19.9262 69.9968 19.878 69.9179 19.7961C69.839 19.7143 69.7949 19.605 69.7949 19.4912C69.7949 19.3775 69.839 19.2682 69.9179 19.1863C69.9968 19.1044 70.1044 19.0563 70.218 19.0521H72.2116C72.2707 19.0499 72.3296 19.0596 72.3848 19.0807C72.44 19.1017 72.4904 19.1337 72.533 19.1747C72.5755 19.2157 72.6094 19.2649 72.6325 19.3193C72.6556 19.3737 72.6676 19.4321 72.6676 19.4912C72.6676 19.5503 72.6556 19.6088 72.6325 19.6632C72.6094 19.7176 72.5755 19.7668 72.533 19.8078C72.4904 19.8488 72.44 19.8808 72.3848 19.9018C72.3296 19.9229 72.2707 19.9326 72.2116 19.9304Z" fill="#9CBAF7"/>
<path d="M66.7621 16.4714C66.6456 16.4713 66.5339 16.4249 66.4515 16.3425C66.3691 16.2602 66.3227 16.1485 66.3226 16.032V14.0389C66.3204 13.9799 66.3301 13.921 66.3512 13.8658C66.3722 13.8105 66.4042 13.7602 66.4452 13.7176C66.4862 13.675 66.5354 13.6412 66.5898 13.6181C66.6442 13.5949 66.7027 13.583 66.7618 13.583C66.8209 13.583 66.8793 13.5949 66.9337 13.6181C66.9881 13.6412 67.0373 13.675 67.0783 13.7176C67.1193 13.7602 67.1513 13.8105 67.1723 13.8658C67.1934 13.921 67.2031 13.9799 67.2009 14.0389V16.032C67.2009 16.1484 67.1547 16.2601 67.0724 16.3425C66.9901 16.4249 66.8785 16.4713 66.7621 16.4714Z" fill="#9CBAF7"/>
<path d="M29.1506 29.9121H28.1562V30.4038H29.1506V29.9121Z" fill="#D4D4D9"/>
<path d="M29.478 30.3525H27.8281V30.8325H29.478V30.3525Z" fill="#FEFEFF"/>
<path d="M27.8273 29.9366H29.4772V28.8575C29.4844 28.2218 29.3654 27.591 29.1271 27.0017C28.8888 26.4123 28.5359 25.8761 28.089 25.424C27.642 24.972 27.1098 24.6131 26.5231 24.3681C25.9365 24.1232 25.3071 23.9971 24.6714 23.9971C24.0356 23.9971 23.4062 24.1232 22.8196 24.3681C22.233 24.6131 21.7007 24.972 21.2538 25.424C20.8068 25.8761 20.4539 26.4123 20.2157 27.0017C19.9774 27.591 19.8584 28.2218 19.8655 28.8575V32.622H21.5155V28.8575C21.527 28.0281 21.8646 27.2367 22.4552 26.6542C23.0458 26.0718 23.8419 25.7453 24.6714 25.7453C25.5008 25.7453 26.2969 26.0718 26.8875 26.6542C27.4781 27.2367 27.8157 28.0281 27.8273 28.8575V29.9366Z" fill="#FEFEFF"/>
<path d="M19.7977 32.1641H29.5481C29.6979 32.1641 29.8415 32.2236 29.9474 32.3295C30.0533 32.4354 30.1128 32.579 30.1128 32.7288V36.0225C30.1128 37.4653 29.5396 38.849 28.5194 39.8693C27.4992 40.8895 26.1154 41.4627 24.6726 41.4627C23.2298 41.4627 21.8461 40.8895 20.8258 39.8693C19.8056 38.849 19.2324 37.4653 19.2324 36.0225V32.7288C19.2324 32.579 19.2919 32.4354 19.3978 32.3295C19.5037 32.2236 19.6474 32.1641 19.7971 32.1641H19.7977Z" fill="#FCB900"/>
<g style="mix-blend-mode:multiply" opacity="0.85">
<path d="M25.844 35.5674C25.8454 35.3601 25.7917 35.1561 25.6886 34.9763C25.5855 34.7964 25.4366 34.6471 25.257 34.5435C25.0774 34.44 24.8735 34.3859 24.6662 34.3867C24.4589 34.3876 24.2555 34.4434 24.0768 34.5484C23.898 34.6534 23.7503 34.804 23.6487 34.9847C23.547 35.1654 23.4951 35.3698 23.4982 35.5771C23.5012 35.7843 23.5592 35.9871 23.6661 36.1647C23.7731 36.3423 23.9252 36.4884 24.1069 36.5881V37.9606C24.1044 38.0363 24.1172 38.1117 24.1444 38.1824C24.1717 38.253 24.2128 38.3175 24.2655 38.3719C24.3181 38.4263 24.3812 38.4696 24.4509 38.4992C24.5206 38.5287 24.5956 38.5439 24.6713 38.5439C24.747 38.5439 24.822 38.5287 24.8917 38.4992C24.9614 38.4696 25.0245 38.4263 25.0772 38.3719C25.1298 38.3175 25.171 38.253 25.1982 38.1824C25.2255 38.1117 25.2382 38.0363 25.2357 37.9606V36.5881C25.4193 36.4881 25.5726 36.3406 25.6796 36.161C25.7866 35.9815 25.8434 35.7764 25.844 35.5674Z" fill="#301300"/>
</g>
<mask id="mask0_9209_4530" style="mask-type:luminance" maskUnits="userSpaceOnUse" x="19" y="24" width="12" height="18">
<path d="M30.1122 32.5934V36.0222C30.1122 37.4649 29.5391 38.8485 28.519 39.8687C27.4989 40.8889 26.1153 41.4622 24.6726 41.4623C23.2298 41.4623 21.8461 40.8892 20.8258 39.8689C19.8056 38.8487 19.2324 37.465 19.2324 36.0222V32.5934C19.2324 32.4795 19.2777 32.3702 19.3583 32.2896C19.4388 32.209 19.5481 32.1637 19.6621 32.1637H19.8671V28.8578C19.8678 28.1991 20.0037 27.5476 20.2665 26.9436C20.5292 26.3396 20.9132 25.796 21.3946 25.3464C21.8761 24.8969 22.4447 24.551 23.0652 24.3302C23.6858 24.1094 24.3451 24.0183 25.0022 24.0627C27.4716 24.2284 29.5475 26.2896 29.4787 29.0278V29.9368H27.8282V28.8578C27.8166 28.0284 27.4791 27.2369 26.8885 26.6545C26.2979 26.0721 25.5018 25.7456 24.6723 25.7456C23.8429 25.7456 23.0467 26.0721 22.4561 26.6545C21.8656 27.2369 21.528 28.0284 21.5164 28.8578V32.1637H29.6801C29.7367 32.1634 29.7928 32.1743 29.8453 32.1957C29.8977 32.2172 29.9453 32.2488 29.9855 32.2887C30.0256 32.3286 30.0575 32.3761 30.0793 32.4284C30.101 32.4807 30.1122 32.5368 30.1122 32.5934ZM27.8282 30.8361H29.4781V30.3524H27.8282V30.8361Z" fill="white"/>
</mask>
<g mask="url(#mask0_9209_4530)">
<g style="mix-blend-mode:multiply" opacity="0.1">
<path d="M30.1121 32.1641H24.6719V41.4627H30.1121V32.1641Z" fill="#E70013"/>
</g>
</g>
<path d="M56.1227 38.5263H39.3731C36.7828 38.5263 34.6836 36.3835 34.6836 33.7386V33.6422C34.6836 30.9985 36.7828 28.8545 39.3731 28.8545H56.1227C58.7124 28.8545 60.8122 30.9973 60.8122 33.6422V33.7392C60.8122 36.3835 58.7124 38.5263 56.1227 38.5263Z" fill="#E8E8E8"/>
<path d="M56.2733 38.5256H40.0619C37.5551 38.5256 35.5234 36.5768 35.5234 34.1731V34.0853C35.5234 31.6816 37.5551 29.7334 40.0619 29.7334H56.272C58.7788 29.7334 60.8142 31.6816 60.8142 34.0853V34.1731C60.8124 36.5768 58.7831 38.5256 56.2733 38.5256Z" fill="white"/>
<path d="M40.4988 31.4375H41.6478L41.4864 33.123L42.8767 32.1827L43.4365 33.212L41.9382 33.8768L43.4365 34.5342L42.8785 35.5617L41.4864 34.6238L41.6478 36.3099H40.4988L40.667 34.6238L39.2767 35.5641L38.7188 34.5366L40.2171 33.878L38.7188 33.212L39.2767 32.1839L40.667 33.1242L40.4988 31.4375Z" fill="#707070"/>
<path d="M47.532 31.4375H48.6811L48.5196 33.123L49.9099 32.1827L50.4679 33.212L48.9702 33.8768L50.4679 34.5354L49.9099 35.5629L48.5196 34.6238L48.6811 36.3099H47.532L47.7002 34.6238L46.3099 35.5641L45.752 34.5366L47.2503 33.878L45.752 33.212L46.3099 32.1839L47.7002 33.1242L47.532 31.4375Z" fill="#707070"/>
<path d="M54.5657 31.4375H55.7135L55.5521 33.123L56.943 32.1827L57.5003 33.2108L56.0026 33.8755L57.5003 34.5342L56.943 35.5617L55.5533 34.6238L55.7148 36.3099H54.5657L54.7314 34.6238L53.3412 35.5641L52.7832 34.5366L54.2815 33.878L52.7857 33.212L53.3436 32.1839L54.7314 33.123L54.5657 31.4375Z" fill="#707070"/>
</svg>
