<svg width="18" height="19" viewBox="0 0 18 19" fill="none" xmlns="http://www.w3.org/2000/svg">
<g clip-path="url(#clip0_5_59600)">
<path d="M4.62393 2.38782L0.760717 7.37619C0.621095 7.55628 0.654072 7.81571 0.83431 7.95515L0.855447 7.97151C1.16124 8.20841 1.54114 8.31206 1.92487 8.26329C2.17209 8.23186 2.40134 8.1389 2.59688 7.99546L7.15986 12.1211C6.88816 12.5158 6.7723 12.9902 6.83321 13.4693C6.89884 13.9856 7.16157 14.4454 7.57303 14.764L7.60432 14.7882C7.7845 14.9279 8.04376 14.8949 8.18328 14.7147L10.4977 11.7262L13.4081 13.9803C13.4678 14.0252 14.8827 15.0874 15.9872 15.7635C17.0387 16.4075 17.2328 16.5366 17.2428 16.5433C17.4227 16.6648 17.6657 16.6259 17.7992 16.4545C17.8691 16.3646 17.8962 16.2544 17.8828 16.149C17.8706 16.053 17.8248 15.9609 17.7472 15.8921C17.7404 15.886 17.5702 15.7341 16.6781 14.8715C15.7471 13.9715 14.3646 12.8673 14.3016 12.8171L11.3958 10.5667L13.5862 7.73834C13.656 7.64824 13.6827 7.53834 13.6694 7.43361C13.656 7.32887 13.6028 7.22905 13.5126 7.15938L13.4813 7.13515C13.0699 6.81648 12.5589 6.67715 12.0427 6.74277C11.5636 6.80367 11.1333 7.03461 10.8191 7.39633L5.68306 4.01064C5.77301 3.78543 5.80566 3.54021 5.77424 3.29299C5.72545 2.90917 5.53014 2.56737 5.22419 2.33057L5.20305 2.31421C5.02271 2.17461 4.76345 2.20757 4.62393 2.38782Z" fill="white"/>
</g>
<defs>
<clipPath id="clip0_5_59600">
<rect width="16" height="16" fill="white" transform="translate(2.07227 18.6465) rotate(-97.2442)"/>
</clipPath>
</defs>
</svg>
