<svg width="360" height="789" viewBox="0 0 360 789" fill="none" xmlns="http://www.w3.org/2000/svg">
<path opacity="0.1" d="M398 -5L346.589 -5L245 207H296.411L398 -5Z" fill="url(#paint0_linear_501_1046)"/>
<path opacity="0.1" d="M337 -5L285.589 -5L184 207H235.411L337 -5Z" fill="url(#paint1_linear_501_1046)"/>
<path opacity="0.1" d="M273 0L221.589 0L120 212H171.411L273 0Z" fill="url(#paint2_linear_501_1046)"/>
<g filter="url(#filter0_d_501_1046)">
<path fill-rule="evenodd" clip-rule="evenodd" d="M105.493 156C121.554 156 134.664 143.491 146.002 132.115C154.693 123.396 166.716 118 180 118C193.284 118 205.307 123.396 213.998 132.115C225.336 143.491 238.446 156 254.507 156H350C355.523 156 360 160.477 360 166V795C360 795.552 359.552 796 359 796H0.999985C0.447708 796 0 795.552 0 795V166C0 160.477 4.47715 156 10 156H105.493Z" fill="white"/>
</g>
<defs>
<filter id="filter0_d_501_1046" x="-28" y="98" width="420" height="738" filterUnits="userSpaceOnUse" color-interpolation-filters="sRGB">
<feFlood flood-opacity="0" result="BackgroundImageFix"/>
<feColorMatrix in="SourceAlpha" type="matrix" values="0 0 0 0 0 0 0 0 0 0 0 0 0 0 0 0 0 0 127 0" result="hardAlpha"/>
<feOffset dx="2" dy="10"/>
<feGaussianBlur stdDeviation="15"/>
<feColorMatrix type="matrix" values="0 0 0 0 0.588235 0 0 0 0 0.588235 0 0 0 0 0.603922 0 0 0 0.05 0"/>
<feBlend mode="normal" in2="BackgroundImageFix" result="effect1_dropShadow_501_1046"/>
<feBlend mode="normal" in="SourceGraphic" in2="effect1_dropShadow_501_1046" result="shape"/>
</filter>
<linearGradient id="paint0_linear_501_1046" x1="321.5" y1="-5" x2="321.5" y2="207" gradientUnits="userSpaceOnUse">
<stop stop-color="white"/>
<stop offset="0.958333" stop-color="white" stop-opacity="0"/>
</linearGradient>
<linearGradient id="paint1_linear_501_1046" x1="260.5" y1="-5" x2="260.5" y2="207" gradientUnits="userSpaceOnUse">
<stop stop-color="white"/>
<stop offset="0.958333" stop-color="white" stop-opacity="0"/>
</linearGradient>
<linearGradient id="paint2_linear_501_1046" x1="196.5" y1="0" x2="196.5" y2="212" gradientUnits="userSpaceOnUse">
<stop stop-color="white"/>
<stop offset="0.958333" stop-color="white" stop-opacity="0"/>
</linearGradient>
</defs>
</svg>
