<svg width="16" height="16" viewBox="0 0 16 16" fill="none" xmlns="http://www.w3.org/2000/svg">
<path d="M8 0.5C6.40926 0.50182 4.88419 1.13455 3.75937 2.25937C2.63455 3.38419 2.00182 4.90926 2 6.5C2 11.0735 7.61243 15.2744 7.85144 15.451C7.89445 15.4828 7.94652 15.5 8 15.5C8.05348 15.5 8.10555 15.4828 8.14856 15.451C8.38757 15.2744 14 11.0735 14 6.5C13.9982 4.90926 13.3655 3.38419 12.2406 2.25937C11.1158 1.13455 9.59074 0.50182 8 0.5ZM8 11C7.10998 11 6.23995 10.7361 5.49993 10.2416C4.75991 9.74715 4.18314 9.04434 3.84254 8.22208C3.50195 7.39981 3.41283 6.49501 3.58647 5.62209C3.7601 4.74918 4.18868 3.94736 4.81802 3.31802C5.44736 2.68868 6.24918 2.2601 7.12209 2.08647C7.99501 1.91283 8.89981 2.00195 9.72208 2.34254C10.5443 2.68314 11.2471 3.25991 11.7416 3.99993C12.2361 4.73995 12.5 5.60998 12.5 6.5C12.4986 7.69306 12.0241 8.83686 11.1805 9.68048C10.3369 10.5241 9.19306 10.9986 8 11ZM10.75 5.25C10.7597 5.52521 10.6952 5.79797 10.5632 6.03968C10.4313 6.28139 10.2367 6.48317 10 6.62387V8.75C10 8.88261 9.94732 9.00979 9.85355 9.10355C9.75979 9.19732 9.63261 9.25 9.5 9.25C9.36739 9.25 9.24021 9.19732 9.14645 9.10355C9.05268 9.00979 9 8.88261 9 8.75V6.62387C8.76327 6.48317 8.56874 6.28139 8.43679 6.03968C8.30484 5.79797 8.24032 5.52521 8.25 5.25C8.25 4.42285 8.81079 3.75 9.5 3.75C10.1892 3.75 10.75 4.42285 10.75 5.25ZM7.75 4V6C7.74978 6.19885 7.6707 6.38948 7.53009 6.53009C7.38948 6.6707 7.19885 6.74978 7 6.75V8.75C7 8.88261 6.94732 9.00979 6.85355 9.10355C6.75979 9.19732 6.63261 9.25 6.5 9.25C6.36739 9.25 6.24021 9.19732 6.14645 9.10355C6.05268 9.00979 6 8.88261 6 8.75V6.75C5.80115 6.74978 5.61051 6.6707 5.46991 6.53009C5.3293 6.38948 5.25022 6.19885 5.25 6V4C5.25 3.9337 5.27634 3.87011 5.32322 3.82322C5.37011 3.77634 5.4337 3.75 5.5 3.75C5.5663 3.75 5.62989 3.77634 5.67678 3.82322C5.72366 3.87011 5.75 3.9337 5.75 4V5.25H6.25V4C6.25 3.9337 6.27634 3.87011 6.32322 3.82322C6.37011 3.77634 6.4337 3.75 6.5 3.75C6.5663 3.75 6.62989 3.77634 6.67678 3.82322C6.72366 3.87011 6.75 3.9337 6.75 4V5.25H7.25V4C7.25 3.9337 7.27634 3.87011 7.32322 3.82322C7.37011 3.77634 7.4337 3.75 7.5 3.75C7.5663 3.75 7.62989 3.77634 7.67678 3.82322C7.72366 3.87011 7.75 3.9337 7.75 4Z" fill="#FF5555"/>
</svg>
