<svg width="14" height="14" viewBox="0 0 14 14" fill="none" xmlns="http://www.w3.org/2000/svg">
<g clip-path="url(#clip0_5_25024)">
<path d="M13.2707 7.00052C13.2707 8.67469 12.6174 10.2497 11.4332 11.4339C10.249 12.618 8.60402 13.2655 6.99986 13.2655C5.39569 13.2655 3.78569 12.653 2.56652 11.4339C0.122357 8.98969 0.122357 5.01135 2.56652 2.56719C4.74236 0.38552 8.13736 0.163854 10.5815 1.86719L10.5115 1.21385C10.4882 0.974687 10.6574 0.758854 10.9024 0.729687C11.1415 0.706354 11.3574 0.87552 11.3865 1.12052L11.5732 2.82969C11.5965 3.06885 11.4274 3.28469 11.1824 3.31385L9.44402 3.50052C9.44402 3.50052 9.41486 3.50052 9.39736 3.50052C9.17569 3.50052 8.98902 3.33719 8.95986 3.10969C8.93652 2.87052 9.10569 2.65469 9.35069 2.62552L10.0507 2.54969C7.95069 1.10885 5.05736 1.31302 3.19652 3.17969C1.09069 5.28552 1.09069 8.70969 3.19652 10.8097C5.30236 12.9155 8.72652 12.9155 10.8265 10.8097C11.8474 9.78885 12.4074 8.43552 12.4074 6.99469C12.4074 6.75552 12.6057 6.55719 12.8449 6.55719C13.084 6.55719 13.2824 6.75552 13.2824 6.99469L13.2707 7.00052ZM6.92986 6.45219C6.97652 6.47552 7.02902 6.47552 7.07569 6.45219L9.51986 5.04052C9.51986 5.04052 9.47902 5.00552 9.45569 4.99385L7.51319 3.87385C7.19819 3.69302 6.80736 3.69302 6.49236 3.87385L4.54986 4.99385C4.54986 4.99385 4.50902 5.02885 4.48569 5.04052L6.92986 6.45219ZM6.57986 7.24552C6.57986 7.24552 6.52152 7.22802 6.49236 7.21052L4.04819 5.79885C4.04819 5.79885 4.03652 5.85135 4.03652 5.87469V8.12052C4.03652 8.48219 4.22902 8.82052 4.54986 9.00719L6.49236 10.1272C6.49236 10.1272 6.55069 10.1505 6.57986 10.1622V7.24552ZM7.51319 7.21052C7.51319 7.21052 7.47236 7.22802 7.45486 7.23385V10.1505C7.45486 10.1505 7.49569 10.1389 7.51319 10.1272L9.45569 9.00719C9.77069 8.82635 9.96902 8.48802 9.96902 8.12052V5.87469C9.96902 5.87469 9.96319 5.82219 9.95736 5.79885L7.51319 7.21052Z" fill="#A39898"/>
</g>
<defs>
<clipPath id="clip0_5_25024">
<rect width="14" height="14" fill="white"/>
</clipPath>
</defs>
</svg>
