<svg width="20" height="20" viewBox="0 0 20 20" fill="none" xmlns="http://www.w3.org/2000/svg">
<path d="M6.38914 17.9996H18.7682C19.3872 17.9996 19.7998 17.5424 19.7998 16.8567C19.7998 16.171 19.3872 15.7139 18.7682 15.7139H6.38914C5.77018 15.7139 5.35755 16.171 5.35755 16.8567C5.35755 17.5424 5.77018 17.9996 6.38914 17.9996Z" fill="#BAC2CC"/>
<path d="M9.4839 12.2852H18.7682C19.3872 12.2852 19.7998 11.8281 19.7998 11.1424C19.7998 10.4567 19.3872 9.99951 18.7682 9.99951H9.4839C8.86495 9.99951 8.45231 10.4567 8.45231 11.1424C8.45231 11.8281 8.86495 12.2852 9.4839 12.2852Z" fill="#BAC2CC"/>
<path d="M12.5787 6.57136H18.7682C19.3872 6.57136 19.7998 6.11421 19.7998 5.4285C19.7998 4.74279 19.3872 4.28564 18.7682 4.28564H12.5787C11.9597 4.28564 11.5471 4.74279 11.5471 5.4285C11.5471 6.11421 11.9597 6.57136 12.5787 6.57136Z" fill="#BAC2CC"/>
<path d="M4.32583 13.4286C4.94479 13.4286 5.35742 12.9714 5.35742 12.2857V3.14286C5.35742 2.45714 4.94479 2 4.32583 2C3.70688 2 3.29424 2.45714 3.29424 3.14286V12.2857C3.29424 12.9714 3.70688 13.4286 4.32583 13.4286Z" fill="#BAC2CC"/>
<path d="M1.23151 7.71428C1.54098 7.71428 1.7473 7.59999 1.95362 7.37142L4.32628 4.74285L6.69893 7.37142C7.11157 7.82856 7.73052 7.82856 8.14316 7.37142C8.5558 6.91428 8.5558 6.22857 8.14316 5.77142L5.04839 2.34286C4.63576 1.88571 4.0168 1.88571 3.60416 2.34286L0.509394 5.77142C0.0967579 6.22857 0.0967579 6.91428 0.509394 7.37142C0.715712 7.59999 0.92203 7.71428 1.23151 7.71428Z" fill="#BAC2CC"/>
</svg>
