<svg width="18" height="19" viewBox="0 0 18 19" fill="none" xmlns="http://www.w3.org/2000/svg">
<g clip-path="url(#clip0_5_78330)">
<path d="M16.0951 3.26359C15.9435 2.39452 15.4899 1.60691 14.8142 1.03967C14.1386 0.472423 13.2843 0.161979 12.4021 0.16309H5.58838C4.70549 0.161748 3.85054 0.472455 3.17452 1.04033C2.4985 1.60821 2.04491 2.39672 1.89388 3.26659L0.0571254 13.7666C-0.0371975 14.3055 -0.0124527 14.8586 0.129624 15.3869C0.2717 15.9152 0.527666 16.4061 0.879564 16.825C1.23146 17.244 1.67077 17.5808 2.16666 17.812C2.66255 18.0431 3.20301 18.163 3.75013 18.1631H14.2501C14.7976 18.1632 15.3385 18.0433 15.8347 17.8121C16.3309 17.5808 16.7705 17.2437 17.1225 16.8244C17.4746 16.4051 17.7305 15.9138 17.8724 15.385C18.0143 14.8562 18.0387 14.3028 17.9439 13.7636L16.0951 3.26359ZM15.9751 15.8598C15.7637 16.1116 15.4997 16.314 15.2017 16.4528C14.9037 16.5916 14.5789 16.6634 14.2501 16.6631H3.75013C3.42176 16.6631 3.09737 16.5912 2.79973 16.4525C2.50209 16.3138 2.23842 16.1117 2.02722 15.8602C1.81602 15.6088 1.66241 15.3142 1.57719 14.9971C1.49196 14.68 1.47718 14.348 1.53388 14.0246L3.37063 3.52459C3.46208 3.00291 3.73462 2.53022 4.14029 2.18971C4.54596 1.84921 5.05874 1.66273 5.58838 1.66309H12.4021C12.9312 1.66319 13.4432 1.84971 13.8484 2.18986C14.2536 2.53002 14.5259 3.00207 14.6176 3.52309L16.4649 14.0231C16.5222 14.3464 16.5081 14.6784 16.4235 14.9957C16.3389 15.313 16.1859 15.608 15.9751 15.8598ZM9.75013 3.91309V5.41309C9.75013 5.612 9.67111 5.80277 9.53046 5.94342C9.3898 6.08407 9.19904 6.16309 9.00013 6.16309C8.80121 6.16309 8.61045 6.08407 8.4698 5.94342C8.32914 5.80277 8.25013 5.612 8.25013 5.41309V3.91309C8.25013 3.71418 8.32914 3.52341 8.4698 3.38276C8.61045 3.24211 8.80121 3.16309 9.00013 3.16309C9.19904 3.16309 9.3898 3.24211 9.53046 3.38276C9.67111 3.52341 9.75013 3.71418 9.75013 3.91309ZM9.75013 8.41309V9.91309C9.75013 10.112 9.67111 10.3028 9.53046 10.4434C9.3898 10.5841 9.19904 10.6631 9.00013 10.6631C8.80121 10.6631 8.61045 10.5841 8.4698 10.4434C8.32914 10.3028 8.25013 10.112 8.25013 9.91309V8.41309C8.25013 8.21418 8.32914 8.02341 8.4698 7.88276C8.61045 7.74211 8.80121 7.66309 9.00013 7.66309C9.19904 7.66309 9.3898 7.74211 9.53046 7.88276C9.67111 8.02341 9.75013 8.21418 9.75013 8.41309ZM9.75013 12.9131V14.4131C9.75013 14.612 9.67111 14.8028 9.53046 14.9434C9.3898 15.0841 9.19904 15.1631 9.00013 15.1631C8.80121 15.1631 8.61045 15.0841 8.4698 14.9434C8.32914 14.8028 8.25013 14.612 8.25013 14.4131V12.9131C8.25013 12.7142 8.32914 12.5234 8.4698 12.3828C8.61045 12.2421 8.80121 12.1631 9.00013 12.1631C9.19904 12.1631 9.3898 12.2421 9.53046 12.3828C9.67111 12.5234 9.75013 12.7142 9.75013 12.9131Z" fill="#816868" fill-opacity="0.4"/>
</g>
<defs>
<clipPath id="clip0_5_78330">
<rect width="18" height="18" fill="white" transform="translate(0 0.163086)"/>
</clipPath>
</defs>
</svg>
