<svg width="14" height="14" viewBox="0 0 14 14" fill="none" xmlns="http://www.w3.org/2000/svg">
<g clip-path="url(#clip0_5_24977)">
<path d="M7 9.33333C6.53851 9.33333 6.08738 9.19649 5.70367 8.9401C5.31995 8.68371 5.02088 8.31929 4.84428 7.89293C4.66768 7.46657 4.62147 6.99741 4.7115 6.54479C4.80153 6.09217 5.02376 5.67641 5.35008 5.35009C5.67641 5.02376 6.09217 4.80153 6.54479 4.7115C6.99741 4.62147 7.46657 4.66768 7.89293 4.84428C8.31929 5.02089 8.68371 5.31996 8.94009 5.70367C9.19649 6.08739 9.33333 6.53851 9.33333 7C9.33333 7.61884 9.0875 8.21233 8.64992 8.64992C8.21233 9.0875 7.61884 9.33333 7 9.33333ZM7 5.83333C6.76925 5.83333 6.54369 5.90176 6.35183 6.02995C6.15998 6.15815 6.01044 6.34036 5.92214 6.55354C5.83384 6.76672 5.81073 7.0013 5.85575 7.22761C5.90077 7.45392 6.01188 7.6618 6.17504 7.82496C6.3382 7.98812 6.54608 8.09924 6.77239 8.14425C6.99871 8.18927 7.23328 8.16616 7.44646 8.07786C7.65964 7.98956 7.84185 7.84002 7.97005 7.64817C8.09824 7.45631 8.16667 7.23075 8.16667 7C8.16667 6.69058 8.04375 6.39384 7.82496 6.17504C7.60616 5.95625 7.30942 5.83333 7 5.83333ZM10.5 13.4167C10.5 12.4884 10.1313 11.5982 9.47487 10.9418C8.8185 10.2854 7.92826 9.91667 7 9.91667C6.07174 9.91667 5.1815 10.2854 4.52513 10.9418C3.86875 11.5982 3.5 12.4884 3.5 13.4167C3.5 13.5714 3.56146 13.7198 3.67085 13.8291C3.78025 13.9385 3.92862 14 4.08333 14C4.23804 14 4.38642 13.9385 4.49581 13.8291C4.60521 13.7198 4.66667 13.5714 4.66667 13.4167C4.66667 12.7978 4.9125 12.2043 5.35008 11.7668C5.78767 11.3292 6.38116 11.0833 7 11.0833C7.61884 11.0833 8.21233 11.3292 8.64992 11.7668C9.0875 12.2043 9.33333 12.7978 9.33333 13.4167C9.33333 13.5714 9.39479 13.7198 9.50419 13.8291C9.61358 13.9385 9.76196 14 9.91667 14C10.0714 14 10.2197 13.9385 10.3291 13.8291C10.4385 13.7198 10.5 13.5714 10.5 13.4167ZM10.5 4.66667C10.0385 4.66667 9.58738 4.52982 9.20367 4.27343C8.81995 4.01704 8.52089 3.65262 8.34428 3.22626C8.16768 2.7999 8.12147 2.33075 8.2115 1.87812C8.30153 1.4255 8.52376 1.00974 8.85008 0.683419C9.17641 0.357096 9.59217 0.134868 10.0448 0.0448354C10.4974 -0.0451968 10.9666 0.00101099 11.3929 0.177615C11.8193 0.35422 12.1837 0.653289 12.4401 1.037C12.6965 1.42072 12.8333 1.87184 12.8333 2.33333C12.8333 2.95217 12.5875 3.54567 12.1499 3.98325C11.7123 4.42084 11.1188 4.66667 10.5 4.66667ZM10.5 1.16667C10.2693 1.16667 10.0437 1.23509 9.85183 1.36329C9.65998 1.49148 9.51044 1.67369 9.42214 1.88687C9.33384 2.10005 9.31073 2.33463 9.35575 2.56094C9.40077 2.78725 9.51188 2.99513 9.67504 3.15829C9.8382 3.32145 10.0461 3.43257 10.2724 3.47758C10.4987 3.5226 10.7333 3.4995 10.9465 3.41119C11.1596 3.32289 11.3419 3.17336 11.47 2.9815C11.5982 2.78964 11.6667 2.56408 11.6667 2.33333C11.6667 2.02392 11.5437 1.72717 11.325 1.50838C11.1062 1.28958 10.8094 1.16667 10.5 1.16667ZM14 8.75C13.9991 7.82203 13.63 6.93233 12.9739 6.27615C12.3177 5.61997 11.428 5.25093 10.5 5.25C10.3453 5.25 10.1969 5.31146 10.0875 5.42086C9.97812 5.53025 9.91667 5.67863 9.91667 5.83333C9.91667 5.98804 9.97812 6.13642 10.0875 6.24581C10.1969 6.35521 10.3453 6.41667 10.5 6.41667C11.1188 6.41667 11.7123 6.6625 12.1499 7.10009C12.5875 7.53767 12.8333 8.13116 12.8333 8.75C12.8333 8.90471 12.8948 9.05308 13.0042 9.16248C13.1136 9.27188 13.262 9.33333 13.4167 9.33333C13.5714 9.33333 13.7197 9.27188 13.8291 9.16248C13.9385 9.05308 14 8.90471 14 8.75ZM3.5 4.66667C3.03851 4.66667 2.58738 4.52982 2.20367 4.27343C1.81995 4.01704 1.52089 3.65262 1.34428 3.22626C1.16768 2.7999 1.12147 2.33075 1.2115 1.87812C1.30153 1.4255 1.52376 1.00974 1.85008 0.683419C2.17641 0.357096 2.59217 0.134868 3.04479 0.0448354C3.49741 -0.0451968 3.96657 0.00101099 4.39293 0.177615C4.81929 0.35422 5.18371 0.653289 5.4401 1.037C5.69649 1.42072 5.83333 1.87184 5.83333 2.33333C5.83333 2.95217 5.5875 3.54567 5.14992 3.98325C4.71233 4.42084 4.11884 4.66667 3.5 4.66667ZM3.5 1.16667C3.26925 1.16667 3.04369 1.23509 2.85183 1.36329C2.65998 1.49148 2.51044 1.67369 2.42214 1.88687C2.33384 2.10005 2.31073 2.33463 2.35575 2.56094C2.40077 2.78725 2.51188 2.99513 2.67504 3.15829C2.8382 3.32145 3.04608 3.43257 3.27239 3.47758C3.49871 3.5226 3.73328 3.4995 3.94646 3.41119C4.15964 3.32289 4.34185 3.17336 4.47005 2.9815C4.59824 2.78964 4.66667 2.56408 4.66667 2.33333C4.66667 2.02392 4.54375 1.72717 4.32496 1.50838C4.10617 1.28958 3.80942 1.16667 3.5 1.16667ZM1.16667 8.75C1.16667 8.13116 1.4125 7.53767 1.85008 7.10009C2.28767 6.6625 2.88116 6.41667 3.5 6.41667C3.65471 6.41667 3.80308 6.35521 3.91248 6.24581C4.02187 6.13642 4.08333 5.98804 4.08333 5.83333C4.08333 5.67863 4.02187 5.53025 3.91248 5.42086C3.80308 5.31146 3.65471 5.25 3.5 5.25C2.57203 5.25093 1.68233 5.61997 1.02615 6.27615C0.369973 6.93233 0.000926584 7.82203 0 8.75C0 8.90471 0.0614582 9.05308 0.170854 9.16248C0.280251 9.27188 0.428624 9.33333 0.583333 9.33333C0.738043 9.33333 0.886416 9.27188 0.995812 9.16248C1.10521 9.05308 1.16667 8.90471 1.16667 8.75Z" fill="#A39898"/>
</g>
<defs>
<clipPath id="clip0_5_24977">
<rect width="14" height="14" fill="white"/>
</clipPath>
</defs>
</svg>
