<svg width="18" height="19" viewBox="0 0 18 19" fill="none" xmlns="http://www.w3.org/2000/svg">
<path d="M17.0154 8.03831L16.6298 8.99214C16.5081 9.31684 16.5081 9.66184 16.6298 9.98655L17.0154 10.9404C17.2387 11.5086 17.056 12.158 16.5487 12.5233L15.6963 13.1118C15.4122 13.3148 15.2295 13.6192 15.1484 13.9439L14.9657 14.9586C14.844 15.5674 14.3366 16.0139 13.7278 16.0342L12.6928 16.0748C12.3478 16.0951 12.0231 16.2371 11.7795 16.4807L11.0692 17.2315C10.6431 17.678 9.97336 17.7795 9.44572 17.4751L8.55278 16.9474C8.24836 16.7648 7.90336 16.7242 7.55836 16.8054L6.54366 17.0489C5.95513 17.191 5.32601 16.9068 5.04189 16.3589L4.57513 15.4254C4.41278 15.121 4.14895 14.8774 3.82425 14.776L2.85013 14.4513C2.2616 14.2483 1.8963 13.6801 1.95719 13.0713L2.05866 12.0363C2.09925 11.6913 1.99778 11.3463 1.77454 11.0824L1.12513 10.2707C0.73954 9.78361 0.73954 9.1139 1.12513 8.62684L1.77454 7.81508C1.99778 7.55125 2.09925 7.20625 2.05866 6.86126L1.95719 5.82626C1.8963 5.21743 2.2616 4.6492 2.85013 4.44625L3.82425 4.12155C4.14895 4.02008 4.41278 3.77655 4.57513 3.47214L5.04189 2.53861C5.32601 1.99067 5.93483 1.70655 6.54366 1.84861L7.55836 2.09214C7.88307 2.17331 8.24836 2.13273 8.55278 1.95008L9.44572 1.42243C9.97336 1.11802 10.6431 1.1992 11.0692 1.66596L11.7795 2.41684C12.0231 2.66037 12.3478 2.82273 12.6928 2.82273L13.7278 2.86331C14.3366 2.88361 14.8642 3.33008 14.9657 3.9389L15.1484 4.95361C15.2092 5.29861 15.4122 5.60302 15.6963 5.78567L16.5487 6.3742C17.056 6.82067 17.259 7.47008 17.0154 8.03831Z" fill="#00D566"/>
<g opacity="0.15">
<path d="M13.2607 15.9937C13.1592 15.9937 13.0577 16.014 12.9766 16.0343L13.7072 15.9937C13.8086 15.9937 13.8898 15.9734 13.9913 15.9531L13.2607 15.9937Z" fill="black"/>
</g>
<path d="M5.75195 8.2004L8.28872 11.1025L13.484 6.92188" fill="#00D566"/>
<path d="M7.67944 12.6036C7.39532 12.6036 7.1112 12.4818 6.90826 12.2586L4.3715 9.35652C4.0062 8.93034 4.04679 8.30123 4.45267 7.91564C4.87885 7.55034 5.50797 7.59093 5.89356 7.99681L7.8012 10.1683L12.2456 6.59652C12.6718 6.25152 13.3212 6.3124 13.6662 6.75887C14.0112 7.20534 13.9503 7.83446 13.5038 8.17946L8.30856 12.3803C8.12591 12.5224 7.90267 12.6036 7.67944 12.6036Z" fill="white"/>
</svg>
