<svg width="47" height="48" viewBox="0 0 47 48" fill="none" xmlns="http://www.w3.org/2000/svg">
<g clip-path="url(#clip0_5_19059)">
<g clip-path="url(#clip1_5_19059)">
<path d="M11.055 9.59473H17.9289C18.7872 9.59473 19.4829 10.2762 19.4829 11.1168V22.5106C19.4829 23.3512 18.7872 24.0327 17.9289 24.0327H11.055C10.1968 24.0327 9.50103 23.3512 9.50103 22.5106V11.1168C9.50103 10.2762 10.1968 9.59473 11.055 9.59473Z" fill="#913D34"/>
<path d="M11.9441 9.59473H18.8181C19.6763 9.59473 20.3721 10.2762 20.3721 11.1168V22.5106C20.3721 23.3512 19.6763 24.0327 18.8181 24.0327H11.9441C11.0859 24.0327 10.3902 23.3512 10.3902 22.5106V11.1168C10.3902 10.2762 11.0859 9.59473 11.9441 9.59473Z" fill="#A0463A"/>
<path d="M10.3902 15.7032H15.9031C15.9514 15.7032 15.9893 15.666 15.9893 15.6188C15.9893 15.5715 15.9514 15.5344 15.9031 15.5344H10.3902C10.3419 15.5344 10.304 15.5715 10.304 15.6188C10.304 15.666 10.3419 15.7032 10.3902 15.7032Z" fill="#E8821C"/>
<path d="M12.8916 37.2186C12.8916 37.3434 12.7882 37.4447 12.6607 37.4447C12.5333 37.4447 12.4299 37.3434 12.4299 37.2186C12.4299 37.0937 12.5333 36.9924 12.6607 36.9924C12.7882 36.9924 12.8916 37.0937 12.8916 37.2186Z" fill="white"/>
<path d="M10.3589 40.58L6.42402 40.4078L6.59974 36.1925L10.0384 36.071L10.3589 40.58Z" fill="#F98875"/>
<path d="M27.5902 23.8942C27.5902 23.8942 30.3605 30.7555 30.3053 36.9485C30.2502 43.1449 28.3345 49.8475 28.3345 49.8475L19.9238 50.0028C19.9238 50.0028 21.3365 43.425 21.4571 41.9097C21.5777 40.3943 21.8946 30.8027 21.8946 30.8027L21.9877 24.2857L27.5937 23.8909L27.5902 23.8942Z" fill="#B56A4D"/>
<path d="M16.9712 23.8943C16.9712 23.8943 16.7093 27.7316 16.6301 29.7059C16.5543 31.6802 14.2354 34.3262 12.3507 34.9303C10.4659 35.5344 8.63286 35.3049 8.63286 35.3049L8.39167 42.4632C8.39167 42.4632 14.7522 44.1338 19.2212 41.3933C23.6901 38.6529 23.4007 32.9458 23.4007 32.9458L23.7314 23.739L16.9712 23.8943Z" fill="#B56A4D"/>
<path d="M21.485 10.4382C24.8617 10.4315 27.4183 12.9863 27.5562 16.2904L27.6389 18.258C27.6389 18.258 27.9524 24.4307 27.7836 24.667C27.6147 24.9032 24.4586 25.6153 21.5367 25.2002C18.6149 24.7851 17.147 24.2721 17.0127 24.1506C16.9265 24.0764 15.6861 20.4787 16.0823 16.5199C16.2029 15.3015 15.693 13.1314 16.2271 11.9165C16.7198 10.796 18.2634 10.5834 18.2634 10.5631C18.2668 10.5125 19.6761 10.445 21.485 10.4416V10.4382Z" fill="#FCE4E0"/>
<path d="M21.6777 39.0174C21.7018 39.0174 21.7294 39.0072 21.7466 38.9836C25.5747 34.2351 24.1241 27.4076 23.9139 26.5166L26.3672 26.2837C26.4154 26.2804 26.4499 26.2365 26.443 26.1926C26.4395 26.1454 26.4016 26.115 26.3499 26.115L23.7968 26.358C23.7726 26.358 23.7485 26.3749 23.7347 26.3951C23.721 26.4154 23.7141 26.4424 23.721 26.466C23.7416 26.5402 25.6367 33.8841 21.6088 38.879C21.5778 38.9161 21.5847 38.9701 21.6226 38.9971C21.6398 39.0106 21.657 39.014 21.6777 39.014V39.0174Z" fill="#A0463A"/>
<path d="M17.7324 26.4862C19.3208 26.4862 19.469 25.2746 19.4724 25.2611C19.4758 25.2138 19.4448 25.1733 19.3966 25.1699C19.3449 25.1666 19.307 25.1969 19.3001 25.2442C19.2967 25.2914 19.1623 26.3613 17.6462 26.3174C17.6014 26.3275 17.5601 26.3545 17.5566 26.3984C17.5566 26.4457 17.5911 26.4828 17.6393 26.4862C17.6703 26.4862 17.7014 26.4862 17.7324 26.4862Z" fill="#A0463A"/>
<path d="M3.31279 35.2712C3.04747 35.386 3.11294 37.087 3.06126 37.2287C3.00613 37.3704 3.964 37.8801 3.78828 38.1399C3.61255 38.3998 3.11294 38.6934 2.85797 39.0782C2.62022 39.4359 2.04136 45.6525 2.0896 46.8709C2.09305 46.9721 2.18952 47.0498 2.29978 47.0396C2.57543 47.0194 3.11294 46.9654 3.65734 46.8135C4.14662 46.6751 4.64968 46.4591 4.97012 46.1149C5.81429 45.2239 6.31045 43.2327 6.88242 42.5476C7.45439 41.8591 8.7396 41.1538 8.55353 40.6948C8.36747 40.2358 7.40271 39.311 7.66802 38.1332C7.93333 36.9553 8.28822 36.4322 8.01947 36.0846C7.85063 35.8652 6.12439 35.5547 4.81162 35.3826C4.04325 35.2814 3.41271 35.2274 3.31623 35.2712H3.31279Z" fill="#507849"/>
<path d="M16.3441 34.5017C16.3717 34.5017 16.4027 34.5017 16.4303 34.495C16.5819 34.4646 16.6404 34.3802 16.6611 34.3127C16.8058 33.8638 15.717 32.7332 15.5 32.5139C15.4724 32.4869 15.4345 32.4801 15.4 32.497C15.3656 32.5139 15.3484 32.5476 15.3518 32.5847C15.3587 32.6455 15.5551 34.0495 16.0719 34.414C16.1581 34.4747 16.2511 34.5051 16.3441 34.5051V34.5017ZM15.5689 32.8311C16.0271 33.3272 16.575 34.0225 16.4957 34.2621C16.4888 34.2857 16.4682 34.3161 16.3958 34.3296C16.32 34.3465 16.2442 34.3296 16.1718 34.2756C15.8411 34.0427 15.6481 33.2564 15.5689 32.8345V32.8311Z" fill="#A0463A"/>
<path d="M3.31616 35.2373C3.05085 35.352 3.10254 37.0631 3.04741 37.2049C2.99228 37.3466 3.94671 37.863 3.76754 38.1262C3.59181 38.3895 3.08531 38.6797 2.83034 39.0645C2.58914 39.4256 1.96549 45.6793 2.00339 46.9044C2.00684 47.0057 2.09987 47.0833 2.21013 47.0766C2.48578 47.0597 3.02329 47.0091 3.56769 46.8572L4.80811 35.3554C4.03974 35.2474 3.41264 35.1934 3.31272 35.2339L3.31616 35.2373Z" fill="#FCE4E0"/>
<path d="M20.2753 8.84888L20.2822 10.8806C20.2822 10.8806 20.6577 11.4645 21.8706 11.5556C22.7733 11.6231 23.0903 11.424 23.0903 11.424L22.9594 10.3946L22.8319 9.39224L20.6405 8.9265L20.2718 8.84888H20.2753Z" fill="#F77E6D"/>
<path d="M20.644 8.92627C20.6509 8.98027 20.6715 9.04777 20.706 9.12202C21.1746 10.1345 22.4426 10.3505 22.9663 10.3944L22.8388 9.39201L20.6474 8.92627H20.644Z" fill="#583A3A"/>
<path d="M23.2834 4.7583C23.2834 4.7583 24.3791 7.303 23.9553 8.72047C23.5315 10.1379 22.2118 9.89832 21.4228 9.61483C20.6337 9.33133 20.2754 8.85209 20.2754 8.85209C20.2754 8.85209 19.5346 9.08834 19.0488 8.40998C18.5629 7.73161 18.8765 6.96213 19.3003 6.79001C19.7241 6.61789 20.2237 6.92163 20.2237 6.92163L19.8412 6.18252C19.8412 6.18252 21.5434 2.46334 23.2868 4.76505L23.2834 4.7583Z" fill="#F77E6D"/>
<path d="M20.1479 8.01861C20.1755 8.01861 20.1996 8.00511 20.2168 7.98486C20.2444 7.94774 20.2341 7.89374 20.1962 7.86674L19.259 7.212C19.2211 7.185 19.1659 7.19175 19.1384 7.23225C19.1108 7.26937 19.1212 7.32337 19.1591 7.35037L20.0963 8.00511C20.0963 8.00511 20.1273 8.02199 20.1479 8.02199V8.01861Z" fill="#583A3A"/>
<path d="M19.2969 8.00829C19.2969 8.00829 19.3107 8.00829 19.3176 8.00829L19.9343 7.84967C19.9791 7.83954 20.0067 7.7923 19.9964 7.74842C19.9826 7.70455 19.9378 7.67755 19.8896 7.68767L19.2728 7.84629C19.228 7.85642 19.2004 7.90367 19.2108 7.94754C19.2211 7.98467 19.2556 8.01167 19.2935 8.01167L19.2969 8.00829Z" fill="#583A3A"/>
<path d="M21.5501 5.83169C21.5742 5.83169 21.5983 5.82157 21.6121 5.80132C21.8808 5.46045 22.2082 5.62919 22.222 5.63594C22.2599 5.65619 22.3081 5.64269 22.3288 5.60557C22.3494 5.56845 22.3357 5.5212 22.2978 5.50095C22.1393 5.41657 21.7671 5.35245 21.4881 5.71019C21.4605 5.74394 21.4674 5.79119 21.5018 5.81819C21.5156 5.82832 21.5328 5.83507 21.5501 5.83507V5.83169Z" fill="#583A3A"/>
<path d="M23.5625 5.73702C23.5866 5.73702 23.6107 5.7269 23.6279 5.70665C23.6589 5.66952 23.6521 5.6189 23.6141 5.58852C23.3006 5.33878 22.9767 5.52102 22.9629 5.53115C22.9216 5.55477 22.9078 5.6054 22.9319 5.6459C22.956 5.6864 23.0077 5.6999 23.0491 5.67627C23.0594 5.66952 23.2868 5.54465 23.5039 5.72015C23.5211 5.73365 23.5383 5.7404 23.559 5.7404L23.5625 5.73702Z" fill="#583A3A"/>
<path d="M23.0664 8.00509C23.1043 8.00509 23.1388 7.98146 23.1491 7.94434C23.3937 7.12423 22.9596 6.54374 22.9389 6.52011C22.9114 6.48299 22.8562 6.47624 22.8183 6.50324C22.7804 6.53024 22.7735 6.58424 22.8011 6.62136C22.8045 6.62811 23.2042 7.16135 22.9837 7.89709C22.9699 7.94096 22.9975 7.98821 23.0423 8.00171C23.0492 8.00171 23.0595 8.00509 23.0664 8.00509Z" fill="#583A3A"/>
<path d="M23.5558 6.71253C23.5558 6.71253 23.5696 6.71253 23.5799 6.71253C23.6247 6.69903 23.6523 6.65516 23.6385 6.60791L23.5076 6.14217C23.4938 6.09829 23.449 6.07129 23.4008 6.08479C23.356 6.09829 23.3284 6.14217 23.3422 6.18941L23.4731 6.65516C23.4835 6.69228 23.5179 6.71591 23.5558 6.71591V6.71253Z" fill="#583A3A"/>
<path d="M22.2428 6.7428C22.2428 6.7428 22.2566 6.7428 22.267 6.7428C22.3118 6.7293 22.3393 6.68543 22.3255 6.63818L22.1946 6.17244C22.1808 6.12857 22.136 6.10157 22.0878 6.11507C22.043 6.12857 22.0154 6.17244 22.0292 6.21969L22.1601 6.68543C22.1705 6.72255 22.2049 6.74618 22.2428 6.74618V6.7428Z" fill="#583A3A"/>
<path d="M23.5039 5.33205C23.5039 5.33205 23.2765 4.92368 22.7597 4.92368C22.2428 4.92368 21.9396 5.28143 21.9396 5.28143C21.9396 5.28143 22.1705 6.13529 21.4676 6.5909C20.7647 7.04652 20.2203 6.92165 20.2203 6.92165H19.1004L19.0074 5.88217L20.806 4.45119L22.3634 4.01245L23.4212 4.61656L23.5005 5.33543L23.5039 5.33205Z" fill="#583A3A"/>
<path d="M22.6562 8.48426C22.6769 8.48426 22.6976 8.48426 22.7148 8.48426C22.7631 8.48088 22.7975 8.43701 22.7906 8.39313C22.7872 8.34588 22.7493 8.31213 22.6976 8.31551C22.6804 8.31551 22.2738 8.34926 22.0981 7.98814C22.0774 7.94764 22.0257 7.92739 21.9844 7.94764C21.943 7.96789 21.9223 8.01851 21.943 8.05901C22.1084 8.39988 22.4495 8.48426 22.6528 8.48426H22.6562Z" fill="#583A3A"/>
<path d="M19.3864 9.82759C19.3864 9.82759 20.6165 12.649 20.8336 16.2231C21.0506 19.7972 17.5465 22.3824 17.5465 22.3824C17.5465 22.3824 18.401 20.624 18.6732 18.4843C18.9454 16.348 17.1847 10.3946 17.1847 10.3946C17.1847 10.3946 18.625 9.82422 19.3899 9.82422L19.3864 9.82759Z" fill="#A0463A"/>
<path d="M19.0213 6.65843C19.0213 6.65843 24.5515 4.94059 24.8961 4.47822C25.2372 4.01585 23.4317 4.4411 23.4317 4.4411C23.4317 4.4411 22.4945 2.24401 20.0206 3.28012C17.7637 4.2251 19.0248 6.6618 19.0248 6.6618L19.0213 6.65843Z" fill="#FF5555"/>
<path d="M29.7923 13.5164C29.7923 13.5164 30.826 15.9936 29.527 16.7765C28.228 17.5595 27.1254 16.2771 26.96 15.5919C26.7912 14.9068 29.7957 13.5197 29.7957 13.5197L29.7923 13.5164Z" fill="#E87164"/>
<path d="M24.8166 16.1656H26.0501C26.3981 16.1656 26.6807 15.8889 26.6807 15.548C26.6807 15.2072 26.3981 14.9304 26.0501 14.9304H24.8166C24.4686 14.9304 24.1861 15.2072 24.1861 15.548C24.1861 15.8889 24.4686 16.1656 24.8166 16.1656Z" fill="white"/>
<path d="M23.1353 10.4789C23.1353 10.4789 23.1422 10.0705 22.87 10.2089C22.5978 10.3473 22.0362 10.354 21.5228 10.2764C21.0094 10.1988 20.3961 9.71954 20.148 9.82754C19.8999 9.93554 19.9206 11.2484 19.9206 11.2484C19.9206 11.2484 20.2927 11.9605 21.6847 11.9976C23.0768 12.0347 23.4902 11.2113 23.4902 11.2113L23.1353 10.4789Z" fill="#FCE4E0"/>
<path d="M30.8121 15.3354L27.3941 16.1218L27.7077 23.5467C27.7077 23.5467 29.3374 22.9088 30.3056 20.8467C31.2704 18.7846 30.8121 15.3354 30.8121 15.3354Z" fill="#FCE4E0"/>
<path d="M27.6456 22.1291C27.6973 22.1291 27.7352 22.0886 27.7317 22.0413L27.5388 17.5324C27.5388 17.4885 27.4974 17.4514 27.4526 17.4514C27.4009 17.4514 27.363 17.4919 27.3665 17.5392L27.5594 22.0481C27.5594 22.092 27.6008 22.1291 27.6456 22.1291Z" fill="#507849"/>
<path d="M21.7054 10.9919C21.7536 10.9919 21.7915 10.9548 21.7915 10.9075C21.7915 10.8603 21.7536 10.8231 21.7054 10.8231C21.695 10.8231 20.6855 10.8063 20.0067 10.3304C19.9688 10.3034 19.9137 10.3102 19.8861 10.3507C19.8585 10.3878 19.8689 10.4418 19.9068 10.4688C20.6303 10.975 21.6571 10.9919 21.7019 10.9953L21.7054 10.9919Z" fill="#507849"/>
<path d="M18.1669 14.2623C18.508 14.1745 19.0076 14.7347 19.0076 14.7347C19.0076 14.7347 21.5918 14.2285 21.802 14.5458C22.0122 14.863 21.5987 15.43 21.5987 15.43C21.5987 15.43 22.181 16.0307 22.2224 16.321C22.2637 16.6112 22.6186 17.9443 22.0501 18.4911C21.4816 19.0378 18.129 18.9129 18.129 18.9129L16.8438 16.1522C16.8438 16.1522 17.8292 14.3534 18.1704 14.2656L18.1669 14.2623Z" fill="#F77E6D"/>
<path d="M18.67 14.8866C18.67 14.8866 18.6803 14.8866 18.6872 14.8866L20.3549 14.5423C20.3997 14.5322 20.4307 14.4883 20.4204 14.4411C20.41 14.3972 20.3652 14.3668 20.317 14.377L18.6493 14.7212C18.6045 14.7313 18.5735 14.7752 18.5839 14.8224C18.5908 14.8629 18.6287 14.8899 18.6666 14.8899L18.67 14.8866Z" fill="#583A3A"/>
<path d="M16.8401 15.5985L18.5146 19.3481L16.971 23.8908C16.971 23.8908 12.3918 23.7355 12.161 18.0352C11.9301 12.335 17.3604 10.7656 17.3604 10.7656L16.8435 15.5985H16.8401Z" fill="#FCE4E0"/>
<path d="M26.2948 13.7087C26.2948 13.7087 24.9097 12.9122 24.827 13.5366C24.7443 14.1609 26.8254 15.2308 26.8254 15.2308L27.8936 14.738L26.2914 13.7121L26.2948 13.7087Z" fill="#E87164"/>
<path d="M13.1465 17.2693C13.1706 17.2693 13.1981 17.2592 13.2119 17.239C14.1526 16.0948 16.8091 16.2332 16.8367 16.2366C16.8849 16.2366 16.9263 16.2028 16.9263 16.159C16.9263 16.1117 16.8918 16.0712 16.8436 16.0712C16.7299 16.0645 14.0699 15.9261 13.0741 17.1377C13.0431 17.1748 13.05 17.2288 13.0879 17.2558C13.1051 17.2693 13.1223 17.2761 13.143 17.2761L13.1465 17.2693Z" fill="#507849"/>
<path d="M15.0759 16.3107C15.1827 16.3107 15.2723 16.3107 15.3412 16.3107C15.3791 16.3107 15.4101 16.2871 15.4204 16.25C15.4308 16.2162 15.4204 16.1791 15.3894 16.1555C15.3343 16.1183 14.0319 15.224 13.4496 15.737C13.329 15.845 13.3324 15.9361 13.3565 15.9935C13.4702 16.2702 14.5005 16.3107 15.0793 16.3107H15.0759ZM13.9216 15.7471C14.2765 15.7471 14.7348 15.9597 15.0483 16.142C14.2386 16.142 13.5633 16.0508 13.515 15.9327C13.515 15.926 13.5219 15.9023 13.5667 15.8652C13.6597 15.7842 13.7838 15.7505 13.9251 15.7505L13.9216 15.7471Z" fill="#507849"/>
<path d="M23.1354 10.4789C23.1354 10.4789 25.4302 13.2666 26.3605 15.3894C27.2908 17.5122 27.5182 19.2368 27.5182 19.2368C27.5182 19.2368 28.4554 14.5896 26.8463 12.298C25.2372 10.0098 23.1354 10.4789 23.1354 10.4789Z" fill="#A0463A"/>
<path d="M28.8378 14.2014C28.8378 14.2014 30.4365 14.2115 30.0265 14.9743C29.6199 15.737 26.8014 16.3783 26.4052 15.575C26.0089 14.7718 28.8343 14.2014 28.8343 14.2014H28.8378Z" fill="#F77E6D"/>
<path d="M28.5277 12.9426C28.5277 12.9426 30.1265 12.9528 29.7164 13.7155C29.3099 14.4782 26.4914 15.1195 26.0951 14.3162C25.6989 13.513 28.5243 12.9426 28.5243 12.9426H28.5277Z" fill="#F77E6D"/>
<path d="M27.8731 11.8153C27.8731 11.8153 29.2686 11.5892 29.0308 12.3148C28.7931 13.0404 26.4363 14.0158 25.9677 13.3745C25.4991 12.7333 27.8766 11.8187 27.8766 11.8187L27.8731 11.8153Z" fill="#F77E6D"/>
<path d="M26.6051 13.6613C26.6051 13.6613 26.6223 13.6613 26.6326 13.6579L28.5553 13.0235C28.6001 13.01 28.6242 12.9593 28.6104 12.9155C28.5966 12.8716 28.5449 12.848 28.5001 12.8615L26.5775 13.4959C26.5327 13.5094 26.5086 13.5601 26.5224 13.6039C26.5361 13.6377 26.5672 13.6613 26.6051 13.6613Z" fill="#583A3A"/>
<path d="M27.122 14.8191C27.122 14.8191 27.1358 14.8191 27.1427 14.8191L29.1101 14.3028C29.1549 14.2893 29.1825 14.2454 29.1721 14.1981C29.1584 14.1543 29.1136 14.1273 29.0653 14.1374L27.0979 14.6537C27.0531 14.6672 27.0255 14.7111 27.0359 14.7584C27.0462 14.7955 27.0807 14.8225 27.1186 14.8225L27.122 14.8191Z" fill="#583A3A"/>
</g>
</g>
<defs>
<clipPath id="clip0_5_19059">
<rect width="47" height="48" fill="white"/>
</clipPath>
<clipPath id="clip1_5_19059">
<rect width="31" height="53" fill="white" transform="matrix(-1 0 0 1 33 3)"/>
</clipPath>
</defs>
</svg>
