<svg width="24" height="24" viewBox="0 0 24 24" fill="none" xmlns="http://www.w3.org/2000/svg">
<g clip-path="url(#clip0_9208_3002)">
<rect x="5" y="2" width="14" height="14" rx="7" fill="white"/>
<path d="M9.7002 13.0258C10.7479 14.747 13.2422 14.7422 14.2931 13.04L13.3941 12.6919C13.3562 12.6772 13.3213 12.6513 13.2948 12.6165C13.2653 12.5776 13.2477 12.5298 13.2476 12.4786L13.2469 11.58C12.8917 11.8125 12.4677 11.9482 12.0124 11.9482C11.5103 11.9482 11.0696 11.809 10.7103 11.5767V12.4772C10.7103 12.538 10.6913 12.5825 10.664 12.6162C10.6124 12.6798 10.5307 12.7039 10.487 12.7208L9.7002 13.0258Z" fill="#FFBD86"/>
<path d="M16.2985 13.8168L14.1568 12.9874C13.1903 14.6316 10.799 14.6363 9.83591 12.9734L7.68945 13.8056C9.92572 16.2219 13.8533 16.2058 16.2985 13.8168Z" fill="#60B8FE"/>
<path d="M17.3956 23.4903L15.4742 20.0005C15.4137 19.8907 15.2982 19.8225 15.1729 19.8225H8.82733C8.70198 19.8225 8.58653 19.8907 8.52606 20.0005L6.60466 23.4903C6.47847 23.7196 6.64427 24.0001 6.90592 24.0001H17.0943C17.356 24.0001 17.5217 23.7195 17.3956 23.4903Z" fill="#43CB8E"/>
<path d="M8.89769 23.4903L10.8191 20.0005C10.8796 19.8907 10.995 19.8225 11.1204 19.8225H8.82733C8.70198 19.8225 8.58653 19.8907 8.52606 20.0005L6.60466 23.4903C6.47847 23.7196 6.64427 24.0001 6.90592 24.0001H9.19895C8.9373 24.0001 8.7715 23.7195 8.89769 23.4903Z" fill="#00BA66"/>
<path d="M12.0001 0C7.00257 0 2.96335 3.9997 2.91667 8.99691C2.88034 12.8854 5.28774 16.2158 8.69635 17.5473C9.02382 17.6752 9.30432 17.9001 9.49356 18.1964L11.6473 21.5693C11.8119 21.8269 12.1882 21.8269 12.3528 21.5693L14.5064 18.1965C14.6959 17.8997 14.977 17.6749 15.3049 17.5468C18.6875 16.2249 21.0838 12.9344 21.0838 9.08367C21.0837 4.06692 17.0168 4.6875e-05 12.0001 0ZM16.521 13.6047C14.0241 16.1016 9.97585 16.1016 7.47896 13.6047C4.98207 11.1078 4.98207 7.05961 7.47896 4.56272C9.97585 2.06583 14.0241 2.06583 16.521 4.56272C19.0179 7.05961 19.0179 11.1079 16.521 13.6047Z" fill="#EBCC9D"/>
<path d="M14.723 8.05859C14.6476 8.12263 14.5503 8.16158 14.4441 8.16158C14.3857 8.16158 14.2805 8.15534 14.2255 8.14362V9.83164C14.2255 9.85264 14.2244 9.87336 14.2239 9.89422C14.789 9.93959 15.3365 9.5232 15.3365 9.01587C15.3364 8.62958 15.0876 8.18258 14.723 8.05859Z" fill="#FFBD86"/>
<path d="M9.73379 9.83174V8.16163H9.4029C9.31393 8.16163 9.22918 8.14396 9.15146 8.11255C8.85033 8.26428 8.6228 8.66638 8.6228 9.01592C8.6228 9.5226 9.16932 9.93974 9.73533 9.89422C9.73472 9.87341 9.73379 9.85264 9.73379 9.83174Z" fill="#FFBD86"/>
<path d="M13.6193 7.38535C13.6193 7.34115 13.5602 7.32592 13.5393 7.36492C13.2704 7.86779 12.7406 8.21007 12.1304 8.21007H9.6853V9.83185C9.6853 11.0138 10.6114 12.0932 12.0122 12.0932C13.2591 12.0932 14.2736 11.0788 14.2736 9.83185V8.19212C13.9011 8.11309 13.6193 7.7806 13.6193 7.38535Z" fill="#FED2A4"/>
<path d="M14.1267 5.23329C13.9107 5.24988 13.7124 5.11404 13.6708 4.90137C13.6008 4.5432 13.4234 4.18774 12.7307 4.18774H10.3273C9.4453 4.18774 8.73022 4.90278 8.73022 5.78487V7.58595C8.73022 7.95734 9.0313 8.25842 9.40269 8.25842H12.1304C12.7406 8.25842 13.2704 7.91614 13.5393 7.41326C13.5602 7.37426 13.6193 7.38949 13.6193 7.4337C13.6193 7.88731 13.9904 8.25842 14.4441 8.25842C14.6818 8.25842 14.8763 8.06388 14.8763 7.82613V5.94874C14.8763 5.51778 14.5004 5.20456 14.1267 5.23329Z" fill="#665E68"/>
<path d="M10.1522 7.58595V5.78487C10.1522 4.90282 10.8673 4.18774 11.7493 4.18774H10.3273C9.4453 4.18774 8.73022 4.90278 8.73022 5.78487V7.58595C8.73022 7.95734 9.0313 8.25842 9.40269 8.25842H10.8247C10.4533 8.25842 10.1522 7.95734 10.1522 7.58595Z" fill="#544E55"/>
</g>
<defs>
<clipPath id="clip0_9208_3002">
<rect width="24" height="24" fill="white"/>
</clipPath>
</defs>
</svg>
